<?xml version="1.0" encoding="utf-8"?>
<svg xmlns="http://www.w3.org/2000/svg" xmlns:xlink="http://www.w3.org/1999/xlink" width="600" height="400" viewBox="0 0 2400 1600">
<defs>
  <clipPath id="clip8400">
    <rect x="0" y="0" width="2400" height="1600"/>
  </clipPath>
</defs>
<polygon clip-path="url(#clip8400)" points="
0,1600 2400,1600 2400,0 0,0 
  " fill="#ffffff" fill-rule="evenodd" fill-opacity="1"/>
<defs>
  <clipPath id="clip8401">
    <rect x="480" y="0" width="1681" height="1600"/>
  </clipPath>
</defs>
<polygon clip-path="url(#clip8400)" points="
202.373,1425.62 2352.76,1425.62 2352.76,121.675 202.373,121.675 
  " fill="#ffffff" fill-rule="evenodd" fill-opacity="1"/>
<defs>
  <clipPath id="clip8402">
    <rect x="202" y="121" width="2151" height="1305"/>
  </clipPath>
</defs>
<polyline clip-path="url(#clip8402)" style="stroke:#000000; stroke-width:2; stroke-opacity:0.1; fill:none" points="
  263.233,1425.62 263.233,121.675 
  "/>
<polyline clip-path="url(#clip8402)" style="stroke:#000000; stroke-width:2; stroke-opacity:0.1; fill:none" points="
  668.965,1425.62 668.965,121.675 
  "/>
<polyline clip-path="url(#clip8402)" style="stroke:#000000; stroke-width:2; stroke-opacity:0.1; fill:none" points="
  1074.7,1425.62 1074.7,121.675 
  "/>
<polyline clip-path="url(#clip8402)" style="stroke:#000000; stroke-width:2; stroke-opacity:0.1; fill:none" points="
  1480.43,1425.62 1480.43,121.675 
  "/>
<polyline clip-path="url(#clip8402)" style="stroke:#000000; stroke-width:2; stroke-opacity:0.1; fill:none" points="
  1886.16,1425.62 1886.16,121.675 
  "/>
<polyline clip-path="url(#clip8402)" style="stroke:#000000; stroke-width:2; stroke-opacity:0.1; fill:none" points="
  2291.9,1425.62 2291.9,121.675 
  "/>
<polyline clip-path="url(#clip8402)" style="stroke:#000000; stroke-width:2; stroke-opacity:0.1; fill:none" points="
  202.373,1388.71 2352.76,1388.71 
  "/>
<polyline clip-path="url(#clip8402)" style="stroke:#000000; stroke-width:2; stroke-opacity:0.1; fill:none" points="
  202.373,1142.69 2352.76,1142.69 
  "/>
<polyline clip-path="url(#clip8402)" style="stroke:#000000; stroke-width:2; stroke-opacity:0.1; fill:none" points="
  202.373,896.66 2352.76,896.66 
  "/>
<polyline clip-path="url(#clip8402)" style="stroke:#000000; stroke-width:2; stroke-opacity:0.1; fill:none" points="
  202.373,650.633 2352.76,650.633 
  "/>
<polyline clip-path="url(#clip8402)" style="stroke:#000000; stroke-width:2; stroke-opacity:0.1; fill:none" points="
  202.373,404.606 2352.76,404.606 
  "/>
<polyline clip-path="url(#clip8402)" style="stroke:#000000; stroke-width:2; stroke-opacity:0.1; fill:none" points="
  202.373,158.579 2352.76,158.579 
  "/>
<polyline clip-path="url(#clip8400)" style="stroke:#000000; stroke-width:4; stroke-opacity:1; fill:none" points="
  202.373,1425.62 2352.76,1425.62 
  "/>
<polyline clip-path="url(#clip8400)" style="stroke:#000000; stroke-width:4; stroke-opacity:1; fill:none" points="
  202.373,1425.62 202.373,121.675 
  "/>
<polyline clip-path="url(#clip8400)" style="stroke:#000000; stroke-width:4; stroke-opacity:1; fill:none" points="
  263.233,1425.62 263.233,1406.06 
  "/>
<polyline clip-path="url(#clip8400)" style="stroke:#000000; stroke-width:4; stroke-opacity:1; fill:none" points="
  668.965,1425.62 668.965,1406.06 
  "/>
<polyline clip-path="url(#clip8400)" style="stroke:#000000; stroke-width:4; stroke-opacity:1; fill:none" points="
  1074.7,1425.62 1074.7,1406.06 
  "/>
<polyline clip-path="url(#clip8400)" style="stroke:#000000; stroke-width:4; stroke-opacity:1; fill:none" points="
  1480.43,1425.62 1480.43,1406.06 
  "/>
<polyline clip-path="url(#clip8400)" style="stroke:#000000; stroke-width:4; stroke-opacity:1; fill:none" points="
  1886.16,1425.62 1886.16,1406.06 
  "/>
<polyline clip-path="url(#clip8400)" style="stroke:#000000; stroke-width:4; stroke-opacity:1; fill:none" points="
  2291.9,1425.62 2291.9,1406.06 
  "/>
<polyline clip-path="url(#clip8400)" style="stroke:#000000; stroke-width:4; stroke-opacity:1; fill:none" points="
  202.373,1388.71 234.629,1388.71 
  "/>
<polyline clip-path="url(#clip8400)" style="stroke:#000000; stroke-width:4; stroke-opacity:1; fill:none" points="
  202.373,1142.69 234.629,1142.69 
  "/>
<polyline clip-path="url(#clip8400)" style="stroke:#000000; stroke-width:4; stroke-opacity:1; fill:none" points="
  202.373,896.66 234.629,896.66 
  "/>
<polyline clip-path="url(#clip8400)" style="stroke:#000000; stroke-width:4; stroke-opacity:1; fill:none" points="
  202.373,650.633 234.629,650.633 
  "/>
<polyline clip-path="url(#clip8400)" style="stroke:#000000; stroke-width:4; stroke-opacity:1; fill:none" points="
  202.373,404.606 234.629,404.606 
  "/>
<polyline clip-path="url(#clip8400)" style="stroke:#000000; stroke-width:4; stroke-opacity:1; fill:none" points="
  202.373,158.579 234.629,158.579 
  "/>
<g clip-path="url(#clip8400)">
<text style="fill:#000000; fill-opacity:1; font-family:Arial,Helvetica Neue,Helvetica,sans-serif; font-size:48px; text-anchor:middle;" transform="rotate(0, 263.233, 1479.62)" x="263.233" y="1479.62">0</text>
</g>
<g clip-path="url(#clip8400)">
<text style="fill:#000000; fill-opacity:1; font-family:Arial,Helvetica Neue,Helvetica,sans-serif; font-size:48px; text-anchor:middle;" transform="rotate(0, 668.965, 1479.62)" x="668.965" y="1479.62">5</text>
</g>
<g clip-path="url(#clip8400)">
<text style="fill:#000000; fill-opacity:1; font-family:Arial,Helvetica Neue,Helvetica,sans-serif; font-size:48px; text-anchor:middle;" transform="rotate(0, 1074.7, 1479.62)" x="1074.7" y="1479.62">10</text>
</g>
<g clip-path="url(#clip8400)">
<text style="fill:#000000; fill-opacity:1; font-family:Arial,Helvetica Neue,Helvetica,sans-serif; font-size:48px; text-anchor:middle;" transform="rotate(0, 1480.43, 1479.62)" x="1480.43" y="1479.62">15</text>
</g>
<g clip-path="url(#clip8400)">
<text style="fill:#000000; fill-opacity:1; font-family:Arial,Helvetica Neue,Helvetica,sans-serif; font-size:48px; text-anchor:middle;" transform="rotate(0, 1886.16, 1479.62)" x="1886.16" y="1479.62">20</text>
</g>
<g clip-path="url(#clip8400)">
<text style="fill:#000000; fill-opacity:1; font-family:Arial,Helvetica Neue,Helvetica,sans-serif; font-size:48px; text-anchor:middle;" transform="rotate(0, 2291.9, 1479.62)" x="2291.9" y="1479.62">25</text>
</g>
<g clip-path="url(#clip8400)">
<text style="fill:#000000; fill-opacity:1; font-family:Arial,Helvetica Neue,Helvetica,sans-serif; font-size:48px; text-anchor:end;" transform="rotate(0, 178.373, 1406.21)" x="178.373" y="1406.21">0</text>
</g>
<g clip-path="url(#clip8400)">
<text style="fill:#000000; fill-opacity:1; font-family:Arial,Helvetica Neue,Helvetica,sans-serif; font-size:48px; text-anchor:end;" transform="rotate(0, 178.373, 1160.19)" x="178.373" y="1160.19">5</text>
</g>
<g clip-path="url(#clip8400)">
<text style="fill:#000000; fill-opacity:1; font-family:Arial,Helvetica Neue,Helvetica,sans-serif; font-size:48px; text-anchor:end;" transform="rotate(0, 178.373, 914.16)" x="178.373" y="914.16">10</text>
</g>
<g clip-path="url(#clip8400)">
<text style="fill:#000000; fill-opacity:1; font-family:Arial,Helvetica Neue,Helvetica,sans-serif; font-size:48px; text-anchor:end;" transform="rotate(0, 178.373, 668.133)" x="178.373" y="668.133">15</text>
</g>
<g clip-path="url(#clip8400)">
<text style="fill:#000000; fill-opacity:1; font-family:Arial,Helvetica Neue,Helvetica,sans-serif; font-size:48px; text-anchor:end;" transform="rotate(0, 178.373, 422.106)" x="178.373" y="422.106">20</text>
</g>
<g clip-path="url(#clip8400)">
<text style="fill:#000000; fill-opacity:1; font-family:Arial,Helvetica Neue,Helvetica,sans-serif; font-size:48px; text-anchor:end;" transform="rotate(0, 178.373, 176.079)" x="178.373" y="176.079">25</text>
</g>
<g clip-path="url(#clip8400)">
<text style="fill:#000000; fill-opacity:1; font-family:Arial,Helvetica Neue,Helvetica,sans-serif; font-size:84px; text-anchor:middle;" transform="rotate(0, 1277.56, 73.2)" x="1277.56" y="73.2">Policy Function</text>
</g>
<g clip-path="url(#clip8400)">
<text style="fill:#000000; fill-opacity:1; font-family:Arial,Helvetica Neue,Helvetica,sans-serif; font-size:66px; text-anchor:middle;" transform="rotate(0, 1277.56, 1559.48)" x="1277.56" y="1559.48">Capital at t</text>
</g>
<g clip-path="url(#clip8400)">
<text style="fill:#000000; fill-opacity:1; font-family:Arial,Helvetica Neue,Helvetica,sans-serif; font-size:66px; text-anchor:middle;" transform="rotate(-90, 89.2861, 773.647)" x="89.2861" y="773.647">Capital at t+1</text>
</g>
<polyline clip-path="url(#clip8402)" style="stroke:#009af9; stroke-width:4; stroke-opacity:1; fill:none" points="
  263.233,1388.71 263.233,1388.71 263.233,1388.71 263.233,1388.71 263.233,1388.71 263.233,1388.71 263.233,1388.71 263.233,1388.71 263.233,1388.71 263.233,1388.71 
  263.233,1388.71 263.233,1388.71 263.233,1388.71 263.233,1388.71 263.233,1388.71 263.233,1388.71 263.233,1388.71 263.233,1388.71 263.233,1388.71 263.233,1388.71 
  263.233,1388.71 263.233,1388.71 263.233,1388.71 263.233,1388.71 263.233,1388.71 263.233,1388.71 263.233,1388.71 263.233,1388.71 263.233,1388.71 263.234,1388.71 
  263.234,1388.71 263.234,1388.71 263.234,1388.71 263.235,1388.71 263.235,1388.71 263.235,1388.71 263.236,1388.71 263.237,1388.71 263.237,1388.71 263.238,1388.71 
  263.239,1388.71 263.24,1388.71 263.242,1388.71 263.243,1388.71 263.245,1388.71 263.247,1388.71 263.25,1388.71 263.252,1388.71 263.255,1388.71 263.259,1388.71 
  263.263,1388.71 263.267,1388.71 263.272,1388.71 263.277,1388.71 263.283,1388.71 263.29,1388.71 263.298,1388.71 263.306,1388.71 263.316,1388.71 263.326,1388.71 
  263.337,1388.71 263.35,1388.71 263.364,1388.71 263.379,1388.71 263.396,1388.71 263.414,1388.71 263.434,1388.71 263.456,1388.71 263.48,1388.71 263.507,1388.71 
  263.535,1388.71 263.566,1388.71 263.6,1388.71 263.637,1388.71 263.676,1388.71 263.72,1388.71 263.766,1388.71 263.817,1388.71 263.871,1388.71 263.93,1388.71 
  263.993,1388.71 264.061,1388.71 264.135,1388.71 264.214,1388.71 264.298,1388.71 264.389,1388.71 264.487,1388.71 264.591,1388.71 264.703,1388.71 264.823,1388.71 
  264.95,1388.71 265.087,1388.71 265.233,1388.71 265.388,1388.71 265.554,1388.71 265.73,1388.71 265.918,1388.71 266.118,1388.71 266.331,1388.71 266.557,1388.71 
  266.796,1388.71 267.051,1388.71 267.321,1388.71 267.607,1388.62 267.91,1388.53 268.231,1388.45 268.57,1388.33 268.929,1388.21 269.309,1388.12 269.71,1388.01 
  270.133,1387.89 270.581,1387.75 271.052,1387.59 271.55,1387.41 272.074,1387.31 272.626,1387.09 273.208,1386.96 273.821,1386.7 274.465,1386.55 275.142,1386.4 
  275.855,1386.06 276.603,1385.88 277.39,1385.48 278.215,1385.26 279.082,1384.79 279.991,1384.53 280.944,1383.97 281.944,1383.67 282.991,1383.35 284.089,1382.67 
  285.238,1382.29 286.441,1381.9 287.7,1381.49 289.018,1380.61 290.395,1380.13 291.835,1379.63 293.34,1378.55 294.913,1377.97 296.555,1377.37 298.27,1376.73 
  300.06,1376.07 301.927,1374.64 303.875,1373.88 305.907,1373.08 308.025,1372.24 310.233,1371.37 312.533,1369.5 314.929,1368.51 317.425,1367.47 320.022,1366.38 
  322.726,1365.25 325.54,1364.07 328.466,1361.55 331.51,1360.21 334.675,1358.82 337.964,1357.37 341.383,1355.85 344.934,1354.28 348.623,1352.64 352.454,1349.16 
  356.432,1347.31 360.56,1345.39 364.844,1343.4 369.289,1341.33 373.9,1339.17 378.681,1336.94 383.638,1334.61 388.776,1329.7 394.102,1327.1 399.62,1324.4 
  405.336,1321.61 411.256,1318.71 417.386,1315.7 423.733,1312.59 430.302,1309.36 437.1,1306.01 444.135,1302.55 451.411,1298.96 458.937,1291.39 466.72,1287.41 
  474.767,1283.29 483.084,1279.02 491.681,1274.61 500.564,1270.04 509.741,1265.32 519.221,1260.45 529.012,1255.4 539.122,1250.19 549.56,1244.8 560.334,1239.24 
  571.455,1233.49 582.93,1221.42 594.769,1215.09 606.982,1208.56 619.579,1201.82 632.569,1194.86 645.964,1187.68 659.772,1180.27 674.005,1172.63 688.674,1164.76 
  703.79,1156.64 719.364,1148.26 735.407,1139.63 751.931,1130.74 768.949,1121.57 786.472,1112.13 804.513,1102.4 823.085,1092.38 842.2,1082.06 861.872,1060.49 
  882.114,1049.23 902.94,1037.64 924.363,1025.71 946.399,1013.44 969.061,1000.81 992.365,987.82 1016.32,974.458 1040.96,960.716 1066.28,946.585 1092.3,932.057 
  1119.04,917.121 1146.52,901.768 1174.75,885.988 1203.75,869.773 1233.54,853.111 1264.13,835.992 1295.54,818.407 1327.8,800.345 1360.92,781.794 1394.92,762.744 
  1429.81,743.184 1465.62,723.102 1502.38,702.488 1540.09,681.328 1578.78,659.612 1618.47,614.46 1659.18,590.999 1700.93,566.932 1743.76,542.245 1787.67,516.925 
  1832.69,490.959 1878.85,464.332 1926.16,437.032 1974.66,409.043 2024.37,380.352 2075.31,350.943 2127.5,320.803 2180.98,289.915 2235.77,258.264 2291.9,225.835 
  
  "/>
<polyline clip-path="url(#clip8402)" style="stroke:#e26f46; stroke-width:4; stroke-opacity:1; fill:none" points="
  263.233,1388.71 263.233,1388.71 263.233,1388.71 263.233,1388.71 263.233,1388.71 263.233,1388.71 263.233,1388.71 263.233,1388.71 263.233,1388.71 263.233,1388.71 
  263.233,1388.71 263.233,1388.71 263.233,1388.71 263.233,1388.71 263.233,1388.71 263.233,1388.71 263.233,1388.71 263.233,1388.71 263.233,1388.71 263.233,1388.71 
  263.233,1388.71 263.233,1388.71 263.233,1388.71 263.233,1388.71 263.233,1388.71 263.233,1388.71 263.233,1388.71 263.233,1388.71 263.233,1388.71 263.234,1388.71 
  263.234,1388.71 263.234,1388.71 263.234,1388.71 263.235,1388.71 263.235,1388.71 263.235,1388.71 263.236,1388.71 263.237,1388.71 263.237,1388.71 263.238,1388.71 
  263.239,1388.71 263.24,1388.71 263.242,1388.71 263.243,1388.71 263.245,1388.71 263.247,1388.71 263.25,1388.71 263.252,1388.71 263.255,1388.71 263.259,1388.71 
  263.263,1388.71 263.267,1388.71 263.272,1388.71 263.277,1388.71 263.283,1388.71 263.29,1388.71 263.298,1388.71 263.306,1388.71 263.316,1388.71 263.326,1388.71 
  263.337,1388.71 263.35,1388.71 263.364,1388.71 263.379,1388.71 263.396,1388.71 263.414,1388.71 263.434,1388.71 263.456,1388.71 263.48,1388.71 263.507,1388.71 
  263.535,1388.71 263.566,1388.71 263.6,1388.71 263.637,1388.71 263.676,1388.71 263.72,1388.71 263.766,1388.71 263.817,1388.71 263.871,1388.71 263.93,1388.71 
  263.993,1388.71 264.061,1388.71 264.135,1388.71 264.214,1388.71 264.298,1388.71 264.389,1388.71 264.487,1388.71 264.591,1388.71 264.703,1388.71 264.823,1388.71 
  264.95,1388.71 265.087,1388.71 265.233,1388.71 265.388,1388.71 265.554,1388.71 265.73,1388.71 265.918,1388.71 266.118,1388.71 266.331,1388.71 266.557,1388.69 
  266.796,1388.62 267.051,1388.55 267.321,1388.47 267.607,1388.39 267.91,1388.29 268.231,1388.21 268.57,1388.07 268.929,1388.01 269.309,1387.89 269.71,1387.75 
  270.133,1387.59 270.581,1387.5 271.052,1387.31 271.55,1387.2 272.074,1387.09 272.626,1386.84 273.208,1386.7 273.821,1386.4 274.465,1386.24 275.142,1385.88 
  275.855,1385.68 276.603,1385.26 277.39,1385.03 278.215,1384.79 279.082,1384.26 279.991,1383.97 280.944,1383.67 281.944,1383.02 282.991,1382.67 284.089,1382.29 
  285.238,1381.9 286.441,1381.06 287.7,1380.61 289.018,1380.13 290.395,1379.63 291.835,1378.55 293.34,1377.97 294.913,1377.37 296.555,1376.73 298.27,1376.07 
  300.06,1374.64 301.927,1373.88 303.875,1373.08 305.907,1372.24 308.025,1371.37 310.233,1370.46 312.533,1368.51 314.929,1367.47 317.425,1366.38 320.022,1365.25 
  322.726,1364.07 325.54,1362.84 328.466,1361.55 331.51,1358.82 334.675,1357.37 337.964,1355.85 341.383,1354.28 344.934,1352.64 348.623,1350.93 352.454,1349.16 
  356.432,1347.31 360.56,1343.4 364.844,1341.33 369.289,1339.17 373.9,1336.94 378.681,1334.61 383.638,1332.2 388.776,1329.7 394.102,1327.1 399.62,1324.4 
  405.336,1321.61 411.256,1315.7 417.386,1312.59 423.733,1309.36 430.302,1306.01 437.1,1302.55 444.135,1298.96 451.411,1295.24 458.937,1291.39 466.72,1287.41 
  474.767,1283.29 483.084,1279.02 491.681,1274.61 500.564,1270.04 509.741,1265.32 519.221,1255.4 529.012,1250.19 539.122,1244.8 549.56,1239.24 560.334,1233.49 
  571.455,1227.55 582.93,1221.42 594.769,1215.09 606.982,1208.56 619.579,1201.82 632.569,1194.86 645.964,1187.68 659.772,1180.27 674.005,1172.63 688.674,1164.76 
  703.79,1156.64 719.364,1148.26 735.407,1130.74 751.931,1121.57 768.949,1112.13 786.472,1102.4 804.513,1092.38 823.085,1082.06 842.2,1071.43 861.872,1060.49 
  882.114,1049.23 902.94,1037.64 924.363,1025.71 946.399,1013.44 969.061,1000.81 992.365,987.82 1016.32,974.458 1040.96,960.716 1066.28,946.585 1092.3,932.057 
  1119.04,917.121 1146.52,901.768 1174.75,885.988 1203.75,869.773 1233.54,853.111 1264.13,835.992 1295.54,818.407 1327.8,800.345 1360.92,781.794 1394.92,743.184 
  1429.81,723.102 1465.62,702.488 1502.38,681.328 1540.09,659.612 1578.78,637.326 1618.47,614.46 1659.18,590.999 1700.93,566.932 1743.76,542.245 1787.67,516.925 
  1832.69,490.959 1878.85,464.332 1926.16,437.032 1974.66,409.043 2024.37,380.352 2075.31,350.943 2127.5,320.803 2180.98,289.915 2235.77,258.264 2291.9,225.835 
  
  "/>
<polyline clip-path="url(#clip8402)" style="stroke:#3da44d; stroke-width:4; stroke-opacity:1; fill:none" points="
  263.233,1388.71 263.233,1388.71 263.233,1388.71 263.233,1388.71 263.233,1388.71 263.233,1388.71 263.233,1388.71 263.233,1388.71 263.233,1388.71 263.233,1388.71 
  263.233,1388.71 263.233,1388.71 263.233,1388.71 263.233,1388.71 263.233,1388.71 263.233,1388.71 263.233,1388.71 263.233,1388.71 263.233,1388.71 263.233,1388.71 
  263.233,1388.71 263.233,1388.71 263.233,1388.71 263.233,1388.71 263.233,1388.71 263.233,1388.71 263.233,1388.71 263.233,1388.71 263.233,1388.71 263.234,1388.71 
  263.234,1388.71 263.234,1388.71 263.234,1388.71 263.235,1388.71 263.235,1388.71 263.235,1388.71 263.236,1388.71 263.237,1388.71 263.237,1388.71 263.238,1388.71 
  263.239,1388.71 263.24,1388.71 263.242,1388.71 263.243,1388.71 263.245,1388.71 263.247,1388.71 263.25,1388.71 263.252,1388.71 263.255,1388.71 263.259,1388.71 
  263.263,1388.71 263.267,1388.71 263.272,1388.71 263.277,1388.71 263.283,1388.71 263.29,1388.71 263.298,1388.71 263.306,1388.71 263.316,1388.71 263.326,1388.71 
  263.337,1388.71 263.35,1388.71 263.364,1388.71 263.379,1388.71 263.396,1388.71 263.414,1388.71 263.434,1388.71 263.456,1388.71 263.48,1388.71 263.507,1388.71 
  263.535,1388.71 263.566,1388.71 263.6,1388.71 263.637,1388.71 263.676,1388.71 263.72,1388.71 263.766,1388.71 263.817,1388.71 263.871,1388.71 263.93,1388.71 
  263.993,1388.71 264.061,1388.71 264.135,1388.71 264.214,1388.71 264.298,1388.71 264.389,1388.71 264.487,1388.71 264.591,1388.71 264.703,1388.68 264.823,1388.64 
  264.95,1388.6 265.087,1388.56 265.233,1388.51 265.388,1388.47 265.554,1388.42 265.73,1388.36 265.918,1388.33 266.118,1388.25 266.331,1388.17 266.557,1388.12 
  266.796,1388.01 267.051,1387.95 267.321,1387.89 267.607,1387.75 267.91,1387.67 268.231,1387.5 268.57,1387.41 268.929,1387.31 269.309,1387.09 269.71,1386.96 
  270.133,1386.84 270.581,1386.55 271.052,1386.4 271.55,1386.24 272.074,1386.06 272.626,1385.68 273.208,1385.48 273.821,1385.26 274.465,1385.03 275.142,1384.53 
  275.855,1384.26 276.603,1383.97 277.39,1383.67 278.215,1383.35 279.082,1383.02 279.991,1382.29 280.944,1381.9 281.944,1381.49 282.991,1381.06 284.089,1380.61 
  285.238,1380.13 286.441,1379.63 287.7,1378.55 289.018,1377.97 290.395,1377.37 291.835,1376.73 293.34,1376.07 294.913,1375.37 296.555,1374.64 298.27,1373.88 
  300.06,1372.24 301.927,1371.37 303.875,1370.46 305.907,1369.5 308.025,1368.51 310.233,1367.47 312.533,1366.38 314.929,1365.25 317.425,1364.07 320.022,1362.84 
  322.726,1361.55 325.54,1358.82 328.466,1357.37 331.51,1355.85 334.675,1354.28 337.964,1352.64 341.383,1350.93 344.934,1349.16 348.623,1347.31 352.454,1345.39 
  356.432,1343.4 360.56,1341.33 364.844,1339.17 369.289,1336.94 373.9,1334.61 378.681,1329.7 383.638,1327.1 388.776,1324.4 394.102,1321.61 399.62,1318.71 
  405.336,1315.7 411.256,1312.59 417.386,1309.36 423.733,1306.01 430.302,1302.55 437.1,1298.96 444.135,1295.24 451.411,1291.39 458.937,1287.41 466.72,1283.29 
  474.767,1279.02 483.084,1274.61 491.681,1270.04 500.564,1265.32 509.741,1255.4 519.221,1250.19 529.012,1244.8 539.122,1239.24 549.56,1233.49 560.334,1227.55 
  571.455,1221.42 582.93,1215.09 594.769,1208.56 606.982,1201.82 619.579,1194.86 632.569,1187.68 645.964,1180.27 659.772,1172.63 674.005,1164.76 688.674,1156.64 
  703.79,1148.26 719.364,1139.63 735.407,1130.74 751.931,1121.57 768.949,1112.13 786.472,1102.4 804.513,1092.38 823.085,1082.06 842.2,1071.43 861.872,1060.49 
  882.114,1049.23 902.94,1037.64 924.363,1025.71 946.399,1000.81 969.061,987.82 992.365,974.458 1016.32,960.716 1040.96,946.585 1066.28,932.057 1092.3,917.121 
  1119.04,901.768 1146.52,885.988 1174.75,869.773 1203.75,853.111 1233.54,835.992 1264.13,818.407 1295.54,800.345 1327.8,781.794 1360.92,762.744 1394.92,743.184 
  1429.81,723.102 1465.62,702.488 1502.38,681.328 1540.09,659.612 1578.78,637.326 1618.47,614.46 1659.18,590.999 1700.93,566.932 1743.76,542.245 1787.67,516.925 
  1832.69,490.959 1878.85,464.332 1926.16,437.032 1974.66,409.043 2024.37,380.352 2075.31,350.943 2127.5,320.803 2180.98,289.915 2235.77,258.264 2291.9,225.835 
  
  "/>
<polyline clip-path="url(#clip8402)" style="stroke:#c271d2; stroke-width:4; stroke-opacity:1; fill:none" points="
  263.233,1384.26 263.233,1384.26 263.233,1384.26 263.233,1384.26 263.233,1384.26 263.233,1384.26 263.233,1384.26 263.233,1384.26 263.233,1384.26 263.233,1384.26 
  263.233,1384.26 263.233,1384.26 263.233,1384.26 263.233,1384.26 263.233,1384.26 263.233,1384.26 263.233,1384.26 263.233,1384.26 263.233,1384.26 263.233,1384.26 
  263.233,1384.26 263.233,1384.26 263.233,1384.26 263.233,1384.26 263.233,1384.26 263.233,1384.26 263.233,1384.26 263.233,1384.26 263.233,1384.26 263.234,1384.26 
  263.234,1384.26 263.234,1384.26 263.234,1384.26 263.235,1383.97 263.235,1383.97 263.235,1383.97 263.236,1383.97 263.237,1383.97 263.237,1383.97 263.238,1383.97 
  263.239,1383.97 263.24,1383.97 263.242,1383.97 263.243,1383.97 263.245,1383.97 263.247,1383.97 263.25,1383.97 263.252,1383.97 263.255,1383.97 263.259,1383.97 
  263.263,1383.97 263.267,1383.97 263.272,1383.97 263.277,1383.97 263.283,1383.97 263.29,1383.97 263.298,1383.97 263.306,1383.97 263.316,1383.97 263.326,1383.97 
  263.337,1383.97 263.35,1383.97 263.364,1383.97 263.379,1383.97 263.396,1383.97 263.414,1383.97 263.434,1383.97 263.456,1383.97 263.48,1383.97 263.507,1383.97 
  263.535,1383.97 263.566,1383.97 263.6,1383.97 263.637,1383.97 263.676,1383.97 263.72,1383.97 263.766,1383.97 263.817,1383.97 263.871,1383.97 263.93,1383.97 
  263.993,1383.67 264.061,1383.67 264.135,1383.67 264.214,1383.67 264.298,1383.67 264.389,1383.67 264.487,1383.67 264.591,1383.35 264.703,1383.35 264.823,1383.35 
  264.95,1383.35 265.087,1383.35 265.233,1383.02 265.388,1383.02 265.554,1383.02 265.73,1383.02 265.918,1382.67 266.118,1382.67 266.331,1382.67 266.557,1382.29 
  266.796,1382.29 267.051,1382.29 267.321,1382.29 267.607,1381.9 267.91,1381.9 268.231,1381.49 268.57,1381.49 268.929,1381.06 269.309,1381.06 269.71,1380.61 
  270.133,1380.61 270.581,1380.13 271.052,1380.13 271.55,1379.63 272.074,1379.63 272.626,1379.1 273.208,1379.1 273.821,1378.55 274.465,1378.55 275.142,1377.97 
  275.855,1377.37 276.603,1377.37 277.39,1376.73 278.215,1376.07 279.082,1376.07 279.991,1375.37 280.944,1374.64 281.944,1373.88 282.991,1373.88 284.089,1373.08 
  285.238,1372.24 286.441,1372.24 287.7,1371.37 289.018,1370.46 290.395,1369.5 291.835,1368.51 293.34,1368.51 294.913,1367.47 296.555,1366.38 298.27,1365.25 
  300.06,1364.07 301.927,1362.84 303.875,1362.84 305.907,1361.55 308.025,1360.21 310.233,1358.82 312.533,1357.37 314.929,1355.85 317.425,1354.28 320.022,1352.64 
  322.726,1350.93 325.54,1350.93 328.466,1349.16 331.51,1347.31 334.675,1345.39 337.964,1343.4 341.383,1341.33 344.934,1339.17 348.623,1336.94 352.454,1334.61 
  356.432,1332.2 360.56,1332.2 364.844,1329.7 369.289,1327.1 373.9,1324.4 378.681,1321.61 383.638,1318.71 388.776,1315.7 394.102,1312.59 399.62,1309.36 
  405.336,1306.01 411.256,1302.55 417.386,1298.96 423.733,1295.24 430.302,1291.39 437.1,1287.41 444.135,1283.29 451.411,1279.02 458.937,1274.61 466.72,1270.04 
  474.767,1265.32 483.084,1260.45 491.681,1255.4 500.564,1250.19 509.741,1244.8 519.221,1239.24 529.012,1233.49 539.122,1227.55 549.56,1221.42 560.334,1215.09 
  571.455,1208.56 582.93,1201.82 594.769,1194.86 606.982,1187.68 619.579,1180.27 632.569,1172.63 645.964,1164.76 659.772,1156.64 674.005,1148.26 688.674,1139.63 
  703.79,1130.74 719.364,1121.57 735.407,1112.13 751.931,1102.4 768.949,1092.38 786.472,1082.06 804.513,1071.43 823.085,1060.49 842.2,1049.23 861.872,1037.64 
  882.114,1025.71 902.94,1013.44 924.363,1000.81 946.399,987.82 969.061,974.458 992.365,960.716 1016.32,946.585 1040.96,932.057 1066.28,917.121 1092.3,901.768 
  1119.04,885.988 1146.52,869.773 1174.75,853.111 1203.75,835.992 1233.54,818.407 1264.13,800.345 1295.54,781.794 1327.8,762.744 1360.92,743.184 1394.92,723.102 
  1429.81,702.488 1465.62,681.328 1502.38,659.612 1540.09,637.326 1578.78,614.46 1618.47,590.999 1659.18,566.932 1700.93,542.245 1743.76,516.925 1787.67,490.959 
  1832.69,464.332 1878.85,437.032 1926.16,409.043 1974.66,380.352 2024.37,350.943 2075.31,320.803 2127.5,289.915 2180.98,258.264 2235.77,225.835 2291.9,192.612 
  
  "/>
<polyline clip-path="url(#clip8402)" style="stroke:#ac8d18; stroke-width:4; stroke-opacity:1; fill:none" points="
  263.233,1364.07 263.233,1364.07 263.233,1364.07 263.233,1364.07 263.233,1364.07 263.233,1364.07 263.233,1364.07 263.233,1364.07 263.233,1364.07 263.233,1364.07 
  263.233,1364.07 263.233,1364.07 263.233,1364.07 263.233,1364.07 263.233,1364.07 263.233,1364.07 263.233,1364.07 263.233,1364.07 263.233,1364.07 263.233,1364.07 
  263.233,1364.07 263.233,1364.07 263.233,1364.07 263.233,1364.07 263.233,1364.07 263.233,1364.07 263.233,1364.07 263.233,1364.07 263.233,1364.07 263.234,1364.07 
  263.234,1364.07 263.234,1364.07 263.234,1364.07 263.235,1364.07 263.235,1364.07 263.235,1364.07 263.236,1364.07 263.237,1364.07 263.237,1364.07 263.238,1364.07 
  263.239,1364.07 263.24,1364.07 263.242,1364.07 263.243,1364.07 263.245,1364.07 263.247,1364.07 263.25,1364.07 263.252,1364.07 263.255,1364.07 263.259,1364.07 
  263.263,1364.07 263.267,1364.07 263.272,1364.07 263.277,1364.07 263.283,1364.07 263.29,1364.07 263.298,1364.07 263.306,1364.07 263.316,1364.07 263.326,1364.07 
  263.337,1364.07 263.35,1364.07 263.364,1364.07 263.379,1364.07 263.396,1364.07 263.414,1364.07 263.434,1364.07 263.456,1364.07 263.48,1364.07 263.507,1364.07 
  263.535,1364.07 263.566,1364.07 263.6,1364.07 263.637,1364.07 263.676,1364.07 263.72,1364.07 263.766,1364.07 263.817,1364.07 263.871,1364.07 263.93,1364.07 
  263.993,1364.07 264.061,1364.07 264.135,1364.07 264.214,1364.07 264.298,1364.07 264.389,1364.07 264.487,1364.07 264.591,1364.07 264.703,1364.07 264.823,1364.07 
  264.95,1364.07 265.087,1364.07 265.233,1364.07 265.388,1364.07 265.554,1362.84 265.73,1362.84 265.918,1362.84 266.118,1362.84 266.331,1362.84 266.557,1362.84 
  266.796,1362.84 267.051,1361.55 267.321,1361.55 267.607,1361.55 267.91,1361.55 268.231,1361.55 268.57,1361.55 268.929,1361.55 269.309,1361.55 269.71,1361.55 
  270.133,1360.21 270.581,1360.21 271.052,1360.21 271.55,1360.21 272.074,1358.82 272.626,1358.82 273.208,1358.82 273.821,1358.82 274.465,1358.82 275.142,1358.82 
  275.855,1358.82 276.603,1357.37 277.39,1357.37 278.215,1355.85 279.082,1355.85 279.991,1355.85 280.944,1354.28 281.944,1354.28 282.991,1354.28 284.089,1352.64 
  285.238,1352.64 286.441,1350.93 287.7,1350.93 289.018,1349.16 290.395,1349.16 291.835,1349.16 293.34,1347.31 294.913,1347.31 296.555,1345.39 298.27,1345.39 
  300.06,1343.4 301.927,1343.4 303.875,1341.33 305.907,1339.17 308.025,1339.17 310.233,1336.94 312.533,1336.94 314.929,1334.61 317.425,1334.61 320.022,1332.2 
  322.726,1329.7 325.54,1329.7 328.466,1327.1 331.51,1324.4 334.675,1324.4 337.964,1321.61 341.383,1318.71 344.934,1318.71 348.623,1315.7 352.454,1312.59 
  356.432,1312.59 360.56,1309.36 364.844,1306.01 369.289,1302.55 373.9,1302.55 378.681,1298.96 383.638,1295.24 388.776,1291.39 394.102,1291.39 399.62,1287.41 
  405.336,1283.29 411.256,1279.02 417.386,1274.61 423.733,1274.61 430.302,1270.04 437.1,1265.32 444.135,1260.45 451.411,1255.4 458.937,1250.19 466.72,1250.19 
  474.767,1244.8 483.084,1239.24 491.681,1233.49 500.564,1227.55 509.741,1221.42 519.221,1215.09 529.012,1208.56 539.122,1208.56 549.56,1201.82 560.334,1194.86 
  571.455,1187.68 582.93,1180.27 594.769,1172.63 606.982,1164.76 619.579,1156.64 632.569,1148.26 645.964,1139.63 659.772,1130.74 674.005,1130.74 688.674,1121.57 
  703.79,1112.13 719.364,1102.4 735.407,1092.38 751.931,1082.06 768.949,1071.43 786.472,1060.49 804.513,1049.23 823.085,1037.64 842.2,1025.71 861.872,1013.44 
  882.114,1000.81 902.94,987.82 924.363,974.458 946.399,960.716 969.061,946.585 992.365,946.585 1016.32,932.057 1040.96,917.121 1066.28,901.768 1092.3,885.988 
  1119.04,869.773 1146.52,853.111 1174.75,835.992 1203.75,818.407 1233.54,800.345 1264.13,781.794 1295.54,762.744 1327.8,743.184 1360.92,723.102 1394.92,702.488 
  1429.81,681.328 1465.62,659.612 1502.38,637.326 1540.09,614.46 1578.78,590.999 1618.47,566.932 1659.18,542.245 1700.93,516.925 1743.76,490.959 1787.67,464.332 
  1832.69,437.032 1878.85,409.043 1926.16,380.352 1974.66,350.943 2024.37,320.803 2075.31,289.915 2127.5,258.264 2180.98,225.835 2235.77,225.835 2291.9,192.612 
  
  "/>
<polyline clip-path="url(#clip8402)" style="stroke:#00a9ad; stroke-width:4; stroke-opacity:1; fill:none" points="
  263.233,1324.4 263.233,1324.4 263.233,1324.4 263.233,1324.4 263.233,1324.4 263.233,1324.4 263.233,1324.4 263.233,1324.4 263.233,1324.4 263.233,1324.4 
  263.233,1324.4 263.233,1324.4 263.233,1324.4 263.233,1324.4 263.233,1324.4 263.233,1324.4 263.233,1324.4 263.233,1324.4 263.233,1324.4 263.233,1324.4 
  263.233,1324.4 263.233,1324.4 263.233,1324.4 263.233,1324.4 263.233,1324.4 263.233,1324.4 263.233,1324.4 263.233,1324.4 263.233,1324.4 263.234,1324.4 
  263.234,1324.4 263.234,1324.4 263.234,1324.4 263.235,1324.4 263.235,1324.4 263.235,1324.4 263.236,1324.4 263.237,1324.4 263.237,1324.4 263.238,1324.4 
  263.239,1324.4 263.24,1324.4 263.242,1324.4 263.243,1324.4 263.245,1324.4 263.247,1324.4 263.25,1324.4 263.252,1324.4 263.255,1324.4 263.259,1324.4 
  263.263,1324.4 263.267,1324.4 263.272,1324.4 263.277,1324.4 263.283,1324.4 263.29,1324.4 263.298,1324.4 263.306,1324.4 263.316,1324.4 263.326,1324.4 
  263.337,1324.4 263.35,1324.4 263.364,1324.4 263.379,1324.4 263.396,1324.4 263.414,1324.4 263.434,1324.4 263.456,1324.4 263.48,1324.4 263.507,1324.4 
  263.535,1324.4 263.566,1324.4 263.6,1324.4 263.637,1324.4 263.676,1324.4 263.72,1324.4 263.766,1324.4 263.817,1324.4 263.871,1324.4 263.93,1324.4 
  263.993,1324.4 264.061,1324.4 264.135,1324.4 264.214,1324.4 264.298,1321.61 264.389,1321.61 264.487,1321.61 264.591,1321.61 264.703,1321.61 264.823,1321.61 
  264.95,1321.61 265.087,1321.61 265.233,1321.61 265.388,1321.61 265.554,1321.61 265.73,1321.61 265.918,1321.61 266.118,1321.61 266.331,1321.61 266.557,1321.61 
  266.796,1321.61 267.051,1321.61 267.321,1321.61 267.607,1318.71 267.91,1318.71 268.231,1318.71 268.57,1318.71 268.929,1318.71 269.309,1318.71 269.71,1318.71 
  270.133,1318.71 270.581,1318.71 271.052,1318.71 271.55,1318.71 272.074,1318.71 272.626,1318.71 273.208,1318.71 273.821,1318.71 274.465,1318.71 275.142,1315.7 
  275.855,1315.7 276.603,1315.7 277.39,1315.7 278.215,1315.7 279.082,1315.7 279.991,1312.59 280.944,1312.59 281.944,1312.59 282.991,1312.59 284.089,1312.59 
  285.238,1312.59 286.441,1309.36 287.7,1309.36 289.018,1309.36 290.395,1306.01 291.835,1306.01 293.34,1306.01 294.913,1306.01 296.555,1302.55 298.27,1302.55 
  300.06,1302.55 301.927,1302.55 303.875,1298.96 305.907,1298.96 308.025,1295.24 310.233,1295.24 312.533,1295.24 314.929,1295.24 317.425,1291.39 320.022,1291.39 
  322.726,1287.41 325.54,1287.41 328.466,1283.29 331.51,1283.29 334.675,1283.29 337.964,1279.02 341.383,1279.02 344.934,1274.61 348.623,1274.61 352.454,1270.04 
  356.432,1270.04 360.56,1270.04 364.844,1265.32 369.289,1260.45 373.9,1260.45 378.681,1255.4 383.638,1255.4 388.776,1250.19 394.102,1244.8 399.62,1244.8 
  405.336,1239.24 411.256,1239.24 417.386,1233.49 423.733,1233.49 430.302,1227.55 437.1,1221.42 444.135,1215.09 451.411,1215.09 458.937,1208.56 466.72,1201.82 
  474.767,1201.82 483.084,1194.86 491.681,1187.68 500.564,1187.68 509.741,1180.27 519.221,1172.63 529.012,1164.76 539.122,1164.76 549.56,1156.64 560.334,1148.26 
  571.455,1139.63 582.93,1139.63 594.769,1130.74 606.982,1121.57 619.579,1112.13 632.569,1102.4 645.964,1102.4 659.772,1092.38 674.005,1082.06 688.674,1071.43 
  703.79,1060.49 719.364,1060.49 735.407,1049.23 751.931,1037.64 768.949,1025.71 786.472,1013.44 804.513,1000.81 823.085,1000.81 842.2,987.82 861.872,974.458 
  882.114,960.716 902.94,946.585 924.363,932.057 946.399,917.121 969.061,901.768 992.365,901.768 1016.32,885.988 1040.96,869.773 1066.28,853.111 1092.3,835.992 
  1119.04,818.407 1146.52,800.345 1174.75,781.794 1203.75,762.744 1233.54,762.744 1264.13,743.184 1295.54,723.102 1327.8,702.488 1360.92,681.328 1394.92,659.612 
  1429.81,637.326 1465.62,614.46 1502.38,590.999 1540.09,566.932 1578.78,542.245 1618.47,516.925 1659.18,490.959 1700.93,490.959 1743.76,464.332 1787.67,437.032 
  1832.69,409.043 1878.85,380.352 1926.16,350.943 1974.66,320.803 2024.37,289.915 2075.31,258.264 2127.5,225.835 2180.98,192.612 2235.77,158.579 2291.9,158.579 
  
  "/>
<polyline clip-path="url(#clip8402)" style="stroke:#ed5d92; stroke-width:4; stroke-opacity:1; fill:none" points="
  263.233,1250.19 263.233,1250.19 263.233,1250.19 263.233,1250.19 263.233,1250.19 263.233,1250.19 263.233,1250.19 263.233,1250.19 263.233,1250.19 263.233,1250.19 
  263.233,1250.19 263.233,1250.19 263.233,1250.19 263.233,1250.19 263.233,1250.19 263.233,1250.19 263.233,1250.19 263.233,1250.19 263.233,1250.19 263.233,1250.19 
  263.233,1250.19 263.233,1250.19 263.233,1250.19 263.233,1250.19 263.233,1250.19 263.233,1250.19 263.233,1250.19 263.233,1250.19 263.233,1250.19 263.234,1250.19 
  263.234,1250.19 263.234,1250.19 263.234,1250.19 263.235,1250.19 263.235,1250.19 263.235,1250.19 263.236,1250.19 263.237,1250.19 263.237,1250.19 263.238,1250.19 
  263.239,1250.19 263.24,1250.19 263.242,1250.19 263.243,1250.19 263.245,1250.19 263.247,1250.19 263.25,1250.19 263.252,1250.19 263.255,1250.19 263.259,1250.19 
  263.263,1250.19 263.267,1250.19 263.272,1250.19 263.277,1250.19 263.283,1250.19 263.29,1250.19 263.298,1250.19 263.306,1250.19 263.316,1250.19 263.326,1250.19 
  263.337,1250.19 263.35,1250.19 263.364,1250.19 263.379,1250.19 263.396,1250.19 263.414,1250.19 263.434,1250.19 263.456,1250.19 263.48,1250.19 263.507,1250.19 
  263.535,1250.19 263.566,1250.19 263.6,1250.19 263.637,1250.19 263.676,1250.19 263.72,1250.19 263.766,1250.19 263.817,1250.19 263.871,1250.19 263.93,1250.19 
  263.993,1250.19 264.061,1250.19 264.135,1250.19 264.214,1250.19 264.298,1250.19 264.389,1250.19 264.487,1250.19 264.591,1250.19 264.703,1250.19 264.823,1250.19 
  264.95,1250.19 265.087,1250.19 265.233,1250.19 265.388,1250.19 265.554,1244.8 265.73,1244.8 265.918,1244.8 266.118,1244.8 266.331,1244.8 266.557,1244.8 
  266.796,1244.8 267.051,1244.8 267.321,1244.8 267.607,1244.8 267.91,1244.8 268.231,1244.8 268.57,1244.8 268.929,1244.8 269.309,1244.8 269.71,1244.8 
  270.133,1244.8 270.581,1244.8 271.052,1244.8 271.55,1244.8 272.074,1239.24 272.626,1239.24 273.208,1239.24 273.821,1239.24 274.465,1239.24 275.142,1239.24 
  275.855,1239.24 276.603,1239.24 277.39,1239.24 278.215,1239.24 279.082,1239.24 279.991,1239.24 280.944,1239.24 281.944,1239.24 282.991,1239.24 284.089,1239.24 
  285.238,1233.49 286.441,1233.49 287.7,1233.49 289.018,1233.49 290.395,1233.49 291.835,1233.49 293.34,1227.55 294.913,1227.55 296.555,1227.55 298.27,1227.55 
  300.06,1227.55 301.927,1227.55 303.875,1221.42 305.907,1221.42 308.025,1221.42 310.233,1221.42 312.533,1215.09 314.929,1215.09 317.425,1215.09 320.022,1215.09 
  322.726,1215.09 325.54,1215.09 328.466,1208.56 331.51,1208.56 334.675,1208.56 337.964,1208.56 341.383,1201.82 344.934,1201.82 348.623,1194.86 352.454,1194.86 
  356.432,1194.86 360.56,1194.86 364.844,1187.68 369.289,1187.68 373.9,1180.27 378.681,1180.27 383.638,1180.27 388.776,1172.63 394.102,1172.63 399.62,1172.63 
  405.336,1164.76 411.256,1156.64 417.386,1156.64 423.733,1156.64 430.302,1148.26 437.1,1148.26 444.135,1139.63 451.411,1139.63 458.937,1130.74 466.72,1130.74 
  474.767,1121.57 483.084,1121.57 491.681,1112.13 500.564,1112.13 509.741,1102.4 519.221,1092.38 529.012,1092.38 539.122,1082.06 549.56,1082.06 560.334,1071.43 
  571.455,1071.43 582.93,1060.49 594.769,1049.23 606.982,1049.23 619.579,1037.64 632.569,1025.71 645.964,1025.71 659.772,1013.44 674.005,1013.44 688.674,1000.81 
  703.79,987.82 719.364,974.458 735.407,974.458 751.931,960.716 768.949,946.585 786.472,946.585 804.513,932.057 823.085,917.121 842.2,901.768 861.872,901.768 
  882.114,885.988 902.94,869.773 924.363,853.111 946.399,853.111 969.061,835.992 992.365,818.407 1016.32,800.345 1040.96,800.345 1066.28,781.794 1092.3,762.744 
  1119.04,743.184 1146.52,723.102 1174.75,723.102 1203.75,702.488 1233.54,681.328 1264.13,659.612 1295.54,637.326 1327.8,637.326 1360.92,614.46 1394.92,590.999 
  1429.81,566.932 1465.62,542.245 1502.38,516.925 1540.09,490.959 1578.78,490.959 1618.47,464.332 1659.18,437.032 1700.93,409.043 1743.76,380.352 1787.67,350.943 
  1832.69,350.943 1878.85,320.803 1926.16,289.915 1974.66,258.264 2024.37,258.264 2075.31,225.835 2127.5,192.612 2180.98,158.579 2235.77,158.579 2291.9,158.579 
  
  "/>
<polygon clip-path="url(#clip8400)" points="
1989.93,689.035 2280.76,689.035 2280.76,205.195 1989.93,205.195 
  " fill="#ffffff" fill-rule="evenodd" fill-opacity="1"/>
<polyline clip-path="url(#clip8400)" style="stroke:#000000; stroke-width:4; stroke-opacity:1; fill:none" points="
  1989.93,689.035 2280.76,689.035 2280.76,205.195 1989.93,205.195 1989.93,689.035 
  "/>
<polyline clip-path="url(#clip8400)" style="stroke:#009af9; stroke-width:4; stroke-opacity:1; fill:none" points="
  2013.93,265.675 2157.93,265.675 
  "/>
<g clip-path="url(#clip8400)">
<text style="fill:#000000; fill-opacity:1; font-family:Arial,Helvetica Neue,Helvetica,sans-serif; font-size:48px; text-anchor:start;" transform="rotate(0, 2181.93, 283.175)" x="2181.93" y="283.175">y1</text>
</g>
<polyline clip-path="url(#clip8400)" style="stroke:#e26f46; stroke-width:4; stroke-opacity:1; fill:none" points="
  2013.93,326.155 2157.93,326.155 
  "/>
<g clip-path="url(#clip8400)">
<text style="fill:#000000; fill-opacity:1; font-family:Arial,Helvetica Neue,Helvetica,sans-serif; font-size:48px; text-anchor:start;" transform="rotate(0, 2181.93, 343.655)" x="2181.93" y="343.655">y2</text>
</g>
<polyline clip-path="url(#clip8400)" style="stroke:#3da44d; stroke-width:4; stroke-opacity:1; fill:none" points="
  2013.93,386.635 2157.93,386.635 
  "/>
<g clip-path="url(#clip8400)">
<text style="fill:#000000; fill-opacity:1; font-family:Arial,Helvetica Neue,Helvetica,sans-serif; font-size:48px; text-anchor:start;" transform="rotate(0, 2181.93, 404.135)" x="2181.93" y="404.135">y3</text>
</g>
<polyline clip-path="url(#clip8400)" style="stroke:#c271d2; stroke-width:4; stroke-opacity:1; fill:none" points="
  2013.93,447.115 2157.93,447.115 
  "/>
<g clip-path="url(#clip8400)">
<text style="fill:#000000; fill-opacity:1; font-family:Arial,Helvetica Neue,Helvetica,sans-serif; font-size:48px; text-anchor:start;" transform="rotate(0, 2181.93, 464.615)" x="2181.93" y="464.615">y4</text>
</g>
<polyline clip-path="url(#clip8400)" style="stroke:#ac8d18; stroke-width:4; stroke-opacity:1; fill:none" points="
  2013.93,507.595 2157.93,507.595 
  "/>
<g clip-path="url(#clip8400)">
<text style="fill:#000000; fill-opacity:1; font-family:Arial,Helvetica Neue,Helvetica,sans-serif; font-size:48px; text-anchor:start;" transform="rotate(0, 2181.93, 525.095)" x="2181.93" y="525.095">y5</text>
</g>
<polyline clip-path="url(#clip8400)" style="stroke:#00a9ad; stroke-width:4; stroke-opacity:1; fill:none" points="
  2013.93,568.075 2157.93,568.075 
  "/>
<g clip-path="url(#clip8400)">
<text style="fill:#000000; fill-opacity:1; font-family:Arial,Helvetica Neue,Helvetica,sans-serif; font-size:48px; text-anchor:start;" transform="rotate(0, 2181.93, 585.575)" x="2181.93" y="585.575">y6</text>
</g>
<polyline clip-path="url(#clip8400)" style="stroke:#ed5d92; stroke-width:4; stroke-opacity:1; fill:none" points="
  2013.93,628.555 2157.93,628.555 
  "/>
<g clip-path="url(#clip8400)">
<text style="fill:#000000; fill-opacity:1; font-family:Arial,Helvetica Neue,Helvetica,sans-serif; font-size:48px; text-anchor:start;" transform="rotate(0, 2181.93, 646.055)" x="2181.93" y="646.055">y7</text>
</g>
</svg>
