<?xml version="1.0" encoding="utf-8"?>
<svg xmlns="http://www.w3.org/2000/svg" xmlns:xlink="http://www.w3.org/1999/xlink" width="600" height="400" viewBox="0 0 2400 1600">
<defs>
  <clipPath id="clip5700">
    <rect x="0" y="0" width="2400" height="1600"/>
  </clipPath>
</defs>
<polygon clip-path="url(#clip5700)" points="
0,1600 2400,1600 2400,0 0,0 
  " fill="#ffffff" fill-rule="evenodd" fill-opacity="1"/>
<defs>
  <clipPath id="clip5701">
    <rect x="480" y="0" width="1681" height="1600"/>
  </clipPath>
</defs>
<polygon clip-path="url(#clip5700)" points="
229.135,1425.62 2352.76,1425.62 2352.76,121.675 229.135,121.675 
  " fill="#ffffff" fill-rule="evenodd" fill-opacity="1"/>
<defs>
  <clipPath id="clip5702">
    <rect x="229" y="121" width="2125" height="1305"/>
  </clipPath>
</defs>
<polyline clip-path="url(#clip5702)" style="stroke:#000000; stroke-width:2; stroke-opacity:0.1; fill:none" points="
  289.198,1425.62 289.198,121.675 
  "/>
<polyline clip-path="url(#clip5702)" style="stroke:#000000; stroke-width:2; stroke-opacity:0.1; fill:none" points="
  689.889,1425.62 689.889,121.675 
  "/>
<polyline clip-path="url(#clip5702)" style="stroke:#000000; stroke-width:2; stroke-opacity:0.1; fill:none" points="
  1090.58,1425.62 1090.58,121.675 
  "/>
<polyline clip-path="url(#clip5702)" style="stroke:#000000; stroke-width:2; stroke-opacity:0.1; fill:none" points="
  1491.27,1425.62 1491.27,121.675 
  "/>
<polyline clip-path="url(#clip5702)" style="stroke:#000000; stroke-width:2; stroke-opacity:0.1; fill:none" points="
  1891.96,1425.62 1891.96,121.675 
  "/>
<polyline clip-path="url(#clip5702)" style="stroke:#000000; stroke-width:2; stroke-opacity:0.1; fill:none" points="
  2292.65,1425.62 2292.65,121.675 
  "/>
<polyline clip-path="url(#clip5702)" style="stroke:#000000; stroke-width:2; stroke-opacity:0.1; fill:none" points="
  229.135,1392.96 2352.76,1392.96 
  "/>
<polyline clip-path="url(#clip5702)" style="stroke:#000000; stroke-width:2; stroke-opacity:0.1; fill:none" points="
  229.135,1143.09 2352.76,1143.09 
  "/>
<polyline clip-path="url(#clip5702)" style="stroke:#000000; stroke-width:2; stroke-opacity:0.1; fill:none" points="
  229.135,893.233 2352.76,893.233 
  "/>
<polyline clip-path="url(#clip5702)" style="stroke:#000000; stroke-width:2; stroke-opacity:0.1; fill:none" points="
  229.135,643.371 2352.76,643.371 
  "/>
<polyline clip-path="url(#clip5702)" style="stroke:#000000; stroke-width:2; stroke-opacity:0.1; fill:none" points="
  229.135,393.509 2352.76,393.509 
  "/>
<polyline clip-path="url(#clip5702)" style="stroke:#000000; stroke-width:2; stroke-opacity:0.1; fill:none" points="
  229.135,143.648 2352.76,143.648 
  "/>
<polyline clip-path="url(#clip5700)" style="stroke:#000000; stroke-width:4; stroke-opacity:1; fill:none" points="
  229.135,1425.62 2352.76,1425.62 
  "/>
<polyline clip-path="url(#clip5700)" style="stroke:#000000; stroke-width:4; stroke-opacity:1; fill:none" points="
  229.135,1425.62 229.135,121.675 
  "/>
<polyline clip-path="url(#clip5700)" style="stroke:#000000; stroke-width:4; stroke-opacity:1; fill:none" points="
  289.198,1425.62 289.198,1406.06 
  "/>
<polyline clip-path="url(#clip5700)" style="stroke:#000000; stroke-width:4; stroke-opacity:1; fill:none" points="
  689.889,1425.62 689.889,1406.06 
  "/>
<polyline clip-path="url(#clip5700)" style="stroke:#000000; stroke-width:4; stroke-opacity:1; fill:none" points="
  1090.58,1425.62 1090.58,1406.06 
  "/>
<polyline clip-path="url(#clip5700)" style="stroke:#000000; stroke-width:4; stroke-opacity:1; fill:none" points="
  1491.27,1425.62 1491.27,1406.06 
  "/>
<polyline clip-path="url(#clip5700)" style="stroke:#000000; stroke-width:4; stroke-opacity:1; fill:none" points="
  1891.96,1425.62 1891.96,1406.06 
  "/>
<polyline clip-path="url(#clip5700)" style="stroke:#000000; stroke-width:4; stroke-opacity:1; fill:none" points="
  2292.65,1425.62 2292.65,1406.06 
  "/>
<polyline clip-path="url(#clip5700)" style="stroke:#000000; stroke-width:4; stroke-opacity:1; fill:none" points="
  229.135,1392.96 260.99,1392.96 
  "/>
<polyline clip-path="url(#clip5700)" style="stroke:#000000; stroke-width:4; stroke-opacity:1; fill:none" points="
  229.135,1143.09 260.99,1143.09 
  "/>
<polyline clip-path="url(#clip5700)" style="stroke:#000000; stroke-width:4; stroke-opacity:1; fill:none" points="
  229.135,893.233 260.99,893.233 
  "/>
<polyline clip-path="url(#clip5700)" style="stroke:#000000; stroke-width:4; stroke-opacity:1; fill:none" points="
  229.135,643.371 260.99,643.371 
  "/>
<polyline clip-path="url(#clip5700)" style="stroke:#000000; stroke-width:4; stroke-opacity:1; fill:none" points="
  229.135,393.509 260.99,393.509 
  "/>
<polyline clip-path="url(#clip5700)" style="stroke:#000000; stroke-width:4; stroke-opacity:1; fill:none" points="
  229.135,143.648 260.99,143.648 
  "/>
<g clip-path="url(#clip5700)">
<text style="fill:#000000; fill-opacity:1; font-family:Arial,Helvetica Neue,Helvetica,sans-serif; font-size:48px; text-anchor:middle;" transform="rotate(0, 289.198, 1479.62)" x="289.198" y="1479.62">0</text>
</g>
<g clip-path="url(#clip5700)">
<text style="fill:#000000; fill-opacity:1; font-family:Arial,Helvetica Neue,Helvetica,sans-serif; font-size:48px; text-anchor:middle;" transform="rotate(0, 689.889, 1479.62)" x="689.889" y="1479.62">100</text>
</g>
<g clip-path="url(#clip5700)">
<text style="fill:#000000; fill-opacity:1; font-family:Arial,Helvetica Neue,Helvetica,sans-serif; font-size:48px; text-anchor:middle;" transform="rotate(0, 1090.58, 1479.62)" x="1090.58" y="1479.62">200</text>
</g>
<g clip-path="url(#clip5700)">
<text style="fill:#000000; fill-opacity:1; font-family:Arial,Helvetica Neue,Helvetica,sans-serif; font-size:48px; text-anchor:middle;" transform="rotate(0, 1491.27, 1479.62)" x="1491.27" y="1479.62">300</text>
</g>
<g clip-path="url(#clip5700)">
<text style="fill:#000000; fill-opacity:1; font-family:Arial,Helvetica Neue,Helvetica,sans-serif; font-size:48px; text-anchor:middle;" transform="rotate(0, 1891.96, 1479.62)" x="1891.96" y="1479.62">400</text>
</g>
<g clip-path="url(#clip5700)">
<text style="fill:#000000; fill-opacity:1; font-family:Arial,Helvetica Neue,Helvetica,sans-serif; font-size:48px; text-anchor:middle;" transform="rotate(0, 2292.65, 1479.62)" x="2292.65" y="1479.62">500</text>
</g>
<g clip-path="url(#clip5700)">
<text style="fill:#000000; fill-opacity:1; font-family:Arial,Helvetica Neue,Helvetica,sans-serif; font-size:48px; text-anchor:end;" transform="rotate(0, 205.135, 1410.46)" x="205.135" y="1410.46">0</text>
</g>
<g clip-path="url(#clip5700)">
<text style="fill:#000000; fill-opacity:1; font-family:Arial,Helvetica Neue,Helvetica,sans-serif; font-size:48px; text-anchor:end;" transform="rotate(0, 205.135, 1160.59)" x="205.135" y="1160.59">100</text>
</g>
<g clip-path="url(#clip5700)">
<text style="fill:#000000; fill-opacity:1; font-family:Arial,Helvetica Neue,Helvetica,sans-serif; font-size:48px; text-anchor:end;" transform="rotate(0, 205.135, 910.733)" x="205.135" y="910.733">200</text>
</g>
<g clip-path="url(#clip5700)">
<text style="fill:#000000; fill-opacity:1; font-family:Arial,Helvetica Neue,Helvetica,sans-serif; font-size:48px; text-anchor:end;" transform="rotate(0, 205.135, 660.871)" x="205.135" y="660.871">300</text>
</g>
<g clip-path="url(#clip5700)">
<text style="fill:#000000; fill-opacity:1; font-family:Arial,Helvetica Neue,Helvetica,sans-serif; font-size:48px; text-anchor:end;" transform="rotate(0, 205.135, 411.009)" x="205.135" y="411.009">400</text>
</g>
<g clip-path="url(#clip5700)">
<text style="fill:#000000; fill-opacity:1; font-family:Arial,Helvetica Neue,Helvetica,sans-serif; font-size:48px; text-anchor:end;" transform="rotate(0, 205.135, 161.148)" x="205.135" y="161.148">500</text>
</g>
<g clip-path="url(#clip5700)">
<text style="fill:#000000; fill-opacity:1; font-family:Arial,Helvetica Neue,Helvetica,sans-serif; font-size:84px; text-anchor:middle;" transform="rotate(0, 1290.95, 73.2)" x="1290.95" y="73.2">Policy Function</text>
</g>
<g clip-path="url(#clip5700)">
<text style="fill:#000000; fill-opacity:1; font-family:Arial,Helvetica Neue,Helvetica,sans-serif; font-size:66px; text-anchor:middle;" transform="rotate(0, 1290.95, 1559.48)" x="1290.95" y="1559.48">Individual Capital at t</text>
</g>
<g clip-path="url(#clip5700)">
<text style="fill:#000000; fill-opacity:1; font-family:Arial,Helvetica Neue,Helvetica,sans-serif; font-size:66px; text-anchor:middle;" transform="rotate(-90, 89.2861, 773.647)" x="89.2861" y="773.647">Individual Capital at t+1</text>
</g>
<polyline clip-path="url(#clip5702)" style="stroke:#009af9; stroke-width:4; stroke-opacity:1; fill:none" points="
  289.238,1388.71 289.238,1388.71 289.238,1388.71 289.239,1388.71 289.24,1388.71 289.241,1388.71 289.243,1388.71 289.246,1388.71 289.249,1388.71 289.254,1388.71 
  289.259,1388.71 289.265,1388.71 289.273,1388.71 289.282,1388.71 289.292,1388.71 289.303,1388.71 289.316,1388.71 289.331,1388.71 289.348,1388.54 289.366,1388.54 
  289.386,1388.54 289.408,1388.54 289.433,1388.54 289.459,1388.54 289.488,1388.54 289.519,1388.54 289.553,1388.54 289.59,1388.54 289.629,1388.54 289.67,1388.37 
  289.715,1388.37 289.763,1388.37 289.814,1388.37 289.868,1388.37 289.925,1388.37 289.985,1388.19 290.05,1388.19 290.117,1388.19 290.188,1388.19 290.263,1388 
  290.342,1388 290.425,1388 290.512,1388 290.603,1388 290.698,1387.81 290.798,1387.81 290.902,1387.81 291.01,1387.62 291.123,1387.62 291.241,1387.42 
  291.364,1387.42 291.491,1387.42 291.624,1387.42 291.761,1387.22 291.904,1387.22 292.052,1387.01 292.206,1387.01 292.365,1386.79 292.529,1386.79 292.7,1386.57 
  292.876,1386.57 293.057,1386.57 293.245,1386.35 293.439,1386.12 293.639,1386.12 293.846,1385.89 294.058,1385.89 294.277,1385.65 294.503,1385.65 294.735,1385.4 
  294.974,1385.4 295.22,1385.15 295.473,1384.89 295.732,1384.63 295.999,1384.63 296.273,1384.36 296.555,1384.36 296.844,1384.09 297.14,1384.09 297.444,1383.81 
  297.755,1383.52 298.075,1383.52 298.402,1383.23 298.737,1382.94 299.08,1382.63 299.432,1382.63 299.792,1382.32 300.16,1382.32 300.536,1382.01 300.922,1381.69 
  301.315,1381.36 301.718,1381.03 302.129,1381.03 302.55,1380.69 302.979,1380.34 303.418,1379.99 303.865,1379.99 304.323,1379.63 304.789,1379.26 305.265,1378.89 
  305.751,1378.89 306.246,1378.51 306.751,1378.12 307.266,1377.73 307.791,1377.33 308.327,1377.33 308.872,1376.92 309.428,1376.51 309.994,1376.09 310.57,1375.66 
  311.157,1375.23 311.755,1375.23 312.363,1374.78 312.983,1374.33 313.613,1373.88 314.255,1373.41 314.907,1372.94 315.571,1372.46 316.246,1372.46 316.933,1371.97 
  317.631,1371.48 318.341,1370.97 319.062,1370.46 319.796,1369.94 320.541,1369.94 321.298,1369.42 322.068,1368.88 322.849,1368.34 323.643,1367.79 324.45,1367.23 
  325.269,1366.67 326.1,1366.09 326.944,1365.51 327.801,1364.91 328.671,1364.91 329.554,1364.31 330.45,1363.71 331.359,1363.09 332.281,1362.46 333.217,1361.83 
  334.166,1361.18 335.129,1360.53 336.105,1359.87 337.095,1359.2 338.099,1359.2 339.117,1358.52 340.149,1357.83 341.195,1357.14 342.255,1356.43 343.33,1355.71 
  344.419,1354.99 345.523,1354.25 346.641,1353.51 347.774,1352.76 348.921,1351.99 350.084,1351.22 351.262,1350.44 352.454,1350.44 353.662,1349.65 354.886,1348.85 
  356.124,1348.04 357.378,1347.21 358.648,1346.38 359.933,1345.54 361.234,1344.69 362.551,1343.83 363.884,1342.96 365.233,1342.08 366.599,1341.18 367.98,1340.28 
  369.378,1339.37 370.792,1338.44 372.223,1337.51 373.67,1336.57 375.134,1336.57 376.615,1335.61 378.113,1334.64 379.628,1333.67 381.16,1332.68 382.709,1331.68 
  384.276,1330.67 385.86,1329.65 387.461,1328.62 389.08,1327.58 390.717,1326.52 392.371,1325.46 394.044,1324.38 395.734,1323.29 397.442,1322.19 399.169,1321.08 
  400.914,1319.96 402.677,1318.82 404.459,1317.68 406.259,1316.52 408.078,1316.52 409.916,1315.35 411.773,1314.17 413.648,1312.98 415.543,1311.77 417.456,1310.55 
  419.389,1309.32 421.341,1308.08 423.313,1306.83 425.304,1305.56 427.315,1304.28 429.346,1302.99 431.396,1301.69 433.466,1300.37 435.556,1299.05 437.667,1297.7 
  439.797,1296.35 441.948,1294.98 444.119,1293.6 446.311,1292.21 448.523,1290.81 450.756,1289.39 453.01,1287.96 455.285,1286.51 457.58,1285.05 459.897,1283.58 
  462.234,1282.1 464.593,1280.6 466.974,1279.09 469.376,1277.57 471.799,1276.03 474.244,1274.48 476.711,1274.48 479.199,1272.91 481.71,1271.33 484.242,1269.74 
  486.797,1268.13 489.374,1266.51 491.973,1264.88 494.594,1263.23 497.238,1261.56 499.905,1259.89 502.594,1258.2 505.306,1256.49 508.041,1254.77 510.799,1253.04 
  513.581,1251.29 516.385,1249.52 519.212,1247.75 522.063,1245.95 524.938,1244.15 527.835,1242.33 530.757,1240.49 533.702,1238.64 536.672,1236.77 539.665,1234.89 
  542.682,1232.99 545.723,1231.08 548.789,1229.15 551.879,1227.21 554.993,1225.25 558.132,1223.28 561.295,1221.29 564.483,1219.29 567.696,1217.27 570.934,1215.24 
  574.197,1213.19 577.485,1211.12 580.798,1209.04 584.136,1206.94 587.5,1206.94 590.89,1204.83 594.304,1202.7 597.745,1200.55 601.211,1198.39 604.704,1196.21 
  608.222,1194.02 611.766,1191.81 615.336,1189.58 618.933,1187.34 622.556,1185.08 626.205,1182.81 629.881,1180.51 633.584,1178.2 637.313,1175.88 641.07,1173.54 
  644.853,1171.18 648.663,1168.8 652.5,1166.41 656.365,1164 660.256,1161.57 664.175,1159.13 668.122,1156.67 672.096,1154.19 676.098,1151.69 680.128,1149.18 
  684.186,1146.65 688.271,1144.1 692.385,1141.54 696.527,1138.95 700.697,1136.35 704.896,1133.74 709.123,1131.1 713.378,1128.45 717.663,1125.78 721.976,1123.09 
  726.317,1120.38 730.688,1117.65 735.088,1114.91 739.517,1112.15 743.975,1109.37 748.463,1106.57 752.979,1103.75 757.526,1100.92 762.102,1098.06 766.708,1095.19 
  771.343,1092.3 776.009,1089.39 780.704,1086.46 785.43,1083.52 790.186,1080.55 794.972,1077.57 799.788,1074.56 804.635,1071.54 809.513,1068.5 814.421,1065.44 
  819.36,1062.36 824.33,1059.26 829.331,1056.14 834.363,1053 839.426,1049.85 844.52,1046.67 849.646,1043.47 854.803,1040.26 859.991,1040.26 865.212,1037.02 
  870.464,1033.77 875.748,1030.49 881.063,1027.2 886.411,1023.88 891.791,1020.55 897.203,1017.19 902.648,1013.82 908.124,1010.42 913.634,1007.01 919.176,1003.57 
  924.75,1000.12 930.358,996.64 935.998,993.143 941.671,989.626 947.378,986.088 953.117,982.53 958.89,978.951 964.696,975.351 970.536,971.731 976.409,968.089 
  982.316,964.427 988.257,960.743 994.231,957.039 1000.24,953.313 1006.28,949.567 1012.36,945.799 1018.47,942.009 1024.61,938.199 1030.79,934.367 1037.01,930.513 
  1043.26,926.638 1049.54,922.742 1055.86,918.824 1062.21,914.884 1068.6,910.922 1075.02,906.938 1081.48,902.933 1087.98,898.906 1094.51,894.856 1101.07,890.785 
  1107.67,886.691 1114.31,882.576 1120.98,878.438 1127.69,874.277 1134.43,870.095 1141.21,865.89 1148.02,861.662 1154.88,857.412 1161.76,853.139 1168.69,848.844 
  1175.65,844.526 1182.65,840.185 1189.68,835.821 1196.75,831.434 1203.86,827.025 1211.01,822.592 1218.19,818.136 1225.41,813.657 1232.67,809.155 1239.96,804.63 
  1247.29,800.081 1254.66,795.509 1262.07,790.913 1269.52,786.294 1277,781.652 1284.52,776.986 1292.08,772.296 1299.68,767.582 1307.31,762.844 1314.99,758.083 
  1322.7,753.298 1330.45,748.489 1338.24,743.655 1346.07,738.798 1353.93,733.916 1361.84,729.011 1369.79,724.08 1377.77,719.126 1385.79,714.147 1393.86,709.144 
  1401.96,704.116 1410.1,699.064 1418.28,693.987 1426.5,688.885 1434.76,688.885 1443.07,683.758 1451.41,678.607 1459.79,673.431 1468.21,668.23 1476.67,663.003 
  1485.17,657.752 1493.71,652.476 1502.3,647.174 1510.92,641.847 1519.59,636.495 1528.29,631.118 1537.04,625.715 1545.82,620.286 1554.65,614.833 1563.52,609.353 
  1572.43,603.848 1581.39,598.317 1590.38,592.76 1599.42,587.178 1608.49,581.569 1617.61,575.935 1626.77,570.274 1635.98,564.588 1645.22,558.875 1654.51,553.136 
  1663.84,547.371 1673.21,541.579 1682.63,535.761 1692.08,529.917 1701.58,524.046 1711.13,518.149 1720.71,512.225 1730.34,506.274 1740.01,500.297 1749.73,494.293 
  1759.49,488.261 1769.29,482.203 1779.13,476.118 1789.02,470.006 1798.95,463.867 1808.93,457.701 1818.95,451.507 1829.01,445.286 1839.12,439.038 1849.27,432.763 
  1859.47,426.46 1869.71,420.129 1880,413.771 1890.32,407.385 1900.7,400.972 1911.12,394.53 1921.58,388.061 1932.09,381.564 1942.64,375.039 1953.24,368.486 
  1963.89,361.905 1974.58,355.296 1985.31,348.659 1996.09,341.993 2006.92,335.3 2017.79,328.577 2028.7,321.827 2039.67,315.048 2050.68,308.24 2061.73,301.404 
  2072.83,294.539 2083.98,287.645 2095.17,280.723 2106.41,273.771 2117.7,266.791 2129.03,259.782 2140.41,252.744 2151.84,245.677 2163.32,238.58 2174.84,231.455 
  2186.4,224.3 2198.02,217.116 2209.68,209.902 2221.39,202.659 2233.15,195.386 2244.96,188.084 2256.81,180.753 2268.71,173.391 2280.66,166 2292.65,158.579 
  
  "/>
<polyline clip-path="url(#clip5702)" style="stroke:#e26f46; stroke-width:4; stroke-opacity:1; fill:none" points="
  289.238,1388.54 289.238,1388.54 289.238,1388.54 289.239,1388.54 289.24,1388.54 289.241,1388.54 289.243,1388.54 289.246,1388.54 289.249,1388.54 289.254,1388.54 
  289.259,1388.54 289.265,1388.54 289.273,1388.54 289.282,1388.54 289.292,1388.54 289.303,1388.54 289.316,1388.54 289.331,1388.54 289.348,1388.54 289.366,1388.54 
  289.386,1388.54 289.408,1388.54 289.433,1388.54 289.459,1388.54 289.488,1388.37 289.519,1388.37 289.553,1388.37 289.59,1388.37 289.629,1388.37 289.67,1388.37 
  289.715,1388.37 289.763,1388.19 289.814,1388.19 289.868,1388.19 289.925,1388.19 289.985,1388.19 290.05,1388.19 290.117,1388 290.188,1388 290.263,1388 
  290.342,1388 290.425,1388 290.512,1387.81 290.603,1387.81 290.698,1387.81 290.798,1387.81 290.902,1387.62 291.01,1387.62 291.123,1387.42 291.241,1387.42 
  291.364,1387.42 291.491,1387.22 291.624,1387.22 291.761,1387.22 291.904,1387.01 292.052,1387.01 292.206,1386.79 292.365,1386.79 292.529,1386.57 292.7,1386.57 
  292.876,1386.57 293.057,1386.35 293.245,1386.35 293.439,1386.12 293.639,1386.12 293.846,1385.89 294.058,1385.89 294.277,1385.65 294.503,1385.4 294.735,1385.4 
  294.974,1385.15 295.22,1385.15 295.473,1384.89 295.732,1384.63 295.999,1384.63 296.273,1384.36 296.555,1384.36 296.844,1384.09 297.14,1383.81 297.444,1383.81 
  297.755,1383.52 298.075,1383.23 298.402,1383.23 298.737,1382.94 299.08,1382.63 299.432,1382.63 299.792,1382.32 300.16,1382.01 300.536,1382.01 300.922,1381.69 
  301.315,1381.36 301.718,1381.03 302.129,1381.03 302.55,1380.69 302.979,1380.34 303.418,1379.99 303.865,1379.99 304.323,1379.63 304.789,1379.26 305.265,1378.89 
  305.751,1378.89 306.246,1378.51 306.751,1378.12 307.266,1377.73 307.791,1377.33 308.327,1376.92 308.872,1376.92 309.428,1376.51 309.994,1376.09 310.57,1375.66 
  311.157,1375.23 311.755,1375.23 312.363,1374.78 312.983,1374.33 313.613,1373.88 314.255,1373.41 314.907,1372.94 315.571,1372.46 316.246,1372.46 316.933,1371.97 
  317.631,1371.48 318.341,1370.97 319.062,1370.46 319.796,1369.94 320.541,1369.94 321.298,1369.42 322.068,1368.88 322.849,1368.34 323.643,1367.79 324.45,1367.23 
  325.269,1366.67 326.1,1366.09 326.944,1365.51 327.801,1364.91 328.671,1364.91 329.554,1364.31 330.45,1363.71 331.359,1363.09 332.281,1362.46 333.217,1361.83 
  334.166,1361.18 335.129,1360.53 336.105,1359.87 337.095,1359.87 338.099,1359.2 339.117,1358.52 340.149,1357.83 341.195,1357.14 342.255,1356.43 343.33,1355.71 
  344.419,1354.99 345.523,1354.25 346.641,1353.51 347.774,1352.76 348.921,1351.99 350.084,1351.22 351.262,1350.44 352.454,1350.44 353.662,1349.65 354.886,1348.85 
  356.124,1348.04 357.378,1347.21 358.648,1346.38 359.933,1345.54 361.234,1344.69 362.551,1343.83 363.884,1342.96 365.233,1342.08 366.599,1341.18 367.98,1340.28 
  369.378,1339.37 370.792,1338.44 372.223,1337.51 373.67,1337.51 375.134,1336.57 376.615,1335.61 378.113,1334.64 379.628,1333.67 381.16,1332.68 382.709,1331.68 
  384.276,1330.67 385.86,1329.65 387.461,1328.62 389.08,1327.58 390.717,1326.52 392.371,1325.46 394.044,1324.38 395.734,1323.29 397.442,1322.19 399.169,1321.08 
  400.914,1319.96 402.677,1318.82 404.459,1317.68 406.259,1317.68 408.078,1316.52 409.916,1315.35 411.773,1314.17 413.648,1312.98 415.543,1311.77 417.456,1310.55 
  419.389,1309.32 421.341,1308.08 423.313,1306.83 425.304,1305.56 427.315,1304.28 429.346,1302.99 431.396,1301.69 433.466,1300.37 435.556,1299.05 437.667,1297.7 
  439.797,1296.35 441.948,1294.98 444.119,1293.6 446.311,1292.21 448.523,1290.81 450.756,1289.39 453.01,1287.96 455.285,1286.51 457.58,1285.05 459.897,1283.58 
  462.234,1282.1 464.593,1280.6 466.974,1280.6 469.376,1279.09 471.799,1277.57 474.244,1276.03 476.711,1274.48 479.199,1272.91 481.71,1271.33 484.242,1269.74 
  486.797,1268.13 489.374,1266.51 491.973,1264.88 494.594,1263.23 497.238,1261.56 499.905,1259.89 502.594,1258.2 505.306,1256.49 508.041,1254.77 510.799,1253.04 
  513.581,1251.29 516.385,1249.52 519.212,1247.75 522.063,1245.95 524.938,1244.15 527.835,1242.33 530.757,1240.49 533.702,1238.64 536.672,1236.77 539.665,1234.89 
  542.682,1232.99 545.723,1231.08 548.789,1229.15 551.879,1227.21 554.993,1225.25 558.132,1223.28 561.295,1221.29 564.483,1219.29 567.696,1217.27 570.934,1217.27 
  574.197,1215.24 577.485,1213.19 580.798,1211.12 584.136,1209.04 587.5,1206.94 590.89,1204.83 594.304,1202.7 597.745,1200.55 601.211,1198.39 604.704,1196.21 
  608.222,1194.02 611.766,1191.81 615.336,1189.58 618.933,1187.34 622.556,1185.08 626.205,1182.81 629.881,1180.51 633.584,1178.2 637.313,1175.88 641.07,1173.54 
  644.853,1171.18 648.663,1168.8 652.5,1166.41 656.365,1164 660.256,1161.57 664.175,1159.13 668.122,1156.67 672.096,1154.19 676.098,1151.69 680.128,1149.18 
  684.186,1146.65 688.271,1144.1 692.385,1141.54 696.527,1138.95 700.697,1136.35 704.896,1133.74 709.123,1131.1 713.378,1128.45 717.663,1125.78 721.976,1123.09 
  726.317,1120.38 730.688,1117.65 735.088,1114.91 739.517,1112.15 743.975,1109.37 748.463,1106.57 752.979,1103.75 757.526,1100.92 762.102,1098.06 766.708,1095.19 
  771.343,1092.3 776.009,1089.39 780.704,1086.46 785.43,1083.52 790.186,1080.55 794.972,1077.57 799.788,1074.56 804.635,1071.54 809.513,1068.5 814.421,1068.5 
  819.36,1065.44 824.33,1062.36 829.331,1059.26 834.363,1056.14 839.426,1053 844.52,1049.85 849.646,1046.67 854.803,1043.47 859.991,1040.26 865.212,1037.02 
  870.464,1033.77 875.748,1030.49 881.063,1027.2 886.411,1023.88 891.791,1020.55 897.203,1017.19 902.648,1013.82 908.124,1010.42 913.634,1007.01 919.176,1003.57 
  924.75,1000.12 930.358,996.64 935.998,993.143 941.671,989.626 947.378,986.088 953.117,982.53 958.89,978.951 964.696,975.351 970.536,971.731 976.409,968.089 
  982.316,964.427 988.257,960.743 994.231,957.039 1000.24,953.313 1006.28,949.567 1012.36,945.799 1018.47,942.009 1024.61,938.199 1030.79,934.367 1037.01,930.513 
  1043.26,926.638 1049.54,922.742 1055.86,918.824 1062.21,914.884 1068.6,910.922 1075.02,906.938 1081.48,902.933 1087.98,898.906 1094.51,894.856 1101.07,890.785 
  1107.67,886.691 1114.31,882.576 1120.98,878.438 1127.69,874.277 1134.43,870.095 1141.21,865.89 1148.02,861.662 1154.88,857.412 1161.76,853.139 1168.69,848.844 
  1175.65,844.526 1182.65,840.185 1189.68,835.821 1196.75,831.434 1203.86,827.025 1211.01,822.592 1218.19,818.136 1225.41,813.657 1232.67,809.155 1239.96,804.63 
  1247.29,800.081 1254.66,795.509 1262.07,790.913 1269.52,786.294 1277,781.652 1284.52,776.986 1292.08,772.296 1299.68,767.582 1307.31,762.844 1314.99,762.844 
  1322.7,758.083 1330.45,753.298 1338.24,748.489 1346.07,743.655 1353.93,738.798 1361.84,733.916 1369.79,729.011 1377.77,724.08 1385.79,719.126 1393.86,714.147 
  1401.96,709.144 1410.1,704.116 1418.28,699.064 1426.5,693.987 1434.76,688.885 1443.07,683.758 1451.41,678.607 1459.79,673.431 1468.21,668.23 1476.67,663.003 
  1485.17,657.752 1493.71,652.476 1502.3,647.174 1510.92,641.847 1519.59,636.495 1528.29,631.118 1537.04,625.715 1545.82,620.286 1554.65,614.833 1563.52,609.353 
  1572.43,603.848 1581.39,598.317 1590.38,592.76 1599.42,587.178 1608.49,581.569 1617.61,575.935 1626.77,570.274 1635.98,564.588 1645.22,558.875 1654.51,553.136 
  1663.84,547.371 1673.21,541.579 1682.63,535.761 1692.08,529.917 1701.58,524.046 1711.13,518.149 1720.71,512.225 1730.34,506.274 1740.01,500.297 1749.73,494.293 
  1759.49,488.261 1769.29,482.203 1779.13,476.118 1789.02,470.006 1798.95,463.867 1808.93,457.701 1818.95,451.507 1829.01,445.286 1839.12,439.038 1849.27,432.763 
  1859.47,426.46 1869.71,420.129 1880,413.771 1890.32,407.385 1900.7,400.972 1911.12,394.53 1921.58,388.061 1932.09,381.564 1942.64,375.039 1953.24,368.486 
  1963.89,361.905 1974.58,355.296 1985.31,348.659 1996.09,341.993 2006.92,335.3 2017.79,328.577 2028.7,321.827 2039.67,315.048 2050.68,308.24 2061.73,301.404 
  2072.83,294.539 2083.98,287.645 2095.17,280.723 2106.41,273.771 2117.7,266.791 2129.03,259.782 2140.41,252.744 2151.84,245.677 2163.32,238.58 2174.84,231.455 
  2186.4,231.455 2198.02,224.3 2209.68,217.116 2221.39,209.902 2233.15,202.659 2244.96,195.386 2256.81,188.084 2268.71,180.753 2280.66,173.391 2292.65,166 
  
  "/>
<polygon clip-path="url(#clip5700)" points="
1636.82,1281.62 2280.76,1281.62 2280.76,1100.18 1636.82,1100.18 
  " fill="#ffffff" fill-rule="evenodd" fill-opacity="1"/>
<polyline clip-path="url(#clip5700)" style="stroke:#000000; stroke-width:4; stroke-opacity:1; fill:none" points="
  1636.82,1281.62 2280.76,1281.62 2280.76,1100.18 1636.82,1100.18 1636.82,1281.62 
  "/>
<polyline clip-path="url(#clip5700)" style="stroke:#009af9; stroke-width:4; stroke-opacity:1; fill:none" points="
  1660.82,1160.66 1804.82,1160.66 
  "/>
<g clip-path="url(#clip5700)">
<text style="fill:#000000; fill-opacity:1; font-family:Arial,Helvetica Neue,Helvetica,sans-serif; font-size:48px; text-anchor:start;" transform="rotate(0, 1828.82, 1178.16)" x="1828.82" y="1178.16">Employed in Boom</text>
</g>
<polyline clip-path="url(#clip5700)" style="stroke:#e26f46; stroke-width:4; stroke-opacity:1; fill:none" points="
  1660.82,1221.14 1804.82,1221.14 
  "/>
<g clip-path="url(#clip5700)">
<text style="fill:#000000; fill-opacity:1; font-family:Arial,Helvetica Neue,Helvetica,sans-serif; font-size:48px; text-anchor:start;" transform="rotate(0, 1828.82, 1238.64)" x="1828.82" y="1238.64">Employed in Bust</text>
</g>
</svg>
