<?xml version="1.0" encoding="utf-8"?>
<svg xmlns="http://www.w3.org/2000/svg" xmlns:xlink="http://www.w3.org/1999/xlink" width="600" height="400" viewBox="0 0 2400 1600">
<defs>
  <clipPath id="clip8900">
    <rect x="0" y="0" width="2400" height="1600"/>
  </clipPath>
</defs>
<polygon clip-path="url(#clip8900)" points="
0,1600 2400,1600 2400,0 0,0 
  " fill="#ffffff" fill-rule="evenodd" fill-opacity="1"/>
<defs>
  <clipPath id="clip8901">
    <rect x="480" y="0" width="1681" height="1600"/>
  </clipPath>
</defs>
<polygon clip-path="url(#clip8900)" points="
180.66,1487.47 2352.76,1487.47 2352.76,121.675 180.66,121.675 
  " fill="#ffffff" fill-rule="evenodd" fill-opacity="1"/>
<defs>
  <clipPath id="clip8902">
    <rect x="180" y="121" width="2173" height="1367"/>
  </clipPath>
</defs>
<polyline clip-path="url(#clip8902)" style="stroke:#000000; stroke-width:2; stroke-opacity:0.1; fill:none" points="
  180.87,1487.47 180.87,121.675 
  "/>
<polyline clip-path="url(#clip8902)" style="stroke:#000000; stroke-width:2; stroke-opacity:0.1; fill:none" points="
  505.755,1487.47 505.755,121.675 
  "/>
<polyline clip-path="url(#clip8902)" style="stroke:#000000; stroke-width:2; stroke-opacity:0.1; fill:none" points="
  830.64,1487.47 830.64,121.675 
  "/>
<polyline clip-path="url(#clip8902)" style="stroke:#000000; stroke-width:2; stroke-opacity:0.1; fill:none" points="
  1155.53,1487.47 1155.53,121.675 
  "/>
<polyline clip-path="url(#clip8902)" style="stroke:#000000; stroke-width:2; stroke-opacity:0.1; fill:none" points="
  1480.41,1487.47 1480.41,121.675 
  "/>
<polyline clip-path="url(#clip8902)" style="stroke:#000000; stroke-width:2; stroke-opacity:0.1; fill:none" points="
  1805.3,1487.47 1805.3,121.675 
  "/>
<polyline clip-path="url(#clip8902)" style="stroke:#000000; stroke-width:2; stroke-opacity:0.1; fill:none" points="
  2130.18,1487.47 2130.18,121.675 
  "/>
<polyline clip-path="url(#clip8902)" style="stroke:#000000; stroke-width:2; stroke-opacity:0.1; fill:none" points="
  180.66,1448.82 2352.76,1448.82 
  "/>
<polyline clip-path="url(#clip8902)" style="stroke:#000000; stroke-width:2; stroke-opacity:0.1; fill:none" points="
  180.66,1191.05 2352.76,1191.05 
  "/>
<polyline clip-path="url(#clip8902)" style="stroke:#000000; stroke-width:2; stroke-opacity:0.1; fill:none" points="
  180.66,933.288 2352.76,933.288 
  "/>
<polyline clip-path="url(#clip8902)" style="stroke:#000000; stroke-width:2; stroke-opacity:0.1; fill:none" points="
  180.66,675.521 2352.76,675.521 
  "/>
<polyline clip-path="url(#clip8902)" style="stroke:#000000; stroke-width:2; stroke-opacity:0.1; fill:none" points="
  180.66,417.755 2352.76,417.755 
  "/>
<polyline clip-path="url(#clip8902)" style="stroke:#000000; stroke-width:2; stroke-opacity:0.1; fill:none" points="
  180.66,159.989 2352.76,159.989 
  "/>
<polyline clip-path="url(#clip8900)" style="stroke:#000000; stroke-width:4; stroke-opacity:1; fill:none" points="
  180.66,1487.47 2352.76,1487.47 
  "/>
<polyline clip-path="url(#clip8900)" style="stroke:#000000; stroke-width:4; stroke-opacity:1; fill:none" points="
  180.66,1487.47 180.66,121.675 
  "/>
<polyline clip-path="url(#clip8900)" style="stroke:#000000; stroke-width:4; stroke-opacity:1; fill:none" points="
  180.87,1487.47 180.87,1466.99 
  "/>
<polyline clip-path="url(#clip8900)" style="stroke:#000000; stroke-width:4; stroke-opacity:1; fill:none" points="
  505.755,1487.47 505.755,1466.99 
  "/>
<polyline clip-path="url(#clip8900)" style="stroke:#000000; stroke-width:4; stroke-opacity:1; fill:none" points="
  830.64,1487.47 830.64,1466.99 
  "/>
<polyline clip-path="url(#clip8900)" style="stroke:#000000; stroke-width:4; stroke-opacity:1; fill:none" points="
  1155.53,1487.47 1155.53,1466.99 
  "/>
<polyline clip-path="url(#clip8900)" style="stroke:#000000; stroke-width:4; stroke-opacity:1; fill:none" points="
  1480.41,1487.47 1480.41,1466.99 
  "/>
<polyline clip-path="url(#clip8900)" style="stroke:#000000; stroke-width:4; stroke-opacity:1; fill:none" points="
  1805.3,1487.47 1805.3,1466.99 
  "/>
<polyline clip-path="url(#clip8900)" style="stroke:#000000; stroke-width:4; stroke-opacity:1; fill:none" points="
  2130.18,1487.47 2130.18,1466.99 
  "/>
<polyline clip-path="url(#clip8900)" style="stroke:#000000; stroke-width:4; stroke-opacity:1; fill:none" points="
  180.66,1448.82 213.242,1448.82 
  "/>
<polyline clip-path="url(#clip8900)" style="stroke:#000000; stroke-width:4; stroke-opacity:1; fill:none" points="
  180.66,1191.05 213.242,1191.05 
  "/>
<polyline clip-path="url(#clip8900)" style="stroke:#000000; stroke-width:4; stroke-opacity:1; fill:none" points="
  180.66,933.288 213.242,933.288 
  "/>
<polyline clip-path="url(#clip8900)" style="stroke:#000000; stroke-width:4; stroke-opacity:1; fill:none" points="
  180.66,675.521 213.242,675.521 
  "/>
<polyline clip-path="url(#clip8900)" style="stroke:#000000; stroke-width:4; stroke-opacity:1; fill:none" points="
  180.66,417.755 213.242,417.755 
  "/>
<polyline clip-path="url(#clip8900)" style="stroke:#000000; stroke-width:4; stroke-opacity:1; fill:none" points="
  180.66,159.989 213.242,159.989 
  "/>
<g clip-path="url(#clip8900)">
<text style="fill:#000000; fill-opacity:1; font-family:Arial,Helvetica Neue,Helvetica,sans-serif; font-size:48px; text-anchor:middle;" transform="rotate(0, 180.87, 1541.47)" x="180.87" y="1541.47">-10</text>
</g>
<g clip-path="url(#clip8900)">
<text style="fill:#000000; fill-opacity:1; font-family:Arial,Helvetica Neue,Helvetica,sans-serif; font-size:48px; text-anchor:middle;" transform="rotate(0, 505.755, 1541.47)" x="505.755" y="1541.47">0</text>
</g>
<g clip-path="url(#clip8900)">
<text style="fill:#000000; fill-opacity:1; font-family:Arial,Helvetica Neue,Helvetica,sans-serif; font-size:48px; text-anchor:middle;" transform="rotate(0, 830.64, 1541.47)" x="830.64" y="1541.47">10</text>
</g>
<g clip-path="url(#clip8900)">
<text style="fill:#000000; fill-opacity:1; font-family:Arial,Helvetica Neue,Helvetica,sans-serif; font-size:48px; text-anchor:middle;" transform="rotate(0, 1155.53, 1541.47)" x="1155.53" y="1541.47">20</text>
</g>
<g clip-path="url(#clip8900)">
<text style="fill:#000000; fill-opacity:1; font-family:Arial,Helvetica Neue,Helvetica,sans-serif; font-size:48px; text-anchor:middle;" transform="rotate(0, 1480.41, 1541.47)" x="1480.41" y="1541.47">30</text>
</g>
<g clip-path="url(#clip8900)">
<text style="fill:#000000; fill-opacity:1; font-family:Arial,Helvetica Neue,Helvetica,sans-serif; font-size:48px; text-anchor:middle;" transform="rotate(0, 1805.3, 1541.47)" x="1805.3" y="1541.47">40</text>
</g>
<g clip-path="url(#clip8900)">
<text style="fill:#000000; fill-opacity:1; font-family:Arial,Helvetica Neue,Helvetica,sans-serif; font-size:48px; text-anchor:middle;" transform="rotate(0, 2130.18, 1541.47)" x="2130.18" y="1541.47">50</text>
</g>
<g clip-path="url(#clip8900)">
<text style="fill:#000000; fill-opacity:1; font-family:Arial,Helvetica Neue,Helvetica,sans-serif; font-size:48px; text-anchor:end;" transform="rotate(0, 156.66, 1466.32)" x="156.66" y="1466.32">0.00</text>
</g>
<g clip-path="url(#clip8900)">
<text style="fill:#000000; fill-opacity:1; font-family:Arial,Helvetica Neue,Helvetica,sans-serif; font-size:48px; text-anchor:end;" transform="rotate(0, 156.66, 1208.55)" x="156.66" y="1208.55">0.05</text>
</g>
<g clip-path="url(#clip8900)">
<text style="fill:#000000; fill-opacity:1; font-family:Arial,Helvetica Neue,Helvetica,sans-serif; font-size:48px; text-anchor:end;" transform="rotate(0, 156.66, 950.788)" x="156.66" y="950.788">0.10</text>
</g>
<g clip-path="url(#clip8900)">
<text style="fill:#000000; fill-opacity:1; font-family:Arial,Helvetica Neue,Helvetica,sans-serif; font-size:48px; text-anchor:end;" transform="rotate(0, 156.66, 693.021)" x="156.66" y="693.021">0.15</text>
</g>
<g clip-path="url(#clip8900)">
<text style="fill:#000000; fill-opacity:1; font-family:Arial,Helvetica Neue,Helvetica,sans-serif; font-size:48px; text-anchor:end;" transform="rotate(0, 156.66, 435.255)" x="156.66" y="435.255">0.20</text>
</g>
<g clip-path="url(#clip8900)">
<text style="fill:#000000; fill-opacity:1; font-family:Arial,Helvetica Neue,Helvetica,sans-serif; font-size:48px; text-anchor:end;" transform="rotate(0, 156.66, 177.489)" x="156.66" y="177.489">0.25</text>
</g>
<g clip-path="url(#clip8900)">
<text style="fill:#000000; fill-opacity:1; font-family:Arial,Helvetica Neue,Helvetica,sans-serif; font-size:84px; text-anchor:middle;" transform="rotate(0, 1266.71, 73.2)" x="1266.71" y="73.2">PDF asset holdings for employed in boom and bust</text>
</g>
<polyline clip-path="url(#clip8902)" style="stroke:#009af9; stroke-width:8; stroke-opacity:1; fill:none" points="
  255.779,1448.82 259.83,1448.82 263.882,1448.82 267.933,1448.82 271.985,1448.82 276.036,1448.82 280.088,1448.82 284.139,1448.82 288.191,1448.82 292.242,1448.82 
  296.294,1448.82 300.345,1448.82 304.397,1448.82 308.448,1448.82 312.5,1448.82 316.551,1448.82 320.603,1448.82 324.654,1448.82 328.706,1448.82 332.757,1448.82 
  336.809,1448.82 340.86,1448.82 344.912,1448.82 348.963,1448.82 353.015,1448.82 357.066,1448.82 361.118,1448.82 365.169,1448.82 369.221,1448.82 373.272,1448.82 
  377.324,1448.82 381.375,1448.82 385.427,1448.82 389.478,1448.82 393.53,1448.82 397.581,1448.82 401.633,1448.82 405.684,1448.82 409.736,1448.82 413.787,1448.82 
  417.839,1448.82 421.89,1448.82 425.942,1448.82 429.993,1448.82 434.045,1448.79 438.096,1448.73 442.148,1448.64 446.199,1448.5 450.25,1448.33 454.302,1448.13 
  458.353,1447.89 462.405,1447.61 466.456,1447.29 470.508,1446.92 474.559,1446.49 478.611,1445.99 482.662,1445.4 486.714,1444.73 490.765,1443.98 494.817,1443.16 
  498.868,1442.29 502.92,1441.35 506.971,1440.32 511.023,1439.21 515.074,1438.03 519.126,1436.76 523.177,1435.37 527.229,1433.86 531.28,1432.22 535.332,1430.47 
  539.383,1428.59 543.435,1426.62 547.486,1424.57 551.538,1422.41 555.589,1420.11 559.641,1417.67 563.692,1415.11 567.744,1412.46 571.795,1409.75 575.847,1406.95 
  579.898,1404.06 583.95,1401.08 588.001,1398.01 592.053,1394.91 596.104,1391.81 600.156,1388.68 604.207,1385.62 608.259,1382.68 612.31,1379.86 616.362,1377.16 
  620.413,1374.62 624.465,1372.31 628.516,1370.26 632.568,1368.47 636.619,1366.88 640.671,1365.43 644.722,1364.13 648.774,1363.02 652.825,1362.06 656.877,1361.24 
  660.928,1360.59 664.98,1360.03 669.031,1359.52 673.083,1359.04 677.134,1358.57 681.186,1358.08 685.237,1357.61 689.289,1357.24 693.34,1356.95 697.392,1356.74 
  701.443,1356.62 705.494,1356.6 709.546,1356.67 713.597,1356.8 717.649,1357.07 721.7,1357.47 725.752,1357.98 729.803,1358.57 733.855,1359.19 737.906,1359.84 
  741.958,1360.53 746.009,1361.28 750.061,1362.11 754.112,1362.92 758.164,1363.74 762.215,1364.62 766.267,1365.57 770.318,1366.58 774.37,1367.7 778.421,1368.96 
  782.473,1370.33 786.524,1371.74 790.576,1373.1 794.627,1374.4 798.679,1375.72 802.73,1377.09 806.782,1378.52 810.833,1379.98 814.885,1381.51 818.936,1383.07 
  822.988,1384.62 827.039,1386.17 831.091,1387.78 835.142,1389.47 839.194,1391.24 843.245,1393.12 847.297,1395.07 851.348,1397.04 855.4,1399.04 859.451,1401.05 
  863.503,1403.03 867.554,1404.98 871.606,1406.84 875.657,1408.61 879.709,1410.27 883.76,1411.81 887.812,1413.23 891.863,1414.5 895.915,1415.69 899.966,1416.8 
  904.018,1417.83 908.069,1418.78 912.121,1419.64 916.172,1420.51 920.224,1421.42 924.275,1422.38 928.327,1423.41 932.378,1424.48 936.43,1425.58 940.481,1426.67 
  944.533,1427.73 948.584,1428.8 952.636,1429.88 956.687,1430.96 960.739,1432.01 964.79,1433.03 968.841,1434.03 972.893,1434.99 976.944,1435.89 980.996,1436.71 
  985.047,1437.44 989.099,1438.1 993.15,1438.68 997.202,1439.2 1001.25,1439.63 1005.3,1439.98 1009.36,1440.29 1013.41,1440.54 1017.46,1440.75 1021.51,1440.92 
  1025.56,1441.07 1029.61,1441.22 1033.67,1441.37 1037.72,1441.53 1041.77,1441.72 1045.82,1441.93 1049.87,1442.15 1053.92,1442.38 1057.97,1442.61 1062.03,1442.81 
  1066.08,1442.99 1070.13,1443.16 1074.18,1443.33 1078.23,1443.49 1082.28,1443.64 1086.33,1443.78 1090.39,1443.89 1094.44,1443.97 1098.49,1444.02 1102.54,1444.03 
  1106.59,1444.03 1110.64,1444 1114.7,1443.95 1118.75,1443.89 1122.8,1443.83 1126.85,1443.76 1130.9,1443.68 1134.95,1443.6 1139,1443.51 1143.06,1443.41 
  1147.11,1443.32 1151.16,1443.22 1155.21,1443.11 1159.26,1443 1163.31,1440.85 1167.36,1435.05 1171.42,1426.19 1175.47,1414.85 1179.52,1401.57 1183.57,1386.85 
  1187.62,1371.15 1191.67,1354.9 1195.73,1338.51 1199.78,1322.34 1203.83,1306.71 1207.88,1291.93 1211.93,1278.27 1215.98,1265.98 1220.03,1255.26 1224.09,1246.24 
  1228.14,1239.02 1232.19,1233.73 1236.24,1230.46 1240.29,1229.26 1244.34,1230.15 1248.39,1233.13 1252.45,1238.16 1256.5,1245.18 1260.55,1254.08 1264.6,1264.71 
  1268.65,1276.89 1272.7,1290.43 1276.75,1305.08 1280.81,1320.59 1284.86,1336.64 1288.91,1352.92 1292.96,1369.02 1297.01,1384.53 1301.06,1399.04 1305.12,1412.08 
  1309.17,1423.18 1313.22,1431.81 1317.27,1437.43 1321.32,1439.43 1325.37,1439.46 1329.42,1439.54 1333.48,1439.67 1337.53,1439.85 1341.58,1440.07 1345.63,1440.33 
  1349.68,1440.63 1353.73,1440.97 1357.78,1441.32 1361.84,1441.66 1365.89,1441.95 1369.94,1442.2 1373.99,1442.39 1378.04,1442.5 1382.09,1442.51 1386.15,1442.46 
  1390.2,1442.42 1394.25,1442.39 1398.3,1442.37 1402.35,1442.37 1406.4,1442.39 1410.45,1442.44 1414.51,1442.5 1418.56,1442.58 1422.61,1442.67 1426.66,1442.78 
  1430.71,1442.93 1434.76,1443.1 1438.81,1443.25 1442.87,1443.35 1446.92,1443.4 1450.97,1443.4 1455.02,1443.37 1459.07,1443.33 1463.12,1443.29 1467.18,1443.25 
  1471.23,1443.22 1475.28,1443.2 1479.33,1443.18 1483.38,1443.18 1487.43,1443.18 1491.48,1443.19 1495.54,1443.21 1499.59,1443.25 1503.64,1443.3 1507.69,1443.37 
  1511.74,1443.44 1515.79,1443.47 1519.84,1443.43 1523.9,1443.35 1527.95,1443.26 1532,1443.17 1536.05,1443.07 1540.1,1442.99 1544.15,1442.94 1548.2,1442.92 
  1552.26,1442.93 1556.31,1442.98 1560.36,1443.06 1564.41,1443.15 1568.46,1443.25 1572.51,1443.36 1576.57,1443.48 1580.62,1443.55 1584.67,1443.52 1588.72,1443.4 
  1592.77,1443.2 1596.82,1442.92 1600.87,1442.59 1604.93,1442.27 1608.98,1441.96 1613.03,1441.68 1617.08,1441.42 1621.13,1441.19 1625.18,1441.02 1629.23,1440.89 
  1633.29,1440.8 1637.34,1440.75 1641.39,1440.75 1645.44,1440.79 1649.49,1440.83 1653.54,1440.84 1657.6,1440.82 1661.65,1440.77 1665.7,1440.7 1669.75,1440.59 
  1673.8,1440.44 1677.85,1440.28 1681.9,1440.17 1685.96,1440.11 1690.01,1440.09 1694.06,1440.13 1698.11,1440.22 1702.16,1440.33 1706.21,1440.46 1710.26,1440.59 
  1714.32,1440.73 1718.37,1440.86 1722.42,1440.92 1726.47,1440.85 1730.52,1440.67 1734.57,1440.4 1738.63,1440.03 1742.68,1439.63 1746.73,1439.25 1750.78,1438.92 
  1754.83,1438.65 1758.88,1438.43 1762.93,1438.28 1766.99,1438.2 1771.04,1438.19 1775.09,1438.23 1779.14,1438.31 1783.19,1438.44 1787.24,1438.61 1791.29,1438.81 
  1795.35,1438.94 1799.4,1438.92 1803.45,1438.77 1807.5,1438.48 1811.55,1438.13 1815.6,1437.77 1819.65,1437.42 1823.71,1437.09 1827.76,1436.8 1831.81,1436.56 
  1835.86,1436.39 1839.91,1436.29 1843.96,1436.26 1848.02,1436.29 1852.07,1436.36 1856.12,1436.45 1860.17,1436.55 1864.22,1436.67 1868.27,1436.57 1872.32,1436.03 
  1876.38,1435.12 1880.43,1433.88 1884.48,1432.44 1888.53,1430.91 1892.58,1429.35 1896.63,1427.82 1900.68,1426.35 1904.74,1424.97 1908.79,1423.72 1912.84,1422.62 
  1916.89,1421.69 1920.94,1420.95 1924.99,1420.39 1929.05,1418.8 1933.1,1415.2 1937.15,1409.96 1941.2,1403.4 1945.25,1395.83 1949.3,1376.33 1953.35,1336.23 
  1957.41,1279.14 1961.46,1208.45 1965.51,1127.29 1969.56,1038.57 1973.61,945.01 1977.66,849.121 1981.71,753.221 1985.77,659.427 1989.82,569.655 1993.87,485.621 
  1997.92,408.844 2001.97,340.639 2006.02,282.125 2010.08,234.218 2014.13,197.653 2018.18,172.968 2022.23,160.485 2026.28,160.33 2030.33,172.705 2034.38,197.669 
  2038.44,234.834 2042.49,283.615 2046.54,343.23 2050.59,412.704 2054.64,490.865 2058.69,576.346 2062.74,667.583 2066.8,762.818 2070.85,860.098 2074.9,957.271 
  2078.95,1051.99 2083,1141.72 2087.05,1223.72 2091.1,1296.41 2095.16,1358.26 2099.21,1406.37 2103.26,1437.64 2107.31,1448.82 2111.36,1448.82 2115.41,1448.82 
  2119.47,1448.82 2123.52,1448.82 2127.57,1448.82 2131.62,1448.82 2135.67,1448.82 2139.72,1448.82 2143.77,1448.82 2147.83,1448.82 2151.88,1448.82 2155.93,1448.82 
  2159.98,1448.82 2164.03,1448.82 2168.08,1448.82 2172.13,1448.82 2176.19,1448.82 2180.24,1448.82 2184.29,1448.82 2188.34,1448.82 2192.39,1448.82 2196.44,1448.82 
  2200.5,1448.82 2204.55,1448.82 2208.6,1448.82 2212.65,1448.82 2216.7,1448.82 2220.75,1448.82 2224.8,1448.82 2228.86,1448.82 2232.91,1448.82 2236.96,1448.82 
  2241.01,1448.82 2245.06,1448.82 2249.11,1448.82 2253.16,1448.82 2257.22,1448.82 2261.27,1448.82 2265.32,1448.82 2269.37,1448.82 2273.42,1448.82 2277.47,1448.82 
  
  "/>
<polyline clip-path="url(#clip8902)" style="stroke:#e26f46; stroke-width:8; stroke-opacity:1; fill:none" points="
  242.135,1448.82 246.241,1448.82 250.348,1448.82 254.454,1448.82 258.561,1448.82 262.667,1448.82 266.774,1448.82 270.88,1448.82 274.987,1448.82 279.093,1448.82 
  283.2,1448.82 287.306,1448.82 291.413,1448.82 295.519,1448.82 299.626,1448.82 303.732,1448.82 307.839,1448.82 311.945,1448.82 316.052,1448.82 320.158,1448.82 
  324.265,1448.82 328.371,1448.82 332.478,1448.82 336.584,1448.82 340.691,1448.82 344.797,1448.82 348.904,1448.82 353.01,1448.82 357.117,1448.82 361.223,1448.82 
  365.33,1448.82 369.436,1448.82 373.543,1448.82 377.649,1448.82 381.756,1448.82 385.862,1448.82 389.969,1448.82 394.075,1448.82 398.182,1448.82 402.288,1448.82 
  406.395,1448.82 410.501,1448.82 414.608,1448.82 418.715,1448.82 422.821,1448.82 426.928,1448.82 431.034,1448.79 435.141,1448.67 439.247,1448.45 443.354,1448.11 
  447.46,1447.63 451.567,1447.01 455.673,1446.24 459.78,1445.31 463.886,1444.17 467.993,1442.81 472.099,1441.21 476.206,1439.39 480.312,1437.33 484.419,1435.04 
  488.525,1432.47 492.632,1429.64 496.738,1426.57 500.845,1423.28 504.951,1419.82 509.058,1416.24 513.164,1412.59 517.271,1408.92 521.377,1405.26 525.484,1401.66 
  529.59,1398.14 533.697,1394.72 537.803,1391.41 541.91,1388.22 546.016,1385.15 550.123,1382.28 554.229,1379.64 558.336,1377.3 562.442,1375.23 566.549,1373.4 
  570.655,1371.83 574.762,1370.55 578.868,1369.51 582.975,1368.67 587.081,1367.99 591.188,1367.38 595.294,1366.83 599.401,1366.35 603.507,1366.01 607.614,1365.75 
  611.72,1365.52 615.827,1365.29 619.933,1365.03 624.04,1364.73 628.146,1364.43 632.253,1364.17 636.359,1363.94 640.466,1363.67 644.572,1363.38 648.679,1363.09 
  652.785,1362.85 656.892,1362.7 660.998,1362.68 665.105,1362.8 669.211,1363.04 673.318,1363.43 677.424,1363.96 681.531,1364.58 685.637,1365.28 689.744,1366.03 
  693.85,1366.77 697.957,1367.49 702.063,1368.25 706.17,1369.05 710.276,1369.94 714.383,1370.89 718.489,1371.86 722.596,1372.81 726.702,1373.78 730.809,1374.8 
  734.916,1375.86 739.022,1376.86 743.129,1377.8 747.235,1378.72 751.342,1379.62 755.448,1380.53 759.555,1381.45 763.661,1382.39 767.768,1383.25 771.874,1384.04 
  775.981,1384.84 780.087,1385.67 784.194,1386.55 788.3,1387.49 792.407,1388.48 796.513,1389.45 800.62,1390.43 804.726,1391.47 808.833,1392.58 812.939,1393.76 
  817.046,1394.97 821.152,1396.16 825.259,1397.3 829.365,1398.39 833.472,1399.43 837.578,1400.39 841.685,1401.23 845.791,1401.98 849.898,1402.64 854.004,1403.26 
  858.111,1403.89 862.217,1404.57 866.324,1405.29 870.43,1406.07 874.537,1406.93 878.643,1407.87 882.75,1408.86 886.856,1409.85 890.963,1410.83 895.069,1411.76 
  899.176,1412.6 903.282,1413.36 907.389,1414.04 911.495,1414.59 915.602,1414.99 919.708,1415.28 923.815,1415.49 927.921,1415.66 932.028,1415.84 936.134,1416.05 
  940.241,1416.29 944.347,1416.55 948.454,1416.78 952.56,1416.88 956.667,1416.92 960.773,1416.85 964.88,1416.66 968.986,1416.32 973.093,1415.8 977.199,1415.11 
  981.306,1414.28 985.412,1413.33 989.519,1412.32 993.625,1411.27 997.732,1410.25 1001.84,1409.31 1005.94,1408.5 1010.05,1407.86 1014.16,1407.38 1018.26,1407.08 
  1022.37,1406.83 1026.48,1406.51 1030.58,1406.16 1034.69,1405.76 1038.8,1405.25 1042.9,1404.6 1047.01,1403.85 1051.12,1403.1 1055.22,1402.18 1059.33,1401 
  1063.44,1399.68 1067.54,1398.3 1071.65,1396.96 1075.76,1395.75 1079.86,1394.74 1083.97,1393.95 1088.08,1393.09 1092.18,1391.87 1096.29,1390.39 1100.39,1388.74 
  1104.5,1386.99 1108.61,1385.18 1112.71,1383.43 1116.82,1381.85 1120.93,1380.47 1125.03,1379.33 1129.14,1378.49 1133.25,1378.01 1137.35,1377.97 1141.46,1378.34 
  1145.57,1379.16 1149.67,1380.46 1153.78,1382.21 1157.89,1384.41 1161.99,1386.4 1166.1,1387.63 1170.21,1388.22 1174.31,1388.26 1178.42,1387.82 1182.52,1386.95 
  1186.63,1385.82 1190.74,1384.63 1194.84,1383.39 1198.95,1382.18 1203.06,1381.07 1207.16,1380.1 1211.27,1379.29 1215.38,1378.6 1219.48,1378.18 1223.59,1378.14 
  1227.7,1378.41 1231.8,1378.95 1235.91,1379.71 1240.02,1380.62 1244.12,1381.61 1248.23,1382.59 1252.34,1383.83 1256.44,1385.66 1260.55,1388.04 1264.65,1390.93 
  1268.76,1394.26 1272.87,1397.98 1276.97,1402.03 1281.08,1406.34 1285.19,1410.83 1289.29,1415.42 1293.4,1419.98 1297.51,1424.37 1301.61,1428.47 1305.72,1432.14 
  1309.83,1435.26 1313.93,1437.67 1318.04,1439.22 1322.15,1439.74 1326.25,1439.71 1330.36,1439.74 1334.47,1439.82 1338.57,1439.94 1342.68,1440.11 1346.78,1440.33 
  1350.89,1440.58 1355,1440.86 1359.1,1441.17 1363.21,1441.48 1367.32,1441.74 1371.42,1441.96 1375.53,1442.13 1379.64,1442.21 1383.74,1442.2 1387.85,1442.14 
  1391.96,1442.1 1396.06,1442.07 1400.17,1442.06 1404.28,1442.09 1408.38,1442.15 1412.49,1442.23 1416.6,1442.34 1420.7,1442.46 1424.81,1442.59 1428.92,1442.74 
  1433.02,1442.92 1437.13,1443.09 1441.23,1443.22 1445.34,1443.29 1449.45,1443.33 1453.55,1443.3 1457.66,1443.24 1461.77,1443.18 1465.87,1443.12 1469.98,1443.07 
  1474.09,1443.04 1478.19,1443.02 1482.3,1443.01 1486.41,1443.02 1490.51,1443.04 1494.62,1443.07 1498.73,1443.11 1502.83,1443.18 1506.94,1443.27 1511.05,1443.37 
  1515.15,1443.44 1519.26,1443.45 1523.36,1443.4 1527.47,1443.31 1531.58,1443.22 1535.68,1443.12 1539.79,1443.04 1543.9,1442.99 1548,1442.98 1552.11,1442.99 
  1556.22,1443.04 1560.32,1443.12 1564.43,1443.22 1568.54,1443.33 1572.64,1443.44 1576.75,1443.55 1580.86,1443.62 1584.96,1443.59 1589.07,1443.48 1593.18,1443.27 
  1597.28,1442.99 1601.39,1442.67 1605.49,1442.36 1609.6,1442.06 1613.71,1441.77 1617.81,1441.5 1621.92,1441.28 1626.03,1441.1 1630.13,1440.96 1634.24,1440.87 
  1638.35,1440.82 1642.45,1440.8 1646.56,1440.84 1650.67,1440.88 1654.77,1440.89 1658.88,1440.87 1662.99,1440.83 1667.09,1440.76 1671.2,1440.65 1675.31,1440.5 
  1679.41,1440.36 1683.52,1440.26 1687.63,1440.2 1691.73,1440.19 1695.84,1440.24 1699.94,1440.31 1704.05,1440.4 1708.16,1440.5 1712.26,1440.62 1716.37,1440.74 
  1720.48,1440.8 1724.58,1440.73 1728.69,1440.57 1732.8,1440.32 1736.9,1439.99 1741.01,1439.59 1745.12,1439.17 1749.22,1438.8 1753.33,1438.48 1757.44,1438.22 
  1761.54,1438.04 1765.65,1437.93 1769.76,1437.9 1773.86,1437.92 1777.97,1438 1782.07,1438.14 1786.18,1438.32 1790.29,1438.56 1794.39,1438.73 1798.5,1438.77 
  1802.61,1438.69 1806.71,1438.5 1810.82,1438.21 1814.93,1437.87 1819.03,1437.54 1823.14,1437.23 1827.25,1436.96 1831.35,1436.73 1835.46,1436.56 1839.57,1436.46 
  1843.67,1436.43 1847.78,1436.46 1851.89,1436.53 1855.99,1436.62 1860.1,1436.72 1864.2,1436.83 1868.31,1436.73 1872.42,1436.2 1876.52,1435.3 1880.63,1434.08 
  1884.74,1432.66 1888.84,1431.15 1892.95,1429.62 1897.06,1428.1 1901.16,1426.65 1905.27,1425.29 1909.38,1424.06 1913.48,1422.97 1917.59,1422.06 1921.7,1421.32 
  1925.8,1420.77 1929.91,1419.2 1934.02,1415.65 1938.12,1410.48 1942.23,1404.01 1946.33,1385.51 1950.44,1346.44 1954.55,1290.28 1958.65,1220.39 1962.76,1139.96 
  1966.87,1051.9 1970.97,958.899 1975.08,863.472 1979.19,767.924 1983.29,674.368 1987.4,584.716 1991.51,500.686 1995.61,423.797 1999.72,355.373 2003.83,296.537 
  2007.93,248.219 2012.04,211.15 2016.15,185.879 2020.25,172.765 2024.36,171.951 2028.47,183.386 2032.57,207.096 2036.68,242.966 2040.78,290.438 2044.89,348.76 
  2049,416.99 2053.1,493.988 2057.21,578.426 2061.32,668.781 2065.42,763.335 2069.53,860.181 2073.64,957.216 2077.74,1052.14 2081.85,1142.48 2085.96,1225.54 
  2090.06,1298.45 2094.17,1359.47 2098.28,1406.93 2102.38,1437.79 2106.49,1448.82 2110.6,1448.82 2114.7,1448.82 2118.81,1448.82 2122.91,1448.82 2127.02,1448.82 
  2131.13,1448.82 2135.23,1448.82 2139.34,1448.82 2143.45,1448.82 2147.55,1448.82 2151.66,1448.82 2155.77,1448.82 2159.87,1448.82 2163.98,1448.82 2168.09,1448.82 
  2172.19,1448.82 2176.3,1448.82 2180.41,1448.82 2184.51,1448.82 2188.62,1448.82 2192.73,1448.82 2196.83,1448.82 2200.94,1448.82 2205.04,1448.82 2209.15,1448.82 
  2213.26,1448.82 2217.36,1448.82 2221.47,1448.82 2225.58,1448.82 2229.68,1448.82 2233.79,1448.82 2237.9,1448.82 2242,1448.82 2246.11,1448.82 2250.22,1448.82 
  2254.32,1448.82 2258.43,1448.82 2262.54,1448.82 2266.64,1448.82 2270.75,1448.82 2274.86,1448.82 2278.96,1448.82 2283.07,1448.82 2287.17,1448.82 2291.28,1448.82 
  
  "/>
<polygon clip-path="url(#clip8900)" points="
252.66,386.635 845.769,386.635 845.769,205.195 252.66,205.195 
  " fill="#ffffff" fill-rule="evenodd" fill-opacity="1"/>
<polyline clip-path="url(#clip8900)" style="stroke:#000000; stroke-width:4; stroke-opacity:1; fill:none" points="
  252.66,386.635 845.769,386.635 845.769,205.195 252.66,205.195 252.66,386.635 
  "/>
<polyline clip-path="url(#clip8900)" style="stroke:#009af9; stroke-width:8; stroke-opacity:1; fill:none" points="
  276.66,265.675 420.66,265.675 
  "/>
<g clip-path="url(#clip8900)">
<text style="fill:#000000; fill-opacity:1; font-family:Arial,Helvetica Neue,Helvetica,sans-serif; font-size:48px; text-anchor:start;" transform="rotate(0, 444.66, 283.175)" x="444.66" y="283.175">Employed Boom</text>
</g>
<polyline clip-path="url(#clip8900)" style="stroke:#e26f46; stroke-width:8; stroke-opacity:1; fill:none" points="
  276.66,326.155 420.66,326.155 
  "/>
<g clip-path="url(#clip8900)">
<text style="fill:#000000; fill-opacity:1; font-family:Arial,Helvetica Neue,Helvetica,sans-serif; font-size:48px; text-anchor:start;" transform="rotate(0, 444.66, 343.655)" x="444.66" y="343.655">Employed Bust</text>
</g>
</svg>
