<?xml version="1.0" encoding="utf-8"?>
<svg xmlns="http://www.w3.org/2000/svg" xmlns:xlink="http://www.w3.org/1999/xlink" width="600" height="400" viewBox="0 0 2400 1600">
<defs>
  <clipPath id="clip7300">
    <rect x="0" y="0" width="2400" height="1600"/>
  </clipPath>
</defs>
<polygon clip-path="url(#clip7300)" points="
0,1600 2400,1600 2400,0 0,0 
  " fill="#ffffff" fill-rule="evenodd" fill-opacity="1"/>
<defs>
  <clipPath id="clip7301">
    <rect x="480" y="0" width="1681" height="1600"/>
  </clipPath>
</defs>
<polygon clip-path="url(#clip7300)" points="
229.135,1425.62 2352.76,1425.62 2352.76,121.675 229.135,121.675 
  " fill="#ffffff" fill-rule="evenodd" fill-opacity="1"/>
<defs>
  <clipPath id="clip7302">
    <rect x="229" y="121" width="2125" height="1305"/>
  </clipPath>
</defs>
<polyline clip-path="url(#clip7302)" style="stroke:#000000; stroke-width:2; stroke-opacity:0.1; fill:none" points="
  289.238,1425.62 289.238,121.675 
  "/>
<polyline clip-path="url(#clip7302)" style="stroke:#000000; stroke-width:2; stroke-opacity:0.1; fill:none" points="
  790.092,1425.62 790.092,121.675 
  "/>
<polyline clip-path="url(#clip7302)" style="stroke:#000000; stroke-width:2; stroke-opacity:0.1; fill:none" points="
  1290.95,1425.62 1290.95,121.675 
  "/>
<polyline clip-path="url(#clip7302)" style="stroke:#000000; stroke-width:2; stroke-opacity:0.1; fill:none" points="
  1791.8,1425.62 1791.8,121.675 
  "/>
<polyline clip-path="url(#clip7302)" style="stroke:#000000; stroke-width:2; stroke-opacity:0.1; fill:none" points="
  2292.65,1425.62 2292.65,121.675 
  "/>
<polyline clip-path="url(#clip7302)" style="stroke:#000000; stroke-width:2; stroke-opacity:0.1; fill:none" points="
  229.135,1417.33 2352.76,1417.33 
  "/>
<polyline clip-path="url(#clip7302)" style="stroke:#000000; stroke-width:2; stroke-opacity:0.1; fill:none" points="
  229.135,1191.36 2352.76,1191.36 
  "/>
<polyline clip-path="url(#clip7302)" style="stroke:#000000; stroke-width:2; stroke-opacity:0.1; fill:none" points="
  229.135,852.397 2352.76,852.397 
  "/>
<polyline clip-path="url(#clip7302)" style="stroke:#000000; stroke-width:2; stroke-opacity:0.1; fill:none" points="
  229.135,513.436 2352.76,513.436 
  "/>
<polyline clip-path="url(#clip7302)" style="stroke:#000000; stroke-width:2; stroke-opacity:0.1; fill:none" points="
  229.135,287.462 2352.76,287.462 
  "/>
<polyline clip-path="url(#clip7300)" style="stroke:#000000; stroke-width:4; stroke-opacity:1; fill:none" points="
  229.135,1425.62 2352.76,1425.62 
  "/>
<polyline clip-path="url(#clip7300)" style="stroke:#000000; stroke-width:4; stroke-opacity:1; fill:none" points="
  229.135,1425.62 229.135,121.675 
  "/>
<polyline clip-path="url(#clip7300)" style="stroke:#000000; stroke-width:4; stroke-opacity:1; fill:none" points="
  289.238,1425.62 289.238,1406.06 
  "/>
<polyline clip-path="url(#clip7300)" style="stroke:#000000; stroke-width:4; stroke-opacity:1; fill:none" points="
  790.092,1425.62 790.092,1406.06 
  "/>
<polyline clip-path="url(#clip7300)" style="stroke:#000000; stroke-width:4; stroke-opacity:1; fill:none" points="
  1290.95,1425.62 1290.95,1406.06 
  "/>
<polyline clip-path="url(#clip7300)" style="stroke:#000000; stroke-width:4; stroke-opacity:1; fill:none" points="
  1791.8,1425.62 1791.8,1406.06 
  "/>
<polyline clip-path="url(#clip7300)" style="stroke:#000000; stroke-width:4; stroke-opacity:1; fill:none" points="
  2292.65,1425.62 2292.65,1406.06 
  "/>
<polyline clip-path="url(#clip7300)" style="stroke:#000000; stroke-width:4; stroke-opacity:1; fill:none" points="
  229.135,1417.33 260.99,1417.33 
  "/>
<polyline clip-path="url(#clip7300)" style="stroke:#000000; stroke-width:4; stroke-opacity:1; fill:none" points="
  229.135,1191.36 260.99,1191.36 
  "/>
<polyline clip-path="url(#clip7300)" style="stroke:#000000; stroke-width:4; stroke-opacity:1; fill:none" points="
  229.135,852.397 260.99,852.397 
  "/>
<polyline clip-path="url(#clip7300)" style="stroke:#000000; stroke-width:4; stroke-opacity:1; fill:none" points="
  229.135,513.436 260.99,513.436 
  "/>
<polyline clip-path="url(#clip7300)" style="stroke:#000000; stroke-width:4; stroke-opacity:1; fill:none" points="
  229.135,287.462 260.99,287.462 
  "/>
<g clip-path="url(#clip7300)">
<text style="fill:#000000; fill-opacity:1; font-family:Arial,Helvetica Neue,Helvetica,sans-serif; font-size:48px; text-anchor:middle;" transform="rotate(0, 289.238, 1479.62)" x="289.238" y="1479.62">20</text>
</g>
<g clip-path="url(#clip7300)">
<text style="fill:#000000; fill-opacity:1; font-family:Arial,Helvetica Neue,Helvetica,sans-serif; font-size:48px; text-anchor:middle;" transform="rotate(0, 790.092, 1479.62)" x="790.092" y="1479.62">40</text>
</g>
<g clip-path="url(#clip7300)">
<text style="fill:#000000; fill-opacity:1; font-family:Arial,Helvetica Neue,Helvetica,sans-serif; font-size:48px; text-anchor:middle;" transform="rotate(0, 1290.95, 1479.62)" x="1290.95" y="1479.62">60</text>
</g>
<g clip-path="url(#clip7300)">
<text style="fill:#000000; fill-opacity:1; font-family:Arial,Helvetica Neue,Helvetica,sans-serif; font-size:48px; text-anchor:middle;" transform="rotate(0, 1791.8, 1479.62)" x="1791.8" y="1479.62">80</text>
</g>
<g clip-path="url(#clip7300)">
<text style="fill:#000000; fill-opacity:1; font-family:Arial,Helvetica Neue,Helvetica,sans-serif; font-size:48px; text-anchor:middle;" transform="rotate(0, 2292.65, 1479.62)" x="2292.65" y="1479.62">100</text>
</g>
<g clip-path="url(#clip7300)">
<text style="fill:#000000; fill-opacity:1; font-family:Arial,Helvetica Neue,Helvetica,sans-serif; font-size:48px; text-anchor:end;" transform="rotate(0, 205.135, 1434.83)" x="205.135" y="1434.83">100</text>
</g>
<g clip-path="url(#clip7300)">
<text style="fill:#000000; fill-opacity:1; font-family:Arial,Helvetica Neue,Helvetica,sans-serif; font-size:48px; text-anchor:end;" transform="rotate(0, 205.135, 1208.86)" x="205.135" y="1208.86">102</text>
</g>
<g clip-path="url(#clip7300)">
<text style="fill:#000000; fill-opacity:1; font-family:Arial,Helvetica Neue,Helvetica,sans-serif; font-size:48px; text-anchor:end;" transform="rotate(0, 205.135, 869.897)" x="205.135" y="869.897">105</text>
</g>
<g clip-path="url(#clip7300)">
<text style="fill:#000000; fill-opacity:1; font-family:Arial,Helvetica Neue,Helvetica,sans-serif; font-size:48px; text-anchor:end;" transform="rotate(0, 205.135, 530.936)" x="205.135" y="530.936">108</text>
</g>
<g clip-path="url(#clip7300)">
<text style="fill:#000000; fill-opacity:1; font-family:Arial,Helvetica Neue,Helvetica,sans-serif; font-size:48px; text-anchor:end;" transform="rotate(0, 205.135, 304.962)" x="205.135" y="304.962">110</text>
</g>
<g clip-path="url(#clip7300)">
<text style="fill:#000000; fill-opacity:1; font-family:Arial,Helvetica Neue,Helvetica,sans-serif; font-size:84px; text-anchor:middle;" transform="rotate(0, 1290.95, 73.2)" x="1290.95" y="73.2">Value Function</text>
</g>
<g clip-path="url(#clip7300)">
<text style="fill:#000000; fill-opacity:1; font-family:Arial,Helvetica Neue,Helvetica,sans-serif; font-size:66px; text-anchor:middle;" transform="rotate(0, 1290.95, 1559.48)" x="1290.95" y="1559.48">Aggregate Capital at t</text>
</g>
<g clip-path="url(#clip7300)">
<text style="fill:#000000; fill-opacity:1; font-family:Arial,Helvetica Neue,Helvetica,sans-serif; font-size:66px; text-anchor:middle;" transform="rotate(-90, 89.2861, 773.647)" x="89.2861" y="773.647">Value Function</text>
</g>
<polyline clip-path="url(#clip7302)" style="stroke:#009af9; stroke-width:4; stroke-opacity:1; fill:none" points="
  289.238,728.958 394.681,692.633 500.124,654.555 605.567,616.792 711.009,579.887 816.452,544.112 921.895,509.788 1027.34,476.548 1132.78,444.597 1238.22,413.854 
  1343.67,384.226 1449.11,355.588 1554.55,328.052 1660,301.436 1765.44,275.663 1870.88,250.772 1976.32,226.698 2081.77,203.351 2187.21,180.658 2292.65,158.579 
  
  "/>
<polyline clip-path="url(#clip7302)" style="stroke:#e26f46; stroke-width:4; stroke-opacity:1; fill:none" points="
  289.238,1203.99 394.681,1163.1 500.124,1122.96 605.567,1084.36 711.009,1047.37 816.452,1012.04 921.895,978.238 1027.34,945.989 1132.78,915.204 1238.22,885.74 
  1343.67,857.415 1449.11,830.221 1554.55,804.071 1660,778.943 1765.44,754.672 1870.88,731.361 1976.32,708.875 2081.77,687.135 2187.21,666.06 2292.65,645.604 
  
  "/>
<polyline clip-path="url(#clip7302)" style="stroke:#3da44d; stroke-width:4; stroke-opacity:1; fill:none" points="
  289.238,758.487 394.681,720.817 500.124,681.825 605.567,643.398 711.009,605.886 816.452,569.698 921.895,534.975 1027.34,501.427 1132.78,469.233 1238.22,438.293 
  1343.67,408.389 1449.11,379.622 1554.55,351.97 1660,325.137 1765.44,299.286 1870.88,274.334 1976.32,250.15 2081.77,226.686 2187.21,203.905 2292.65,181.783 
  
  "/>
<polyline clip-path="url(#clip7302)" style="stroke:#c271d2; stroke-width:4; stroke-opacity:1; fill:none" points="
  289.238,1388.71 394.681,1349.14 500.124,1310.36 605.567,1273.21 711.009,1237.58 816.452,1203.52 921.895,1171.02 1027.34,1139.99 1132.78,1110.34 1238.22,1081.99 
  1343.67,1054.71 1449.11,1028.53 1554.55,1003.33 1660,979.09 1765.44,955.701 1870.88,933.198 1976.32,911.495 2081.77,890.515 2187.21,870.214 2292.65,850.528 
  
  "/>
<polygon clip-path="url(#clip7300)" points="
1580.65,507.595 2280.76,507.595 2280.76,205.195 1580.65,205.195 
  " fill="#ffffff" fill-rule="evenodd" fill-opacity="1"/>
<polyline clip-path="url(#clip7300)" style="stroke:#000000; stroke-width:4; stroke-opacity:1; fill:none" points="
  1580.65,507.595 2280.76,507.595 2280.76,205.195 1580.65,205.195 1580.65,507.595 
  "/>
<polyline clip-path="url(#clip7300)" style="stroke:#009af9; stroke-width:4; stroke-opacity:1; fill:none" points="
  1604.65,265.675 1748.65,265.675 
  "/>
<g clip-path="url(#clip7300)">
<text style="fill:#000000; fill-opacity:1; font-family:Arial,Helvetica Neue,Helvetica,sans-serif; font-size:48px; text-anchor:start;" transform="rotate(0, 1772.65, 283.175)" x="1772.65" y="283.175">Employed in Boom</text>
</g>
<polyline clip-path="url(#clip7300)" style="stroke:#e26f46; stroke-width:4; stroke-opacity:1; fill:none" points="
  1604.65,326.155 1748.65,326.155 
  "/>
<g clip-path="url(#clip7300)">
<text style="fill:#000000; fill-opacity:1; font-family:Arial,Helvetica Neue,Helvetica,sans-serif; font-size:48px; text-anchor:start;" transform="rotate(0, 1772.65, 343.655)" x="1772.65" y="343.655">Unemployed in Boom</text>
</g>
<polyline clip-path="url(#clip7300)" style="stroke:#3da44d; stroke-width:4; stroke-opacity:1; fill:none" points="
  1604.65,386.635 1748.65,386.635 
  "/>
<g clip-path="url(#clip7300)">
<text style="fill:#000000; fill-opacity:1; font-family:Arial,Helvetica Neue,Helvetica,sans-serif; font-size:48px; text-anchor:start;" transform="rotate(0, 1772.65, 404.135)" x="1772.65" y="404.135">Employed in Bust</text>
</g>
<polyline clip-path="url(#clip7300)" style="stroke:#c271d2; stroke-width:4; stroke-opacity:1; fill:none" points="
  1604.65,447.115 1748.65,447.115 
  "/>
<g clip-path="url(#clip7300)">
<text style="fill:#000000; fill-opacity:1; font-family:Arial,Helvetica Neue,Helvetica,sans-serif; font-size:48px; text-anchor:start;" transform="rotate(0, 1772.65, 464.615)" x="1772.65" y="464.615">Unemployed in Bust</text>
</g>
</svg>
