<?xml version="1.0" encoding="utf-8"?>
<svg xmlns="http://www.w3.org/2000/svg" xmlns:xlink="http://www.w3.org/1999/xlink" width="600" height="400" viewBox="0 0 2400 1600">
<defs>
  <clipPath id="clip6900">
    <rect x="0" y="0" width="2400" height="1600"/>
  </clipPath>
</defs>
<polygon clip-path="url(#clip6900)" points="
0,1600 2400,1600 2400,0 0,0 
  " fill="#ffffff" fill-rule="evenodd" fill-opacity="1"/>
<defs>
  <clipPath id="clip6901">
    <rect x="480" y="0" width="1681" height="1600"/>
  </clipPath>
</defs>
<polygon clip-path="url(#clip6900)" points="
257.245,1425.62 2352.76,1425.62 2352.76,121.675 257.245,121.675 
  " fill="#ffffff" fill-rule="evenodd" fill-opacity="1"/>
<defs>
  <clipPath id="clip6902">
    <rect x="257" y="121" width="2097" height="1305"/>
  </clipPath>
</defs>
<polyline clip-path="url(#clip6902)" style="stroke:#000000; stroke-width:2; stroke-opacity:0.1; fill:none" points="
  316.513,1425.62 316.513,121.675 
  "/>
<polyline clip-path="url(#clip6902)" style="stroke:#000000; stroke-width:2; stroke-opacity:0.1; fill:none" points="
  711.9,1425.62 711.9,121.675 
  "/>
<polyline clip-path="url(#clip6902)" style="stroke:#000000; stroke-width:2; stroke-opacity:0.1; fill:none" points="
  1107.29,1425.62 1107.29,121.675 
  "/>
<polyline clip-path="url(#clip6902)" style="stroke:#000000; stroke-width:2; stroke-opacity:0.1; fill:none" points="
  1502.67,1425.62 1502.67,121.675 
  "/>
<polyline clip-path="url(#clip6902)" style="stroke:#000000; stroke-width:2; stroke-opacity:0.1; fill:none" points="
  1898.06,1425.62 1898.06,121.675 
  "/>
<polyline clip-path="url(#clip6902)" style="stroke:#000000; stroke-width:2; stroke-opacity:0.1; fill:none" points="
  2293.45,1425.62 2293.45,121.675 
  "/>
<polyline clip-path="url(#clip6902)" style="stroke:#000000; stroke-width:2; stroke-opacity:0.1; fill:none" points="
  257.245,1290.33 2352.76,1290.33 
  "/>
<polyline clip-path="url(#clip6902)" style="stroke:#000000; stroke-width:2; stroke-opacity:0.1; fill:none" points="
  257.245,1112.76 2352.76,1112.76 
  "/>
<polyline clip-path="url(#clip6902)" style="stroke:#000000; stroke-width:2; stroke-opacity:0.1; fill:none" points="
  257.245,935.184 2352.76,935.184 
  "/>
<polyline clip-path="url(#clip6902)" style="stroke:#000000; stroke-width:2; stroke-opacity:0.1; fill:none" points="
  257.245,757.611 2352.76,757.611 
  "/>
<polyline clip-path="url(#clip6902)" style="stroke:#000000; stroke-width:2; stroke-opacity:0.1; fill:none" points="
  257.245,580.037 2352.76,580.037 
  "/>
<polyline clip-path="url(#clip6902)" style="stroke:#000000; stroke-width:2; stroke-opacity:0.1; fill:none" points="
  257.245,402.464 2352.76,402.464 
  "/>
<polyline clip-path="url(#clip6902)" style="stroke:#000000; stroke-width:2; stroke-opacity:0.1; fill:none" points="
  257.245,224.891 2352.76,224.891 
  "/>
<polyline clip-path="url(#clip6900)" style="stroke:#000000; stroke-width:4; stroke-opacity:1; fill:none" points="
  257.245,1425.62 2352.76,1425.62 
  "/>
<polyline clip-path="url(#clip6900)" style="stroke:#000000; stroke-width:4; stroke-opacity:1; fill:none" points="
  257.245,1425.62 257.245,121.675 
  "/>
<polyline clip-path="url(#clip6900)" style="stroke:#000000; stroke-width:4; stroke-opacity:1; fill:none" points="
  316.513,1425.62 316.513,1406.06 
  "/>
<polyline clip-path="url(#clip6900)" style="stroke:#000000; stroke-width:4; stroke-opacity:1; fill:none" points="
  711.9,1425.62 711.9,1406.06 
  "/>
<polyline clip-path="url(#clip6900)" style="stroke:#000000; stroke-width:4; stroke-opacity:1; fill:none" points="
  1107.29,1425.62 1107.29,1406.06 
  "/>
<polyline clip-path="url(#clip6900)" style="stroke:#000000; stroke-width:4; stroke-opacity:1; fill:none" points="
  1502.67,1425.62 1502.67,1406.06 
  "/>
<polyline clip-path="url(#clip6900)" style="stroke:#000000; stroke-width:4; stroke-opacity:1; fill:none" points="
  1898.06,1425.62 1898.06,1406.06 
  "/>
<polyline clip-path="url(#clip6900)" style="stroke:#000000; stroke-width:4; stroke-opacity:1; fill:none" points="
  2293.45,1425.62 2293.45,1406.06 
  "/>
<polyline clip-path="url(#clip6900)" style="stroke:#000000; stroke-width:4; stroke-opacity:1; fill:none" points="
  257.245,1290.33 288.678,1290.33 
  "/>
<polyline clip-path="url(#clip6900)" style="stroke:#000000; stroke-width:4; stroke-opacity:1; fill:none" points="
  257.245,1112.76 288.678,1112.76 
  "/>
<polyline clip-path="url(#clip6900)" style="stroke:#000000; stroke-width:4; stroke-opacity:1; fill:none" points="
  257.245,935.184 288.678,935.184 
  "/>
<polyline clip-path="url(#clip6900)" style="stroke:#000000; stroke-width:4; stroke-opacity:1; fill:none" points="
  257.245,757.611 288.678,757.611 
  "/>
<polyline clip-path="url(#clip6900)" style="stroke:#000000; stroke-width:4; stroke-opacity:1; fill:none" points="
  257.245,580.037 288.678,580.037 
  "/>
<polyline clip-path="url(#clip6900)" style="stroke:#000000; stroke-width:4; stroke-opacity:1; fill:none" points="
  257.245,402.464 288.678,402.464 
  "/>
<polyline clip-path="url(#clip6900)" style="stroke:#000000; stroke-width:4; stroke-opacity:1; fill:none" points="
  257.245,224.891 288.678,224.891 
  "/>
<g clip-path="url(#clip6900)">
<text style="fill:#000000; fill-opacity:1; font-family:Arial,Helvetica Neue,Helvetica,sans-serif; font-size:48px; text-anchor:middle;" transform="rotate(0, 316.513, 1479.62)" x="316.513" y="1479.62">0</text>
</g>
<g clip-path="url(#clip6900)">
<text style="fill:#000000; fill-opacity:1; font-family:Arial,Helvetica Neue,Helvetica,sans-serif; font-size:48px; text-anchor:middle;" transform="rotate(0, 711.9, 1479.62)" x="711.9" y="1479.62">100</text>
</g>
<g clip-path="url(#clip6900)">
<text style="fill:#000000; fill-opacity:1; font-family:Arial,Helvetica Neue,Helvetica,sans-serif; font-size:48px; text-anchor:middle;" transform="rotate(0, 1107.29, 1479.62)" x="1107.29" y="1479.62">200</text>
</g>
<g clip-path="url(#clip6900)">
<text style="fill:#000000; fill-opacity:1; font-family:Arial,Helvetica Neue,Helvetica,sans-serif; font-size:48px; text-anchor:middle;" transform="rotate(0, 1502.67, 1479.62)" x="1502.67" y="1479.62">300</text>
</g>
<g clip-path="url(#clip6900)">
<text style="fill:#000000; fill-opacity:1; font-family:Arial,Helvetica Neue,Helvetica,sans-serif; font-size:48px; text-anchor:middle;" transform="rotate(0, 1898.06, 1479.62)" x="1898.06" y="1479.62">400</text>
</g>
<g clip-path="url(#clip6900)">
<text style="fill:#000000; fill-opacity:1; font-family:Arial,Helvetica Neue,Helvetica,sans-serif; font-size:48px; text-anchor:middle;" transform="rotate(0, 2293.45, 1479.62)" x="2293.45" y="1479.62">500</text>
</g>
<g clip-path="url(#clip6900)">
<text style="fill:#000000; fill-opacity:1; font-family:Arial,Helvetica Neue,Helvetica,sans-serif; font-size:48px; text-anchor:end;" transform="rotate(0, 233.245, 1307.83)" x="233.245" y="1307.83">-400</text>
</g>
<g clip-path="url(#clip6900)">
<text style="fill:#000000; fill-opacity:1; font-family:Arial,Helvetica Neue,Helvetica,sans-serif; font-size:48px; text-anchor:end;" transform="rotate(0, 233.245, 1130.26)" x="233.245" y="1130.26">-300</text>
</g>
<g clip-path="url(#clip6900)">
<text style="fill:#000000; fill-opacity:1; font-family:Arial,Helvetica Neue,Helvetica,sans-serif; font-size:48px; text-anchor:end;" transform="rotate(0, 233.245, 952.684)" x="233.245" y="952.684">-200</text>
</g>
<g clip-path="url(#clip6900)">
<text style="fill:#000000; fill-opacity:1; font-family:Arial,Helvetica Neue,Helvetica,sans-serif; font-size:48px; text-anchor:end;" transform="rotate(0, 233.245, 775.111)" x="233.245" y="775.111">-100</text>
</g>
<g clip-path="url(#clip6900)">
<text style="fill:#000000; fill-opacity:1; font-family:Arial,Helvetica Neue,Helvetica,sans-serif; font-size:48px; text-anchor:end;" transform="rotate(0, 233.245, 597.537)" x="233.245" y="597.537">0</text>
</g>
<g clip-path="url(#clip6900)">
<text style="fill:#000000; fill-opacity:1; font-family:Arial,Helvetica Neue,Helvetica,sans-serif; font-size:48px; text-anchor:end;" transform="rotate(0, 233.245, 419.964)" x="233.245" y="419.964">100</text>
</g>
<g clip-path="url(#clip6900)">
<text style="fill:#000000; fill-opacity:1; font-family:Arial,Helvetica Neue,Helvetica,sans-serif; font-size:48px; text-anchor:end;" transform="rotate(0, 233.245, 242.391)" x="233.245" y="242.391">200</text>
</g>
<g clip-path="url(#clip6900)">
<text style="fill:#000000; fill-opacity:1; font-family:Arial,Helvetica Neue,Helvetica,sans-serif; font-size:84px; text-anchor:middle;" transform="rotate(0, 1305, 73.2)" x="1305" y="73.2">Value Function</text>
</g>
<g clip-path="url(#clip6900)">
<text style="fill:#000000; fill-opacity:1; font-family:Arial,Helvetica Neue,Helvetica,sans-serif; font-size:66px; text-anchor:middle;" transform="rotate(0, 1305, 1559.48)" x="1305" y="1559.48">Individual Capital at t</text>
</g>
<g clip-path="url(#clip6900)">
<text style="fill:#000000; fill-opacity:1; font-family:Arial,Helvetica Neue,Helvetica,sans-serif; font-size:66px; text-anchor:middle;" transform="rotate(-90, 89.2861, 773.647)" x="89.2861" y="773.647">Value Function</text>
</g>
<polyline clip-path="url(#clip6902)" style="stroke:#009af9; stroke-width:4; stroke-opacity:1; fill:none" points="
  316.552,386.346 316.552,386.346 316.553,386.346 316.553,386.345 316.554,386.345 316.556,386.345 316.558,386.344 316.56,386.343 316.564,386.342 316.568,386.341 
  316.573,386.339 316.58,386.337 316.587,386.335 316.596,386.333 316.606,386.33 316.617,386.326 316.63,386.322 316.644,386.318 316.661,386.313 316.679,386.307 
  316.699,386.301 316.721,386.294 316.745,386.287 316.771,386.279 316.799,386.27 316.83,386.261 316.864,386.251 316.899,386.24 316.938,386.228 316.979,386.216 
  317.023,386.202 317.07,386.188 317.121,386.173 317.174,386.157 317.23,386.14 317.29,386.122 317.353,386.102 317.42,386.082 317.49,386.061 317.564,386.038 
  317.642,386.014 317.724,385.989 317.81,385.964 317.899,385.937 317.993,385.909 318.092,385.88 318.194,385.85 318.301,385.818 318.413,385.785 318.529,385.75 
  318.65,385.713 318.776,385.675 318.907,385.637 319.043,385.597 319.183,385.555 319.33,385.512 319.481,385.467 319.638,385.42 319.8,385.371 319.968,385.322 
  320.142,385.27 320.321,385.218 320.507,385.165 320.698,385.109 320.895,385.051 321.099,384.992 321.309,384.93 321.525,384.868 321.748,384.803 321.977,384.736 
  322.213,384.667 322.455,384.595 322.705,384.521 322.961,384.446 323.224,384.367 323.495,384.288 323.772,384.206 324.057,384.124 324.35,384.039 324.65,383.952 
  324.957,383.865 325.272,383.774 325.595,383.68 325.926,383.586 326.265,383.489 326.612,383.388 326.967,383.288 327.33,383.185 327.701,383.079 328.081,382.972 
  328.47,382.862 328.867,382.748 329.273,382.631 329.688,382.511 330.112,382.388 330.544,382.266 330.986,382.139 331.437,382.013 331.898,381.883 332.367,381.75 
  332.847,381.615 333.335,381.477 333.834,381.339 334.342,381.198 334.86,381.053 335.388,380.906 335.926,380.753 336.475,380.597 337.033,380.439 337.602,380.28 
  338.182,380.12 338.771,379.955 339.372,379.788 339.983,379.62 340.605,379.45 341.238,379.275 341.882,379.096 342.537,378.915 343.203,378.728 343.881,378.539 
  344.57,378.351 345.27,378.158 345.982,377.964 346.706,377.767 347.441,377.568 348.189,377.363 348.948,377.154 349.719,376.941 350.502,376.728 351.298,376.512 
  352.106,376.293 352.927,376.071 353.76,375.846 354.605,375.618 355.463,375.384 356.335,375.149 357.219,374.912 358.116,374.672 359.026,374.428 359.949,374.18 
  360.886,373.927 361.836,373.673 362.799,373.417 363.776,373.16 364.767,372.897 365.771,372.63 366.789,372.359 367.822,372.084 368.868,371.807 369.928,371.528 
  371.003,371.246 372.092,370.961 373.195,370.671 374.313,370.377 375.446,370.082 376.593,369.784 377.755,369.483 378.932,369.178 380.124,368.867 381.331,368.554 
  382.553,368.238 383.791,367.917 385.044,367.594 386.312,367.269 387.596,366.941 388.896,366.609 390.211,366.273 391.542,365.935 392.889,365.595 394.252,365.251 
  395.631,364.901 397.027,364.549 398.439,364.195 399.867,363.838 401.312,363.474 402.773,363.108 404.251,362.738 405.746,362.366 407.258,361.992 408.786,361.614 
  410.332,361.234 411.895,360.851 413.475,360.466 415.073,360.077 416.688,359.686 418.321,359.292 419.971,358.895 421.639,358.495 423.325,358.093 425.029,357.686 
  426.75,357.278 428.49,356.866 430.248,356.451 432.025,356.034 433.82,355.612 435.633,355.187 437.465,354.761 439.316,354.333 441.185,353.904 443.074,353.473 
  444.981,353.041 446.907,352.608 448.853,352.172 450.818,351.735 452.802,351.295 454.806,350.854 456.829,350.41 458.872,349.963 460.934,349.513 463.017,349.06 
  465.119,348.605 467.241,348.145 469.384,347.682 471.546,347.215 473.729,346.744 475.933,346.269 478.157,345.789 480.401,345.305 482.666,344.817 484.952,344.324 
  487.259,343.825 489.587,343.322 491.936,342.814 494.306,342.3 496.697,341.782 499.11,341.257 501.544,340.729 503.999,340.194 506.476,339.655 508.975,339.113 
  511.496,338.568 514.039,338.021 516.604,337.47 519.191,336.918 521.8,336.362 524.431,335.805 527.085,335.245 529.761,334.683 532.46,334.119 535.181,333.553 
  537.925,332.985 540.693,332.415 543.483,331.844 546.296,331.271 549.132,330.696 551.992,330.12 554.875,329.542 557.781,328.963 560.711,328.383 563.664,327.801 
  566.642,327.218 569.643,326.634 572.668,326.049 575.716,325.463 578.79,324.875 581.887,324.288 585.008,323.699 588.154,323.109 591.325,322.519 594.52,321.928 
  597.739,321.336 600.984,320.742 604.253,320.146 607.547,319.549 610.867,318.947 614.211,318.342 617.581,317.733 620.976,317.121 624.396,316.506 627.842,315.887 
  631.314,315.266 634.811,314.642 638.334,314.015 641.883,313.386 645.458,312.754 649.06,312.121 652.687,311.485 656.34,310.845 660.02,310.204 663.727,309.562 
  667.46,308.917 671.22,308.27 675.006,307.62 678.819,306.969 682.66,306.316 686.527,305.661 690.421,305.005 694.343,304.347 698.292,303.687 702.269,303.025 
  706.272,302.361 710.304,301.697 714.363,301.031 718.45,300.364 722.565,299.695 726.708,299.024 730.879,298.353 735.079,297.678 739.306,297.003 743.562,296.327 
  747.846,295.651 752.159,294.974 756.501,294.296 760.871,293.617 765.27,292.937 769.698,292.257 774.155,291.575 778.642,290.892 783.157,290.208 787.702,289.522 
  792.276,288.835 796.88,288.148 801.513,287.46 806.176,286.772 810.869,286.084 815.592,285.396 820.345,284.707 825.128,284.018 829.941,283.33 834.784,282.641 
  839.657,281.952 844.562,281.263 849.496,280.573 854.461,279.882 859.458,279.191 864.484,278.499 869.542,277.806 874.631,277.112 879.751,276.415 884.902,275.715 
  890.085,275.014 895.299,274.313 900.544,273.612 905.821,272.911 911.13,272.207 916.47,271.502 921.842,270.796 927.247,270.09 932.683,269.384 938.152,268.677 
  943.653,267.971 949.186,267.262 954.752,266.553 960.35,265.844 965.981,265.135 971.644,264.425 977.341,263.715 983.07,263.006 988.832,262.296 994.628,261.584 
  1000.46,260.873 1006.32,260.161 1012.21,259.449 1018.14,258.738 1024.11,258.025 1030.1,257.313 1036.13,256.601 1042.2,255.888 1048.29,255.175 1054.42,254.46 
  1060.59,253.745 1066.79,253.029 1073.03,252.313 1079.3,251.597 1085.6,250.88 1091.94,250.163 1098.31,249.446 1104.72,248.728 1111.16,248.01 1117.64,247.291 
  1124.15,246.573 1130.7,245.854 1137.28,245.135 1143.9,244.416 1150.56,243.696 1157.25,242.976 1163.97,242.257 1170.73,241.538 1177.53,240.819 1184.36,240.101 
  1191.23,239.384 1198.14,238.667 1205.08,237.951 1212.06,237.235 1219.07,236.519 1226.12,235.804 1233.21,235.089 1240.33,234.374 1247.49,233.659 1254.69,232.944 
  1261.93,232.23 1269.2,231.515 1276.51,230.801 1283.86,230.088 1291.24,229.376 1298.66,228.664 1306.12,227.953 1313.62,227.243 1321.15,226.533 1328.72,225.825 
  1336.33,225.118 1343.98,224.411 1351.67,223.706 1359.39,223.001 1367.16,222.297 1374.96,221.594 1382.8,220.891 1390.68,220.188 1398.59,219.486 1406.55,218.784 
  1414.54,218.082 1422.58,217.381 1430.65,216.681 1438.76,215.981 1446.92,215.281 1455.11,214.579 1463.34,213.878 1471.61,213.177 1479.92,212.477 1488.27,211.778 
  1496.66,211.078 1505.09,210.38 1513.55,209.682 1522.06,208.986 1530.61,208.29 1539.2,207.594 1547.83,206.897 1556.51,206.202 1565.22,205.507 1573.97,204.813 
  1582.76,204.12 1591.6,203.428 1600.47,202.736 1609.39,202.045 1618.34,201.355 1627.34,200.666 1636.38,199.978 1645.46,199.29 1654.59,198.601 1663.75,197.913 
  1672.96,197.226 1682.21,196.538 1691.5,195.852 1700.83,195.166 1710.2,194.481 1719.62,193.797 1729.08,193.113 1738.58,192.43 1748.12,191.748 1757.71,191.067 
  1767.34,190.388 1777.01,189.709 1786.73,189.031 1796.48,188.353 1806.28,187.677 1816.13,187.002 1826.02,186.328 1835.95,185.656 1845.92,184.986 1855.94,184.317 
  1866,183.649 1876.1,182.983 1886.25,182.318 1896.45,181.655 1906.68,180.993 1916.96,180.332 1927.29,179.672 1937.66,179.014 1948.07,178.357 1958.53,177.701 
  1969.03,177.046 1979.58,176.393 1990.17,175.741 2000.81,175.091 2011.49,174.441 2022.22,173.793 2032.99,173.146 2043.81,172.501 2054.68,171.856 2065.58,171.212 
  2076.54,170.57 2087.54,169.928 2098.58,169.288 2109.68,168.649 2120.81,168.01 2132,167.373 2143.23,166.736 2154.5,166.101 2165.82,165.467 2177.19,164.834 
  2188.61,164.202 2200.07,163.572 2211.58,162.943 2223.13,162.315 2234.73,161.689 2246.38,161.064 2258.08,160.441 2269.82,159.819 2281.61,159.198 2293.45,158.579 
  
  "/>
<polyline clip-path="url(#clip6902)" style="stroke:#e26f46; stroke-width:4; stroke-opacity:1; fill:none" points="
  316.552,1387.93 316.552,1387.93 316.553,616.914 316.553,522.137 316.554,452.591 316.556,430.793 316.558,420.412 316.56,415.428 316.564,413.075 316.568,411.588 
  316.573,410.366 316.58,409.434 316.587,408.539 316.596,407.803 316.606,407.142 316.617,406.508 316.63,405.922 316.644,405.402 316.661,404.891 316.679,404.411 
  316.699,403.957 316.721,403.532 316.745,403.12 316.771,402.731 316.799,402.36 316.83,402.002 316.864,401.65 316.899,401.316 316.938,400.997 316.979,400.687 
  317.023,400.384 317.07,400.092 317.121,399.812 317.174,399.539 317.23,399.268 317.29,399.005 317.353,398.753 317.42,398.508 317.49,398.266 317.564,398.03 
  317.642,397.799 317.724,397.573 317.81,397.354 317.899,397.137 317.993,396.925 318.092,396.716 318.194,396.512 318.301,396.313 318.413,396.115 318.529,395.921 
  318.65,395.729 318.776,395.541 318.907,395.357 319.043,395.175 319.183,394.995 319.33,394.817 319.481,394.641 319.638,394.467 319.8,394.296 319.968,394.127 
  320.142,393.96 320.321,393.795 320.507,393.629 320.698,393.466 320.895,393.304 321.099,393.144 321.309,392.985 321.525,392.827 321.748,392.67 321.977,392.514 
  322.213,392.359 322.455,392.204 322.705,392.05 322.961,391.897 323.224,391.745 323.495,391.593 323.772,391.441 324.057,391.29 324.35,391.138 324.65,390.987 
  324.957,390.837 325.272,390.686 325.595,390.535 325.926,390.383 326.265,390.231 326.612,390.078 326.967,389.926 327.33,389.772 327.701,389.618 328.081,389.465 
  328.47,389.31 328.867,389.153 329.273,388.998 329.688,388.841 330.112,388.683 330.544,388.525 330.986,388.365 331.437,388.203 331.898,388.041 332.367,387.878 
  332.847,387.713 333.335,387.547 333.834,387.379 334.342,387.21 334.86,387.038 335.388,386.864 335.926,386.689 336.475,386.512 337.033,386.334 337.602,386.155 
  338.182,385.974 338.771,385.79 339.372,385.606 339.983,385.419 340.605,385.228 341.238,385.034 341.882,384.838 342.537,384.639 343.203,384.44 343.881,384.241 
  344.57,384.037 345.27,383.83 345.982,383.622 346.706,383.41 347.441,383.195 348.189,382.977 348.948,382.757 349.719,382.534 350.502,382.309 351.298,382.082 
  352.106,381.851 352.927,381.619 353.76,381.381 354.605,381.141 355.463,380.896 356.335,380.65 357.219,380.403 358.116,380.153 359.026,379.9 359.949,379.642 
  360.886,379.379 361.836,379.113 362.799,378.846 363.776,378.577 364.767,378.303 365.771,378.027 366.789,377.746 367.822,377.462 368.868,377.177 369.928,376.891 
  371.003,376.599 372.092,376.301 373.195,375.999 374.313,375.695 375.446,375.389 376.593,375.079 377.755,374.766 378.932,374.449 380.124,374.128 381.331,373.806 
  382.553,373.481 383.791,373.153 385.044,372.821 386.312,372.484 387.596,372.145 388.896,371.803 390.211,371.456 391.542,371.105 392.889,370.75 394.252,370.393 
  395.631,370.031 397.027,369.666 398.439,369.298 399.867,368.928 401.312,368.554 402.773,368.175 404.251,367.794 405.746,367.411 407.258,367.024 408.786,366.632 
  410.332,366.237 411.895,365.84 413.475,365.44 415.073,365.037 416.688,364.63 418.321,364.221 419.971,363.81 421.639,363.395 423.325,362.977 425.029,362.557 
  426.75,362.132 428.49,361.702 430.248,361.269 432.025,360.833 433.82,360.393 435.633,359.952 437.465,359.506 439.316,359.058 441.185,358.606 443.074,358.151 
  444.981,357.694 446.907,357.235 448.853,356.775 450.818,356.312 452.802,355.847 454.806,355.381 456.829,354.913 458.872,354.443 460.934,353.972 463.017,353.498 
  465.119,353.023 467.241,352.546 469.384,352.067 471.546,351.585 473.729,351.101 475.933,350.614 478.157,350.124 480.401,349.632 482.666,349.136 484.952,348.637 
  487.259,348.134 489.587,347.628 491.936,347.118 494.306,346.604 496.697,346.086 499.11,345.564 501.544,345.037 503.999,344.506 506.476,343.97 508.975,343.429 
  511.496,342.884 514.039,342.332 516.604,341.777 519.191,341.213 521.8,340.645 524.431,340.074 527.085,339.499 529.761,338.922 532.46,338.342 535.181,337.759 
  537.925,337.173 540.693,336.586 543.483,335.995 546.296,335.403 549.132,334.809 551.992,334.212 554.875,333.614 557.781,333.014 560.711,332.412 563.664,331.808 
  566.642,331.203 569.643,330.596 572.668,329.988 575.716,329.378 578.79,328.767 581.887,328.154 585.008,327.54 588.154,326.925 591.325,326.309 594.52,325.692 
  597.739,325.074 600.984,324.455 604.253,323.835 607.547,323.215 610.867,322.593 614.211,321.969 617.581,321.345 620.976,320.719 624.396,320.092 627.842,319.462 
  631.314,318.829 634.811,318.194 638.334,317.556 641.883,316.916 645.458,316.274 649.06,315.629 652.687,314.981 656.34,314.331 660.02,313.679 663.727,313.024 
  667.46,312.367 671.22,311.708 675.006,311.047 678.819,310.384 682.66,309.719 686.527,309.051 690.421,308.382 694.343,307.711 698.292,307.037 702.269,306.363 
  706.272,305.686 710.304,305.008 714.363,304.327 718.45,303.646 722.565,302.963 726.708,302.278 730.879,301.592 735.079,300.905 739.306,300.216 743.562,299.525 
  747.846,298.833 752.159,298.14 756.501,297.445 760.871,296.749 765.27,296.053 769.698,295.356 774.155,294.658 778.642,293.959 783.157,293.259 787.702,292.558 
  792.276,291.856 796.88,291.153 801.513,290.449 806.176,289.744 810.869,289.038 815.592,288.331 820.345,287.623 825.128,286.916 829.941,286.207 834.784,285.499 
  839.657,284.79 844.562,284.082 849.496,283.373 854.461,282.664 859.458,281.954 864.484,281.245 869.542,280.535 874.631,279.824 879.751,279.113 884.902,278.402 
  890.085,277.689 895.299,276.975 900.544,276.261 905.821,275.546 911.13,274.83 916.47,274.115 921.842,273.397 927.247,272.679 932.683,271.96 938.152,271.241 
  943.653,270.522 949.186,269.802 954.752,269.083 960.35,268.362 965.981,267.64 971.644,266.919 977.341,266.196 983.07,265.474 988.832,264.752 994.628,264.03 
  1000.46,263.307 1006.32,262.584 1012.21,261.86 1018.14,261.136 1024.11,260.412 1030.1,259.688 1036.13,258.964 1042.2,258.24 1048.29,257.515 1054.42,256.791 
  1060.59,256.065 1066.79,255.34 1073.03,254.613 1079.3,253.886 1085.6,253.159 1091.94,252.431 1098.31,251.703 1104.72,250.974 1111.16,250.246 1117.64,249.517 
  1124.15,248.787 1130.7,248.058 1137.28,247.328 1143.9,246.598 1150.56,245.868 1157.25,245.137 1163.97,244.406 1170.73,243.675 1177.53,242.945 1184.36,242.214 
  1191.23,241.484 1198.14,240.754 1205.08,240.025 1212.06,239.296 1219.07,238.568 1226.12,237.841 1233.21,237.113 1240.33,236.386 1247.49,235.66 1254.69,234.934 
  1261.93,234.208 1269.2,233.482 1276.51,232.756 1283.86,232.031 1291.24,231.306 1298.66,230.581 1306.12,229.857 1313.62,229.134 1321.15,228.411 1328.72,227.69 
  1336.33,226.969 1343.98,226.249 1351.67,225.53 1359.39,224.812 1367.16,224.095 1374.96,223.378 1382.8,222.663 1390.68,221.948 1398.59,221.234 1406.55,220.521 
  1414.54,219.808 1422.58,219.095 1430.65,218.383 1438.76,217.671 1446.92,216.96 1455.11,216.25 1463.34,215.54 1471.61,214.83 1479.92,214.122 1488.27,213.413 
  1496.66,212.706 1505.09,211.999 1513.55,211.292 1522.06,210.587 1530.61,209.882 1539.2,209.178 1547.83,208.475 1556.51,207.771 1565.22,207.068 1573.97,206.366 
  1582.76,205.665 1591.6,204.965 1600.47,204.265 1609.39,203.567 1618.34,202.869 1627.34,202.172 1636.38,201.476 1645.46,200.781 1654.59,200.087 1663.75,199.392 
  1672.96,198.697 1682.21,198.003 1691.5,197.31 1700.83,196.617 1710.2,195.925 1719.62,195.234 1729.08,194.543 1738.58,193.853 1748.12,193.164 1757.71,192.476 
  1767.34,191.788 1777.01,191.102 1786.73,190.417 1796.48,189.733 1806.28,189.049 1816.13,188.367 1826.02,187.686 1835.95,187.006 1845.92,186.327 1855.94,185.65 
  1866,184.975 1876.1,184.301 1886.25,183.628 1896.45,182.957 1906.68,182.288 1916.96,181.619 1927.29,180.952 1937.66,180.287 1948.07,179.622 1958.53,178.959 
  1969.03,178.297 1979.58,177.636 1990.17,176.977 2000.81,176.319 2011.49,175.663 2022.22,175.008 2032.99,174.354 2043.81,173.701 2054.68,173.049 2065.58,172.399 
  2076.54,171.75 2087.54,171.102 2098.58,170.454 2109.68,169.809 2120.81,169.164 2132,168.52 2143.23,167.877 2154.5,167.235 2165.82,166.594 2177.19,165.954 
  2188.61,165.315 2200.07,164.678 2211.58,164.042 2223.13,163.408 2234.73,162.774 2246.38,162.143 2258.08,161.512 2269.82,160.883 2281.61,160.256 2293.45,159.629 
  
  "/>
<polyline clip-path="url(#clip6902)" style="stroke:#3da44d; stroke-width:4; stroke-opacity:1; fill:none" points="
  316.552,386.744 316.552,386.743 316.553,386.743 316.553,386.743 316.554,386.743 316.556,386.742 316.558,386.742 316.56,386.741 316.564,386.74 316.568,386.739 
  316.573,386.737 316.58,386.735 316.587,386.733 316.596,386.73 316.606,386.727 316.617,386.723 316.63,386.719 316.644,386.715 316.661,386.71 316.679,386.704 
  316.699,386.698 316.721,386.691 316.745,386.684 316.771,386.676 316.799,386.667 316.83,386.657 316.864,386.647 316.899,386.636 316.938,386.624 316.979,386.611 
  317.023,386.597 317.07,386.583 317.121,386.567 317.174,386.55 317.23,386.533 317.29,386.514 317.353,386.495 317.42,386.475 317.49,386.453 317.564,386.43 
  317.642,386.406 317.724,386.381 317.81,386.355 317.899,386.328 317.993,386.299 318.092,386.27 318.194,386.238 318.301,386.206 318.413,386.172 318.529,386.136 
  318.65,386.1 318.776,386.062 318.907,386.022 319.043,385.982 319.183,385.939 319.33,385.895 319.481,385.849 319.638,385.802 319.8,385.753 319.968,385.702 
  320.142,385.651 320.321,385.599 320.507,385.544 320.698,385.487 320.895,385.429 321.099,385.368 321.309,385.306 321.525,385.243 321.748,385.178 321.977,385.109 
  322.213,385.04 322.455,384.968 322.705,384.893 322.961,384.816 323.224,384.737 323.495,384.657 323.772,384.576 324.057,384.492 324.35,384.408 324.65,384.32 
  324.957,384.231 325.272,384.141 325.595,384.046 325.926,383.952 326.265,383.854 326.612,383.753 326.967,383.652 327.33,383.549 327.701,383.443 328.081,383.334 
  328.47,383.223 328.867,383.109 329.273,382.993 329.688,382.872 330.112,382.748 330.544,382.626 330.986,382.5 331.437,382.373 331.898,382.243 332.367,382.11 
  332.847,381.975 333.335,381.837 333.834,381.699 334.342,381.557 334.86,381.412 335.388,381.264 335.926,381.112 336.475,380.956 337.033,380.798 337.602,380.64 
  338.182,380.48 338.771,380.315 339.372,380.148 339.983,379.98 340.605,379.81 341.238,379.635 341.882,379.457 342.537,379.275 343.203,379.089 343.881,378.901 
  344.57,378.713 345.27,378.521 345.982,378.327 346.706,378.131 347.441,377.932 348.189,377.727 348.948,377.518 349.719,377.306 350.502,377.094 351.298,376.879 
  352.106,376.66 352.927,376.439 353.76,376.214 354.605,375.987 355.463,375.753 356.335,375.519 357.219,375.284 358.116,375.043 359.026,374.799 359.949,374.551 
  360.886,374.3 361.836,374.047 362.799,373.793 363.776,373.537 364.767,373.273 365.771,373.007 366.789,372.736 367.822,372.462 368.868,372.187 369.928,371.909 
  371.003,371.628 372.092,371.343 373.195,371.053 374.313,370.762 375.446,370.468 376.593,370.17 377.755,369.87 378.932,369.564 380.124,369.254 381.331,368.943 
  382.553,368.627 383.791,368.308 385.044,367.986 386.312,367.663 387.596,367.335 388.896,367.004 390.211,366.669 391.542,366.333 392.889,365.994 394.252,365.649 
  395.631,365.3 397.027,364.95 398.439,364.598 399.867,364.239 401.312,363.876 402.773,363.511 404.251,363.143 405.746,362.772 407.258,362.399 408.786,362.022 
  410.332,361.644 411.895,361.262 413.475,360.877 415.073,360.49 416.688,360.1 418.321,359.707 419.971,359.311 421.639,358.911 423.325,358.509 425.029,358.104 
  426.75,357.695 428.49,357.282 430.248,356.869 432.025,356.449 433.82,356.026 435.633,355.603 437.465,355.178 439.316,354.752 441.185,354.325 443.074,353.896 
  444.981,353.466 446.907,353.034 448.853,352.601 450.818,352.165 452.802,351.728 454.806,351.288 456.829,350.846 458.872,350.402 460.934,349.954 463.017,349.503 
  465.119,349.049 467.241,348.592 469.384,348.13 471.546,347.664 473.729,347.194 475.933,346.72 478.157,346.24 480.401,345.757 482.666,345.267 484.952,344.773 
  487.259,344.273 489.587,343.768 491.936,343.258 494.306,342.741 496.697,342.22 499.11,341.694 501.544,341.164 503.999,340.632 506.476,340.095 508.975,339.556 
  511.496,339.014 514.039,338.47 516.604,337.922 519.191,337.372 521.8,336.819 524.431,336.264 527.085,335.707 529.761,335.148 532.46,334.587 535.181,334.024 
  537.925,333.459 540.693,332.892 543.483,332.323 546.296,331.753 549.132,331.182 551.992,330.609 554.875,330.034 557.781,329.458 560.711,328.881 563.664,328.302 
  566.642,327.722 569.643,327.142 572.668,326.56 575.716,325.977 578.79,325.393 581.887,324.809 585.008,324.223 588.154,323.637 591.325,323.051 594.52,322.46 
  597.739,321.866 600.984,321.268 604.253,320.667 607.547,320.062 610.867,319.455 614.211,318.846 617.581,318.234 620.976,317.619 624.396,317.003 627.842,316.382 
  631.314,315.76 634.811,315.136 638.334,314.509 641.883,313.88 645.458,313.249 649.06,312.616 652.687,311.98 656.34,311.343 660.02,310.702 663.727,310.061 
  667.46,309.417 671.22,308.772 675.006,308.124 678.819,307.475 682.66,306.824 686.527,306.171 690.421,305.517 694.343,304.861 698.292,304.202 702.269,303.543 
  706.272,302.882 710.304,302.22 714.363,301.557 718.45,300.892 722.565,300.225 726.708,299.557 730.879,298.888 735.079,298.217 739.306,297.544 743.562,296.871 
  747.846,296.198 752.159,295.523 756.501,294.848 760.871,294.172 765.27,293.496 769.698,292.818 774.155,292.14 778.642,291.46 783.157,290.779 787.702,290.096 
  792.276,289.413 796.88,288.729 801.513,288.044 806.176,287.359 810.869,286.675 815.592,285.989 820.345,285.304 825.128,284.619 829.941,283.934 834.784,283.244 
  839.657,282.553 844.562,281.863 849.496,281.172 854.461,280.48 859.458,279.785 864.484,279.089 869.542,278.393 874.631,277.696 879.751,276.998 884.902,276.298 
  890.085,275.596 895.299,274.892 900.544,274.188 905.821,273.484 911.13,272.779 916.47,272.074 921.842,271.368 927.247,270.661 932.683,269.953 938.152,269.245 
  943.653,268.537 949.186,267.829 954.752,267.12 960.35,266.412 965.981,265.702 971.644,264.992 977.341,264.282 983.07,263.572 988.832,262.862 994.628,262.151 
  1000.46,261.44 1006.32,260.73 1012.21,260.02 1018.14,259.309 1024.11,258.597 1030.1,257.886 1036.13,257.174 1042.2,256.462 1048.29,255.75 1054.42,255.037 
  1060.59,254.323 1066.79,253.609 1073.03,252.895 1079.3,252.181 1085.6,251.466 1091.94,250.751 1098.31,250.036 1104.72,249.32 1111.16,248.603 1117.64,247.886 
  1124.15,247.169 1130.7,246.452 1137.28,245.735 1143.9,245.017 1150.56,244.3 1157.25,243.582 1163.97,242.865 1170.73,242.148 1177.53,241.431 1184.36,240.715 
  1191.23,240 1198.14,239.285 1205.08,238.571 1212.06,237.857 1219.07,237.143 1226.12,236.43 1233.21,235.717 1240.33,235.004 1247.49,234.292 1254.69,233.579 
  1261.93,232.867 1269.2,232.155 1276.51,231.443 1283.86,230.733 1291.24,230.022 1298.66,229.313 1306.12,228.604 1313.62,227.897 1321.15,227.19 1328.72,226.482 
  1336.33,225.774 1343.98,225.066 1351.67,224.359 1359.39,223.653 1367.16,222.948 1374.96,222.244 1382.8,221.54 1390.68,220.837 1398.59,220.132 1406.55,219.428 
  1414.54,218.723 1422.58,218.019 1430.65,217.316 1438.76,216.613 1446.92,215.91 1455.11,215.208 1463.34,214.507 1471.61,213.806 1479.92,213.106 1488.27,212.405 
  1496.66,211.704 1505.09,211.004 1513.55,210.304 1522.06,209.605 1530.61,208.907 1539.2,208.21 1547.83,207.514 1556.51,206.818 1565.22,206.123 1573.97,205.429 
  1582.76,204.736 1591.6,204.043 1600.47,203.351 1609.39,202.659 1618.34,201.968 1627.34,201.278 1636.38,200.589 1645.46,199.9 1654.59,199.212 1663.75,198.525 
  1672.96,197.838 1682.21,197.151 1691.5,196.466 1700.83,195.781 1710.2,195.096 1719.62,194.413 1729.08,193.729 1738.58,193.046 1748.12,192.364 1757.71,191.683 
  1767.34,191.003 1777.01,190.325 1786.73,189.646 1796.48,188.97 1806.28,188.294 1816.13,187.62 1826.02,186.947 1835.95,186.275 1845.92,185.606 1855.94,184.937 
  1866,184.27 1876.1,183.604 1886.25,182.94 1896.45,182.277 1906.68,181.615 1916.96,180.955 1927.29,180.296 1937.66,179.638 1948.07,178.982 1958.53,178.327 
  1969.03,177.673 1979.58,177.021 1990.17,176.371 2000.81,175.721 2011.49,175.073 2022.22,174.427 2032.99,173.781 2043.81,173.137 2054.68,172.493 2065.58,171.851 
  2076.54,171.209 2087.54,170.569 2098.58,169.93 2109.68,169.291 2120.81,168.654 2132,168.018 2143.23,167.383 2154.5,166.749 2165.82,166.117 2177.19,165.485 
  2188.61,164.853 2200.07,164.221 2211.58,163.591 2223.13,162.962 2234.73,162.335 2246.38,161.709 2258.08,161.084 2269.82,160.461 2281.61,159.839 2293.45,159.218 
  
  "/>
<polyline clip-path="url(#clip6902)" style="stroke:#c271d2; stroke-width:4; stroke-opacity:1; fill:none" points="
  316.552,1388.71 316.552,1388.71 316.553,939.746 316.553,699.008 316.554,520.468 316.556,466.377 316.558,440.017 316.56,427.809 316.564,422.627 316.568,420.283 
  316.573,418.809 316.58,417.5 316.587,416.394 316.596,415.472 316.606,414.601 316.617,413.77 316.63,413.037 316.644,412.342 316.661,411.699 316.679,411.08 
  316.699,410.496 316.721,409.936 316.745,409.417 316.771,408.914 316.799,408.432 316.83,407.959 316.864,407.508 316.899,407.083 316.938,406.67 316.979,406.274 
  317.023,405.882 317.07,405.497 317.121,405.129 317.174,404.777 317.23,404.436 317.29,404.104 317.353,403.775 317.42,403.452 317.49,403.136 317.564,402.832 
  317.642,402.538 317.724,402.25 317.81,401.966 317.899,401.687 317.993,401.413 318.092,401.143 318.194,400.879 318.301,400.622 318.413,400.37 318.529,400.121 
  318.65,399.876 318.776,399.635 318.907,399.398 319.043,399.163 319.183,398.933 319.33,398.706 319.481,398.482 319.638,398.26 319.8,398.042 319.968,397.826 
  320.142,397.613 320.321,397.402 320.507,397.194 320.698,396.987 320.895,396.783 321.099,396.582 321.309,396.381 321.525,396.182 321.748,395.984 321.977,395.788 
  322.213,395.593 322.455,395.401 322.705,395.209 322.961,395.019 323.224,394.83 323.495,394.642 323.772,394.455 324.057,394.269 324.35,394.083 324.65,393.898 
  324.957,393.714 325.272,393.53 325.595,393.346 325.926,393.162 326.265,392.979 326.612,392.796 326.967,392.614 327.33,392.432 327.701,392.25 328.081,392.068 
  328.47,391.886 328.867,391.704 329.273,391.521 329.688,391.339 330.112,391.155 330.544,390.971 330.986,390.787 331.437,390.604 331.898,390.419 332.367,390.234 
  332.847,390.048 333.335,389.861 333.834,389.673 334.342,389.483 334.86,389.291 335.388,389.1 335.926,388.907 336.475,388.714 337.033,388.519 337.602,388.324 
  338.182,388.127 338.771,387.929 339.372,387.728 339.983,387.527 340.605,387.324 341.238,387.118 341.882,386.909 342.537,386.7 343.203,386.489 343.881,386.277 
  344.57,386.062 345.27,385.846 345.982,385.629 346.706,385.408 347.441,385.185 348.189,384.959 348.948,384.731 349.719,384.5 350.502,384.267 351.298,384.032 
  352.106,383.796 352.927,383.557 353.76,383.314 354.605,383.067 355.463,382.818 356.335,382.568 357.219,382.316 358.116,382.062 359.026,381.803 359.949,381.54 
  360.886,381.273 361.836,381.004 362.799,380.734 363.776,380.46 364.767,380.184 365.771,379.904 366.789,379.62 367.822,379.333 368.868,379.045 369.928,378.756 
  371.003,378.461 372.092,378.16 373.195,377.856 374.313,377.55 375.446,377.242 376.593,376.929 377.755,376.614 378.932,376.293 380.124,375.97 381.331,375.646 
  382.553,375.318 383.791,374.987 385.044,374.653 386.312,374.313 387.596,373.972 388.896,373.629 390.211,373.282 391.542,372.929 392.889,372.573 394.252,372.212 
  395.631,371.849 397.027,371.481 398.439,371.111 399.867,370.737 401.312,370.36 402.773,369.979 404.251,369.595 405.746,369.209 407.258,368.819 408.786,368.424 
  410.332,368.027 411.895,367.628 413.475,367.225 415.073,366.819 416.688,366.41 418.321,365.999 419.971,365.585 421.639,365.167 423.325,364.747 425.029,364.324 
  426.75,363.897 428.49,363.469 430.248,363.032 432.025,362.591 433.82,362.148 435.633,361.701 437.465,361.252 439.316,360.798 441.185,360.342 443.074,359.883 
  444.981,359.422 446.907,358.959 448.853,358.493 450.818,358.026 452.802,357.556 454.806,357.085 456.829,356.612 458.872,356.137 460.934,355.66 463.017,355.181 
  465.119,354.701 467.241,354.218 469.384,353.733 471.546,353.247 473.729,352.758 475.933,352.266 478.157,351.772 480.401,351.275 482.666,350.775 484.952,350.272 
  487.259,349.766 489.587,349.257 491.936,348.743 494.306,348.226 496.697,347.705 499.11,347.18 501.544,346.651 503.999,346.117 506.476,345.579 508.975,345.036 
  511.496,344.49 514.039,343.939 516.604,343.384 519.191,342.826 521.8,342.263 524.431,341.697 527.085,341.126 529.761,340.55 532.46,339.969 535.181,339.385 
  537.925,338.798 540.693,338.209 543.483,337.617 546.296,337.022 549.132,336.426 551.992,335.827 554.875,335.226 557.781,334.623 560.711,334.019 563.664,333.412 
  566.642,332.804 569.643,332.194 572.668,331.582 575.716,330.969 578.79,330.354 581.887,329.738 585.008,329.121 588.154,328.502 591.325,327.882 594.52,327.261 
  597.739,326.639 600.984,326.016 604.253,325.392 607.547,324.767 610.867,324.139 614.211,323.51 617.581,322.878 620.976,322.245 624.396,321.611 627.842,320.973 
  631.314,320.334 634.811,319.693 638.334,319.049 641.883,318.404 645.458,317.756 649.06,317.106 652.687,316.454 656.34,315.8 660.02,315.144 663.727,314.486 
  667.46,313.826 671.22,313.163 675.006,312.499 678.819,311.833 682.66,311.165 686.527,310.495 690.421,309.823 694.343,309.15 698.292,308.474 702.269,307.797 
  706.272,307.118 710.304,306.437 714.363,305.755 718.45,305.071 722.565,304.386 726.708,303.699 730.879,303.011 735.079,302.321 739.306,301.63 743.562,300.938 
  747.846,300.243 752.159,299.548 756.501,298.851 760.871,298.153 765.27,297.455 769.698,296.755 774.155,296.055 778.642,295.354 783.157,294.651 787.702,293.948 
  792.276,293.244 796.88,292.539 801.513,291.832 806.176,291.125 810.869,290.417 815.592,289.708 820.345,288.998 825.128,288.288 829.941,287.577 834.784,286.866 
  839.657,286.155 844.562,285.443 849.496,284.732 854.461,284.02 859.458,283.307 864.484,282.594 869.542,281.88 874.631,281.166 879.751,280.451 884.902,279.735 
  890.085,279.019 895.299,278.302 900.544,277.583 905.821,276.864 911.13,276.143 916.47,275.422 921.842,274.7 927.247,273.978 932.683,273.255 938.152,272.532 
  943.653,271.808 949.186,271.083 954.752,270.359 960.35,269.634 965.981,268.908 971.644,268.183 977.341,267.457 983.07,266.731 988.832,266.005 994.628,265.278 
  1000.46,264.552 1006.32,263.825 1012.21,263.098 1018.14,262.371 1024.11,261.644 1030.1,260.917 1036.13,260.19 1042.2,259.462 1048.29,258.735 1054.42,258.007 
  1060.59,257.279 1066.79,256.551 1073.03,255.822 1079.3,255.093 1085.6,254.364 1091.94,253.634 1098.31,252.905 1104.72,252.175 1111.16,251.444 1117.64,250.713 
  1124.15,249.982 1130.7,249.251 1137.28,248.519 1143.9,247.787 1150.56,247.055 1157.25,246.323 1163.97,245.591 1170.73,244.858 1177.53,244.125 1184.36,243.393 
  1191.23,242.661 1198.14,241.929 1205.08,241.198 1212.06,240.467 1219.07,239.737 1226.12,239.008 1233.21,238.278 1240.33,237.55 1247.49,236.821 1254.69,236.093 
  1261.93,235.365 1269.2,234.638 1276.51,233.91 1283.86,233.183 1291.24,232.457 1298.66,231.73 1306.12,231.005 1313.62,230.28 1321.15,229.555 1328.72,228.832 
  1336.33,228.109 1343.98,227.387 1351.67,226.666 1359.39,225.946 1367.16,225.227 1374.96,224.509 1382.8,223.792 1390.68,223.075 1398.59,222.36 1406.55,221.644 
  1414.54,220.928 1422.58,220.213 1430.65,219.498 1438.76,218.784 1446.92,218.071 1455.11,217.358 1463.34,216.645 1471.61,215.934 1479.92,215.223 1488.27,214.512 
  1496.66,213.801 1505.09,213.091 1513.55,212.381 1522.06,211.672 1530.61,210.963 1539.2,210.256 1547.83,209.549 1556.51,208.842 1565.22,208.137 1573.97,207.433 
  1582.76,206.729 1591.6,206.027 1600.47,205.325 1609.39,204.623 1618.34,203.922 1627.34,203.222 1636.38,202.523 1645.46,201.825 1654.59,201.127 1663.75,200.43 
  1672.96,199.734 1682.21,199.038 1691.5,198.343 1700.83,197.649 1710.2,196.955 1719.62,196.263 1729.08,195.57 1738.58,194.879 1748.12,194.188 1757.71,193.497 
  1767.34,192.808 1777.01,192.119 1786.73,191.432 1796.48,190.745 1806.28,190.06 1816.13,189.375 1826.02,188.692 1835.95,188.011 1845.92,187.33 1855.94,186.652 
  1866,185.974 1876.1,185.299 1886.25,184.624 1896.45,183.951 1906.68,183.28 1916.96,182.609 1927.29,181.941 1937.66,181.273 1948.07,180.607 1958.53,179.942 
  1969.03,179.279 1979.58,178.617 1990.17,177.956 2000.81,177.297 2011.49,176.64 2022.22,175.983 2032.99,175.328 2043.81,174.674 2054.68,174.02 2065.58,173.368 
  2076.54,172.716 2087.54,172.065 2098.58,171.416 2109.68,170.767 2120.81,170.12 2132,169.473 2143.23,168.828 2154.5,168.184 2165.82,167.541 2177.19,166.899 
  2188.61,166.258 2200.07,165.619 2211.58,164.98 2223.13,164.343 2234.73,163.708 2246.38,163.073 2258.08,162.44 2269.82,161.809 2281.61,161.179 2293.45,160.55 
  
  "/>
<polygon clip-path="url(#clip6900)" points="
1580.65,1281.62 2280.76,1281.62 2280.76,979.219 1580.65,979.219 
  " fill="#ffffff" fill-rule="evenodd" fill-opacity="1"/>
<polyline clip-path="url(#clip6900)" style="stroke:#000000; stroke-width:4; stroke-opacity:1; fill:none" points="
  1580.65,1281.62 2280.76,1281.62 2280.76,979.219 1580.65,979.219 1580.65,1281.62 
  "/>
<polyline clip-path="url(#clip6900)" style="stroke:#009af9; stroke-width:4; stroke-opacity:1; fill:none" points="
  1604.65,1039.7 1748.65,1039.7 
  "/>
<g clip-path="url(#clip6900)">
<text style="fill:#000000; fill-opacity:1; font-family:Arial,Helvetica Neue,Helvetica,sans-serif; font-size:48px; text-anchor:start;" transform="rotate(0, 1772.65, 1057.2)" x="1772.65" y="1057.2">Employed in Boom</text>
</g>
<polyline clip-path="url(#clip6900)" style="stroke:#e26f46; stroke-width:4; stroke-opacity:1; fill:none" points="
  1604.65,1100.18 1748.65,1100.18 
  "/>
<g clip-path="url(#clip6900)">
<text style="fill:#000000; fill-opacity:1; font-family:Arial,Helvetica Neue,Helvetica,sans-serif; font-size:48px; text-anchor:start;" transform="rotate(0, 1772.65, 1117.68)" x="1772.65" y="1117.68">Unemployed in Boom</text>
</g>
<polyline clip-path="url(#clip6900)" style="stroke:#3da44d; stroke-width:4; stroke-opacity:1; fill:none" points="
  1604.65,1160.66 1748.65,1160.66 
  "/>
<g clip-path="url(#clip6900)">
<text style="fill:#000000; fill-opacity:1; font-family:Arial,Helvetica Neue,Helvetica,sans-serif; font-size:48px; text-anchor:start;" transform="rotate(0, 1772.65, 1178.16)" x="1772.65" y="1178.16">Employed in Bust</text>
</g>
<polyline clip-path="url(#clip6900)" style="stroke:#c271d2; stroke-width:4; stroke-opacity:1; fill:none" points="
  1604.65,1221.14 1748.65,1221.14 
  "/>
<g clip-path="url(#clip6900)">
<text style="fill:#000000; fill-opacity:1; font-family:Arial,Helvetica Neue,Helvetica,sans-serif; font-size:48px; text-anchor:start;" transform="rotate(0, 1772.65, 1238.64)" x="1772.65" y="1238.64">Unemployed in Bust</text>
</g>
</svg>
