<?xml version="1.0" encoding="utf-8"?>
<svg xmlns="http://www.w3.org/2000/svg" xmlns:xlink="http://www.w3.org/1999/xlink" width="600" height="400" viewBox="0 0 2400 1600">
<defs>
  <clipPath id="clip9300">
    <rect x="0" y="0" width="2400" height="1600"/>
  </clipPath>
</defs>
<polygon clip-path="url(#clip9300)" points="
0,1600 2400,1600 2400,0 0,0 
  " fill="#ffffff" fill-rule="evenodd" fill-opacity="1"/>
<defs>
  <clipPath id="clip9301">
    <rect x="480" y="0" width="1681" height="1600"/>
  </clipPath>
</defs>
<polygon clip-path="url(#clip9300)" points="
180.66,1487.47 2352.76,1487.47 2352.76,121.675 180.66,121.675 
  " fill="#ffffff" fill-rule="evenodd" fill-opacity="1"/>
<defs>
  <clipPath id="clip9302">
    <rect x="180" y="121" width="2173" height="1367"/>
  </clipPath>
</defs>
<polyline clip-path="url(#clip9302)" style="stroke:#000000; stroke-width:2; stroke-opacity:0.1; fill:none" points="
  383.55,1487.47 383.55,121.675 
  "/>
<polyline clip-path="url(#clip9302)" style="stroke:#000000; stroke-width:2; stroke-opacity:0.1; fill:none" points="
  799.921,1487.47 799.921,121.675 
  "/>
<polyline clip-path="url(#clip9302)" style="stroke:#000000; stroke-width:2; stroke-opacity:0.1; fill:none" points="
  1216.29,1487.47 1216.29,121.675 
  "/>
<polyline clip-path="url(#clip9302)" style="stroke:#000000; stroke-width:2; stroke-opacity:0.1; fill:none" points="
  1632.66,1487.47 1632.66,121.675 
  "/>
<polyline clip-path="url(#clip9302)" style="stroke:#000000; stroke-width:2; stroke-opacity:0.1; fill:none" points="
  2049.03,1487.47 2049.03,121.675 
  "/>
<polyline clip-path="url(#clip9302)" style="stroke:#000000; stroke-width:2; stroke-opacity:0.1; fill:none" points="
  180.66,1448.82 2352.76,1448.82 
  "/>
<polyline clip-path="url(#clip9302)" style="stroke:#000000; stroke-width:2; stroke-opacity:0.1; fill:none" points="
  180.66,1086.26 2352.76,1086.26 
  "/>
<polyline clip-path="url(#clip9302)" style="stroke:#000000; stroke-width:2; stroke-opacity:0.1; fill:none" points="
  180.66,723.707 2352.76,723.707 
  "/>
<polyline clip-path="url(#clip9302)" style="stroke:#000000; stroke-width:2; stroke-opacity:0.1; fill:none" points="
  180.66,361.15 2352.76,361.15 
  "/>
<polyline clip-path="url(#clip9300)" style="stroke:#000000; stroke-width:4; stroke-opacity:1; fill:none" points="
  180.66,1487.47 2352.76,1487.47 
  "/>
<polyline clip-path="url(#clip9300)" style="stroke:#000000; stroke-width:4; stroke-opacity:1; fill:none" points="
  180.66,1487.47 180.66,121.675 
  "/>
<polyline clip-path="url(#clip9300)" style="stroke:#000000; stroke-width:4; stroke-opacity:1; fill:none" points="
  383.55,1487.47 383.55,1466.99 
  "/>
<polyline clip-path="url(#clip9300)" style="stroke:#000000; stroke-width:4; stroke-opacity:1; fill:none" points="
  799.921,1487.47 799.921,1466.99 
  "/>
<polyline clip-path="url(#clip9300)" style="stroke:#000000; stroke-width:4; stroke-opacity:1; fill:none" points="
  1216.29,1487.47 1216.29,1466.99 
  "/>
<polyline clip-path="url(#clip9300)" style="stroke:#000000; stroke-width:4; stroke-opacity:1; fill:none" points="
  1632.66,1487.47 1632.66,1466.99 
  "/>
<polyline clip-path="url(#clip9300)" style="stroke:#000000; stroke-width:4; stroke-opacity:1; fill:none" points="
  2049.03,1487.47 2049.03,1466.99 
  "/>
<polyline clip-path="url(#clip9300)" style="stroke:#000000; stroke-width:4; stroke-opacity:1; fill:none" points="
  180.66,1448.82 213.242,1448.82 
  "/>
<polyline clip-path="url(#clip9300)" style="stroke:#000000; stroke-width:4; stroke-opacity:1; fill:none" points="
  180.66,1086.26 213.242,1086.26 
  "/>
<polyline clip-path="url(#clip9300)" style="stroke:#000000; stroke-width:4; stroke-opacity:1; fill:none" points="
  180.66,723.707 213.242,723.707 
  "/>
<polyline clip-path="url(#clip9300)" style="stroke:#000000; stroke-width:4; stroke-opacity:1; fill:none" points="
  180.66,361.15 213.242,361.15 
  "/>
<g clip-path="url(#clip9300)">
<text style="fill:#000000; fill-opacity:1; font-family:Arial,Helvetica Neue,Helvetica,sans-serif; font-size:48px; text-anchor:middle;" transform="rotate(0, 383.55, 1541.47)" x="383.55" y="1541.47">0</text>
</g>
<g clip-path="url(#clip9300)">
<text style="fill:#000000; fill-opacity:1; font-family:Arial,Helvetica Neue,Helvetica,sans-serif; font-size:48px; text-anchor:middle;" transform="rotate(0, 799.921, 1541.47)" x="799.921" y="1541.47">5</text>
</g>
<g clip-path="url(#clip9300)">
<text style="fill:#000000; fill-opacity:1; font-family:Arial,Helvetica Neue,Helvetica,sans-serif; font-size:48px; text-anchor:middle;" transform="rotate(0, 1216.29, 1541.47)" x="1216.29" y="1541.47">10</text>
</g>
<g clip-path="url(#clip9300)">
<text style="fill:#000000; fill-opacity:1; font-family:Arial,Helvetica Neue,Helvetica,sans-serif; font-size:48px; text-anchor:middle;" transform="rotate(0, 1632.66, 1541.47)" x="1632.66" y="1541.47">15</text>
</g>
<g clip-path="url(#clip9300)">
<text style="fill:#000000; fill-opacity:1; font-family:Arial,Helvetica Neue,Helvetica,sans-serif; font-size:48px; text-anchor:middle;" transform="rotate(0, 2049.03, 1541.47)" x="2049.03" y="1541.47">20</text>
</g>
<g clip-path="url(#clip9300)">
<text style="fill:#000000; fill-opacity:1; font-family:Arial,Helvetica Neue,Helvetica,sans-serif; font-size:48px; text-anchor:end;" transform="rotate(0, 156.66, 1466.32)" x="156.66" y="1466.32">0.00</text>
</g>
<g clip-path="url(#clip9300)">
<text style="fill:#000000; fill-opacity:1; font-family:Arial,Helvetica Neue,Helvetica,sans-serif; font-size:48px; text-anchor:end;" transform="rotate(0, 156.66, 1103.76)" x="156.66" y="1103.76">0.05</text>
</g>
<g clip-path="url(#clip9300)">
<text style="fill:#000000; fill-opacity:1; font-family:Arial,Helvetica Neue,Helvetica,sans-serif; font-size:48px; text-anchor:end;" transform="rotate(0, 156.66, 741.207)" x="156.66" y="741.207">0.10</text>
</g>
<g clip-path="url(#clip9300)">
<text style="fill:#000000; fill-opacity:1; font-family:Arial,Helvetica Neue,Helvetica,sans-serif; font-size:48px; text-anchor:end;" transform="rotate(0, 156.66, 378.65)" x="156.66" y="378.65">0.15</text>
</g>
<g clip-path="url(#clip9300)">
<text style="fill:#000000; fill-opacity:1; font-family:Arial,Helvetica Neue,Helvetica,sans-serif; font-size:84px; text-anchor:middle;" transform="rotate(0, 1266.71, 73.2)" x="1266.71" y="73.2">PDF asset holdings for unemployed in boom and bust</text>
</g>
<polyline clip-path="url(#clip9302)" style="stroke:#009af9; stroke-width:8; stroke-opacity:1; fill:none" points="
  242.135,1448.82 246.241,1448.82 250.348,1448.82 254.454,1448.82 258.561,1448.82 262.667,1448.82 266.774,1448.82 270.88,1448.82 274.987,1448.72 279.093,1448.44 
  283.2,1447.89 287.306,1447.02 291.413,1445.85 295.519,1444.32 299.626,1442.39 303.732,1439.91 307.839,1436.75 311.945,1432.92 316.052,1428.3 320.158,1422.81 
  324.265,1416.39 328.371,1409.08 332.478,1401.02 336.584,1392.36 340.691,1383.21 344.797,1373.71 348.904,1363.89 353.01,1353.66 357.117,1343.07 361.223,1332.16 
  365.33,1320.77 369.436,1308.89 373.543,1296.69 377.649,1284.32 381.756,1271.95 385.862,1259.72 389.969,1247.67 394.075,1235.84 398.182,1224.37 402.288,1213.08 
  406.395,1201.74 410.501,1190.23 414.608,1178.54 418.715,1166.79 422.821,1154.86 426.928,1142.77 431.034,1130.64 435.141,1118.48 439.247,1106.4 443.354,1094.5 
  447.46,1082.69 451.567,1070.97 455.673,1059.36 459.78,1047.86 463.886,1036.7 467.993,1025.84 472.099,1015.28 476.206,1005.2 480.312,995.765 484.419,987.102 
  488.525,979.325 492.632,972.428 496.738,966.39 500.845,961.081 504.951,956.37 509.058,952.116 513.164,948.183 517.271,944.321 521.377,940.399 525.484,936.097 
  529.59,931.141 533.697,925.569 537.803,919.317 541.91,912.411 546.016,904.883 550.123,897.06 554.229,889.261 558.336,881.588 562.442,874.241 566.549,867.518 
  570.655,861.608 574.762,856.602 578.868,852.466 582.975,849.151 587.081,846.489 591.188,844.304 595.294,842.709 599.401,841.706 603.507,841.209 607.614,841.317 
  611.72,842.325 615.827,844.424 619.933,847.088 624.04,849.824 628.146,852.44 632.253,854.735 636.359,856.794 640.466,858.58 644.572,859.939 648.679,861.104 
  652.785,862.323 656.892,863.755 660.998,865.167 665.105,866.254 669.211,867.327 673.318,868.494 677.424,869.754 681.531,871.298 685.637,872.905 689.744,874.37 
  693.85,875.998 697.957,877.692 702.063,879.381 706.17,881.305 710.276,883.278 714.383,885.317 718.489,887.651 722.596,889.881 726.702,891.631 730.809,892.914 
  734.916,893.016 739.022,891.39 743.129,888.2 747.235,883.39 751.342,876.933 755.448,869.094 759.555,859.731 763.661,848.837 767.768,836.831 771.874,824.126 
  775.981,811.192 780.087,798.395 784.194,785.793 788.3,773.464 792.407,761.796 796.513,750.94 800.62,740.818 804.726,731.445 808.833,723.029 812.939,715.44 
  817.046,708.65 821.152,702.813 825.259,697.267 829.365,691.432 833.472,685.643 837.578,680.223 841.685,674.958 845.791,669.848 849.898,665.193 854.004,661.056 
  858.111,657.459 862.217,654.383 866.324,652.295 870.43,651.495 874.537,651.989 878.643,653.983 882.75,657.447 886.856,661.829 890.963,666.631 895.069,671.85 
  899.176,677.152 903.282,682.231 907.389,687.48 911.495,693.309 915.602,699.394 919.708,705.517 923.815,711.749 927.921,718.021 932.028,724.339 936.134,730.739 
  940.241,737.129 944.347,743.695 948.454,750.226 952.56,756.232 956.667,761.812 960.773,767.054 964.88,771.413 968.986,774.776 973.093,777.469 977.199,779.382 
  981.306,780.608 985.412,781.366 989.519,781.672 993.625,781.819 997.732,781.71 1001.84,780.967 1005.94,780.016 1010.05,779.302 1014.16,778.538 1018.26,777.655 
  1022.37,776.888 1026.48,776.238 1030.58,775.884 1034.69,776.027 1038.8,776.636 1042.9,777.649 1047.01,778.485 1051.12,778.647 1055.22,778.142 1059.33,777.148 
  1063.44,775.83 1067.54,773.528 1071.65,770.465 1075.76,767.568 1079.86,764.936 1083.97,762.436 1088.08,760.24 1092.18,758.735 1096.29,757.976 1100.39,757.981 
  1104.5,758.536 1108.61,759.417 1112.71,760.572 1116.82,762.124 1120.93,764.089 1125.03,766.261 1129.14,768.502 1133.25,771.272 1137.35,775.079 1141.46,779.705 
  1145.57,785.335 1149.67,792.283 1153.78,800.438 1157.89,809.36 1161.99,818.936 1166.1,829.379 1170.21,840.575 1174.31,852.38 1178.42,864.532 1182.52,876.81 
  1186.63,889.076 1190.74,901.165 1194.84,913.301 1198.95,925.632 1203.06,937.9 1207.16,949.92 1211.27,961.9 1215.38,974.076 1219.48,986.065 1223.59,997.481 
  1227.7,1008.65 1231.8,1019.95 1235.91,1031.23 1240.02,1041.91 1244.12,1051.88 1248.23,1061.47 1252.34,1070.6 1256.44,1079.15 1260.55,1087.11 1264.65,1094.51 
  1268.76,1101.27 1272.87,1107.27 1276.97,1112.5 1281.08,1116.73 1285.19,1119.62 1289.29,1121.05 1293.4,1121.58 1297.51,1121.86 1301.61,1121.74 1305.72,1121.03 
  1309.83,1119.67 1313.93,1118.17 1318.04,1117.14 1322.15,1116.56 1326.25,1116.39 1330.36,1116.79 1334.47,1117.95 1338.57,1119.83 1342.68,1122.36 1346.78,1125.49 
  1350.89,1129.34 1355,1134.05 1359.1,1139.55 1363.21,1145.76 1367.32,1152.58 1371.42,1159.95 1375.53,1167.77 1379.64,1175.95 1383.74,1184.38 1387.85,1193.05 
  1391.96,1201.92 1396.06,1210.87 1400.17,1219.76 1404.28,1228.74 1408.38,1238.01 1412.49,1247.45 1416.6,1256.94 1420.7,1266.32 1424.81,1275.77 1428.92,1285.48 
  1433.02,1295.05 1437.13,1304.11 1441.23,1312.59 1445.34,1320.52 1449.45,1327.92 1453.55,1334.72 1457.66,1340.83 1461.77,1346.16 1465.87,1350.79 1469.98,1354.86 
  1474.09,1358.27 1478.19,1360.93 1482.3,1362.73 1486.41,1363.99 1490.51,1365.06 1494.62,1365.89 1498.73,1366.44 1502.83,1366.64 1506.94,1366.54 1511.05,1366.24 
  1515.15,1365.7 1519.26,1364.93 1523.36,1363.88 1527.47,1362.74 1531.58,1361.72 1535.68,1360.82 1539.79,1360.03 1543.9,1359.36 1548,1358.88 1552.11,1358.72 
  1556.22,1358.87 1560.32,1359.33 1564.43,1360.1 1568.54,1361.17 1572.64,1362.54 1576.75,1364.18 1580.86,1366.08 1584.96,1368.22 1589.07,1370.57 1593.18,1373.11 
  1597.28,1375.81 1601.39,1378.63 1605.49,1381.43 1609.6,1384.1 1613.71,1386.7 1617.81,1389.33 1621.92,1391.98 1626.03,1394.63 1630.13,1397.17 1634.24,1399.48 
  1638.35,1401.57 1642.45,1403.41 1646.56,1405.01 1650.67,1406.32 1654.77,1407.35 1658.88,1408.05 1662.99,1408.41 1667.09,1408.37 1671.2,1407.91 1675.31,1406.99 
  1679.41,1405.86 1683.52,1404.84 1687.63,1403.95 1691.73,1403.17 1695.84,1402.53 1699.94,1402.02 1704.05,1401.65 1708.16,1401.41 1712.26,1401.3 1716.37,1401.32 
  1720.48,1401.45 1724.58,1401.69 1728.69,1402.03 1732.8,1402.46 1736.9,1402.95 1741.01,1403.5 1745.12,1404.08 1749.22,1404.67 1753.33,1405.35 1757.44,1406.22 
  1761.54,1407.28 1765.65,1408.5 1769.76,1409.89 1773.86,1411.43 1777.97,1413.12 1782.07,1414.94 1786.18,1416.87 1790.29,1418.9 1794.39,1421.02 1798.5,1423.2 
  1802.61,1425.42 1806.71,1427.67 1810.82,1429.92 1814.93,1432.15 1819.03,1434.33 1823.14,1436.43 1827.25,1438.43 1831.35,1440.31 1835.46,1442.01 1839.57,1443.53 
  1843.67,1444.82 1847.78,1445.84 1851.89,1446.67 1855.99,1447.4 1860.1,1447.99 1864.2,1448.44 1868.31,1448.72 1872.42,1448.82 1876.52,1448.82 1880.63,1448.82 
  1884.74,1448.82 1888.84,1448.82 1892.95,1448.82 1897.06,1448.82 1901.16,1448.82 1905.27,1448.82 1909.38,1448.82 1913.48,1448.82 1917.59,1448.82 1921.7,1448.82 
  1925.8,1448.82 1929.91,1448.82 1934.02,1448.82 1938.12,1448.82 1942.23,1448.82 1946.33,1448.82 1950.44,1448.82 1954.55,1448.82 1958.65,1448.82 1962.76,1448.82 
  1966.87,1448.82 1970.97,1448.82 1975.08,1448.82 1979.19,1448.82 1983.29,1448.82 1987.4,1448.82 1991.51,1448.82 1995.61,1448.82 1999.72,1448.82 2003.83,1448.82 
  2007.93,1448.82 2012.04,1448.82 2016.15,1448.82 2020.25,1448.72 2024.36,1448.44 2028.47,1447.99 2032.57,1447.4 2036.68,1446.67 2040.78,1445.84 2044.89,1444.92 
  2049,1443.91 2053.1,1442.84 2057.21,1441.73 2061.32,1440.58 2065.42,1439.41 2069.53,1438.23 2073.64,1437.06 2077.74,1435.9 2081.85,1434.76 2085.96,1433.66 
  2090.06,1432.61 2094.17,1431.61 2098.28,1430.67 2102.38,1429.79 2106.49,1429 2110.6,1428.28 2114.7,1427.65 2118.81,1427.1 2122.91,1426.65 2127.02,1426.3 
  2131.13,1426.05 2135.23,1425.9 2139.34,1425.84 2143.45,1425.9 2147.55,1426.05 2151.66,1426.3 2155.77,1426.65 2159.87,1427.1 2163.98,1427.65 2168.09,1428.28 
  2172.19,1429 2176.3,1429.79 2180.41,1430.67 2184.51,1431.61 2188.62,1432.61 2192.73,1433.66 2196.83,1434.76 2200.94,1435.9 2205.04,1437.06 2209.15,1438.23 
  2213.26,1439.41 2217.36,1440.58 2221.47,1441.73 2225.58,1442.84 2229.68,1443.91 2233.79,1444.92 2237.9,1445.84 2242,1446.67 2246.11,1447.4 2250.22,1447.99 
  2254.32,1448.44 2258.43,1448.72 2262.54,1448.82 2266.64,1448.82 2270.75,1448.82 2274.86,1448.82 2278.96,1448.82 2283.07,1448.82 2287.17,1448.82 2291.28,1448.82 
  
  "/>
<polyline clip-path="url(#clip9302)" style="stroke:#e26f46; stroke-width:8; stroke-opacity:1; fill:none" points="
  286.757,1448.82 289.065,1448.82 291.373,1448.82 293.68,1448.82 295.988,1448.82 298.296,1448.82 300.604,1448.82 302.912,1448.82 305.22,1448.82 307.528,1448.82 
  309.836,1448.82 312.144,1448.82 314.452,1448.82 316.76,1448.82 319.068,1448.29 321.375,1446.61 323.683,1443.54 325.991,1439.07 328.299,1433.36 330.607,1426.4 
  332.915,1418.19 335.223,1408.9 337.531,1398.53 339.839,1386.75 342.147,1373.45 344.455,1358.7 346.763,1342.24 349.07,1324.04 351.378,1304.42 353.686,1283.33 
  355.994,1260.77 358.302,1237.08 360.61,1212.25 362.918,1186.29 365.226,1159.38 367.534,1131.55 369.842,1103.01 372.15,1073.96 374.458,1044.6 376.765,1015.3 
  379.073,986.235 381.381,957.564 383.689,929.623 385.997,902.548 388.305,876.294 390.613,851.004 392.921,826.807 395.229,803.828 397.537,782.177 399.845,761.607 
  402.153,742.079 404.46,723.369 406.768,705.294 409.076,687.847 411.384,671.034 413.692,655.021 416,639.964 418.308,626.164 420.616,613.886 422.924,603.003 
  425.232,593.399 427.54,585.29 429.848,578.851 432.155,573.514 434.463,568.765 436.771,564.617 439.079,561.064 441.387,557.885 443.695,554.863 446.003,551.928 
  448.311,548.987 450.619,546.082 452.927,543.204 455.235,540.294 457.543,537.453 459.85,535.043 462.158,533.435 464.466,532.625 466.774,532.413 469.082,532.219 
  471.39,531.538 473.698,530.384 476.006,528.208 478.314,524.901 480.622,520.223 482.93,513.809 485.238,506.391 487.545,498.339 489.853,489.641 492.161,480.796 
  494.469,471.942 496.777,462.861 499.085,454.031 501.393,445.922 503.701,438.789 506.009,433.047 508.317,428.378 510.625,424.498 512.933,421.657 515.24,419.349 
  517.548,417.273 519.856,415.658 522.164,414.504 524.472,413.941 526.78,414.257 529.088,414.305 531.396,413.062 533.704,410.781 536.012,407.494 538.32,403.594 
  540.628,399.475 542.935,395.688 545.243,391.918 547.551,387.765 549.859,383.755 552.167,380.018 554.475,376.675 556.783,373.798 559.091,371.404 561.399,369.65 
  563.707,368.709 566.015,368.533 568.323,368.666 570.63,369.394 572.938,371.416 575.246,374.865 577.554,378.613 579.862,381.843 582.17,385.042 584.478,388.298 
  586.786,391.688 589.094,395.241 591.402,398.928 593.71,402.133 596.018,404.626 598.325,406.729 600.633,408.351 602.941,409.177 605.249,408.903 607.557,408.116 
  609.865,407.439 612.173,405.856 614.481,403.166 616.789,400.142 619.097,397.547 621.405,394.78 623.713,390.673 626.02,385.684 628.328,380.236 630.636,374.16 
  632.944,367.65 635.252,361.259 637.56,355.128 639.868,348.284 642.176,339.831 644.484,329.931 646.792,319.244 649.1,308.43 651.408,297.209 653.715,285.845 
  656.023,274.984 658.331,264.682 660.639,254.051 662.947,242.258 665.255,229.336 667.563,216.567 669.871,205.157 672.179,195.046 674.487,186.486 676.795,179.69 
  679.103,174.634 681.41,170.005 683.718,165.529 686.026,162.301 688.334,160.476 690.642,160.33 692.95,161.924 695.258,165.106 697.566,169.846 699.874,176.238 
  702.182,183.106 704.49,189.201 706.798,194.895 709.105,200.536 711.413,206.05 713.721,211.123 716.029,216.705 718.337,224.04 720.645,233.082 722.953,243.907 
  725.261,256.382 727.569,270.16 729.877,285.018 732.185,301.239 734.493,319.115 736.8,337.124 739.108,353.853 741.416,369.509 743.724,384.286 746.032,397.959 
  748.34,410.065 750.648,421.04 752.956,431.564 755.264,441.383 757.572,450.179 759.88,458.906 762.188,468.677 764.495,479.339 766.803,490.688 769.111,502.842 
  771.419,515.922 773.727,528.415 776.035,538.929 778.343,548.454 780.651,558.072 782.959,567.763 785.267,577.103 787.575,585.669 789.883,593.734 792.19,601.571 
  794.498,609.051 796.806,615.995 799.114,623.114 801.422,631.192 803.73,640.094 806.038,649.638 808.346,659.789 810.654,669.085 812.962,676.038 815.27,680.607 
  817.578,682.701 819.885,683.492 822.193,684.272 824.501,684.709 826.809,684.475 829.117,683.57 831.425,682.139 833.733,680.302 836.041,677.962 838.349,674.798 
  840.657,671.785 842.965,670.213 845.273,670.104 847.58,671.443 849.888,674.001 852.196,677.725 854.504,682.733 856.812,688.932 859.12,696.189 861.428,704.337 
  863.736,712.478 866.044,719.821 868.352,726.293 870.66,731.783 872.968,736.135 875.275,740.464 877.583,746.019 879.891,752.609 882.199,760.032 884.507,768.239 
  886.815,777.333 889.123,787.408 891.431,798.347 893.739,809.649 896.047,820.826 898.355,831.916 900.663,842.947 902.97,853.735 905.278,864.062 907.586,872.971 
  909.894,879.564 912.202,884.972 914.51,890.455 916.818,896.016 919.126,901.624 921.434,906.866 923.742,911.72 926.05,916.555 928.358,921.359 930.665,926.086 
  932.973,930.661 935.281,934.975 937.589,938.713 939.897,941.553 942.205,943.326 944.513,943.833 946.821,942.84 949.129,941.584 951.437,941.467 953.745,942.462 
  956.053,944.522 958.36,947.574 960.668,951.523 962.976,956.626 965.284,963.167 967.592,970.883 969.9,979.514 972.208,988.965 974.516,999.12 976.824,1010.03 
  979.132,1021.74 981.44,1034.12 983.748,1046.64 986.055,1058.83 988.363,1070.72 990.671,1082.37 992.979,1093.65 995.287,1104.38 997.595,1114.37 999.903,1123.42 
  1002.21,1132.23 1004.52,1141.62 1006.83,1151.49 1009.13,1161.76 1011.44,1172.29 1013.75,1182.97 1016.06,1193.3 1018.37,1202.99 1020.67,1212.14 1022.98,1220.68 
  1025.29,1228.48 1027.6,1235.43 1029.91,1241.39 1032.21,1246.23 1034.52,1249.88 1036.83,1252.31 1039.14,1253.45 1041.45,1253.22 1043.75,1251.53 1046.06,1249.01 
  1048.37,1246.2 1050.68,1242.97 1052.99,1239.33 1055.29,1235.3 1057.6,1230.88 1059.91,1226.43 1062.22,1222.36 1064.52,1218.7 1066.83,1215.47 1069.14,1212.69 
  1071.45,1210.37 1073.76,1208.5 1076.06,1207.24 1078.37,1206.79 1080.68,1207.14 1082.99,1208.28 1085.3,1210.2 1087.6,1212.85 1089.91,1216.2 1092.22,1220.2 
  1094.53,1224.79 1096.84,1229.91 1099.14,1235.46 1101.45,1241.38 1103.76,1247.54 1106.07,1254.05 1108.38,1260.99 1110.68,1268.26 1112.99,1275.79 1115.3,1283.45 
  1117.61,1291.14 1119.91,1298.73 1122.22,1306.47 1124.53,1314.64 1126.84,1323.16 1129.15,1331.97 1131.45,1340.98 1133.76,1350.09 1136.07,1359.21 1138.38,1368.24 
  1140.69,1377.07 1142.99,1385.58 1145.3,1393.66 1147.61,1401.18 1149.92,1408.01 1152.23,1413.99 1154.53,1419.38 1156.84,1424.44 1159.15,1429.09 1161.46,1433.25 
  1163.77,1436.83 1166.07,1439.73 1168.38,1441.87 1170.69,1443.52 1173,1444.83 1175.3,1445.61 1177.61,1445.87 1179.92,1445.61 1182.23,1444.83 1184.54,1443.52 
  1186.84,1441.87 1189.15,1440.09 1191.46,1438.19 1193.77,1435.68 1196.08,1432.12 1198.38,1427.65 1200.69,1422.38 1203,1416.44 1205.31,1409.93 1207.62,1402.97 
  1209.92,1395.65 1212.23,1388.08 1214.54,1380.34 1216.85,1372.53 1219.16,1364.73 1221.46,1357.02 1223.77,1349.47 1226.08,1342.16 1228.39,1335.14 1230.69,1328.47 
  1233,1322.22 1235.31,1316.42 1237.62,1311.13 1239.93,1306.38 1242.23,1302.21 1244.54,1298.65 1246.85,1295.73 1249.16,1293.46 1251.47,1291.86 1253.77,1290.94 
  1256.08,1290.72 1258.39,1291.18 1260.7,1292.33 1263.01,1294.15 1265.31,1296.64 1267.62,1299.77 1269.93,1303.53 1272.24,1307.71 1274.55,1312.12 1276.85,1316.76 
  1279.16,1321.63 1281.47,1326.7 1283.78,1331.96 1286.08,1337.37 1288.39,1342.92 1290.7,1348.55 1293.01,1354.22 1295.32,1359.87 1297.62,1365.46 1299.93,1370.92 
  1302.24,1376.18 1304.55,1381.16 1306.86,1385.78 1309.16,1389.95 1311.47,1393.77 1313.78,1397.35 1316.09,1400.63 1318.4,1403.52 1320.7,1405.95 1323.01,1407.84 
  1325.32,1409.11 1327.63,1409.65 1329.94,1409.38 1332.24,1408.75 1334.55,1408.3 1336.86,1408.03 1339.17,1407.94 1341.47,1408.03 1343.78,1408.3 1346.09,1408.75 
  1348.4,1409.38 1350.71,1410.18 1353.01,1411.14 1355.32,1412.27 1357.63,1413.55 1359.94,1414.97 1362.25,1416.52 1364.55,1418.19 1366.86,1419.97 1369.17,1421.85 
  1371.48,1423.81 1373.79,1425.82 1376.09,1427.89 1378.4,1429.98 1380.71,1432.08 1383.02,1434.16 1385.33,1436.2 1387.63,1438.19 1389.94,1440.09 1392.25,1441.87 
  1394.56,1443.52 1396.86,1445 1399.17,1446.29 1401.48,1447.34 1403.79,1448.14 1406.1,1448.64 1408.4,1448.82 1410.71,1448.82 1413.02,1448.82 1415.33,1448.82 
  1417.64,1448.82 1419.94,1448.82 1422.25,1448.82 1424.56,1448.82 1426.87,1448.82 1429.18,1448.82 1431.48,1448.82 1433.79,1448.82 1436.1,1448.82 1438.41,1448.82 
  
  "/>
<polygon clip-path="url(#clip9300)" points="
1631.48,386.635 2280.76,386.635 2280.76,205.195 1631.48,205.195 
  " fill="#ffffff" fill-rule="evenodd" fill-opacity="1"/>
<polyline clip-path="url(#clip9300)" style="stroke:#000000; stroke-width:4; stroke-opacity:1; fill:none" points="
  1631.48,386.635 2280.76,386.635 2280.76,205.195 1631.48,205.195 1631.48,386.635 
  "/>
<polyline clip-path="url(#clip9300)" style="stroke:#009af9; stroke-width:8; stroke-opacity:1; fill:none" points="
  1655.48,265.675 1799.48,265.675 
  "/>
<g clip-path="url(#clip9300)">
<text style="fill:#000000; fill-opacity:1; font-family:Arial,Helvetica Neue,Helvetica,sans-serif; font-size:48px; text-anchor:start;" transform="rotate(0, 1823.48, 283.175)" x="1823.48" y="283.175">Unemployed Boom</text>
</g>
<polyline clip-path="url(#clip9300)" style="stroke:#e26f46; stroke-width:8; stroke-opacity:1; fill:none" points="
  1655.48,326.155 1799.48,326.155 
  "/>
<g clip-path="url(#clip9300)">
<text style="fill:#000000; fill-opacity:1; font-family:Arial,Helvetica Neue,Helvetica,sans-serif; font-size:48px; text-anchor:start;" transform="rotate(0, 1823.48, 343.655)" x="1823.48" y="343.655">Unemployed Bust</text>
</g>
</svg>
