<?xml version="1.0" encoding="utf-8"?>
<svg xmlns="http://www.w3.org/2000/svg" xmlns:xlink="http://www.w3.org/1999/xlink" width="600" height="400" viewBox="0 0 2400 1600">
<defs>
  <clipPath id="clip8500">
    <rect x="0" y="0" width="2400" height="1600"/>
  </clipPath>
</defs>
<polygon clip-path="url(#clip8500)" points="
0,1600 2400,1600 2400,0 0,0 
  " fill="#ffffff" fill-rule="evenodd" fill-opacity="1"/>
<defs>
  <clipPath id="clip8501">
    <rect x="480" y="0" width="1681" height="1600"/>
  </clipPath>
</defs>
<polygon clip-path="url(#clip8500)" points="
180.66,1487.47 2352.76,1487.47 2352.76,121.675 180.66,121.675 
  " fill="#ffffff" fill-rule="evenodd" fill-opacity="1"/>
<defs>
  <clipPath id="clip8502">
    <rect x="180" y="121" width="2173" height="1367"/>
  </clipPath>
</defs>
<polyline clip-path="url(#clip8502)" style="stroke:#000000; stroke-width:2; stroke-opacity:0.1; fill:none" points="
  196.412,1487.47 196.412,121.675 
  "/>
<polyline clip-path="url(#clip8502)" style="stroke:#000000; stroke-width:2; stroke-opacity:0.1; fill:none" points="
  516.671,1487.47 516.671,121.675 
  "/>
<polyline clip-path="url(#clip8502)" style="stroke:#000000; stroke-width:2; stroke-opacity:0.1; fill:none" points="
  836.93,1487.47 836.93,121.675 
  "/>
<polyline clip-path="url(#clip8502)" style="stroke:#000000; stroke-width:2; stroke-opacity:0.1; fill:none" points="
  1157.19,1487.47 1157.19,121.675 
  "/>
<polyline clip-path="url(#clip8502)" style="stroke:#000000; stroke-width:2; stroke-opacity:0.1; fill:none" points="
  1477.45,1487.47 1477.45,121.675 
  "/>
<polyline clip-path="url(#clip8502)" style="stroke:#000000; stroke-width:2; stroke-opacity:0.1; fill:none" points="
  1797.71,1487.47 1797.71,121.675 
  "/>
<polyline clip-path="url(#clip8502)" style="stroke:#000000; stroke-width:2; stroke-opacity:0.1; fill:none" points="
  2117.97,1487.47 2117.97,121.675 
  "/>
<polyline clip-path="url(#clip8502)" style="stroke:#000000; stroke-width:2; stroke-opacity:0.1; fill:none" points="
  180.66,1448.82 2352.76,1448.82 
  "/>
<polyline clip-path="url(#clip8502)" style="stroke:#000000; stroke-width:2; stroke-opacity:0.1; fill:none" points="
  180.66,1177.89 2352.76,1177.89 
  "/>
<polyline clip-path="url(#clip8502)" style="stroke:#000000; stroke-width:2; stroke-opacity:0.1; fill:none" points="
  180.66,906.957 2352.76,906.957 
  "/>
<polyline clip-path="url(#clip8502)" style="stroke:#000000; stroke-width:2; stroke-opacity:0.1; fill:none" points="
  180.66,636.025 2352.76,636.025 
  "/>
<polyline clip-path="url(#clip8502)" style="stroke:#000000; stroke-width:2; stroke-opacity:0.1; fill:none" points="
  180.66,365.093 2352.76,365.093 
  "/>
<polyline clip-path="url(#clip8500)" style="stroke:#000000; stroke-width:4; stroke-opacity:1; fill:none" points="
  180.66,1487.47 2352.76,1487.47 
  "/>
<polyline clip-path="url(#clip8500)" style="stroke:#000000; stroke-width:4; stroke-opacity:1; fill:none" points="
  180.66,1487.47 180.66,121.675 
  "/>
<polyline clip-path="url(#clip8500)" style="stroke:#000000; stroke-width:4; stroke-opacity:1; fill:none" points="
  196.412,1487.47 196.412,1466.99 
  "/>
<polyline clip-path="url(#clip8500)" style="stroke:#000000; stroke-width:4; stroke-opacity:1; fill:none" points="
  516.671,1487.47 516.671,1466.99 
  "/>
<polyline clip-path="url(#clip8500)" style="stroke:#000000; stroke-width:4; stroke-opacity:1; fill:none" points="
  836.93,1487.47 836.93,1466.99 
  "/>
<polyline clip-path="url(#clip8500)" style="stroke:#000000; stroke-width:4; stroke-opacity:1; fill:none" points="
  1157.19,1487.47 1157.19,1466.99 
  "/>
<polyline clip-path="url(#clip8500)" style="stroke:#000000; stroke-width:4; stroke-opacity:1; fill:none" points="
  1477.45,1487.47 1477.45,1466.99 
  "/>
<polyline clip-path="url(#clip8500)" style="stroke:#000000; stroke-width:4; stroke-opacity:1; fill:none" points="
  1797.71,1487.47 1797.71,1466.99 
  "/>
<polyline clip-path="url(#clip8500)" style="stroke:#000000; stroke-width:4; stroke-opacity:1; fill:none" points="
  2117.97,1487.47 2117.97,1466.99 
  "/>
<polyline clip-path="url(#clip8500)" style="stroke:#000000; stroke-width:4; stroke-opacity:1; fill:none" points="
  180.66,1448.82 213.242,1448.82 
  "/>
<polyline clip-path="url(#clip8500)" style="stroke:#000000; stroke-width:4; stroke-opacity:1; fill:none" points="
  180.66,1177.89 213.242,1177.89 
  "/>
<polyline clip-path="url(#clip8500)" style="stroke:#000000; stroke-width:4; stroke-opacity:1; fill:none" points="
  180.66,906.957 213.242,906.957 
  "/>
<polyline clip-path="url(#clip8500)" style="stroke:#000000; stroke-width:4; stroke-opacity:1; fill:none" points="
  180.66,636.025 213.242,636.025 
  "/>
<polyline clip-path="url(#clip8500)" style="stroke:#000000; stroke-width:4; stroke-opacity:1; fill:none" points="
  180.66,365.093 213.242,365.093 
  "/>
<g clip-path="url(#clip8500)">
<text style="fill:#000000; fill-opacity:1; font-family:Arial,Helvetica Neue,Helvetica,sans-serif; font-size:48px; text-anchor:middle;" transform="rotate(0, 196.412, 1541.47)" x="196.412" y="1541.47">-10</text>
</g>
<g clip-path="url(#clip8500)">
<text style="fill:#000000; fill-opacity:1; font-family:Arial,Helvetica Neue,Helvetica,sans-serif; font-size:48px; text-anchor:middle;" transform="rotate(0, 516.671, 1541.47)" x="516.671" y="1541.47">0</text>
</g>
<g clip-path="url(#clip8500)">
<text style="fill:#000000; fill-opacity:1; font-family:Arial,Helvetica Neue,Helvetica,sans-serif; font-size:48px; text-anchor:middle;" transform="rotate(0, 836.93, 1541.47)" x="836.93" y="1541.47">10</text>
</g>
<g clip-path="url(#clip8500)">
<text style="fill:#000000; fill-opacity:1; font-family:Arial,Helvetica Neue,Helvetica,sans-serif; font-size:48px; text-anchor:middle;" transform="rotate(0, 1157.19, 1541.47)" x="1157.19" y="1541.47">20</text>
</g>
<g clip-path="url(#clip8500)">
<text style="fill:#000000; fill-opacity:1; font-family:Arial,Helvetica Neue,Helvetica,sans-serif; font-size:48px; text-anchor:middle;" transform="rotate(0, 1477.45, 1541.47)" x="1477.45" y="1541.47">30</text>
</g>
<g clip-path="url(#clip8500)">
<text style="fill:#000000; fill-opacity:1; font-family:Arial,Helvetica Neue,Helvetica,sans-serif; font-size:48px; text-anchor:middle;" transform="rotate(0, 1797.71, 1541.47)" x="1797.71" y="1541.47">40</text>
</g>
<g clip-path="url(#clip8500)">
<text style="fill:#000000; fill-opacity:1; font-family:Arial,Helvetica Neue,Helvetica,sans-serif; font-size:48px; text-anchor:middle;" transform="rotate(0, 2117.97, 1541.47)" x="2117.97" y="1541.47">50</text>
</g>
<g clip-path="url(#clip8500)">
<text style="fill:#000000; fill-opacity:1; font-family:Arial,Helvetica Neue,Helvetica,sans-serif; font-size:48px; text-anchor:end;" transform="rotate(0, 156.66, 1466.32)" x="156.66" y="1466.32">0.00</text>
</g>
<g clip-path="url(#clip8500)">
<text style="fill:#000000; fill-opacity:1; font-family:Arial,Helvetica Neue,Helvetica,sans-serif; font-size:48px; text-anchor:end;" transform="rotate(0, 156.66, 1195.39)" x="156.66" y="1195.39">0.05</text>
</g>
<g clip-path="url(#clip8500)">
<text style="fill:#000000; fill-opacity:1; font-family:Arial,Helvetica Neue,Helvetica,sans-serif; font-size:48px; text-anchor:end;" transform="rotate(0, 156.66, 924.457)" x="156.66" y="924.457">0.10</text>
</g>
<g clip-path="url(#clip8500)">
<text style="fill:#000000; fill-opacity:1; font-family:Arial,Helvetica Neue,Helvetica,sans-serif; font-size:48px; text-anchor:end;" transform="rotate(0, 156.66, 653.525)" x="156.66" y="653.525">0.15</text>
</g>
<g clip-path="url(#clip8500)">
<text style="fill:#000000; fill-opacity:1; font-family:Arial,Helvetica Neue,Helvetica,sans-serif; font-size:48px; text-anchor:end;" transform="rotate(0, 156.66, 382.593)" x="156.66" y="382.593">0.20</text>
</g>
<g clip-path="url(#clip8500)">
<text style="fill:#000000; fill-opacity:1; font-family:Arial,Helvetica Neue,Helvetica,sans-serif; font-size:84px; text-anchor:middle;" transform="rotate(0, 1266.71, 73.2)" x="1266.71" y="73.2">PDF asset distribution conditional on Aggregate shock</text>
</g>
<polyline clip-path="url(#clip8502)" style="stroke:#009af9; stroke-width:8; stroke-opacity:1; fill:none" points="
  256.793,1448.82 260.841,1448.82 264.888,1448.82 268.936,1448.82 272.984,1448.82 277.032,1448.82 281.079,1448.82 285.127,1448.82 289.175,1448.82 293.223,1448.82 
  297.27,1448.82 301.318,1448.82 305.366,1448.82 309.414,1448.82 313.461,1448.82 317.509,1448.82 321.557,1448.82 325.605,1448.82 329.652,1448.82 333.7,1448.82 
  337.748,1448.82 341.796,1448.82 345.843,1448.82 349.891,1448.82 353.939,1448.82 357.987,1448.82 362.034,1448.82 366.082,1448.82 370.13,1448.82 374.178,1448.82 
  378.225,1448.82 382.273,1448.82 386.321,1448.82 390.369,1448.82 394.417,1448.82 398.464,1448.82 402.512,1448.82 406.56,1448.82 410.608,1448.82 414.655,1448.82 
  418.703,1448.82 422.751,1448.82 426.799,1448.82 430.846,1448.82 434.894,1448.82 438.942,1448.82 442.99,1448.81 447.037,1448.76 451.085,1448.67 455.133,1448.51 
  459.181,1448.28 463.228,1447.97 467.276,1447.58 471.324,1447.12 475.372,1446.58 479.419,1445.95 483.467,1445.22 487.515,1444.39 491.563,1443.45 495.61,1442.37 
  499.658,1441.15 503.706,1439.81 507.754,1438.34 511.801,1436.76 515.849,1435.06 519.897,1433.25 523.945,1431.34 527.992,1429.37 532.04,1427.31 536.088,1425.11 
  540.136,1422.75 544.184,1420.26 548.231,1417.66 552.279,1414.95 556.327,1412.18 560.375,1409.34 564.422,1406.4 568.47,1403.36 572.518,1400.28 576.566,1397.16 
  580.613,1394.02 584.661,1390.85 588.709,1387.66 592.757,1384.42 596.804,1381.15 600.852,1377.88 604.9,1374.62 608.948,1371.36 612.995,1368.17 617.043,1365.13 
  621.091,1362.21 625.139,1359.41 629.186,1356.76 633.234,1354.27 637.282,1352 641.33,1349.99 645.377,1348.18 649.425,1346.5 653.473,1344.96 657.521,1343.6 
  661.568,1342.38 665.616,1341.27 669.664,1340.29 673.712,1339.49 677.759,1338.77 681.807,1338.1 685.855,1337.48 689.903,1336.83 693.951,1336.18 697.998,1335.66 
  702.046,1335.27 706.094,1335.01 710.142,1334.9 714.189,1334.88 718.237,1334.95 722.285,1335.13 726.333,1335.41 730.38,1335.79 734.428,1336.29 738.476,1336.89 
  742.524,1337.59 746.571,1338.28 750.619,1338.96 754.667,1339.67 758.715,1340.44 762.762,1341.26 766.81,1342.13 770.858,1343.13 774.906,1344.23 778.953,1345.4 
  783.001,1346.71 787.049,1348.19 791.097,1349.8 795.144,1351.51 799.192,1353.25 803.24,1355.02 807.288,1356.82 811.335,1358.7 815.383,1360.66 819.431,1362.67 
  823.479,1364.77 827.526,1366.97 831.574,1369.22 835.622,1371.44 839.67,1373.73 843.718,1376.1 847.765,1378.51 851.813,1381.01 855.861,1383.57 859.909,1386.13 
  863.956,1388.67 868.004,1391.18 872.052,1393.6 876.1,1395.98 880.147,1398.27 884.195,1400.43 888.243,1402.5 892.291,1404.47 896.338,1406.31 900.386,1407.98 
  904.434,1409.48 908.482,1410.93 912.529,1412.35 916.577,1413.72 920.625,1415.06 924.673,1416.37 928.72,1417.71 932.768,1419.06 936.816,1420.44 940.864,1421.83 
  944.911,1423.2 948.959,1424.53 953.007,1425.82 957.055,1427.11 961.102,1428.37 965.15,1429.58 969.198,1430.72 973.246,1431.81 977.293,1432.82 981.341,1433.76 
  985.389,1434.62 989.437,1435.39 993.485,1436.08 997.532,1436.72 1001.58,1437.3 1005.63,1437.8 1009.68,1438.24 1013.72,1438.64 1017.77,1438.98 1021.82,1439.27 
  1025.87,1439.54 1029.91,1439.79 1033.96,1440.04 1038.01,1440.29 1042.06,1440.54 1046.11,1440.8 1050.15,1441.07 1054.2,1441.36 1058.25,1441.66 1062.3,1441.94 
  1066.34,1442.21 1070.39,1442.45 1074.44,1442.69 1078.49,1442.92 1082.54,1443.15 1086.58,1443.37 1090.63,1443.57 1094.68,1443.73 1098.73,1443.86 1102.77,1443.93 
  1106.82,1443.96 1110.87,1443.96 1114.92,1443.93 1118.96,1443.88 1123.01,1443.81 1127.06,1443.71 1131.11,1443.61 1135.16,1443.49 1139.2,1443.38 1143.25,1443.25 
  1147.3,1443.12 1151.35,1442.99 1155.39,1442.85 1159.44,1442.71 1163.49,1440.53 1167.54,1434.72 1171.59,1425.87 1175.63,1414.55 1179.68,1401.3 1183.73,1386.62 
  1187.78,1370.98 1191.82,1354.8 1195.87,1338.48 1199.92,1322.38 1203.97,1306.83 1208.02,1292.14 1212.06,1278.57 1216.11,1266.37 1220.16,1255.74 1224.21,1246.81 
  1228.25,1239.66 1232.3,1234.44 1236.35,1231.21 1240.4,1230.03 1244.45,1230.94 1248.49,1233.92 1252.54,1238.94 1256.59,1245.95 1260.64,1254.82 1264.68,1265.42 
  1268.73,1277.55 1272.78,1291.03 1276.83,1305.63 1280.88,1321.07 1284.92,1337.06 1288.97,1353.27 1293.02,1369.31 1297.07,1384.76 1301.11,1399.21 1305.16,1412.22 
  1309.21,1423.27 1313.26,1431.88 1317.31,1437.48 1321.35,1439.47 1325.4,1439.49 1329.45,1439.58 1333.5,1439.71 1337.54,1439.89 1341.59,1440.12 1345.64,1440.39 
  1349.69,1440.69 1353.73,1441.03 1357.78,1441.38 1361.83,1441.73 1365.88,1442.02 1369.93,1442.27 1373.97,1442.45 1378.02,1442.54 1382.07,1442.52 1386.12,1442.45 
  1390.16,1442.39 1394.21,1442.34 1398.26,1442.31 1402.31,1442.31 1406.36,1442.35 1410.4,1442.4 1414.45,1442.48 1418.5,1442.57 1422.55,1442.67 1426.59,1442.79 
  1430.64,1442.95 1434.69,1443.09 1438.74,1443.2 1442.79,1443.26 1446.83,1443.28 1450.88,1443.25 1454.93,1443.19 1458.98,1443.13 1463.02,1443.07 1467.07,1443.02 
  1471.12,1442.99 1475.17,1442.97 1479.22,1442.96 1483.26,1442.96 1487.31,1442.98 1491.36,1443.01 1495.41,1443.06 1499.45,1443.13 1503.5,1443.22 1507.55,1443.32 
  1511.6,1443.39 1515.65,1443.4 1519.69,1443.35 1523.74,1443.26 1527.79,1443.16 1531.84,1443.07 1535.88,1442.99 1539.93,1442.94 1543.98,1442.92 1548.03,1442.94 
  1552.07,1442.99 1556.12,1443.07 1560.17,1443.17 1564.22,1443.28 1568.27,1443.39 1572.31,1443.51 1576.36,1443.57 1580.41,1443.55 1584.46,1443.43 1588.5,1443.22 
  1592.55,1442.94 1596.6,1442.62 1600.65,1442.3 1604.7,1441.99 1608.74,1441.7 1612.79,1441.44 1616.84,1441.21 1620.89,1441.03 1624.93,1440.89 1628.98,1440.8 
  1633.03,1440.74 1637.08,1440.73 1641.13,1440.76 1645.17,1440.81 1649.22,1440.81 1653.27,1440.79 1657.32,1440.75 1661.36,1440.68 1665.41,1440.57 1669.46,1440.43 
  1673.51,1440.28 1677.56,1440.18 1681.6,1440.12 1685.65,1440.11 1689.7,1440.16 1693.75,1440.23 1697.79,1440.32 1701.84,1440.43 1705.89,1440.54 1709.94,1440.66 
  1713.99,1440.72 1718.03,1440.66 1722.08,1440.49 1726.13,1440.24 1730.18,1439.91 1734.22,1439.51 1738.27,1439.08 1742.32,1438.7 1746.37,1438.38 1750.42,1438.13 
  1754.46,1437.94 1758.51,1437.83 1762.56,1437.8 1766.61,1437.82 1770.65,1437.9 1774.7,1438.04 1778.75,1438.23 1782.8,1438.46 1786.84,1438.64 1790.89,1438.68 
  1794.94,1438.6 1798.99,1438.41 1803.04,1438.12 1807.08,1437.77 1811.13,1437.44 1815.18,1437.13 1819.23,1436.85 1823.27,1436.62 1827.32,1436.45 1831.37,1436.35 
  1835.42,1436.32 1839.47,1436.35 1843.51,1436.42 1847.56,1436.51 1851.61,1436.61 1855.66,1436.73 1859.7,1436.62 1863.75,1436.09 1867.8,1435.18 1871.85,1433.95 
  1875.9,1432.51 1879.94,1430.99 1883.99,1429.44 1888.04,1427.91 1892.09,1426.45 1896.13,1425.07 1900.18,1423.83 1904.23,1422.74 1908.28,1421.81 1912.33,1421.07 
  1916.37,1420.51 1920.42,1418.93 1924.47,1415.35 1928.52,1410.13 1932.56,1403.6 1936.61,1384.93 1940.66,1345.51 1944.71,1288.84 1948.76,1218.31 1952.8,1137.15 
  1956.85,1048.28 1960.9,954.44 1964.95,858.144 1968.99,761.727 1973.04,667.319 1977.09,576.852 1981.14,492.057 1985.18,414.468 1989.23,345.421 1993.28,286.05 
  1997.33,237.292 2001.38,199.885 2005.42,174.385 2009.47,161.151 2013.52,160.33 2017.57,171.868 2021.61,195.794 2025.66,231.991 2029.71,279.895 2033.76,338.748 
  2037.81,407.599 2041.85,485.298 2045.9,570.505 2049.95,661.681 2054,757.096 2058.04,854.823 2062.09,952.741 2066.14,1048.53 2070.19,1139.69 2074.24,1223.51 
  2078.28,1297.08 2082.33,1358.66 2086.38,1406.55 2090.43,1437.69 2094.47,1448.82 2098.52,1448.82 2102.57,1448.82 2106.62,1448.82 2110.67,1448.82 2114.71,1448.82 
  2118.76,1448.82 2122.81,1448.82 2126.86,1448.82 2130.9,1448.82 2134.95,1448.82 2139,1448.82 2143.05,1448.82 2147.1,1448.82 2151.14,1448.82 2155.19,1448.82 
  2159.24,1448.82 2163.29,1448.82 2167.33,1448.82 2171.38,1448.82 2175.43,1448.82 2179.48,1448.82 2183.53,1448.82 2187.57,1448.82 2191.62,1448.82 2195.67,1448.82 
  2199.72,1448.82 2203.76,1448.82 2207.81,1448.82 2211.86,1448.82 2215.91,1448.82 2219.95,1448.82 2224,1448.82 2228.05,1448.82 2232.1,1448.82 2236.15,1448.82 
  2240.19,1448.82 2244.24,1448.82 2248.29,1448.82 2252.34,1448.82 2256.38,1448.82 2260.43,1448.82 2264.48,1448.82 2268.53,1448.82 2272.58,1448.82 2276.62,1448.82 
  
  "/>
<polyline clip-path="url(#clip8502)" style="stroke:#e26f46; stroke-width:8; stroke-opacity:1; fill:none" points="
  242.135,1448.82 246.241,1448.82 250.348,1448.82 254.454,1448.82 258.561,1448.82 262.667,1448.82 266.774,1448.82 270.88,1448.82 274.987,1448.82 279.093,1448.82 
  283.2,1448.82 287.306,1448.82 291.413,1448.82 295.519,1448.82 299.626,1448.82 303.732,1448.82 307.839,1448.82 311.945,1448.82 316.052,1448.82 320.158,1448.82 
  324.265,1448.82 328.371,1448.82 332.478,1448.82 336.584,1448.82 340.691,1448.82 344.797,1448.82 348.904,1448.82 353.01,1448.82 357.117,1448.82 361.223,1448.82 
  365.33,1448.82 369.436,1448.82 373.543,1448.82 377.649,1448.82 381.756,1448.82 385.862,1448.82 389.969,1448.82 394.075,1448.82 398.182,1448.82 402.288,1448.82 
  406.395,1448.82 410.501,1448.82 414.608,1448.82 418.715,1448.82 422.821,1448.82 426.928,1448.82 431.034,1448.82 435.141,1448.82 439.247,1448.79 443.354,1448.66 
  447.46,1448.4 451.567,1447.95 455.673,1447.28 459.78,1446.4 463.886,1445.3 467.993,1443.96 472.099,1442.33 476.206,1440.36 480.312,1438.06 484.419,1435.44 
  488.525,1432.51 492.632,1429.27 496.738,1425.74 500.845,1421.86 504.951,1417.66 509.058,1413.22 513.164,1408.55 517.271,1403.72 521.377,1398.77 525.484,1393.74 
  529.59,1388.68 533.697,1383.69 537.803,1378.76 541.91,1373.95 546.016,1369.32 550.123,1364.92 554.229,1360.73 558.336,1356.74 562.442,1353.01 566.549,1349.63 
  570.655,1346.57 574.762,1343.83 578.868,1341.43 582.975,1339.39 587.081,1337.68 591.188,1336.24 595.294,1335.06 599.401,1334.03 603.507,1333.1 607.614,1332.32 
  611.72,1331.75 615.827,1331.4 619.933,1331.16 624.04,1331.03 628.146,1330.95 632.253,1330.87 636.359,1330.87 640.466,1331.03 644.572,1331.31 648.679,1331.65 
  652.785,1331.98 656.892,1332.33 660.998,1332.76 665.105,1333.35 669.211,1334.11 673.318,1335.03 677.424,1336.1 681.531,1337.31 685.637,1338.67 689.744,1340.19 
  693.85,1341.78 697.957,1343.39 702.063,1345.04 706.17,1346.7 710.276,1348.35 714.383,1349.97 718.489,1351.57 722.596,1353.23 726.702,1354.93 730.809,1356.65 
  734.916,1358.41 739.022,1360.21 743.129,1362.05 747.235,1363.86 751.342,1365.63 755.448,1367.41 759.555,1369.13 763.661,1370.8 767.768,1372.49 771.874,1374.16 
  775.981,1375.73 780.087,1377.2 784.194,1378.64 788.3,1380.06 792.407,1381.5 796.513,1382.95 800.62,1384.38 804.726,1385.73 808.833,1387 812.939,1388.28 
  817.046,1389.64 821.152,1391.02 825.259,1392.35 829.365,1393.62 833.472,1394.8 837.578,1395.9 841.685,1396.92 845.791,1397.87 849.898,1398.69 854.004,1399.4 
  858.111,1400.1 862.217,1400.81 866.324,1401.52 870.43,1402.31 874.537,1403.17 878.643,1404.11 882.75,1405.19 886.856,1406.34 890.963,1407.52 895.069,1408.7 
  899.176,1409.84 903.282,1410.93 907.389,1411.91 911.495,1412.78 915.602,1413.52 919.708,1414.09 923.815,1414.55 927.921,1414.95 932.028,1415.31 936.134,1415.64 
  940.241,1415.96 944.347,1416.3 948.454,1416.65 952.56,1416.92 956.667,1417.04 960.773,1417.08 964.88,1417.02 968.986,1416.83 973.093,1416.5 977.199,1415.98 
  981.306,1415.29 985.412,1414.46 989.519,1413.52 993.625,1412.51 997.732,1411.47 1001.84,1410.46 1005.94,1409.53 1010.05,1408.72 1014.16,1408.08 1018.26,1407.6 
  1022.37,1407.3 1026.48,1407.05 1030.58,1406.73 1034.69,1406.32 1038.8,1405.79 1042.9,1405.17 1047.01,1404.44 1051.12,1403.63 1055.22,1402.83 1059.33,1401.88 
  1063.44,1400.69 1067.54,1399.36 1071.65,1397.99 1075.76,1396.67 1079.86,1395.48 1083.97,1394.49 1088.08,1393.75 1092.18,1392.93 1096.29,1391.77 1100.39,1390.36 
  1104.5,1388.79 1108.61,1387.12 1112.71,1385.39 1116.82,1383.71 1120.93,1382.21 1125.03,1380.89 1129.14,1379.81 1133.25,1379.02 1137.35,1378.6 1141.46,1378.61 
  1145.57,1379.03 1149.67,1379.88 1153.78,1381.19 1157.89,1382.95 1161.99,1384.55 1166.1,1385.45 1170.21,1385.77 1174.31,1385.6 1178.42,1385.02 1182.52,1384.11 
  1186.63,1382.88 1190.74,1381.51 1194.84,1380.17 1198.95,1378.95 1203.06,1377.93 1207.16,1377.09 1211.27,1376.47 1215.38,1376.08 1219.48,1375.87 1223.59,1375.93 
  1227.7,1376.36 1231.8,1377.14 1235.91,1378.22 1240.02,1379.54 1244.12,1381.03 1248.23,1382.61 1252.34,1384.18 1256.44,1386 1260.55,1388.37 1264.65,1391.24 
  1268.76,1394.55 1272.87,1398.25 1276.97,1402.28 1281.08,1406.57 1285.19,1411.04 1289.29,1415.57 1293.4,1420.05 1297.51,1424.37 1301.61,1428.41 1305.72,1432.04 
  1309.83,1435.11 1313.93,1437.5 1318.04,1439.03 1322.15,1439.55 1326.25,1439.52 1330.36,1439.55 1334.47,1439.63 1338.57,1439.76 1342.68,1439.93 1346.78,1440.16 
  1350.89,1440.43 1355,1440.74 1359.1,1441.05 1363.21,1441.33 1367.32,1441.59 1371.42,1441.81 1375.53,1441.98 1379.64,1442.08 1383.74,1442.09 1387.85,1442.06 
  1391.96,1442.05 1396.06,1442.05 1400.17,1442.08 1404.28,1442.14 1408.38,1442.23 1412.49,1442.34 1416.6,1442.47 1420.7,1442.61 1424.81,1442.76 1428.92,1442.93 
  1433.02,1443.09 1437.13,1443.2 1441.23,1443.27 1445.34,1443.29 1449.45,1443.26 1453.55,1443.19 1457.66,1443.13 1461.77,1443.08 1465.87,1443.03 1469.98,1443 
  1474.09,1442.98 1478.19,1442.97 1482.3,1442.97 1486.41,1442.98 1490.51,1443.01 1494.62,1443.05 1498.73,1443.12 1502.83,1443.21 1506.94,1443.31 1511.05,1443.39 
  1515.15,1443.41 1519.26,1443.36 1523.36,1443.29 1527.47,1443.21 1531.58,1443.14 1535.68,1443.07 1539.79,1443.02 1543.9,1443.01 1548,1443.02 1552.11,1443.07 
  1556.22,1443.15 1560.32,1443.25 1564.43,1443.35 1568.54,1443.46 1572.64,1443.58 1576.75,1443.65 1580.86,1443.62 1584.96,1443.5 1589.07,1443.3 1593.18,1443.03 
  1597.28,1442.71 1601.39,1442.39 1605.49,1442.09 1609.6,1441.8 1613.71,1441.54 1617.81,1441.32 1621.92,1441.14 1626.03,1441.01 1630.13,1440.91 1634.24,1440.86 
  1638.35,1440.85 1642.45,1440.83 1646.56,1440.79 1650.67,1440.73 1654.77,1440.66 1658.88,1440.56 1662.99,1440.44 1667.09,1440.29 1671.2,1440.12 1675.31,1439.97 
  1679.41,1439.86 1683.52,1439.81 1687.63,1439.82 1691.73,1439.88 1695.84,1439.99 1699.94,1440.12 1704.05,1440.26 1708.16,1440.42 1712.26,1440.53 1716.37,1440.53 
  1720.48,1440.43 1724.58,1440.24 1728.69,1439.99 1732.8,1439.68 1736.9,1439.3 1741.01,1438.92 1745.12,1438.59 1749.22,1438.33 1753.33,1438.13 1757.44,1438.01 
  1761.54,1437.97 1765.65,1437.98 1769.76,1438.05 1773.86,1438.17 1777.97,1438.34 1782.07,1438.56 1786.18,1438.72 1790.29,1438.74 1794.39,1438.65 1798.5,1438.44 
  1802.61,1438.14 1806.71,1437.79 1810.82,1437.46 1814.93,1437.15 1819.03,1436.87 1823.14,1436.64 1827.25,1436.48 1831.35,1436.39 1835.46,1436.37 1839.57,1436.41 
  1843.67,1436.47 1847.78,1436.56 1851.89,1436.68 1855.99,1436.8 1860.1,1436.69 1864.2,1436.16 1868.31,1435.25 1872.42,1434.04 1876.52,1432.62 1880.63,1431.13 
  1884.74,1429.61 1888.84,1428.11 1892.95,1426.67 1897.06,1425.33 1901.16,1424.12 1905.27,1423.06 1909.38,1422.16 1913.48,1421.44 1917.59,1419.71 1921.7,1416.02 
  1925.8,1410.72 1929.91,1404.12 1934.02,1396.54 1938.12,1377.29 1942.23,1337.85 1946.33,1281.66 1950.44,1212.05 1954.55,1132.18 1958.65,1044.9 1962.76,952.893 
  1966.87,858.628 1970.97,764.382 1975.08,672.235 1979.19,584.073 1983.29,501.584 1987.4,426.261 1991.51,359.399 1995.61,302.1 1999.72,255.267 2003.83,219.625 
  2007.93,195.706 2012.04,183.831 2016.15,184.125 2020.25,196.518 2024.36,221.017 2028.47,257.488 2032.57,305.358 2036.68,363.861 2040.78,432.039 2044.89,508.741 
  2049,592.627 2053.1,682.162 2057.21,775.62 2061.32,871.084 2065.42,966.444 2069.53,1059.4 2073.64,1147.45 2077.74,1227.92 2081.85,1299.25 2085.96,1359.95 
  2090.06,1407.16 2094.17,1437.85 2098.28,1448.82 2102.38,1448.82 2106.49,1448.82 2110.6,1448.82 2114.7,1448.82 2118.81,1448.82 2122.91,1448.82 2127.02,1448.82 
  2131.13,1448.82 2135.23,1448.82 2139.34,1448.82 2143.45,1448.82 2147.55,1448.82 2151.66,1448.82 2155.77,1448.82 2159.87,1448.82 2163.98,1448.82 2168.09,1448.82 
  2172.19,1448.82 2176.3,1448.82 2180.41,1448.82 2184.51,1448.82 2188.62,1448.82 2192.73,1448.82 2196.83,1448.82 2200.94,1448.82 2205.04,1448.82 2209.15,1448.82 
  2213.26,1448.82 2217.36,1448.82 2221.47,1448.82 2225.58,1448.82 2229.68,1448.82 2233.79,1448.82 2237.9,1448.82 2242,1448.82 2246.11,1448.82 2250.22,1448.82 
  2254.32,1448.82 2258.43,1448.82 2262.54,1448.82 2266.64,1448.82 2270.75,1448.82 2274.86,1448.82 2278.96,1448.82 2283.07,1448.82 2287.17,1448.82 2291.28,1448.82 
  
  "/>
<polygon clip-path="url(#clip8500)" points="
252.66,386.635 618.386,386.635 618.386,205.195 252.66,205.195 
  " fill="#ffffff" fill-rule="evenodd" fill-opacity="1"/>
<polyline clip-path="url(#clip8500)" style="stroke:#000000; stroke-width:4; stroke-opacity:1; fill:none" points="
  252.66,386.635 618.386,386.635 618.386,205.195 252.66,205.195 252.66,386.635 
  "/>
<polyline clip-path="url(#clip8500)" style="stroke:#009af9; stroke-width:8; stroke-opacity:1; fill:none" points="
  276.66,265.675 420.66,265.675 
  "/>
<g clip-path="url(#clip8500)">
<text style="fill:#000000; fill-opacity:1; font-family:Arial,Helvetica Neue,Helvetica,sans-serif; font-size:48px; text-anchor:start;" transform="rotate(0, 444.66, 283.175)" x="444.66" y="283.175">Boom</text>
</g>
<polyline clip-path="url(#clip8500)" style="stroke:#e26f46; stroke-width:8; stroke-opacity:1; fill:none" points="
  276.66,326.155 420.66,326.155 
  "/>
<g clip-path="url(#clip8500)">
<text style="fill:#000000; fill-opacity:1; font-family:Arial,Helvetica Neue,Helvetica,sans-serif; font-size:48px; text-anchor:start;" transform="rotate(0, 444.66, 343.655)" x="444.66" y="343.655">Bust</text>
</g>
</svg>
