<?xml version="1.0" encoding="utf-8"?>
<svg xmlns="http://www.w3.org/2000/svg" xmlns:xlink="http://www.w3.org/1999/xlink" width="600" height="400" viewBox="0 0 2400 1600">
<defs>
  <clipPath id="clip7700">
    <rect x="0" y="0" width="2400" height="1600"/>
  </clipPath>
</defs>
<polygon clip-path="url(#clip7700)" points="
0,1600 2400,1600 2400,0 0,0 
  " fill="#ffffff" fill-rule="evenodd" fill-opacity="1"/>
<defs>
  <clipPath id="clip7701">
    <rect x="480" y="0" width="1681" height="1600"/>
  </clipPath>
</defs>
<polygon clip-path="url(#clip7700)" points="
180.66,1487.47 2352.76,1487.47 2352.76,121.675 180.66,121.675 
  " fill="#ffffff" fill-rule="evenodd" fill-opacity="1"/>
<defs>
  <clipPath id="clip7702">
    <rect x="180" y="121" width="2173" height="1367"/>
  </clipPath>
</defs>
<polyline clip-path="url(#clip7702)" style="stroke:#000000; stroke-width:2; stroke-opacity:0.1; fill:none" points="
  237.756,1487.47 237.756,121.675 
  "/>
<polyline clip-path="url(#clip7702)" style="stroke:#000000; stroke-width:2; stroke-opacity:0.1; fill:none" points="
  675.608,1487.47 675.608,121.675 
  "/>
<polyline clip-path="url(#clip7702)" style="stroke:#000000; stroke-width:2; stroke-opacity:0.1; fill:none" points="
  1113.46,1487.47 1113.46,121.675 
  "/>
<polyline clip-path="url(#clip7702)" style="stroke:#000000; stroke-width:2; stroke-opacity:0.1; fill:none" points="
  1551.31,1487.47 1551.31,121.675 
  "/>
<polyline clip-path="url(#clip7702)" style="stroke:#000000; stroke-width:2; stroke-opacity:0.1; fill:none" points="
  1989.16,1487.47 1989.16,121.675 
  "/>
<polyline clip-path="url(#clip7702)" style="stroke:#000000; stroke-width:2; stroke-opacity:0.1; fill:none" points="
  180.66,1309.13 2352.76,1309.13 
  "/>
<polyline clip-path="url(#clip7702)" style="stroke:#000000; stroke-width:2; stroke-opacity:0.1; fill:none" points="
  180.66,1057.93 2352.76,1057.93 
  "/>
<polyline clip-path="url(#clip7702)" style="stroke:#000000; stroke-width:2; stroke-opacity:0.1; fill:none" points="
  180.66,806.738 2352.76,806.738 
  "/>
<polyline clip-path="url(#clip7702)" style="stroke:#000000; stroke-width:2; stroke-opacity:0.1; fill:none" points="
  180.66,555.544 2352.76,555.544 
  "/>
<polyline clip-path="url(#clip7702)" style="stroke:#000000; stroke-width:2; stroke-opacity:0.1; fill:none" points="
  180.66,304.35 2352.76,304.35 
  "/>
<polyline clip-path="url(#clip7700)" style="stroke:#000000; stroke-width:4; stroke-opacity:1; fill:none" points="
  180.66,1487.47 2352.76,1487.47 
  "/>
<polyline clip-path="url(#clip7700)" style="stroke:#000000; stroke-width:4; stroke-opacity:1; fill:none" points="
  180.66,1487.47 180.66,121.675 
  "/>
<polyline clip-path="url(#clip7700)" style="stroke:#000000; stroke-width:4; stroke-opacity:1; fill:none" points="
  237.756,1487.47 237.756,1466.99 
  "/>
<polyline clip-path="url(#clip7700)" style="stroke:#000000; stroke-width:4; stroke-opacity:1; fill:none" points="
  675.608,1487.47 675.608,1466.99 
  "/>
<polyline clip-path="url(#clip7700)" style="stroke:#000000; stroke-width:4; stroke-opacity:1; fill:none" points="
  1113.46,1487.47 1113.46,1466.99 
  "/>
<polyline clip-path="url(#clip7700)" style="stroke:#000000; stroke-width:4; stroke-opacity:1; fill:none" points="
  1551.31,1487.47 1551.31,1466.99 
  "/>
<polyline clip-path="url(#clip7700)" style="stroke:#000000; stroke-width:4; stroke-opacity:1; fill:none" points="
  1989.16,1487.47 1989.16,1466.99 
  "/>
<polyline clip-path="url(#clip7700)" style="stroke:#000000; stroke-width:4; stroke-opacity:1; fill:none" points="
  180.66,1309.13 213.242,1309.13 
  "/>
<polyline clip-path="url(#clip7700)" style="stroke:#000000; stroke-width:4; stroke-opacity:1; fill:none" points="
  180.66,1057.93 213.242,1057.93 
  "/>
<polyline clip-path="url(#clip7700)" style="stroke:#000000; stroke-width:4; stroke-opacity:1; fill:none" points="
  180.66,806.738 213.242,806.738 
  "/>
<polyline clip-path="url(#clip7700)" style="stroke:#000000; stroke-width:4; stroke-opacity:1; fill:none" points="
  180.66,555.544 213.242,555.544 
  "/>
<polyline clip-path="url(#clip7700)" style="stroke:#000000; stroke-width:4; stroke-opacity:1; fill:none" points="
  180.66,304.35 213.242,304.35 
  "/>
<g clip-path="url(#clip7700)">
<text style="fill:#000000; fill-opacity:1; font-family:Arial,Helvetica Neue,Helvetica,sans-serif; font-size:48px; text-anchor:middle;" transform="rotate(0, 237.756, 1541.47)" x="237.756" y="1541.47">0</text>
</g>
<g clip-path="url(#clip7700)">
<text style="fill:#000000; fill-opacity:1; font-family:Arial,Helvetica Neue,Helvetica,sans-serif; font-size:48px; text-anchor:middle;" transform="rotate(0, 675.608, 1541.47)" x="675.608" y="1541.47">100</text>
</g>
<g clip-path="url(#clip7700)">
<text style="fill:#000000; fill-opacity:1; font-family:Arial,Helvetica Neue,Helvetica,sans-serif; font-size:48px; text-anchor:middle;" transform="rotate(0, 1113.46, 1541.47)" x="1113.46" y="1541.47">200</text>
</g>
<g clip-path="url(#clip7700)">
<text style="fill:#000000; fill-opacity:1; font-family:Arial,Helvetica Neue,Helvetica,sans-serif; font-size:48px; text-anchor:middle;" transform="rotate(0, 1551.31, 1541.47)" x="1551.31" y="1541.47">300</text>
</g>
<g clip-path="url(#clip7700)">
<text style="fill:#000000; fill-opacity:1; font-family:Arial,Helvetica Neue,Helvetica,sans-serif; font-size:48px; text-anchor:middle;" transform="rotate(0, 1989.16, 1541.47)" x="1989.16" y="1541.47">400</text>
</g>
<g clip-path="url(#clip7700)">
<text style="fill:#000000; fill-opacity:1; font-family:Arial,Helvetica Neue,Helvetica,sans-serif; font-size:48px; text-anchor:end;" transform="rotate(0, 156.66, 1326.63)" x="156.66" y="1326.63">35.1</text>
</g>
<g clip-path="url(#clip7700)">
<text style="fill:#000000; fill-opacity:1; font-family:Arial,Helvetica Neue,Helvetica,sans-serif; font-size:48px; text-anchor:end;" transform="rotate(0, 156.66, 1075.43)" x="156.66" y="1075.43">35.4</text>
</g>
<g clip-path="url(#clip7700)">
<text style="fill:#000000; fill-opacity:1; font-family:Arial,Helvetica Neue,Helvetica,sans-serif; font-size:48px; text-anchor:end;" transform="rotate(0, 156.66, 824.238)" x="156.66" y="824.238">35.7</text>
</g>
<g clip-path="url(#clip7700)">
<text style="fill:#000000; fill-opacity:1; font-family:Arial,Helvetica Neue,Helvetica,sans-serif; font-size:48px; text-anchor:end;" transform="rotate(0, 156.66, 573.044)" x="156.66" y="573.044">36.0</text>
</g>
<g clip-path="url(#clip7700)">
<text style="fill:#000000; fill-opacity:1; font-family:Arial,Helvetica Neue,Helvetica,sans-serif; font-size:48px; text-anchor:end;" transform="rotate(0, 156.66, 321.85)" x="156.66" y="321.85">36.3</text>
</g>
<g clip-path="url(#clip7700)">
<text style="fill:#000000; fill-opacity:1; font-family:Arial,Helvetica Neue,Helvetica,sans-serif; font-size:84px; text-anchor:middle;" transform="rotate(0, 1266.71, 73.2)" x="1266.71" y="73.2">Observed and Predicted level of per capita Aggregate K in zg</text>
</g>
<polyline clip-path="url(#clip7702)" style="stroke:#009af9; stroke-width:4; stroke-opacity:1; fill:none" points="
  242.135,166.055 246.513,165.235 250.892,163.377 255.27,161.163 259.649,160.491 264.027,312.205 268.406,298.977 272.784,286.001 277.163,275.131 281.541,264.722 
  285.92,256.112 290.298,251.238 294.677,244.957 299.055,240.166 303.434,233.935 307.813,229.903 312.191,224.286 316.57,220.384 320.948,214.186 325.327,209.287 
  329.705,204.314 334.084,198.909 338.462,196.572 342.841,193.675 347.219,190.698 351.598,187.489 355.976,185.284 360.355,181.983 364.733,179.128 369.112,178.199 
  373.49,177.06 377.869,175.427 382.247,174.427 386.626,172.356 391.004,171.679 395.383,170.545 399.761,170.128 404.14,169.961 408.518,170.093 412.897,169.471 
  417.275,169.333 421.654,169.114 426.033,169.207 430.411,170.749 434.79,170.112 439.168,169.026 443.547,168.349 447.925,167.851 452.304,167.198 456.682,167.884 
  461.061,168.552 465.439,167.357 469.818,165.291 474.196,163.136 478.575,161.564 482.953,160.337 487.332,160.33 491.71,160.737 496.089,161.047 500.467,161.446 
  504.846,161.606 509.224,160.625 513.603,160.999 517.981,469.766 522.36,453.051 526.738,436.178 531.117,421.749 535.495,409.308 539.874,395.684 544.253,384.631 
  548.631,374.502 553.01,364.108 557.388,355.489 561.767,344.694 566.145,335.064 570.524,327.965 574.902,322.009 579.281,315.97 583.659,311.57 588.038,308.768 
  592.416,306.106 596.795,303.477 601.173,301.347 605.552,298.855 609.93,295.808 614.309,291.958 618.687,288.506 623.066,435.503 627.444,422.312 631.823,409.49 
  636.201,399.315 640.58,389.249 644.958,379.236 649.337,372.422 653.715,367.648 658.094,363.316 662.473,357.499 666.851,351.804 671.23,412.238 675.608,400.02 
  679.987,387.981 684.365,378.088 688.744,370.209 693.122,363.391 697.501,356.456 701.879,350.572 706.258,345.02 710.636,341.003 715.015,337.935 719.393,596.266 
  723.772,567.968 728.15,543.795 732.529,521.44 736.907,500.923 741.286,481.066 745.664,467.906 750.043,455.044 754.421,444.07 758.8,432.796 763.178,422.998 
  767.557,413.687 771.935,407.334 776.314,401.197 780.693,396.195 785.071,392.113 789.45,386.375 793.828,380.721 798.207,375.261 802.585,371.125 806.964,365.584 
  811.342,361.497 815.721,358.997 820.099,357.244 824.478,354.479 828.856,350.743 833.235,348.651 837.613,346.41 841.992,343.927 846.37,341.034 850.749,339.465 
  855.127,485.087 859.506,469.901 863.884,458.28 868.263,448.533 872.641,438.295 877.02,429.049 881.398,421.806 885.777,414.146 890.155,407.653 894.534,403.989 
  898.913,398.909 903.291,394.197 907.67,390.516 912.048,386.962 916.427,380.976 920.805,377.962 925.184,373.908 929.562,369.915 933.941,366.17 938.319,362.045 
  942.698,357.846 947.076,354.088 951.455,351.865 955.833,350.95 960.212,349.278 964.59,422.848 968.969,412.755 973.347,405.579 977.726,400.42 982.104,395.351 
  986.483,391.596 990.861,388.227 995.24,386.263 999.618,383.557 1004,380.239 1008.38,376.04 1012.75,372.071 1017.13,507.969 1021.51,527.17 1025.89,503.896 
  1030.27,485.388 1034.65,467.834 1039.03,453.267 1043.4,442.391 1047.78,433.052 1052.16,425.4 1056.54,420.05 1060.92,413.748 1065.3,526.333 1069.67,503.987 
  1074.05,485.631 1078.43,471.176 1082.81,458.548 1087.19,446.323 1091.57,438.933 1095.95,434.274 1100.32,429.631 1104.7,424.501 1109.08,418.16 1113.46,411.778 
  1117.84,404.801 1122.22,399.341 1126.6,394.457 1130.97,389.683 1135.35,385.808 1139.73,382.308 1144.11,378.748 1148.49,375.219 1152.87,373.296 1157.25,372.764 
  1161.62,372.196 1166,370.865 1170.38,368.6 1174.76,366.64 1179.14,363.918 1183.52,363.242 1187.89,361.305 1192.27,359.514 1196.65,358.412 1201.03,357.77 
  1205.41,356.28 1209.79,354.009 1214.17,352.279 1218.54,350.11 1222.92,348.575 1227.3,345.675 1231.68,342.571 1236.06,340.28 1240.44,338.229 1244.82,337.435 
  1249.19,334.004 1253.57,333.688 1257.95,331.835 1262.33,331.256 1266.71,330.173 1271.09,329.48 1275.47,329.857 1279.84,328.073 1284.22,326.45 1288.6,325.142 
  1292.98,323.513 1297.36,321.309 1301.74,320.238 1306.11,320.345 1310.49,319.37 1314.87,317.571 1319.25,972.041 1323.63,1151.72 1328.01,1114.74 1332.39,1080.19 
  1336.76,1048.34 1341.14,1019.35 1345.52,993.84 1349.9,968.85 1354.28,947.152 1358.66,925.334 1363.04,904.105 1367.41,884.839 1371.79,867.649 1376.17,852.022 
  1380.55,837.304 1384.93,823.255 1389.31,808.822 1393.69,797.21 1398.06,785.637 1402.44,773.954 1406.82,761.476 1411.2,751.429 1415.58,742.17 1419.96,732.802 
  1424.33,723.833 1428.71,715.055 1433.09,1407.17 1437.47,1370.37 1441.85,1337.67 1446.23,1303.93 1450.61,1271.54 1454.98,1238.78 1459.36,1209.1 1463.74,1180.86 
  1468.12,1154.35 1472.5,1130.5 1476.88,1107.35 1481.26,1085.58 1485.63,1066.89 1490.01,1046.91 1494.39,1029.6 1498.77,1011.84 1503.15,997.11 1507.53,982.011 
  1511.91,966.391 1516.28,952.694 1520.66,939.017 1525.04,927.534 1529.42,915.465 1533.8,906.713 1538.18,897.159 1542.55,887.4 1546.93,877.718 1551.31,868.335 
  1555.69,859.961 1560.07,852.462 1564.45,844.946 1568.83,838.395 1573.2,831.397 1577.58,825.089 1581.96,818.621 1586.34,812.207 1590.72,805.028 1595.1,798.476 
  1599.48,793.086 1603.85,788.298 1608.23,783.616 1612.61,777.713 1616.99,773.801 1621.37,770.153 1625.75,767.462 1630.13,763.148 1634.5,757.328 1638.88,752.899 
  1643.26,749.267 1647.64,746.774 1652.02,744.031 1656.4,740.471 1660.77,737.097 1665.15,734.422 1669.53,733.541 1673.91,731.457 1678.29,730.848 1682.67,729.829 
  1687.05,727.808 1691.42,725.888 1695.8,723.122 1700.18,721.562 1704.56,719.639 1708.94,718.726 1713.32,717.472 1717.7,716.306 1722.07,869.722 1726.45,856.463 
  1730.83,844.364 1735.21,830.927 1739.59,819.567 1743.97,807.379 1748.35,800.92 1752.72,793.104 1757.1,787.336 1761.48,782.226 1765.86,778.534 1770.24,1174.39 
  1774.62,1142.79 1778.99,1114.48 1783.37,1085.23 1787.75,1059.02 1792.13,1031.93 1796.51,1013.14 1800.89,993.604 1805.27,974.285 1809.64,957.461 1814.02,941.295 
  1818.4,926.648 1822.78,916.105 1827.16,906.189 1831.54,896.925 1835.92,886.198 1840.29,877.497 1844.67,869.419 1849.05,859.996 1853.43,851.427 1857.81,845.338 
  1862.19,838 1866.57,830.825 1870.94,823.868 1875.32,816.174 1879.7,809.423 1884.08,804.431 1888.46,800.587 1892.84,796.273 1897.21,932.416 1901.59,915.517 
  1905.97,899.296 1910.35,885.351 1914.73,872.126 1919.11,858.56 1923.49,849.884 1927.86,843.43 1932.24,838.606 1936.62,832.326 1941,826.801 1945.38,820.442 
  1949.76,814.361 1954.14,809.144 1958.51,806.03 1962.89,800.749 1967.27,796.611 1971.65,792.819 1976.03,789.382 1980.41,786.349 1984.79,783.285 1989.16,780.002 
  1993.54,777.154 1997.92,1314.07 2002.3,1278.8 2006.68,1244.57 2011.06,1213.29 2015.43,1182.09 2019.81,1150.6 2024.19,1124.69 2028.57,1100.6 2032.95,1076.59 
  2037.33,1057.83 2041.71,1040.64 2046.08,1022.46 2050.46,1007.85 2054.84,993.519 2059.22,979.371 2063.6,966.105 2067.98,953.553 2072.36,942.008 2076.73,931.089 
  2081.11,921.765 2085.49,913.186 2089.87,904.132 2094.25,894.91 2098.63,886.026 2103.01,878.311 2107.38,872.046 2111.76,866.477 2116.14,862.044 2120.52,856.988 
  2124.9,852.214 2129.28,846.811 2133.65,842.2 2138.03,837.57 2142.41,834.267 2146.79,831.047 2151.17,827.481 2155.55,823.031 2159.93,820.256 2164.3,818.688 
  2168.68,816.219 2173.06,814.545 2177.44,812.066 2181.82,810.716 2186.2,809.024 2190.58,806.415 2194.95,804.042 2199.33,801.108 2203.71,798.456 2208.09,796.146 
  2212.47,793.891 2216.85,793.743 2221.23,790.735 2225.6,788.692 2229.98,785.446 2234.36,784.275 2238.74,781.674 2243.12,779.748 2247.5,779.465 2251.87,778.061 
  2256.25,776.222 2260.63,773.689 2265.01,772.113 2269.39,770.794 2273.77,768.677 2278.15,768.517 2282.52,767.976 2286.9,767.855 2291.28,767.644 
  "/>
<polyline clip-path="url(#clip7702)" style="stroke:#e26f46; stroke-width:4; stroke-opacity:1; fill:none" points="
  242.135,168.402 246.513,166.055 250.892,165.235 255.27,163.377 259.649,161.163 264.027,328.597 268.406,312.205 272.784,298.977 277.163,286.001 281.541,275.131 
  285.92,264.722 290.298,256.112 294.677,251.238 299.055,244.957 303.434,240.166 307.813,233.935 312.191,229.903 316.57,224.286 320.948,220.384 325.327,214.186 
  329.705,209.287 334.084,204.314 338.462,198.909 342.841,196.572 347.219,193.675 351.598,190.698 355.976,187.489 360.355,185.284 364.733,181.983 369.112,179.128 
  373.49,178.199 377.869,177.06 382.247,175.427 386.626,174.427 391.004,172.356 395.383,171.679 399.761,170.545 404.14,170.128 408.518,169.961 412.897,170.093 
  417.275,169.471 421.654,169.333 426.033,169.114 430.411,169.207 434.79,170.749 439.168,170.112 443.547,169.026 447.925,168.349 452.304,167.851 456.682,167.198 
  461.061,167.884 465.439,168.552 469.818,167.357 474.196,165.291 478.575,163.136 482.953,161.564 487.332,160.337 491.71,160.33 496.089,160.737 500.467,161.047 
  504.846,161.446 509.224,161.606 513.603,160.625 517.981,491.35 522.36,469.766 526.738,453.051 531.117,436.178 535.495,421.749 539.874,409.308 544.253,395.684 
  548.631,384.631 553.01,374.502 557.388,364.108 561.767,355.489 566.145,344.694 570.524,335.064 574.902,327.965 579.281,322.009 583.659,315.97 588.038,311.57 
  592.416,308.768 596.795,306.106 601.173,303.477 605.552,301.347 609.93,298.855 614.309,295.808 618.687,291.958 623.066,452.203 627.444,435.503 631.823,422.312 
  636.201,409.49 640.58,399.315 644.958,389.249 649.337,379.236 653.715,372.422 658.094,367.648 662.473,363.316 666.851,357.499 671.23,427.562 675.608,412.238 
  679.987,400.02 684.365,387.981 688.744,378.088 693.122,370.209 697.501,363.391 701.879,356.456 706.258,350.572 710.636,345.02 715.015,341.003 719.393,630.025 
  723.772,596.266 728.15,567.968 732.529,543.795 736.907,521.44 741.286,500.923 745.664,481.066 750.043,467.906 754.421,455.044 758.8,444.07 763.178,432.796 
  767.557,422.998 771.935,413.687 776.314,407.334 780.693,401.197 785.071,396.195 789.45,392.113 793.828,386.375 798.207,380.721 802.585,375.261 806.964,371.125 
  811.342,365.584 815.721,361.497 820.099,358.997 824.478,357.244 828.856,354.479 833.235,350.743 837.613,348.651 841.992,346.41 846.37,343.927 850.749,341.034 
  855.127,503.227 859.506,485.087 863.884,469.901 868.263,458.28 872.641,448.533 877.02,438.295 881.398,429.049 885.777,421.806 890.155,414.146 894.534,407.653 
  898.913,403.989 903.291,398.909 907.67,394.197 912.048,390.516 916.427,386.962 920.805,380.976 925.184,377.962 929.562,373.908 933.941,369.915 938.319,366.17 
  942.698,362.045 947.076,357.846 951.455,354.088 955.833,351.865 960.212,350.95 964.59,432.849 968.969,422.848 973.347,412.755 977.726,405.579 982.104,400.42 
  986.483,395.351 990.861,391.596 995.24,388.227 999.618,386.263 1004,383.557 1008.38,380.239 1012.75,376.04 1017.13,529.99 1021.51,563.908 1025.89,527.17 
  1030.27,503.896 1034.65,485.388 1039.03,467.834 1043.4,453.267 1047.78,442.391 1052.16,433.052 1056.54,425.4 1060.92,420.05 1065.3,554.496 1069.67,526.333 
  1074.05,503.987 1078.43,485.631 1082.81,471.176 1087.19,458.548 1091.57,446.323 1095.95,438.933 1100.32,434.274 1104.7,429.631 1109.08,424.501 1113.46,418.16 
  1117.84,411.778 1122.22,404.801 1126.6,399.341 1130.97,394.457 1135.35,389.683 1139.73,385.808 1144.11,382.308 1148.49,378.748 1152.87,375.219 1157.25,373.296 
  1161.62,372.764 1166,372.196 1170.38,370.865 1174.76,368.6 1179.14,366.64 1183.52,363.918 1187.89,363.242 1192.27,361.305 1196.65,359.514 1201.03,358.412 
  1205.41,357.77 1209.79,356.28 1214.17,354.009 1218.54,352.279 1222.92,350.11 1227.3,348.575 1231.68,345.675 1236.06,342.571 1240.44,340.28 1244.82,338.229 
  1249.19,337.435 1253.57,334.004 1257.95,333.688 1262.33,331.835 1266.71,331.256 1271.09,330.173 1275.47,329.48 1279.84,329.857 1284.22,328.073 1288.6,326.45 
  1292.98,325.142 1297.36,323.513 1301.74,321.309 1306.11,320.238 1310.49,320.345 1314.87,319.37 1319.25,1005.22 1323.63,1198.65 1328.01,1151.72 1332.39,1114.74 
  1336.76,1080.19 1341.14,1048.34 1345.52,1019.35 1349.9,993.84 1354.28,968.85 1358.66,947.152 1363.04,925.334 1367.41,904.105 1371.79,884.839 1376.17,867.649 
  1380.55,852.022 1384.93,837.304 1389.31,823.255 1393.69,808.822 1398.06,797.21 1402.44,785.637 1406.82,773.954 1411.2,761.476 1415.58,751.429 1419.96,742.17 
  1424.33,732.802 1428.71,723.833 1433.09,1448.82 1437.47,1407.17 1441.85,1370.37 1446.23,1337.67 1450.61,1303.93 1454.98,1271.54 1459.36,1238.78 1463.74,1209.1 
  1468.12,1180.86 1472.5,1154.35 1476.88,1130.5 1481.26,1107.35 1485.63,1085.58 1490.01,1066.89 1494.39,1046.91 1498.77,1029.6 1503.15,1011.84 1507.53,997.11 
  1511.91,982.011 1516.28,966.391 1520.66,952.694 1525.04,939.017 1529.42,927.534 1533.8,915.465 1538.18,906.713 1542.55,897.159 1546.93,887.4 1551.31,877.718 
  1555.69,868.335 1560.07,859.961 1564.45,852.462 1568.83,844.946 1573.2,838.395 1577.58,831.397 1581.96,825.089 1586.34,818.621 1590.72,812.207 1595.1,805.028 
  1599.48,798.476 1603.85,793.086 1608.23,788.298 1612.61,783.616 1616.99,777.713 1621.37,773.801 1625.75,770.153 1630.13,767.462 1634.5,763.148 1638.88,757.328 
  1643.26,752.899 1647.64,749.267 1652.02,746.774 1656.4,744.031 1660.77,740.471 1665.15,737.097 1669.53,734.422 1673.91,733.541 1678.29,731.457 1682.67,730.848 
  1687.05,729.829 1691.42,727.808 1695.8,725.888 1700.18,723.122 1704.56,721.562 1708.94,719.639 1713.32,718.726 1717.7,717.472 1722.07,886.151 1726.45,869.722 
  1730.83,856.463 1735.21,844.364 1739.59,830.927 1743.97,819.567 1748.35,807.379 1752.72,800.92 1757.1,793.104 1761.48,787.336 1765.86,782.226 1770.24,1210.5 
  1774.62,1174.39 1778.99,1142.79 1783.37,1114.48 1787.75,1085.23 1792.13,1059.02 1796.51,1031.93 1800.89,1013.14 1805.27,993.604 1809.64,974.285 1814.02,957.461 
  1818.4,941.295 1822.78,926.648 1827.16,916.105 1831.54,906.189 1835.92,896.925 1840.29,886.198 1844.67,877.497 1849.05,869.419 1853.43,859.996 1857.81,851.427 
  1862.19,845.338 1866.57,838 1870.94,830.825 1875.32,823.868 1879.7,816.174 1884.08,809.423 1888.46,804.431 1892.84,800.587 1897.21,953.636 1901.59,932.416 
  1905.97,915.517 1910.35,899.296 1914.73,885.351 1919.11,872.126 1923.49,858.56 1927.86,849.884 1932.24,843.43 1936.62,838.606 1941,832.326 1945.38,826.801 
  1949.76,820.442 1954.14,814.361 1958.51,809.144 1962.89,806.03 1967.27,800.749 1971.65,796.611 1976.03,792.819 1980.41,789.382 1984.79,786.349 1989.16,783.285 
  1993.54,780.002 1997.92,1353.97 2002.3,1314.07 2006.68,1278.8 2011.06,1244.57 2015.43,1213.29 2019.81,1182.09 2024.19,1150.6 2028.57,1124.69 2032.95,1100.6 
  2037.33,1076.59 2041.71,1057.83 2046.08,1040.64 2050.46,1022.46 2054.84,1007.85 2059.22,993.519 2063.6,979.371 2067.98,966.105 2072.36,953.553 2076.73,942.008 
  2081.11,931.089 2085.49,921.765 2089.87,913.186 2094.25,904.132 2098.63,894.91 2103.01,886.026 2107.38,878.311 2111.76,872.046 2116.14,866.477 2120.52,862.044 
  2124.9,856.988 2129.28,852.214 2133.65,846.811 2138.03,842.2 2142.41,837.57 2146.79,834.267 2151.17,831.047 2155.55,827.481 2159.93,823.031 2164.3,820.256 
  2168.68,818.688 2173.06,816.219 2177.44,814.545 2181.82,812.066 2186.2,810.716 2190.58,809.024 2194.95,806.415 2199.33,804.042 2203.71,801.108 2208.09,798.456 
  2212.47,796.146 2216.85,793.891 2221.23,793.743 2225.6,790.735 2229.98,788.692 2234.36,785.446 2238.74,784.275 2243.12,781.674 2247.5,779.748 2251.87,779.465 
  2256.25,778.061 2260.63,776.222 2265.01,773.689 2269.39,772.113 2273.77,770.794 2278.15,768.677 2282.52,768.517 2286.9,767.976 2291.28,767.855 
  "/>
<polygon clip-path="url(#clip7700)" points="
1832.1,386.635 2280.76,386.635 2280.76,205.195 1832.1,205.195 
  " fill="#ffffff" fill-rule="evenodd" fill-opacity="1"/>
<polyline clip-path="url(#clip7700)" style="stroke:#000000; stroke-width:4; stroke-opacity:1; fill:none" points="
  1832.1,386.635 2280.76,386.635 2280.76,205.195 1832.1,205.195 1832.1,386.635 
  "/>
<polyline clip-path="url(#clip7700)" style="stroke:#009af9; stroke-width:4; stroke-opacity:1; fill:none" points="
  1856.1,265.675 2000.1,265.675 
  "/>
<g clip-path="url(#clip7700)">
<text style="fill:#000000; fill-opacity:1; font-family:Arial,Helvetica Neue,Helvetica,sans-serif; font-size:48px; text-anchor:start;" transform="rotate(0, 2024.1, 283.175)" x="2024.1" y="283.175">Observed</text>
</g>
<polyline clip-path="url(#clip7700)" style="stroke:#e26f46; stroke-width:4; stroke-opacity:1; fill:none" points="
  1856.1,326.155 2000.1,326.155 
  "/>
<g clip-path="url(#clip7700)">
<text style="fill:#000000; fill-opacity:1; font-family:Arial,Helvetica Neue,Helvetica,sans-serif; font-size:48px; text-anchor:start;" transform="rotate(0, 2024.1, 343.655)" x="2024.1" y="343.655">Predicted</text>
</g>
</svg>
