<?xml version="1.0" encoding="utf-8"?>
<svg xmlns="http://www.w3.org/2000/svg" xmlns:xlink="http://www.w3.org/1999/xlink" width="600" height="400" viewBox="0 0 2400 1600">
<defs>
  <clipPath id="clip6500">
    <rect x="0" y="0" width="2400" height="1600"/>
  </clipPath>
</defs>
<polygon clip-path="url(#clip6500)" points="
0,1600 2400,1600 2400,0 0,0 
  " fill="#ffffff" fill-rule="evenodd" fill-opacity="1"/>
<defs>
  <clipPath id="clip6501">
    <rect x="480" y="0" width="1681" height="1600"/>
  </clipPath>
</defs>
<polygon clip-path="url(#clip6500)" points="
215.754,1425.62 2352.76,1425.62 2352.76,121.675 215.754,121.675 
  " fill="#ffffff" fill-rule="evenodd" fill-opacity="1"/>
<defs>
  <clipPath id="clip6502">
    <rect x="215" y="121" width="2138" height="1305"/>
  </clipPath>
</defs>
<polyline clip-path="url(#clip6502)" style="stroke:#000000; stroke-width:2; stroke-opacity:0.1; fill:none" points="
  276.235,1425.62 276.235,121.675 
  "/>
<polyline clip-path="url(#clip6502)" style="stroke:#000000; stroke-width:2; stroke-opacity:0.1; fill:none" points="
  780.245,1425.62 780.245,121.675 
  "/>
<polyline clip-path="url(#clip6502)" style="stroke:#000000; stroke-width:2; stroke-opacity:0.1; fill:none" points="
  1284.25,1425.62 1284.25,121.675 
  "/>
<polyline clip-path="url(#clip6502)" style="stroke:#000000; stroke-width:2; stroke-opacity:0.1; fill:none" points="
  1788.26,1425.62 1788.26,121.675 
  "/>
<polyline clip-path="url(#clip6502)" style="stroke:#000000; stroke-width:2; stroke-opacity:0.1; fill:none" points="
  2292.27,1425.62 2292.27,121.675 
  "/>
<polyline clip-path="url(#clip6502)" style="stroke:#000000; stroke-width:2; stroke-opacity:0.1; fill:none" points="
  215.754,1287.29 2352.76,1287.29 
  "/>
<polyline clip-path="url(#clip6502)" style="stroke:#000000; stroke-width:2; stroke-opacity:0.1; fill:none" points="
  215.754,1045.32 2352.76,1045.32 
  "/>
<polyline clip-path="url(#clip6502)" style="stroke:#000000; stroke-width:2; stroke-opacity:0.1; fill:none" points="
  215.754,803.338 2352.76,803.338 
  "/>
<polyline clip-path="url(#clip6502)" style="stroke:#000000; stroke-width:2; stroke-opacity:0.1; fill:none" points="
  215.754,561.36 2352.76,561.36 
  "/>
<polyline clip-path="url(#clip6502)" style="stroke:#000000; stroke-width:2; stroke-opacity:0.1; fill:none" points="
  215.754,319.383 2352.76,319.383 
  "/>
<polyline clip-path="url(#clip6500)" style="stroke:#000000; stroke-width:4; stroke-opacity:1; fill:none" points="
  215.754,1425.62 2352.76,1425.62 
  "/>
<polyline clip-path="url(#clip6500)" style="stroke:#000000; stroke-width:4; stroke-opacity:1; fill:none" points="
  215.754,1425.62 215.754,121.675 
  "/>
<polyline clip-path="url(#clip6500)" style="stroke:#000000; stroke-width:4; stroke-opacity:1; fill:none" points="
  276.235,1425.62 276.235,1406.06 
  "/>
<polyline clip-path="url(#clip6500)" style="stroke:#000000; stroke-width:4; stroke-opacity:1; fill:none" points="
  780.245,1425.62 780.245,1406.06 
  "/>
<polyline clip-path="url(#clip6500)" style="stroke:#000000; stroke-width:4; stroke-opacity:1; fill:none" points="
  1284.25,1425.62 1284.25,1406.06 
  "/>
<polyline clip-path="url(#clip6500)" style="stroke:#000000; stroke-width:4; stroke-opacity:1; fill:none" points="
  1788.26,1425.62 1788.26,1406.06 
  "/>
<polyline clip-path="url(#clip6500)" style="stroke:#000000; stroke-width:4; stroke-opacity:1; fill:none" points="
  2292.27,1425.62 2292.27,1406.06 
  "/>
<polyline clip-path="url(#clip6500)" style="stroke:#000000; stroke-width:4; stroke-opacity:1; fill:none" points="
  215.754,1287.29 247.809,1287.29 
  "/>
<polyline clip-path="url(#clip6500)" style="stroke:#000000; stroke-width:4; stroke-opacity:1; fill:none" points="
  215.754,1045.32 247.809,1045.32 
  "/>
<polyline clip-path="url(#clip6500)" style="stroke:#000000; stroke-width:4; stroke-opacity:1; fill:none" points="
  215.754,803.338 247.809,803.338 
  "/>
<polyline clip-path="url(#clip6500)" style="stroke:#000000; stroke-width:4; stroke-opacity:1; fill:none" points="
  215.754,561.36 247.809,561.36 
  "/>
<polyline clip-path="url(#clip6500)" style="stroke:#000000; stroke-width:4; stroke-opacity:1; fill:none" points="
  215.754,319.383 247.809,319.383 
  "/>
<g clip-path="url(#clip6500)">
<text style="fill:#000000; fill-opacity:1; font-family:Arial,Helvetica Neue,Helvetica,sans-serif; font-size:48px; text-anchor:middle;" transform="rotate(0, 276.235, 1479.62)" x="276.235" y="1479.62">20</text>
</g>
<g clip-path="url(#clip6500)">
<text style="fill:#000000; fill-opacity:1; font-family:Arial,Helvetica Neue,Helvetica,sans-serif; font-size:48px; text-anchor:middle;" transform="rotate(0, 780.245, 1479.62)" x="780.245" y="1479.62">40</text>
</g>
<g clip-path="url(#clip6500)">
<text style="fill:#000000; fill-opacity:1; font-family:Arial,Helvetica Neue,Helvetica,sans-serif; font-size:48px; text-anchor:middle;" transform="rotate(0, 1284.25, 1479.62)" x="1284.25" y="1479.62">60</text>
</g>
<g clip-path="url(#clip6500)">
<text style="fill:#000000; fill-opacity:1; font-family:Arial,Helvetica Neue,Helvetica,sans-serif; font-size:48px; text-anchor:middle;" transform="rotate(0, 1788.26, 1479.62)" x="1788.26" y="1479.62">80</text>
</g>
<g clip-path="url(#clip6500)">
<text style="fill:#000000; fill-opacity:1; font-family:Arial,Helvetica Neue,Helvetica,sans-serif; font-size:48px; text-anchor:middle;" transform="rotate(0, 2292.27, 1479.62)" x="2292.27" y="1479.62">100</text>
</g>
<g clip-path="url(#clip6500)">
<text style="fill:#000000; fill-opacity:1; font-family:Arial,Helvetica Neue,Helvetica,sans-serif; font-size:48px; text-anchor:end;" transform="rotate(0, 191.754, 1304.79)" x="191.754" y="1304.79">1.0</text>
</g>
<g clip-path="url(#clip6500)">
<text style="fill:#000000; fill-opacity:1; font-family:Arial,Helvetica Neue,Helvetica,sans-serif; font-size:48px; text-anchor:end;" transform="rotate(0, 191.754, 1062.82)" x="191.754" y="1062.82">1.5</text>
</g>
<g clip-path="url(#clip6500)">
<text style="fill:#000000; fill-opacity:1; font-family:Arial,Helvetica Neue,Helvetica,sans-serif; font-size:48px; text-anchor:end;" transform="rotate(0, 191.754, 820.838)" x="191.754" y="820.838">2.0</text>
</g>
<g clip-path="url(#clip6500)">
<text style="fill:#000000; fill-opacity:1; font-family:Arial,Helvetica Neue,Helvetica,sans-serif; font-size:48px; text-anchor:end;" transform="rotate(0, 191.754, 578.86)" x="191.754" y="578.86">2.5</text>
</g>
<g clip-path="url(#clip6500)">
<text style="fill:#000000; fill-opacity:1; font-family:Arial,Helvetica Neue,Helvetica,sans-serif; font-size:48px; text-anchor:end;" transform="rotate(0, 191.754, 336.883)" x="191.754" y="336.883">3.0</text>
</g>
<g clip-path="url(#clip6500)">
<text style="fill:#000000; fill-opacity:1; font-family:Arial,Helvetica Neue,Helvetica,sans-serif; font-size:84px; text-anchor:middle;" transform="rotate(0, 1284.25, 73.2)" x="1284.25" y="73.2">Policy Function</text>
</g>
<g clip-path="url(#clip6500)">
<text style="fill:#000000; fill-opacity:1; font-family:Arial,Helvetica Neue,Helvetica,sans-serif; font-size:66px; text-anchor:middle;" transform="rotate(0, 1284.25, 1559.48)" x="1284.25" y="1559.48">Aggregate Capital at t</text>
</g>
<g clip-path="url(#clip6500)">
<text style="fill:#000000; fill-opacity:1; font-family:Arial,Helvetica Neue,Helvetica,sans-serif; font-size:66px; text-anchor:middle;" transform="rotate(-90, 89.2861, 773.647)" x="89.2861" y="773.647"> Individual Capital at t+1</text>
</g>
<polyline clip-path="url(#clip6502)" style="stroke:#009af9; stroke-width:4; stroke-opacity:1; fill:none" points="
  276.235,447.228 382.343,401.742 488.45,401.742 594.557,401.742 700.665,355.224 806.772,355.224 912.879,355.224 1018.99,307.66 1125.09,307.66 1231.2,307.66 
  1337.31,259.039 1443.42,259.039 1549.52,259.039 1655.63,209.349 1761.74,209.349 1867.85,209.349 1973.95,209.349 2080.06,209.349 2186.17,158.579 2292.27,158.579 
  
  "/>
<polyline clip-path="url(#clip6502)" style="stroke:#e26f46; stroke-width:4; stroke-opacity:1; fill:none" points="
  276.235,1282.37 382.343,1305.06 488.45,1305.06 594.557,1327.02 700.665,1327.02 806.772,1348.28 912.879,1348.28 1018.99,1348.28 1125.09,1348.28 1231.2,1368.84 
  1337.31,1368.84 1443.42,1368.84 1549.52,1368.84 1655.63,1368.84 1761.74,1368.84 1867.85,1368.84 1973.95,1368.84 2080.06,1368.84 2186.17,1388.71 2292.27,1388.71 
  
  "/>
<polyline clip-path="url(#clip6502)" style="stroke:#3da44d; stroke-width:4; stroke-opacity:1; fill:none" points="
  276.235,447.228 382.343,401.742 488.45,401.742 594.557,401.742 700.665,355.224 806.772,355.224 912.879,307.66 1018.99,307.66 1125.09,307.66 1231.2,307.66 
  1337.31,259.039 1443.42,259.039 1549.52,209.349 1655.63,209.349 1761.74,209.349 1867.85,209.349 1973.95,158.579 2080.06,158.579 2186.17,158.579 2292.27,158.579 
  
  "/>
<polyline clip-path="url(#clip6502)" style="stroke:#c271d2; stroke-width:4; stroke-opacity:1; fill:none" points="
  276.235,1234.79 382.343,1258.96 488.45,1258.96 594.557,1258.96 700.665,1282.37 806.772,1282.37 912.879,1282.37 1018.99,1282.37 1125.09,1282.37 1231.2,1282.37 
  1337.31,1305.06 1443.42,1305.06 1549.52,1305.06 1655.63,1305.06 1761.74,1305.06 1867.85,1305.06 1973.95,1305.06 2080.06,1305.06 2186.17,1305.06 2292.27,1305.06 
  
  "/>
<polygon clip-path="url(#clip6500)" points="
1580.65,1281.62 2280.76,1281.62 2280.76,979.219 1580.65,979.219 
  " fill="#ffffff" fill-rule="evenodd" fill-opacity="1"/>
<polyline clip-path="url(#clip6500)" style="stroke:#000000; stroke-width:4; stroke-opacity:1; fill:none" points="
  1580.65,1281.62 2280.76,1281.62 2280.76,979.219 1580.65,979.219 1580.65,1281.62 
  "/>
<polyline clip-path="url(#clip6500)" style="stroke:#009af9; stroke-width:4; stroke-opacity:1; fill:none" points="
  1604.65,1039.7 1748.65,1039.7 
  "/>
<g clip-path="url(#clip6500)">
<text style="fill:#000000; fill-opacity:1; font-family:Arial,Helvetica Neue,Helvetica,sans-serif; font-size:48px; text-anchor:start;" transform="rotate(0, 1772.65, 1057.2)" x="1772.65" y="1057.2">Employed in Boom</text>
</g>
<polyline clip-path="url(#clip6500)" style="stroke:#e26f46; stroke-width:4; stroke-opacity:1; fill:none" points="
  1604.65,1100.18 1748.65,1100.18 
  "/>
<g clip-path="url(#clip6500)">
<text style="fill:#000000; fill-opacity:1; font-family:Arial,Helvetica Neue,Helvetica,sans-serif; font-size:48px; text-anchor:start;" transform="rotate(0, 1772.65, 1117.68)" x="1772.65" y="1117.68">Unemployed in Boom</text>
</g>
<polyline clip-path="url(#clip6500)" style="stroke:#3da44d; stroke-width:4; stroke-opacity:1; fill:none" points="
  1604.65,1160.66 1748.65,1160.66 
  "/>
<g clip-path="url(#clip6500)">
<text style="fill:#000000; fill-opacity:1; font-family:Arial,Helvetica Neue,Helvetica,sans-serif; font-size:48px; text-anchor:start;" transform="rotate(0, 1772.65, 1178.16)" x="1772.65" y="1178.16">Employed in Bust</text>
</g>
<polyline clip-path="url(#clip6500)" style="stroke:#c271d2; stroke-width:4; stroke-opacity:1; fill:none" points="
  1604.65,1221.14 1748.65,1221.14 
  "/>
<g clip-path="url(#clip6500)">
<text style="fill:#000000; fill-opacity:1; font-family:Arial,Helvetica Neue,Helvetica,sans-serif; font-size:48px; text-anchor:start;" transform="rotate(0, 1772.65, 1238.64)" x="1772.65" y="1238.64">Unemployed in Bust</text>
</g>
</svg>
