<?xml version="1.0" encoding="utf-8"?>
<svg xmlns="http://www.w3.org/2000/svg" xmlns:xlink="http://www.w3.org/1999/xlink" width="600" height="400" viewBox="0 0 2400 1600">
<defs>
  <clipPath id="clip5300">
    <rect x="0" y="0" width="2400" height="1600"/>
  </clipPath>
</defs>
<polygon clip-path="url(#clip5300)" points="
0,1600 2400,1600 2400,0 0,0 
  " fill="#ffffff" fill-rule="evenodd" fill-opacity="1"/>
<defs>
  <clipPath id="clip5301">
    <rect x="480" y="0" width="1681" height="1600"/>
  </clipPath>
</defs>
<polygon clip-path="url(#clip5300)" points="
229.135,1425.62 2352.76,1425.62 2352.76,121.675 229.135,121.675 
  " fill="#ffffff" fill-rule="evenodd" fill-opacity="1"/>
<defs>
  <clipPath id="clip5302">
    <rect x="229" y="121" width="2125" height="1305"/>
  </clipPath>
</defs>
<polyline clip-path="url(#clip5302)" style="stroke:#000000; stroke-width:2; stroke-opacity:0.1; fill:none" points="
  289.198,1425.62 289.198,121.675 
  "/>
<polyline clip-path="url(#clip5302)" style="stroke:#000000; stroke-width:2; stroke-opacity:0.1; fill:none" points="
  689.889,1425.62 689.889,121.675 
  "/>
<polyline clip-path="url(#clip5302)" style="stroke:#000000; stroke-width:2; stroke-opacity:0.1; fill:none" points="
  1090.58,1425.62 1090.58,121.675 
  "/>
<polyline clip-path="url(#clip5302)" style="stroke:#000000; stroke-width:2; stroke-opacity:0.1; fill:none" points="
  1491.27,1425.62 1491.27,121.675 
  "/>
<polyline clip-path="url(#clip5302)" style="stroke:#000000; stroke-width:2; stroke-opacity:0.1; fill:none" points="
  1891.96,1425.62 1891.96,121.675 
  "/>
<polyline clip-path="url(#clip5302)" style="stroke:#000000; stroke-width:2; stroke-opacity:0.1; fill:none" points="
  2292.65,1425.62 2292.65,121.675 
  "/>
<polyline clip-path="url(#clip5302)" style="stroke:#000000; stroke-width:2; stroke-opacity:0.1; fill:none" points="
  229.135,1388.74 2352.76,1388.74 
  "/>
<polyline clip-path="url(#clip5302)" style="stroke:#000000; stroke-width:2; stroke-opacity:0.1; fill:none" points="
  229.135,1139.73 2352.76,1139.73 
  "/>
<polyline clip-path="url(#clip5302)" style="stroke:#000000; stroke-width:2; stroke-opacity:0.1; fill:none" points="
  229.135,890.723 2352.76,890.723 
  "/>
<polyline clip-path="url(#clip5302)" style="stroke:#000000; stroke-width:2; stroke-opacity:0.1; fill:none" points="
  229.135,641.715 2352.76,641.715 
  "/>
<polyline clip-path="url(#clip5302)" style="stroke:#000000; stroke-width:2; stroke-opacity:0.1; fill:none" points="
  229.135,392.707 2352.76,392.707 
  "/>
<polyline clip-path="url(#clip5302)" style="stroke:#000000; stroke-width:2; stroke-opacity:0.1; fill:none" points="
  229.135,143.699 2352.76,143.699 
  "/>
<polyline clip-path="url(#clip5300)" style="stroke:#000000; stroke-width:4; stroke-opacity:1; fill:none" points="
  229.135,1425.62 2352.76,1425.62 
  "/>
<polyline clip-path="url(#clip5300)" style="stroke:#000000; stroke-width:4; stroke-opacity:1; fill:none" points="
  229.135,1425.62 229.135,121.675 
  "/>
<polyline clip-path="url(#clip5300)" style="stroke:#000000; stroke-width:4; stroke-opacity:1; fill:none" points="
  289.198,1425.62 289.198,1406.06 
  "/>
<polyline clip-path="url(#clip5300)" style="stroke:#000000; stroke-width:4; stroke-opacity:1; fill:none" points="
  689.889,1425.62 689.889,1406.06 
  "/>
<polyline clip-path="url(#clip5300)" style="stroke:#000000; stroke-width:4; stroke-opacity:1; fill:none" points="
  1090.58,1425.62 1090.58,1406.06 
  "/>
<polyline clip-path="url(#clip5300)" style="stroke:#000000; stroke-width:4; stroke-opacity:1; fill:none" points="
  1491.27,1425.62 1491.27,1406.06 
  "/>
<polyline clip-path="url(#clip5300)" style="stroke:#000000; stroke-width:4; stroke-opacity:1; fill:none" points="
  1891.96,1425.62 1891.96,1406.06 
  "/>
<polyline clip-path="url(#clip5300)" style="stroke:#000000; stroke-width:4; stroke-opacity:1; fill:none" points="
  2292.65,1425.62 2292.65,1406.06 
  "/>
<polyline clip-path="url(#clip5300)" style="stroke:#000000; stroke-width:4; stroke-opacity:1; fill:none" points="
  229.135,1388.74 260.99,1388.74 
  "/>
<polyline clip-path="url(#clip5300)" style="stroke:#000000; stroke-width:4; stroke-opacity:1; fill:none" points="
  229.135,1139.73 260.99,1139.73 
  "/>
<polyline clip-path="url(#clip5300)" style="stroke:#000000; stroke-width:4; stroke-opacity:1; fill:none" points="
  229.135,890.723 260.99,890.723 
  "/>
<polyline clip-path="url(#clip5300)" style="stroke:#000000; stroke-width:4; stroke-opacity:1; fill:none" points="
  229.135,641.715 260.99,641.715 
  "/>
<polyline clip-path="url(#clip5300)" style="stroke:#000000; stroke-width:4; stroke-opacity:1; fill:none" points="
  229.135,392.707 260.99,392.707 
  "/>
<polyline clip-path="url(#clip5300)" style="stroke:#000000; stroke-width:4; stroke-opacity:1; fill:none" points="
  229.135,143.699 260.99,143.699 
  "/>
<g clip-path="url(#clip5300)">
<text style="fill:#000000; fill-opacity:1; font-family:Arial,Helvetica Neue,Helvetica,sans-serif; font-size:48px; text-anchor:middle;" transform="rotate(0, 289.198, 1479.62)" x="289.198" y="1479.62">0</text>
</g>
<g clip-path="url(#clip5300)">
<text style="fill:#000000; fill-opacity:1; font-family:Arial,Helvetica Neue,Helvetica,sans-serif; font-size:48px; text-anchor:middle;" transform="rotate(0, 689.889, 1479.62)" x="689.889" y="1479.62">100</text>
</g>
<g clip-path="url(#clip5300)">
<text style="fill:#000000; fill-opacity:1; font-family:Arial,Helvetica Neue,Helvetica,sans-serif; font-size:48px; text-anchor:middle;" transform="rotate(0, 1090.58, 1479.62)" x="1090.58" y="1479.62">200</text>
</g>
<g clip-path="url(#clip5300)">
<text style="fill:#000000; fill-opacity:1; font-family:Arial,Helvetica Neue,Helvetica,sans-serif; font-size:48px; text-anchor:middle;" transform="rotate(0, 1491.27, 1479.62)" x="1491.27" y="1479.62">300</text>
</g>
<g clip-path="url(#clip5300)">
<text style="fill:#000000; fill-opacity:1; font-family:Arial,Helvetica Neue,Helvetica,sans-serif; font-size:48px; text-anchor:middle;" transform="rotate(0, 1891.96, 1479.62)" x="1891.96" y="1479.62">400</text>
</g>
<g clip-path="url(#clip5300)">
<text style="fill:#000000; fill-opacity:1; font-family:Arial,Helvetica Neue,Helvetica,sans-serif; font-size:48px; text-anchor:middle;" transform="rotate(0, 2292.65, 1479.62)" x="2292.65" y="1479.62">500</text>
</g>
<g clip-path="url(#clip5300)">
<text style="fill:#000000; fill-opacity:1; font-family:Arial,Helvetica Neue,Helvetica,sans-serif; font-size:48px; text-anchor:end;" transform="rotate(0, 205.135, 1406.24)" x="205.135" y="1406.24">0</text>
</g>
<g clip-path="url(#clip5300)">
<text style="fill:#000000; fill-opacity:1; font-family:Arial,Helvetica Neue,Helvetica,sans-serif; font-size:48px; text-anchor:end;" transform="rotate(0, 205.135, 1157.23)" x="205.135" y="1157.23">100</text>
</g>
<g clip-path="url(#clip5300)">
<text style="fill:#000000; fill-opacity:1; font-family:Arial,Helvetica Neue,Helvetica,sans-serif; font-size:48px; text-anchor:end;" transform="rotate(0, 205.135, 908.223)" x="205.135" y="908.223">200</text>
</g>
<g clip-path="url(#clip5300)">
<text style="fill:#000000; fill-opacity:1; font-family:Arial,Helvetica Neue,Helvetica,sans-serif; font-size:48px; text-anchor:end;" transform="rotate(0, 205.135, 659.215)" x="205.135" y="659.215">300</text>
</g>
<g clip-path="url(#clip5300)">
<text style="fill:#000000; fill-opacity:1; font-family:Arial,Helvetica Neue,Helvetica,sans-serif; font-size:48px; text-anchor:end;" transform="rotate(0, 205.135, 410.207)" x="205.135" y="410.207">400</text>
</g>
<g clip-path="url(#clip5300)">
<text style="fill:#000000; fill-opacity:1; font-family:Arial,Helvetica Neue,Helvetica,sans-serif; font-size:48px; text-anchor:end;" transform="rotate(0, 205.135, 161.199)" x="205.135" y="161.199">500</text>
</g>
<g clip-path="url(#clip5300)">
<text style="fill:#000000; fill-opacity:1; font-family:Arial,Helvetica Neue,Helvetica,sans-serif; font-size:84px; text-anchor:middle;" transform="rotate(0, 1290.95, 73.2)" x="1290.95" y="73.2">Policy Function</text>
</g>
<g clip-path="url(#clip5300)">
<text style="fill:#000000; fill-opacity:1; font-family:Arial,Helvetica Neue,Helvetica,sans-serif; font-size:66px; text-anchor:middle;" transform="rotate(0, 1290.95, 1559.48)" x="1290.95" y="1559.48">Individual Capital at t</text>
</g>
<g clip-path="url(#clip5300)">
<text style="fill:#000000; fill-opacity:1; font-family:Arial,Helvetica Neue,Helvetica,sans-serif; font-size:66px; text-anchor:middle;" transform="rotate(-90, 89.2861, 773.647)" x="89.2861" y="773.647">Individual Capital at t+1</text>
</g>
<polyline clip-path="url(#clip5302)" style="stroke:#009af9; stroke-width:4; stroke-opacity:1; fill:none" points="
  289.238,1384.51 289.238,1384.51 289.238,1384.51 289.239,1384.51 289.24,1384.51 289.241,1384.51 289.243,1384.51 289.246,1384.51 289.249,1384.51 289.254,1384.51 
  289.259,1384.51 289.265,1384.51 289.273,1384.51 289.282,1384.51 289.292,1384.51 289.303,1384.51 289.316,1384.51 289.331,1384.51 289.348,1384.34 289.366,1384.34 
  289.386,1384.34 289.408,1384.34 289.433,1384.34 289.459,1384.34 289.488,1384.34 289.519,1384.34 289.553,1384.34 289.59,1384.34 289.629,1384.34 289.67,1384.17 
  289.715,1384.17 289.763,1384.17 289.814,1384.17 289.868,1384.17 289.925,1384.17 289.985,1383.99 290.05,1383.99 290.117,1383.99 290.188,1383.99 290.263,1383.8 
  290.342,1383.8 290.425,1383.8 290.512,1383.8 290.603,1383.8 290.698,1383.61 290.798,1383.61 290.902,1383.61 291.01,1383.42 291.123,1383.42 291.241,1383.22 
  291.364,1383.22 291.491,1383.22 291.624,1383.22 291.761,1383.02 291.904,1383.02 292.052,1382.81 292.206,1382.81 292.365,1382.6 292.529,1382.6 292.7,1382.38 
  292.876,1382.38 293.057,1382.38 293.245,1382.16 293.439,1381.93 293.639,1381.93 293.846,1381.69 294.058,1381.69 294.277,1381.45 294.503,1381.45 294.735,1381.21 
  294.974,1381.21 295.22,1380.96 295.473,1380.7 295.732,1380.44 295.999,1380.44 296.273,1380.18 296.555,1380.18 296.844,1379.9 297.14,1379.9 297.444,1379.62 
  297.755,1379.34 298.075,1379.34 298.402,1379.05 298.737,1378.75 299.08,1378.45 299.432,1378.45 299.792,1378.14 300.16,1378.14 300.536,1377.83 300.922,1377.51 
  301.315,1377.18 301.718,1376.85 302.129,1376.85 302.55,1376.51 302.979,1376.17 303.418,1375.82 303.865,1375.82 304.323,1375.46 304.789,1375.09 305.265,1374.72 
  305.751,1374.72 306.246,1374.34 306.751,1373.96 307.266,1373.57 307.791,1373.17 308.327,1373.17 308.872,1372.76 309.428,1372.35 309.994,1371.93 310.57,1371.5 
  311.157,1371.07 311.755,1371.07 312.363,1370.63 312.983,1370.18 313.613,1369.72 314.255,1369.26 314.907,1368.79 315.571,1368.31 316.246,1368.31 316.933,1367.83 
  317.631,1367.33 318.341,1366.83 319.062,1366.32 319.796,1365.81 320.541,1365.81 321.298,1365.28 322.068,1364.75 322.849,1364.21 323.643,1363.66 324.45,1363.1 
  325.269,1362.54 326.1,1361.97 326.944,1361.38 327.801,1360.79 328.671,1360.79 329.554,1360.2 330.45,1359.59 331.359,1358.97 332.281,1358.35 333.217,1357.72 
  334.166,1357.08 335.129,1356.43 336.105,1355.77 337.095,1355.1 338.099,1355.1 339.117,1354.42 340.149,1353.74 341.195,1353.04 342.255,1352.34 343.33,1351.62 
  344.419,1350.9 345.523,1350.17 346.641,1349.43 347.774,1348.68 348.921,1347.92 350.084,1347.15 351.262,1346.37 352.454,1346.37 353.662,1345.58 354.886,1344.78 
  356.124,1343.97 357.378,1343.15 358.648,1342.33 359.933,1341.49 361.234,1340.64 362.551,1339.78 363.884,1338.91 365.233,1338.03 366.599,1337.14 367.98,1336.24 
  369.378,1335.33 370.792,1334.41 372.223,1333.48 373.67,1332.54 375.134,1332.54 376.615,1331.59 378.113,1330.63 379.628,1329.65 381.16,1328.67 382.709,1327.67 
  384.276,1326.67 385.86,1325.65 387.461,1324.62 389.08,1323.58 390.717,1322.53 392.371,1321.47 394.044,1320.4 395.734,1319.31 397.442,1318.22 399.169,1317.11 
  400.914,1315.99 402.677,1314.86 404.459,1313.72 406.259,1312.57 408.078,1312.57 409.916,1311.4 411.773,1310.22 413.648,1309.03 415.543,1307.83 417.456,1306.62 
  419.389,1305.39 421.341,1304.16 423.313,1302.91 425.304,1301.64 427.315,1300.37 429.346,1299.08 431.396,1297.79 433.466,1296.47 435.556,1295.15 437.667,1293.81 
  439.797,1292.46 441.948,1291.1 444.119,1289.73 446.311,1288.34 448.523,1286.94 450.756,1285.53 453.01,1284.1 455.285,1282.66 457.58,1281.21 459.897,1279.74 
  462.234,1278.26 464.593,1276.77 466.974,1275.26 469.376,1273.74 471.799,1272.21 474.244,1270.66 476.711,1270.66 479.199,1269.1 481.71,1267.53 484.242,1265.94 
  486.797,1264.34 489.374,1262.73 491.973,1261.1 494.594,1259.45 497.238,1257.8 499.905,1256.12 502.594,1254.44 505.306,1252.74 508.041,1251.03 510.799,1249.3 
  513.581,1247.55 516.385,1245.8 519.212,1244.03 522.063,1242.24 524.938,1240.44 527.835,1238.62 530.757,1236.79 533.702,1234.95 536.672,1233.09 539.665,1231.21 
  542.682,1229.32 545.723,1227.42 548.789,1225.5 551.879,1223.56 554.993,1221.61 558.132,1219.65 561.295,1217.66 564.483,1215.67 567.696,1213.66 570.934,1211.63 
  574.197,1209.58 577.485,1207.53 580.798,1205.45 584.136,1203.36 587.5,1203.36 590.89,1201.25 594.304,1199.13 597.745,1196.99 601.211,1194.84 604.704,1192.67 
  608.222,1190.48 611.766,1188.28 615.336,1186.06 618.933,1183.83 622.556,1181.58 626.205,1179.31 629.881,1177.02 633.584,1174.72 637.313,1172.4 641.07,1170.07 
  644.853,1167.72 648.663,1165.35 652.5,1162.97 656.365,1160.56 660.256,1158.15 664.175,1155.71 668.122,1153.26 672.096,1150.79 676.098,1148.3 680.128,1145.8 
  684.186,1143.28 688.271,1140.74 692.385,1138.18 696.527,1135.61 700.697,1133.01 704.896,1130.41 709.123,1127.78 713.378,1125.13 717.663,1122.47 721.976,1119.79 
  726.317,1117.09 730.688,1114.38 735.088,1111.64 739.517,1108.89 743.975,1106.12 748.463,1103.33 752.979,1100.52 757.526,1097.7 762.102,1094.85 766.708,1091.99 
  771.343,1089.11 776.009,1086.21 780.704,1083.29 785.43,1080.36 790.186,1077.4 794.972,1074.43 799.788,1071.43 804.635,1068.42 809.513,1065.39 814.421,1062.34 
  819.36,1059.27 824.33,1056.18 829.331,1053.08 834.363,1049.95 839.426,1046.8 844.52,1043.64 849.646,1040.45 854.803,1037.25 859.991,1037.25 865.212,1034.02 
  870.464,1030.78 875.748,1027.51 881.063,1024.23 886.411,1020.93 891.791,1017.6 897.203,1014.26 902.648,1010.9 908.124,1007.51 913.634,1004.11 919.176,1000.69 
  924.75,997.242 930.358,993.777 935.998,990.293 941.671,986.788 947.378,983.262 953.117,979.716 958.89,976.149 964.696,972.561 970.536,968.953 976.409,965.324 
  982.316,961.674 988.257,958.003 994.231,954.312 1000.24,950.599 1006.28,946.865 1012.36,943.11 1018.47,939.333 1024.61,935.536 1030.79,931.717 1037.01,927.877 
  1043.26,924.015 1049.54,920.132 1055.86,916.227 1062.21,912.3 1068.6,908.352 1075.02,904.382 1081.48,900.39 1087.98,896.377 1094.51,892.341 1101.07,888.284 
  1107.67,884.204 1114.31,880.103 1120.98,875.979 1127.69,871.833 1134.43,867.664 1141.21,863.473 1148.02,859.26 1154.88,855.025 1161.76,850.767 1168.69,846.486 
  1175.65,842.182 1182.65,837.856 1189.68,833.508 1196.75,829.136 1203.86,824.741 1211.01,820.324 1218.19,815.883 1225.41,811.42 1232.67,806.933 1239.96,802.423 
  1247.29,797.89 1254.66,793.333 1262.07,788.753 1269.52,784.15 1277,779.523 1284.52,774.873 1292.08,770.199 1299.68,765.502 1307.31,760.78 1314.99,756.035 
  1322.7,751.266 1330.45,746.474 1338.24,741.657 1346.07,736.816 1353.93,731.951 1361.84,727.062 1369.79,722.149 1377.77,717.211 1385.79,712.25 1393.86,707.263 
  1401.96,702.253 1410.1,697.217 1418.28,692.158 1426.5,687.073 1434.76,687.073 1443.07,681.964 1451.41,676.831 1459.79,671.672 1468.21,666.489 1476.67,661.28 
  1485.17,656.047 1493.71,650.789 1502.3,645.505 1510.92,640.197 1519.59,634.863 1528.29,629.504 1537.04,624.119 1545.82,618.709 1554.65,613.274 1563.52,607.813 
  1572.43,602.327 1581.39,596.815 1590.38,591.277 1599.42,585.714 1608.49,580.124 1617.61,574.509 1626.77,568.868 1635.98,563.201 1645.22,557.508 1654.51,551.788 
  1663.84,546.043 1673.21,540.271 1682.63,534.473 1692.08,528.649 1701.58,522.798 1711.13,516.921 1720.71,511.017 1730.34,505.087 1740.01,499.13 1749.73,493.146 
  1759.49,487.135 1769.29,481.098 1779.13,475.034 1789.02,468.943 1798.95,462.824 1808.93,456.679 1818.95,450.507 1829.01,444.307 1839.12,438.08 1849.27,431.826 
  1859.47,425.545 1869.71,419.236 1880,412.899 1890.32,406.535 1900.7,400.144 1911.12,393.724 1921.58,387.277 1932.09,380.803 1942.64,374.3 1953.24,367.769 
  1963.89,361.211 1974.58,354.624 1985.31,348.01 1996.09,341.367 2006.92,334.696 2017.79,327.997 2028.7,321.269 2039.67,314.513 2050.68,307.729 2061.73,300.916 
  2072.83,294.074 2083.98,287.204 2095.17,280.305 2106.41,273.378 2117.7,266.422 2129.03,259.436 2140.41,252.422 2151.84,245.379 2163.32,238.307 2174.84,231.206 
  2186.4,224.075 2198.02,216.916 2209.68,209.727 2221.39,202.508 2233.15,195.261 2244.96,187.984 2256.81,180.677 2268.71,173.341 2280.66,165.975 2292.65,158.579 
  
  "/>
<polyline clip-path="url(#clip5302)" style="stroke:#e26f46; stroke-width:4; stroke-opacity:1; fill:none" points="
  289.238,1388.71 289.238,1388.71 289.238,1388.71 289.239,1388.71 289.24,1388.71 289.241,1388.71 289.243,1388.71 289.246,1388.71 289.249,1388.71 289.254,1388.71 
  289.259,1388.71 289.265,1388.7 289.273,1388.7 289.282,1388.7 289.292,1388.7 289.303,1388.7 289.316,1388.69 289.331,1388.69 289.348,1388.69 289.366,1388.68 
  289.386,1388.67 289.408,1388.67 289.433,1388.67 289.459,1388.66 289.488,1388.65 289.519,1388.65 289.553,1388.63 289.59,1388.62 289.629,1388.61 289.67,1388.61 
  289.715,1388.59 289.763,1388.58 289.814,1388.56 289.868,1388.56 289.925,1388.54 289.985,1388.52 290.05,1388.5 290.117,1388.47 290.188,1388.47 290.263,1388.45 
  290.342,1388.42 290.425,1388.39 290.512,1388.39 290.603,1388.36 290.698,1388.32 290.798,1388.29 290.902,1388.25 291.01,1388.25 291.123,1388.21 291.241,1388.17 
  291.364,1388.12 291.491,1388.08 291.624,1388.03 291.761,1388.03 291.904,1387.98 292.052,1387.92 292.206,1387.87 292.365,1387.81 292.529,1387.75 292.7,1387.68 
  292.876,1387.61 293.057,1387.54 293.245,1387.54 293.439,1387.47 293.639,1387.39 293.846,1387.31 294.058,1387.23 294.277,1387.15 294.503,1387.06 294.735,1386.97 
  294.974,1386.87 295.22,1386.77 295.473,1386.67 295.732,1386.56 295.999,1386.45 296.273,1386.34 296.555,1386.22 296.844,1386.1 297.14,1385.98 297.444,1385.85 
  297.755,1385.72 298.075,1385.58 298.402,1385.44 298.737,1385.3 299.08,1385.15 299.432,1385 299.792,1384.84 300.16,1384.68 300.536,1384.51 300.922,1384.34 
  301.315,1383.99 301.718,1383.8 302.129,1383.61 302.55,1383.42 302.979,1383.22 303.418,1383.02 303.865,1382.81 304.323,1382.6 304.789,1382.38 305.265,1381.93 
  305.751,1381.69 306.246,1381.45 306.751,1381.21 307.266,1380.96 307.791,1380.7 308.327,1380.18 308.872,1379.9 309.428,1379.62 309.994,1379.34 310.57,1379.05 
  311.157,1378.75 311.755,1378.45 312.363,1378.14 312.983,1377.51 313.613,1377.18 314.255,1376.85 314.907,1376.51 315.571,1376.17 316.246,1375.82 316.933,1375.46 
  317.631,1374.72 318.341,1374.34 319.062,1373.96 319.796,1373.57 320.541,1373.17 321.298,1372.76 322.068,1372.35 322.849,1371.93 323.643,1371.5 324.45,1370.63 
  325.269,1370.18 326.1,1369.72 326.944,1369.26 327.801,1368.79 328.671,1368.31 329.554,1367.83 330.45,1367.33 331.359,1366.83 332.281,1365.81 333.217,1365.28 
  334.166,1364.75 335.129,1364.21 336.105,1363.66 337.095,1363.1 338.099,1362.54 339.117,1361.97 340.149,1361.38 341.195,1360.79 342.255,1360.2 343.33,1359.59 
  344.419,1358.35 345.523,1357.72 346.641,1357.08 347.774,1356.43 348.921,1355.77 350.084,1355.1 351.262,1354.42 352.454,1353.74 353.662,1353.04 354.886,1352.34 
  356.124,1351.62 357.378,1350.9 358.648,1350.17 359.933,1349.43 361.234,1348.68 362.551,1347.92 363.884,1346.37 365.233,1345.58 366.599,1344.78 367.98,1343.97 
  369.378,1343.15 370.792,1342.33 372.223,1341.49 373.67,1340.64 375.134,1339.78 376.615,1338.91 378.113,1338.03 379.628,1337.14 381.16,1336.24 382.709,1335.33 
  384.276,1334.41 385.86,1333.48 387.461,1332.54 389.08,1331.59 390.717,1330.63 392.371,1329.65 394.044,1328.67 395.734,1327.67 397.442,1326.67 399.169,1325.65 
  400.914,1323.58 402.677,1322.53 404.459,1321.47 406.259,1320.4 408.078,1319.31 409.916,1318.22 411.773,1317.11 413.648,1315.99 415.543,1314.86 417.456,1313.72 
  419.389,1312.57 421.341,1311.4 423.313,1310.22 425.304,1309.03 427.315,1307.83 429.346,1306.62 431.396,1305.39 433.466,1304.16 435.556,1302.91 437.667,1301.64 
  439.797,1300.37 441.948,1299.08 444.119,1297.79 446.311,1296.47 448.523,1295.15 450.756,1293.81 453.01,1292.46 455.285,1291.1 457.58,1289.73 459.897,1288.34 
  462.234,1286.94 464.593,1285.53 466.974,1284.1 469.376,1282.66 471.799,1281.21 474.244,1279.74 476.711,1278.26 479.199,1276.77 481.71,1275.26 484.242,1273.74 
  486.797,1272.21 489.374,1270.66 491.973,1267.53 494.594,1265.94 497.238,1264.34 499.905,1262.73 502.594,1261.1 505.306,1259.45 508.041,1257.8 510.799,1256.12 
  513.581,1254.44 516.385,1252.74 519.212,1251.03 522.063,1249.3 524.938,1247.55 527.835,1245.8 530.757,1244.03 533.702,1242.24 536.672,1240.44 539.665,1238.62 
  542.682,1236.79 545.723,1234.95 548.789,1233.09 551.879,1231.21 554.993,1229.32 558.132,1227.42 561.295,1225.5 564.483,1223.56 567.696,1221.61 570.934,1219.65 
  574.197,1217.66 577.485,1215.67 580.798,1213.66 584.136,1211.63 587.5,1209.58 590.89,1207.53 594.304,1205.45 597.745,1203.36 601.211,1201.25 604.704,1199.13 
  608.222,1196.99 611.766,1194.84 615.336,1192.67 618.933,1190.48 622.556,1188.28 626.205,1186.06 629.881,1183.83 633.584,1181.58 637.313,1179.31 641.07,1177.02 
  644.853,1174.72 648.663,1172.4 652.5,1170.07 656.365,1167.72 660.256,1165.35 664.175,1162.97 668.122,1160.56 672.096,1158.15 676.098,1155.71 680.128,1153.26 
  684.186,1150.79 688.271,1148.3 692.385,1145.8 696.527,1143.28 700.697,1140.74 704.896,1138.18 709.123,1135.61 713.378,1133.01 717.663,1130.41 721.976,1127.78 
  726.317,1125.13 730.688,1122.47 735.088,1119.79 739.517,1117.09 743.975,1114.38 748.463,1111.64 752.979,1108.89 757.526,1106.12 762.102,1103.33 766.708,1100.52 
  771.343,1097.7 776.009,1094.85 780.704,1091.99 785.43,1089.11 790.186,1086.21 794.972,1083.29 799.788,1080.36 804.635,1077.4 809.513,1074.43 814.421,1071.43 
  819.36,1068.42 824.33,1065.39 829.331,1062.34 834.363,1059.27 839.426,1056.18 844.52,1053.08 849.646,1049.95 854.803,1046.8 859.991,1043.64 865.212,1040.45 
  870.464,1037.25 875.748,1034.02 881.063,1030.78 886.411,1027.51 891.791,1024.23 897.203,1020.93 902.648,1017.6 908.124,1014.26 913.634,1010.9 919.176,1007.51 
  924.75,1004.11 930.358,1000.69 935.998,997.242 941.671,993.777 947.378,990.293 953.117,986.788 958.89,983.262 964.696,979.716 970.536,976.149 976.409,972.561 
  982.316,968.953 988.257,965.324 994.231,961.674 1000.24,958.003 1006.28,954.312 1012.36,950.599 1018.47,946.865 1024.61,943.11 1030.79,939.333 1037.01,935.536 
  1043.26,931.717 1049.54,927.877 1055.86,924.015 1062.21,920.132 1068.6,916.227 1075.02,912.3 1081.48,908.352 1087.98,904.382 1094.51,900.39 1101.07,896.377 
  1107.67,892.341 1114.31,888.284 1120.98,884.204 1127.69,880.103 1134.43,875.979 1141.21,871.833 1148.02,867.664 1154.88,863.473 1161.76,859.26 1168.69,855.025 
  1175.65,850.767 1182.65,846.486 1189.68,842.182 1196.75,837.856 1203.86,833.508 1211.01,829.136 1218.19,824.741 1225.41,820.324 1232.67,815.883 1239.96,811.42 
  1247.29,806.933 1254.66,802.423 1262.07,797.89 1269.52,793.333 1277,788.753 1284.52,784.15 1292.08,779.523 1299.68,774.873 1307.31,770.199 1314.99,765.502 
  1322.7,760.78 1330.45,756.035 1338.24,751.266 1346.07,746.474 1353.93,741.657 1361.84,736.816 1369.79,731.951 1377.77,727.062 1385.79,722.149 1393.86,717.211 
  1401.96,712.25 1410.1,707.263 1418.28,702.253 1426.5,697.217 1434.76,692.158 1443.07,687.073 1451.41,681.964 1459.79,676.831 1468.21,671.672 1476.67,666.489 
  1485.17,661.28 1493.71,656.047 1502.3,650.789 1510.92,645.505 1519.59,640.197 1528.29,634.863 1537.04,629.504 1545.82,624.119 1554.65,618.709 1563.52,613.274 
  1572.43,607.813 1581.39,602.327 1590.38,596.815 1599.42,591.277 1608.49,585.714 1617.61,580.124 1626.77,574.509 1635.98,568.868 1645.22,563.201 1654.51,557.508 
  1663.84,551.788 1673.21,546.043 1682.63,540.271 1692.08,534.473 1701.58,528.649 1711.13,522.798 1720.71,516.921 1730.34,511.017 1740.01,505.087 1749.73,499.13 
  1759.49,493.146 1769.29,487.135 1779.13,481.098 1789.02,475.034 1798.95,468.943 1808.93,462.824 1818.95,456.679 1829.01,450.507 1839.12,444.307 1849.27,438.08 
  1859.47,431.826 1869.71,425.545 1880,419.236 1890.32,412.899 1900.7,406.535 1911.12,400.144 1921.58,393.724 1932.09,387.277 1942.64,380.803 1953.24,374.3 
  1963.89,367.769 1974.58,361.211 1985.31,354.624 1996.09,348.01 2006.92,341.367 2017.79,334.696 2028.7,327.997 2039.67,321.269 2050.68,314.513 2061.73,307.729 
  2072.83,300.916 2083.98,294.074 2095.17,287.204 2106.41,280.305 2117.7,273.378 2129.03,266.422 2140.41,259.436 2151.84,252.422 2163.32,245.379 2174.84,238.307 
  2186.4,231.206 2198.02,224.075 2209.68,216.916 2221.39,209.727 2233.15,202.508 2244.96,195.261 2256.81,187.984 2268.71,180.677 2280.66,173.341 2292.65,165.975 
  
  "/>
<polygon clip-path="url(#clip5300)" points="
1580.65,1281.62 2280.76,1281.62 2280.76,1100.18 1580.65,1100.18 
  " fill="#ffffff" fill-rule="evenodd" fill-opacity="1"/>
<polyline clip-path="url(#clip5300)" style="stroke:#000000; stroke-width:4; stroke-opacity:1; fill:none" points="
  1580.65,1281.62 2280.76,1281.62 2280.76,1100.18 1580.65,1100.18 1580.65,1281.62 
  "/>
<polyline clip-path="url(#clip5300)" style="stroke:#009af9; stroke-width:4; stroke-opacity:1; fill:none" points="
  1604.65,1160.66 1748.65,1160.66 
  "/>
<g clip-path="url(#clip5300)">
<text style="fill:#000000; fill-opacity:1; font-family:Arial,Helvetica Neue,Helvetica,sans-serif; font-size:48px; text-anchor:start;" transform="rotate(0, 1772.65, 1178.16)" x="1772.65" y="1178.16">Employed in Boom</text>
</g>
<polyline clip-path="url(#clip5300)" style="stroke:#e26f46; stroke-width:4; stroke-opacity:1; fill:none" points="
  1604.65,1221.14 1748.65,1221.14 
  "/>
<g clip-path="url(#clip5300)">
<text style="fill:#000000; fill-opacity:1; font-family:Arial,Helvetica Neue,Helvetica,sans-serif; font-size:48px; text-anchor:start;" transform="rotate(0, 1772.65, 1238.64)" x="1772.65" y="1238.64">Unemployed in Boom</text>
</g>
</svg>
