<?xml version="1.0" encoding="utf-8"?>
<svg xmlns="http://www.w3.org/2000/svg" xmlns:xlink="http://www.w3.org/1999/xlink" width="600" height="400" viewBox="0 0 2400 1600">
<defs>
  <clipPath id="clip6100">
    <rect x="0" y="0" width="2400" height="1600"/>
  </clipPath>
</defs>
<polygon clip-path="url(#clip6100)" points="
0,1600 2400,1600 2400,0 0,0 
  " fill="#ffffff" fill-rule="evenodd" fill-opacity="1"/>
<defs>
  <clipPath id="clip6101">
    <rect x="480" y="0" width="1681" height="1600"/>
  </clipPath>
</defs>
<polygon clip-path="url(#clip6100)" points="
229.135,1425.62 2352.76,1425.62 2352.76,121.675 229.135,121.675 
  " fill="#ffffff" fill-rule="evenodd" fill-opacity="1"/>
<defs>
  <clipPath id="clip6102">
    <rect x="229" y="121" width="2125" height="1305"/>
  </clipPath>
</defs>
<polyline clip-path="url(#clip6102)" style="stroke:#000000; stroke-width:2; stroke-opacity:0.1; fill:none" points="
  289.198,1425.62 289.198,121.675 
  "/>
<polyline clip-path="url(#clip6102)" style="stroke:#000000; stroke-width:2; stroke-opacity:0.1; fill:none" points="
  689.889,1425.62 689.889,121.675 
  "/>
<polyline clip-path="url(#clip6102)" style="stroke:#000000; stroke-width:2; stroke-opacity:0.1; fill:none" points="
  1090.58,1425.62 1090.58,121.675 
  "/>
<polyline clip-path="url(#clip6102)" style="stroke:#000000; stroke-width:2; stroke-opacity:0.1; fill:none" points="
  1491.27,1425.62 1491.27,121.675 
  "/>
<polyline clip-path="url(#clip6102)" style="stroke:#000000; stroke-width:2; stroke-opacity:0.1; fill:none" points="
  1891.96,1425.62 1891.96,121.675 
  "/>
<polyline clip-path="url(#clip6102)" style="stroke:#000000; stroke-width:2; stroke-opacity:0.1; fill:none" points="
  2292.65,1425.62 2292.65,121.675 
  "/>
<polyline clip-path="url(#clip6102)" style="stroke:#000000; stroke-width:2; stroke-opacity:0.1; fill:none" points="
  229.135,1388.74 2352.76,1388.74 
  "/>
<polyline clip-path="url(#clip6102)" style="stroke:#000000; stroke-width:2; stroke-opacity:0.1; fill:none" points="
  229.135,1138.23 2352.76,1138.23 
  "/>
<polyline clip-path="url(#clip6102)" style="stroke:#000000; stroke-width:2; stroke-opacity:0.1; fill:none" points="
  229.135,887.711 2352.76,887.711 
  "/>
<polyline clip-path="url(#clip6102)" style="stroke:#000000; stroke-width:2; stroke-opacity:0.1; fill:none" points="
  229.135,637.197 2352.76,637.197 
  "/>
<polyline clip-path="url(#clip6102)" style="stroke:#000000; stroke-width:2; stroke-opacity:0.1; fill:none" points="
  229.135,386.683 2352.76,386.683 
  "/>
<polyline clip-path="url(#clip6102)" style="stroke:#000000; stroke-width:2; stroke-opacity:0.1; fill:none" points="
  229.135,136.168 2352.76,136.168 
  "/>
<polyline clip-path="url(#clip6100)" style="stroke:#000000; stroke-width:4; stroke-opacity:1; fill:none" points="
  229.135,1425.62 2352.76,1425.62 
  "/>
<polyline clip-path="url(#clip6100)" style="stroke:#000000; stroke-width:4; stroke-opacity:1; fill:none" points="
  229.135,1425.62 229.135,121.675 
  "/>
<polyline clip-path="url(#clip6100)" style="stroke:#000000; stroke-width:4; stroke-opacity:1; fill:none" points="
  289.198,1425.62 289.198,1406.06 
  "/>
<polyline clip-path="url(#clip6100)" style="stroke:#000000; stroke-width:4; stroke-opacity:1; fill:none" points="
  689.889,1425.62 689.889,1406.06 
  "/>
<polyline clip-path="url(#clip6100)" style="stroke:#000000; stroke-width:4; stroke-opacity:1; fill:none" points="
  1090.58,1425.62 1090.58,1406.06 
  "/>
<polyline clip-path="url(#clip6100)" style="stroke:#000000; stroke-width:4; stroke-opacity:1; fill:none" points="
  1491.27,1425.62 1491.27,1406.06 
  "/>
<polyline clip-path="url(#clip6100)" style="stroke:#000000; stroke-width:4; stroke-opacity:1; fill:none" points="
  1891.96,1425.62 1891.96,1406.06 
  "/>
<polyline clip-path="url(#clip6100)" style="stroke:#000000; stroke-width:4; stroke-opacity:1; fill:none" points="
  2292.65,1425.62 2292.65,1406.06 
  "/>
<polyline clip-path="url(#clip6100)" style="stroke:#000000; stroke-width:4; stroke-opacity:1; fill:none" points="
  229.135,1388.74 260.99,1388.74 
  "/>
<polyline clip-path="url(#clip6100)" style="stroke:#000000; stroke-width:4; stroke-opacity:1; fill:none" points="
  229.135,1138.23 260.99,1138.23 
  "/>
<polyline clip-path="url(#clip6100)" style="stroke:#000000; stroke-width:4; stroke-opacity:1; fill:none" points="
  229.135,887.711 260.99,887.711 
  "/>
<polyline clip-path="url(#clip6100)" style="stroke:#000000; stroke-width:4; stroke-opacity:1; fill:none" points="
  229.135,637.197 260.99,637.197 
  "/>
<polyline clip-path="url(#clip6100)" style="stroke:#000000; stroke-width:4; stroke-opacity:1; fill:none" points="
  229.135,386.683 260.99,386.683 
  "/>
<polyline clip-path="url(#clip6100)" style="stroke:#000000; stroke-width:4; stroke-opacity:1; fill:none" points="
  229.135,136.168 260.99,136.168 
  "/>
<g clip-path="url(#clip6100)">
<text style="fill:#000000; fill-opacity:1; font-family:Arial,Helvetica Neue,Helvetica,sans-serif; font-size:48px; text-anchor:middle;" transform="rotate(0, 289.198, 1479.62)" x="289.198" y="1479.62">0</text>
</g>
<g clip-path="url(#clip6100)">
<text style="fill:#000000; fill-opacity:1; font-family:Arial,Helvetica Neue,Helvetica,sans-serif; font-size:48px; text-anchor:middle;" transform="rotate(0, 689.889, 1479.62)" x="689.889" y="1479.62">100</text>
</g>
<g clip-path="url(#clip6100)">
<text style="fill:#000000; fill-opacity:1; font-family:Arial,Helvetica Neue,Helvetica,sans-serif; font-size:48px; text-anchor:middle;" transform="rotate(0, 1090.58, 1479.62)" x="1090.58" y="1479.62">200</text>
</g>
<g clip-path="url(#clip6100)">
<text style="fill:#000000; fill-opacity:1; font-family:Arial,Helvetica Neue,Helvetica,sans-serif; font-size:48px; text-anchor:middle;" transform="rotate(0, 1491.27, 1479.62)" x="1491.27" y="1479.62">300</text>
</g>
<g clip-path="url(#clip6100)">
<text style="fill:#000000; fill-opacity:1; font-family:Arial,Helvetica Neue,Helvetica,sans-serif; font-size:48px; text-anchor:middle;" transform="rotate(0, 1891.96, 1479.62)" x="1891.96" y="1479.62">400</text>
</g>
<g clip-path="url(#clip6100)">
<text style="fill:#000000; fill-opacity:1; font-family:Arial,Helvetica Neue,Helvetica,sans-serif; font-size:48px; text-anchor:middle;" transform="rotate(0, 2292.65, 1479.62)" x="2292.65" y="1479.62">500</text>
</g>
<g clip-path="url(#clip6100)">
<text style="fill:#000000; fill-opacity:1; font-family:Arial,Helvetica Neue,Helvetica,sans-serif; font-size:48px; text-anchor:end;" transform="rotate(0, 205.135, 1406.24)" x="205.135" y="1406.24">0</text>
</g>
<g clip-path="url(#clip6100)">
<text style="fill:#000000; fill-opacity:1; font-family:Arial,Helvetica Neue,Helvetica,sans-serif; font-size:48px; text-anchor:end;" transform="rotate(0, 205.135, 1155.73)" x="205.135" y="1155.73">100</text>
</g>
<g clip-path="url(#clip6100)">
<text style="fill:#000000; fill-opacity:1; font-family:Arial,Helvetica Neue,Helvetica,sans-serif; font-size:48px; text-anchor:end;" transform="rotate(0, 205.135, 905.211)" x="205.135" y="905.211">200</text>
</g>
<g clip-path="url(#clip6100)">
<text style="fill:#000000; fill-opacity:1; font-family:Arial,Helvetica Neue,Helvetica,sans-serif; font-size:48px; text-anchor:end;" transform="rotate(0, 205.135, 654.697)" x="205.135" y="654.697">300</text>
</g>
<g clip-path="url(#clip6100)">
<text style="fill:#000000; fill-opacity:1; font-family:Arial,Helvetica Neue,Helvetica,sans-serif; font-size:48px; text-anchor:end;" transform="rotate(0, 205.135, 404.183)" x="205.135" y="404.183">400</text>
</g>
<g clip-path="url(#clip6100)">
<text style="fill:#000000; fill-opacity:1; font-family:Arial,Helvetica Neue,Helvetica,sans-serif; font-size:48px; text-anchor:end;" transform="rotate(0, 205.135, 153.668)" x="205.135" y="153.668">500</text>
</g>
<g clip-path="url(#clip6100)">
<text style="fill:#000000; fill-opacity:1; font-family:Arial,Helvetica Neue,Helvetica,sans-serif; font-size:84px; text-anchor:middle;" transform="rotate(0, 1290.95, 73.2)" x="1290.95" y="73.2">Policy Function</text>
</g>
<g clip-path="url(#clip6100)">
<text style="fill:#000000; fill-opacity:1; font-family:Arial,Helvetica Neue,Helvetica,sans-serif; font-size:66px; text-anchor:middle;" transform="rotate(0, 1290.95, 1559.48)" x="1290.95" y="1559.48">Individual Capital at t</text>
</g>
<g clip-path="url(#clip6100)">
<text style="fill:#000000; fill-opacity:1; font-family:Arial,Helvetica Neue,Helvetica,sans-serif; font-size:66px; text-anchor:middle;" transform="rotate(-90, 89.2861, 773.647)" x="89.2861" y="773.647">Individual Capital at t+1</text>
</g>
<polyline clip-path="url(#clip6102)" style="stroke:#009af9; stroke-width:4; stroke-opacity:1; fill:none" points="
  289.238,1388.71 289.238,1388.71 289.238,1388.71 289.239,1388.71 289.24,1388.71 289.241,1388.71 289.243,1388.71 289.246,1388.71 289.249,1388.71 289.254,1388.71 
  289.259,1388.71 289.265,1388.7 289.273,1388.7 289.282,1388.7 289.292,1388.7 289.303,1388.7 289.316,1388.69 289.331,1388.69 289.348,1388.69 289.366,1388.68 
  289.386,1388.67 289.408,1388.67 289.433,1388.67 289.459,1388.66 289.488,1388.65 289.519,1388.65 289.553,1388.63 289.59,1388.62 289.629,1388.61 289.67,1388.61 
  289.715,1388.59 289.763,1388.58 289.814,1388.56 289.868,1388.56 289.925,1388.54 289.985,1388.52 290.05,1388.49 290.117,1388.47 290.188,1388.47 290.263,1388.44 
  290.342,1388.42 290.425,1388.39 290.512,1388.39 290.603,1388.35 290.698,1388.32 290.798,1388.28 290.902,1388.25 291.01,1388.25 291.123,1388.21 291.241,1388.16 
  291.364,1388.12 291.491,1388.07 291.624,1388.02 291.761,1388.02 291.904,1387.97 292.052,1387.92 292.206,1387.86 292.365,1387.8 292.529,1387.74 292.7,1387.67 
  292.876,1387.61 293.057,1387.54 293.245,1387.54 293.439,1387.46 293.639,1387.39 293.846,1387.31 294.058,1387.22 294.277,1387.14 294.503,1387.05 294.735,1386.95 
  294.974,1386.86 295.22,1386.76 295.473,1386.66 295.732,1386.55 295.999,1386.44 296.273,1386.33 296.555,1386.21 296.844,1386.09 297.14,1385.96 297.444,1385.83 
  297.755,1385.7 298.075,1385.56 298.402,1385.42 298.737,1385.28 299.08,1385.13 299.432,1384.97 299.792,1384.82 300.16,1384.65 300.536,1384.49 300.922,1384.32 
  301.315,1383.96 301.718,1383.77 302.129,1383.58 302.55,1383.39 302.979,1383.19 303.418,1382.99 303.865,1382.78 304.323,1382.56 304.789,1382.34 305.265,1381.89 
  305.751,1381.65 306.246,1381.41 306.751,1381.16 307.266,1380.91 307.791,1380.65 308.327,1380.12 308.872,1379.85 309.428,1379.57 309.994,1379.28 310.57,1378.99 
  311.157,1378.69 311.755,1378.39 312.363,1378.08 312.983,1377.44 313.613,1377.11 314.255,1376.78 314.907,1376.44 315.571,1376.09 316.246,1375.74 316.933,1375.38 
  317.631,1374.64 318.341,1374.26 319.062,1373.87 319.796,1373.47 320.541,1373.07 321.298,1372.67 322.068,1372.25 322.849,1371.83 323.643,1371.4 324.45,1370.52 
  325.269,1370.07 326.1,1369.61 326.944,1369.14 327.801,1368.67 328.671,1368.19 329.554,1367.7 330.45,1367.2 331.359,1366.7 332.281,1365.67 333.217,1365.14 
  334.166,1364.6 335.129,1364.06 336.105,1363.51 337.095,1362.95 338.099,1362.38 339.117,1361.8 340.149,1361.22 341.195,1360.63 342.255,1360.02 343.33,1359.41 
  344.419,1358.17 345.523,1357.53 346.641,1356.88 347.774,1356.23 348.921,1355.57 350.084,1354.9 351.262,1354.21 352.454,1353.52 353.662,1352.83 354.886,1352.12 
  356.124,1351.4 357.378,1350.67 358.648,1349.94 359.933,1349.19 361.234,1348.44 362.551,1347.67 363.884,1346.11 365.233,1345.32 366.599,1344.52 367.98,1343.7 
  369.378,1342.88 370.792,1342.05 372.223,1341.2 373.67,1340.35 375.134,1339.48 376.615,1338.61 378.113,1337.73 379.628,1336.83 381.16,1335.93 382.709,1335.01 
  384.276,1334.09 385.86,1333.15 387.461,1332.2 389.08,1331.24 390.717,1330.28 392.371,1329.3 394.044,1328.31 395.734,1327.3 397.442,1326.29 399.169,1325.27 
  400.914,1323.19 402.677,1322.13 404.459,1321.06 406.259,1319.98 408.078,1318.89 409.916,1317.79 411.773,1316.68 413.648,1315.55 415.543,1314.41 417.456,1313.27 
  419.389,1312.11 421.341,1310.93 423.313,1309.75 425.304,1308.55 427.315,1307.34 429.346,1306.12 431.396,1304.89 433.466,1303.64 435.556,1302.39 437.667,1301.12 
  439.797,1299.84 441.948,1298.54 444.119,1297.24 446.311,1295.92 448.523,1294.58 450.756,1293.24 453.01,1291.88 455.285,1290.51 457.58,1289.13 459.897,1287.73 
  462.234,1286.32 464.593,1284.9 466.974,1283.47 469.376,1282.02 471.799,1280.56 474.244,1279.08 476.711,1277.59 479.199,1276.09 481.71,1274.58 484.242,1273.05 
  486.797,1271.51 489.374,1269.95 491.973,1266.8 494.594,1265.2 497.238,1263.59 499.905,1261.96 502.594,1260.32 505.306,1258.67 508.041,1257 510.799,1255.32 
  513.581,1253.63 516.385,1251.92 519.212,1250.19 522.063,1248.45 524.938,1246.7 527.835,1244.93 530.757,1243.15 533.702,1241.35 536.672,1239.54 539.665,1237.72 
  542.682,1235.87 545.723,1234.02 548.789,1232.15 551.879,1230.26 554.993,1228.36 558.132,1226.44 561.295,1224.51 564.483,1222.56 567.696,1220.6 570.934,1218.62 
  574.197,1216.63 577.485,1214.62 580.798,1212.6 584.136,1210.56 587.5,1208.5 590.89,1206.43 594.304,1204.34 597.745,1202.24 601.211,1200.12 604.704,1197.99 
  608.222,1195.83 611.766,1193.67 615.336,1191.48 618.933,1189.28 622.556,1187.07 626.205,1184.84 629.881,1182.59 633.584,1180.32 637.313,1178.04 641.07,1175.74 
  644.853,1173.43 648.663,1171.1 652.5,1168.75 656.365,1166.38 660.256,1164 664.175,1161.6 668.122,1159.18 672.096,1156.75 676.098,1154.3 680.128,1151.83 
  684.186,1149.35 688.271,1146.85 692.385,1144.33 696.527,1141.79 700.697,1139.24 704.896,1136.66 709.123,1134.08 713.378,1131.47 717.663,1128.84 721.976,1126.2 
  726.317,1123.54 730.688,1120.86 735.088,1118.16 739.517,1115.45 743.975,1112.72 748.463,1109.97 752.979,1107.2 757.526,1104.41 762.102,1101.6 766.708,1098.78 
  771.343,1095.94 776.009,1093.08 780.704,1090.2 785.43,1087.3 790.186,1084.38 794.972,1081.45 799.788,1078.49 804.635,1075.52 809.513,1072.53 814.421,1069.52 
  819.36,1066.49 824.33,1063.44 829.331,1060.37 834.363,1057.28 839.426,1054.17 844.52,1051.05 849.646,1047.9 854.803,1044.73 859.991,1041.55 865.212,1038.34 
  870.464,1035.12 875.748,1031.88 881.063,1028.61 886.411,1025.33 891.791,1022.03 897.203,1018.7 902.648,1015.36 908.124,1012 913.634,1008.61 919.176,1005.21 
  924.75,1001.78 930.358,998.339 935.998,994.874 941.671,991.389 947.378,987.883 953.117,984.357 958.89,980.81 964.696,977.242 970.536,973.653 976.409,970.044 
  982.316,966.414 988.257,962.763 994.231,959.091 1000.24,955.398 1006.28,951.684 1012.36,947.949 1018.47,944.192 1024.61,940.415 1030.79,936.615 1037.01,932.795 
  1043.26,928.953 1049.54,925.089 1055.86,921.204 1062.21,917.297 1068.6,913.369 1075.02,909.419 1081.48,905.447 1087.98,901.453 1094.51,897.437 1101.07,893.399 
  1107.67,889.339 1114.31,885.257 1120.98,881.153 1127.69,877.026 1134.43,872.877 1141.21,868.706 1148.02,864.513 1154.88,860.297 1161.76,856.058 1168.69,851.797 
  1175.65,847.513 1182.65,843.206 1189.68,838.877 1196.75,834.525 1203.86,830.149 1211.01,825.751 1218.19,821.33 1225.41,816.886 1232.67,812.419 1239.96,807.928 
  1247.29,803.414 1254.66,798.877 1262.07,794.316 1269.52,789.732 1277,785.125 1284.52,780.494 1292.08,775.839 1299.68,771.16 1307.31,766.458 1314.99,761.732 
  1322.7,756.982 1330.45,752.209 1338.24,747.411 1346.07,742.589 1353.93,737.743 1361.84,732.873 1369.79,727.979 1377.77,723.06 1385.79,718.117 1393.86,713.15 
  1401.96,708.158 1410.1,703.142 1418.28,698.101 1426.5,693.035 1434.76,687.945 1443.07,682.83 1451.41,677.69 1459.79,672.525 1468.21,667.335 1476.67,662.12 
  1485.17,656.881 1493.71,651.616 1502.3,646.325 1510.92,641.01 1519.59,635.669 1528.29,630.303 1537.04,624.912 1545.82,619.495 1554.65,614.052 1563.52,608.584 
  1572.43,603.09 1581.39,597.57 1590.38,592.025 1599.42,586.454 1608.49,580.857 1617.61,575.234 1626.77,569.584 1635.98,563.909 1645.22,558.208 1654.51,552.48 
  1663.84,546.726 1673.21,540.946 1682.63,535.139 1692.08,529.306 1701.58,523.447 1711.13,517.561 1720.71,511.648 1730.34,505.708 1740.01,499.742 1749.73,493.749 
  1759.49,487.729 1769.29,481.682 1779.13,475.608 1789.02,469.507 1798.95,463.379 1808.93,457.224 1818.95,451.042 1829.01,444.832 1839.12,438.595 1849.27,432.33 
  1859.47,426.039 1869.71,419.719 1880,413.372 1890.32,406.997 1900.7,400.595 1911.12,394.164 1921.58,387.706 1932.09,381.22 1942.64,374.706 1953.24,368.164 
  1963.89,361.594 1974.58,354.996 1985.31,348.37 1996.09,341.715 2006.92,335.032 2017.79,328.321 2028.7,321.581 2039.67,314.813 2050.68,308.016 2061.73,301.19 
  2072.83,294.336 2083.98,287.454 2095.17,280.542 2106.41,273.601 2117.7,266.632 2129.03,259.633 2140.41,252.606 2151.84,245.549 2163.32,238.464 2174.84,231.349 
  2186.4,224.205 2198.02,217.031 2209.68,209.828 2221.39,202.596 2233.15,195.334 2244.96,188.042 2256.81,180.721 2268.71,173.37 2280.66,165.99 2292.65,158.579 
  
  "/>
<polyline clip-path="url(#clip6102)" style="stroke:#e26f46; stroke-width:4; stroke-opacity:1; fill:none" points="
  289.238,1388.71 289.238,1388.71 289.238,1388.71 289.239,1388.71 289.24,1388.71 289.241,1388.71 289.243,1388.71 289.246,1388.71 289.249,1388.71 289.254,1388.71 
  289.259,1388.71 289.265,1388.7 289.273,1388.7 289.282,1388.7 289.292,1388.7 289.303,1388.69 289.316,1388.69 289.331,1388.68 289.348,1388.67 289.366,1388.67 
  289.386,1388.67 289.408,1388.66 289.433,1388.65 289.459,1388.63 289.488,1388.63 289.519,1388.62 289.553,1388.61 289.59,1388.59 289.629,1388.58 289.67,1388.56 
  289.715,1388.56 289.763,1388.54 289.814,1388.52 289.868,1388.49 289.925,1388.47 289.985,1388.47 290.05,1388.44 290.117,1388.42 290.188,1388.39 290.263,1388.35 
  290.342,1388.32 290.425,1388.32 290.512,1388.28 290.603,1388.25 290.698,1388.21 290.798,1388.16 290.902,1388.12 291.01,1388.07 291.123,1388.07 291.241,1388.02 
  291.364,1387.97 291.491,1387.92 291.624,1387.86 291.761,1387.8 291.904,1387.74 292.052,1387.67 292.206,1387.67 292.365,1387.61 292.529,1387.54 292.7,1387.46 
  292.876,1387.39 293.057,1387.31 293.245,1387.22 293.439,1387.14 293.639,1387.05 293.846,1386.95 294.058,1386.95 294.277,1386.86 294.503,1386.76 294.735,1386.66 
  294.974,1386.55 295.22,1386.44 295.473,1386.33 295.732,1386.21 295.999,1386.09 296.273,1385.96 296.555,1385.83 296.844,1385.7 297.14,1385.56 297.444,1385.42 
  297.755,1385.28 298.075,1385.13 298.402,1384.97 298.737,1384.82 299.08,1384.65 299.432,1384.49 299.792,1384.32 300.16,1384.14 300.536,1383.96 300.922,1383.77 
  301.315,1383.58 301.718,1383.39 302.129,1383.19 302.55,1382.99 302.979,1382.78 303.418,1382.56 303.865,1382.34 304.323,1382.12 304.789,1381.89 305.265,1381.65 
  305.751,1381.41 306.246,1381.16 306.751,1380.91 307.266,1380.39 307.791,1380.12 308.327,1379.85 308.872,1379.57 309.428,1379.28 309.994,1378.99 310.57,1378.69 
  311.157,1378.39 311.755,1378.08 312.363,1377.77 312.983,1377.44 313.613,1377.11 314.255,1376.44 314.907,1376.09 315.571,1375.74 316.246,1375.38 316.933,1375.01 
  317.631,1374.64 318.341,1374.26 319.062,1373.87 319.796,1373.47 320.541,1373.07 321.298,1372.67 322.068,1371.83 322.849,1371.4 323.643,1370.96 324.45,1370.52 
  325.269,1370.07 326.1,1369.61 326.944,1369.14 327.801,1368.67 328.671,1368.19 329.554,1367.7 330.45,1367.2 331.359,1366.7 332.281,1365.67 333.217,1365.14 
  334.166,1364.6 335.129,1364.06 336.105,1363.51 337.095,1362.95 338.099,1362.38 339.117,1361.8 340.149,1361.22 341.195,1360.63 342.255,1360.02 343.33,1359.41 
  344.419,1358.17 345.523,1357.53 346.641,1356.88 347.774,1356.23 348.921,1355.57 350.084,1354.9 351.262,1354.21 352.454,1353.52 353.662,1352.83 354.886,1352.12 
  356.124,1351.4 357.378,1350.67 358.648,1349.94 359.933,1349.19 361.234,1348.44 362.551,1347.67 363.884,1346.9 365.233,1345.32 366.599,1344.52 367.98,1343.7 
  369.378,1342.88 370.792,1342.05 372.223,1341.2 373.67,1340.35 375.134,1339.48 376.615,1338.61 378.113,1337.73 379.628,1336.83 381.16,1335.93 382.709,1335.01 
  384.276,1334.09 385.86,1333.15 387.461,1332.2 389.08,1331.24 390.717,1330.28 392.371,1329.3 394.044,1328.31 395.734,1327.3 397.442,1326.29 399.169,1325.27 
  400.914,1324.23 402.677,1323.19 404.459,1321.06 406.259,1319.98 408.078,1318.89 409.916,1317.79 411.773,1316.68 413.648,1315.55 415.543,1314.41 417.456,1313.27 
  419.389,1312.11 421.341,1310.93 423.313,1309.75 425.304,1308.55 427.315,1307.34 429.346,1306.12 431.396,1304.89 433.466,1303.64 435.556,1302.39 437.667,1301.12 
  439.797,1299.84 441.948,1298.54 444.119,1297.24 446.311,1295.92 448.523,1294.58 450.756,1293.24 453.01,1291.88 455.285,1290.51 457.58,1289.13 459.897,1287.73 
  462.234,1286.32 464.593,1284.9 466.974,1283.47 469.376,1282.02 471.799,1280.56 474.244,1279.08 476.711,1277.59 479.199,1276.09 481.71,1274.58 484.242,1273.05 
  486.797,1271.51 489.374,1269.95 491.973,1268.38 494.594,1266.8 497.238,1265.2 499.905,1263.59 502.594,1261.96 505.306,1260.32 508.041,1257 510.799,1255.32 
  513.581,1253.63 516.385,1251.92 519.212,1250.19 522.063,1248.45 524.938,1246.7 527.835,1244.93 530.757,1243.15 533.702,1241.35 536.672,1239.54 539.665,1237.72 
  542.682,1235.87 545.723,1234.02 548.789,1232.15 551.879,1230.26 554.993,1228.36 558.132,1226.44 561.295,1224.51 564.483,1222.56 567.696,1220.6 570.934,1218.62 
  574.197,1216.63 577.485,1214.62 580.798,1212.6 584.136,1210.56 587.5,1208.5 590.89,1206.43 594.304,1204.34 597.745,1202.24 601.211,1200.12 604.704,1197.99 
  608.222,1195.83 611.766,1193.67 615.336,1191.48 618.933,1189.28 622.556,1187.07 626.205,1184.84 629.881,1182.59 633.584,1180.32 637.313,1178.04 641.07,1175.74 
  644.853,1173.43 648.663,1171.1 652.5,1168.75 656.365,1166.38 660.256,1164 664.175,1161.6 668.122,1159.18 672.096,1156.75 676.098,1154.3 680.128,1151.83 
  684.186,1149.35 688.271,1146.85 692.385,1144.33 696.527,1141.79 700.697,1139.24 704.896,1136.66 709.123,1134.08 713.378,1131.47 717.663,1128.84 721.976,1126.2 
  726.317,1123.54 730.688,1120.86 735.088,1118.16 739.517,1115.45 743.975,1112.72 748.463,1109.97 752.979,1107.2 757.526,1104.41 762.102,1101.6 766.708,1098.78 
  771.343,1095.94 776.009,1093.08 780.704,1090.2 785.43,1087.3 790.186,1084.38 794.972,1081.45 799.788,1078.49 804.635,1075.52 809.513,1072.53 814.421,1069.52 
  819.36,1066.49 824.33,1063.44 829.331,1060.37 834.363,1057.28 839.426,1054.17 844.52,1051.05 849.646,1047.9 854.803,1044.73 859.991,1041.55 865.212,1038.34 
  870.464,1035.12 875.748,1031.88 881.063,1028.61 886.411,1025.33 891.791,1022.03 897.203,1018.7 902.648,1015.36 908.124,1012 913.634,1008.61 919.176,1005.21 
  924.75,1001.78 930.358,998.339 935.998,994.874 941.671,991.389 947.378,987.883 953.117,984.357 958.89,980.81 964.696,977.242 970.536,973.653 976.409,970.044 
  982.316,966.414 988.257,962.763 994.231,959.091 1000.24,955.398 1006.28,951.684 1012.36,947.949 1018.47,944.192 1024.61,940.415 1030.79,936.615 1037.01,932.795 
  1043.26,928.953 1049.54,925.089 1055.86,921.204 1062.21,917.297 1068.6,913.369 1075.02,909.419 1081.48,905.447 1087.98,901.453 1094.51,897.437 1101.07,893.399 
  1107.67,889.339 1114.31,885.257 1120.98,881.153 1127.69,877.026 1134.43,872.877 1141.21,868.706 1148.02,864.513 1154.88,860.297 1161.76,856.058 1168.69,851.797 
  1175.65,847.513 1182.65,843.206 1189.68,838.877 1196.75,834.525 1203.86,830.149 1211.01,825.751 1218.19,821.33 1225.41,816.886 1232.67,812.419 1239.96,807.928 
  1247.29,803.414 1254.66,798.877 1262.07,794.316 1269.52,789.732 1277,785.125 1284.52,780.494 1292.08,775.839 1299.68,771.16 1307.31,766.458 1314.99,761.732 
  1322.7,756.982 1330.45,752.209 1338.24,747.411 1346.07,742.589 1353.93,737.743 1361.84,732.873 1369.79,727.979 1377.77,723.06 1385.79,718.117 1393.86,713.15 
  1401.96,708.158 1410.1,703.142 1418.28,698.101 1426.5,693.035 1434.76,687.945 1443.07,682.83 1451.41,677.69 1459.79,672.525 1468.21,667.335 1476.67,662.12 
  1485.17,656.881 1493.71,651.616 1502.3,646.325 1510.92,641.01 1519.59,635.669 1528.29,630.303 1537.04,624.912 1545.82,619.495 1554.65,614.052 1563.52,608.584 
  1572.43,603.09 1581.39,597.57 1590.38,592.025 1599.42,586.454 1608.49,580.857 1617.61,575.234 1626.77,569.584 1635.98,563.909 1645.22,558.208 1654.51,552.48 
  1663.84,546.726 1673.21,540.946 1682.63,535.139 1692.08,529.306 1701.58,523.447 1711.13,517.561 1720.71,511.648 1730.34,505.708 1740.01,499.742 1749.73,493.749 
  1759.49,487.729 1769.29,481.682 1779.13,475.608 1789.02,469.507 1798.95,463.379 1808.93,457.224 1818.95,451.042 1829.01,444.832 1839.12,438.595 1849.27,432.33 
  1859.47,426.039 1869.71,419.719 1880,413.372 1890.32,406.997 1900.7,400.595 1911.12,394.164 1921.58,387.706 1932.09,381.22 1942.64,374.706 1953.24,368.164 
  1963.89,361.594 1974.58,354.996 1985.31,348.37 1996.09,341.715 2006.92,335.032 2017.79,328.321 2028.7,321.581 2039.67,321.581 2050.68,314.813 2061.73,308.016 
  2072.83,301.19 2083.98,294.336 2095.17,287.454 2106.41,280.542 2117.7,273.601 2129.03,266.632 2140.41,259.633 2151.84,252.606 2163.32,245.549 2174.84,238.464 
  2186.4,231.349 2198.02,224.205 2209.68,217.031 2221.39,209.828 2233.15,202.596 2244.96,195.334 2256.81,188.042 2268.71,180.721 2280.66,173.37 2292.65,165.99 
  
  "/>
<polygon clip-path="url(#clip6100)" points="
1580.65,1281.62 2280.76,1281.62 2280.76,1100.18 1580.65,1100.18 
  " fill="#ffffff" fill-rule="evenodd" fill-opacity="1"/>
<polyline clip-path="url(#clip6100)" style="stroke:#000000; stroke-width:4; stroke-opacity:1; fill:none" points="
  1580.65,1281.62 2280.76,1281.62 2280.76,1100.18 1580.65,1100.18 1580.65,1281.62 
  "/>
<polyline clip-path="url(#clip6100)" style="stroke:#009af9; stroke-width:4; stroke-opacity:1; fill:none" points="
  1604.65,1160.66 1748.65,1160.66 
  "/>
<g clip-path="url(#clip6100)">
<text style="fill:#000000; fill-opacity:1; font-family:Arial,Helvetica Neue,Helvetica,sans-serif; font-size:48px; text-anchor:start;" transform="rotate(0, 1772.65, 1178.16)" x="1772.65" y="1178.16">Unemployed in Boom</text>
</g>
<polyline clip-path="url(#clip6100)" style="stroke:#e26f46; stroke-width:4; stroke-opacity:1; fill:none" points="
  1604.65,1221.14 1748.65,1221.14 
  "/>
<g clip-path="url(#clip6100)">
<text style="fill:#000000; fill-opacity:1; font-family:Arial,Helvetica Neue,Helvetica,sans-serif; font-size:48px; text-anchor:start;" transform="rotate(0, 1772.65, 1238.64)" x="1772.65" y="1238.64">Unemployed in Bust</text>
</g>
</svg>
