<?xml version="1.0" encoding="utf-8"?>
<svg xmlns="http://www.w3.org/2000/svg" xmlns:xlink="http://www.w3.org/1999/xlink" width="600" height="400" viewBox="0 0 2400 1600">
<defs>
  <clipPath id="clip8100">
    <rect x="0" y="0" width="2400" height="1600"/>
  </clipPath>
</defs>
<polygon clip-path="url(#clip8100)" points="
0,1600 2400,1600 2400,0 0,0 
  " fill="#ffffff" fill-rule="evenodd" fill-opacity="1"/>
<defs>
  <clipPath id="clip8101">
    <rect x="480" y="0" width="1681" height="1600"/>
  </clipPath>
</defs>
<polygon clip-path="url(#clip8100)" points="
180.66,1487.47 2352.76,1487.47 2352.76,121.675 180.66,121.675 
  " fill="#ffffff" fill-rule="evenodd" fill-opacity="1"/>
<defs>
  <clipPath id="clip8102">
    <rect x="180" y="121" width="2173" height="1367"/>
  </clipPath>
</defs>
<polyline clip-path="url(#clip8102)" style="stroke:#000000; stroke-width:2; stroke-opacity:0.1; fill:none" points="
  209.084,1487.47 209.084,121.675 
  "/>
<polyline clip-path="url(#clip8102)" style="stroke:#000000; stroke-width:2; stroke-opacity:0.1; fill:none" points="
  539.592,1487.47 539.592,121.675 
  "/>
<polyline clip-path="url(#clip8102)" style="stroke:#000000; stroke-width:2; stroke-opacity:0.1; fill:none" points="
  870.099,1487.47 870.099,121.675 
  "/>
<polyline clip-path="url(#clip8102)" style="stroke:#000000; stroke-width:2; stroke-opacity:0.1; fill:none" points="
  1200.61,1487.47 1200.61,121.675 
  "/>
<polyline clip-path="url(#clip8102)" style="stroke:#000000; stroke-width:2; stroke-opacity:0.1; fill:none" points="
  1531.11,1487.47 1531.11,121.675 
  "/>
<polyline clip-path="url(#clip8102)" style="stroke:#000000; stroke-width:2; stroke-opacity:0.1; fill:none" points="
  1861.62,1487.47 1861.62,121.675 
  "/>
<polyline clip-path="url(#clip8102)" style="stroke:#000000; stroke-width:2; stroke-opacity:0.1; fill:none" points="
  2192.13,1487.47 2192.13,121.675 
  "/>
<polyline clip-path="url(#clip8102)" style="stroke:#000000; stroke-width:2; stroke-opacity:0.1; fill:none" points="
  180.66,1309.11 2352.76,1309.11 
  "/>
<polyline clip-path="url(#clip8102)" style="stroke:#000000; stroke-width:2; stroke-opacity:0.1; fill:none" points="
  180.66,1057.88 2352.76,1057.88 
  "/>
<polyline clip-path="url(#clip8102)" style="stroke:#000000; stroke-width:2; stroke-opacity:0.1; fill:none" points="
  180.66,806.658 2352.76,806.658 
  "/>
<polyline clip-path="url(#clip8102)" style="stroke:#000000; stroke-width:2; stroke-opacity:0.1; fill:none" points="
  180.66,555.433 2352.76,555.433 
  "/>
<polyline clip-path="url(#clip8102)" style="stroke:#000000; stroke-width:2; stroke-opacity:0.1; fill:none" points="
  180.66,304.207 2352.76,304.207 
  "/>
<polyline clip-path="url(#clip8100)" style="stroke:#000000; stroke-width:4; stroke-opacity:1; fill:none" points="
  180.66,1487.47 2352.76,1487.47 
  "/>
<polyline clip-path="url(#clip8100)" style="stroke:#000000; stroke-width:4; stroke-opacity:1; fill:none" points="
  180.66,1487.47 180.66,121.675 
  "/>
<polyline clip-path="url(#clip8100)" style="stroke:#000000; stroke-width:4; stroke-opacity:1; fill:none" points="
  209.084,1487.47 209.084,1466.99 
  "/>
<polyline clip-path="url(#clip8100)" style="stroke:#000000; stroke-width:4; stroke-opacity:1; fill:none" points="
  539.592,1487.47 539.592,1466.99 
  "/>
<polyline clip-path="url(#clip8100)" style="stroke:#000000; stroke-width:4; stroke-opacity:1; fill:none" points="
  870.099,1487.47 870.099,1466.99 
  "/>
<polyline clip-path="url(#clip8100)" style="stroke:#000000; stroke-width:4; stroke-opacity:1; fill:none" points="
  1200.61,1487.47 1200.61,1466.99 
  "/>
<polyline clip-path="url(#clip8100)" style="stroke:#000000; stroke-width:4; stroke-opacity:1; fill:none" points="
  1531.11,1487.47 1531.11,1466.99 
  "/>
<polyline clip-path="url(#clip8100)" style="stroke:#000000; stroke-width:4; stroke-opacity:1; fill:none" points="
  1861.62,1487.47 1861.62,1466.99 
  "/>
<polyline clip-path="url(#clip8100)" style="stroke:#000000; stroke-width:4; stroke-opacity:1; fill:none" points="
  2192.13,1487.47 2192.13,1466.99 
  "/>
<polyline clip-path="url(#clip8100)" style="stroke:#000000; stroke-width:4; stroke-opacity:1; fill:none" points="
  180.66,1309.11 213.242,1309.11 
  "/>
<polyline clip-path="url(#clip8100)" style="stroke:#000000; stroke-width:4; stroke-opacity:1; fill:none" points="
  180.66,1057.88 213.242,1057.88 
  "/>
<polyline clip-path="url(#clip8100)" style="stroke:#000000; stroke-width:4; stroke-opacity:1; fill:none" points="
  180.66,806.658 213.242,806.658 
  "/>
<polyline clip-path="url(#clip8100)" style="stroke:#000000; stroke-width:4; stroke-opacity:1; fill:none" points="
  180.66,555.433 213.242,555.433 
  "/>
<polyline clip-path="url(#clip8100)" style="stroke:#000000; stroke-width:4; stroke-opacity:1; fill:none" points="
  180.66,304.207 213.242,304.207 
  "/>
<g clip-path="url(#clip8100)">
<text style="fill:#000000; fill-opacity:1; font-family:Arial,Helvetica Neue,Helvetica,sans-serif; font-size:48px; text-anchor:middle;" transform="rotate(0, 209.084, 1541.47)" x="209.084" y="1541.47">0</text>
</g>
<g clip-path="url(#clip8100)">
<text style="fill:#000000; fill-opacity:1; font-family:Arial,Helvetica Neue,Helvetica,sans-serif; font-size:48px; text-anchor:middle;" transform="rotate(0, 539.592, 1541.47)" x="539.592" y="1541.47">10</text>
</g>
<g clip-path="url(#clip8100)">
<text style="fill:#000000; fill-opacity:1; font-family:Arial,Helvetica Neue,Helvetica,sans-serif; font-size:48px; text-anchor:middle;" transform="rotate(0, 870.099, 1541.47)" x="870.099" y="1541.47">20</text>
</g>
<g clip-path="url(#clip8100)">
<text style="fill:#000000; fill-opacity:1; font-family:Arial,Helvetica Neue,Helvetica,sans-serif; font-size:48px; text-anchor:middle;" transform="rotate(0, 1200.61, 1541.47)" x="1200.61" y="1541.47">30</text>
</g>
<g clip-path="url(#clip8100)">
<text style="fill:#000000; fill-opacity:1; font-family:Arial,Helvetica Neue,Helvetica,sans-serif; font-size:48px; text-anchor:middle;" transform="rotate(0, 1531.11, 1541.47)" x="1531.11" y="1541.47">40</text>
</g>
<g clip-path="url(#clip8100)">
<text style="fill:#000000; fill-opacity:1; font-family:Arial,Helvetica Neue,Helvetica,sans-serif; font-size:48px; text-anchor:middle;" transform="rotate(0, 1861.62, 1541.47)" x="1861.62" y="1541.47">50</text>
</g>
<g clip-path="url(#clip8100)">
<text style="fill:#000000; fill-opacity:1; font-family:Arial,Helvetica Neue,Helvetica,sans-serif; font-size:48px; text-anchor:middle;" transform="rotate(0, 2192.13, 1541.47)" x="2192.13" y="1541.47">60</text>
</g>
<g clip-path="url(#clip8100)">
<text style="fill:#000000; fill-opacity:1; font-family:Arial,Helvetica Neue,Helvetica,sans-serif; font-size:48px; text-anchor:end;" transform="rotate(0, 156.66, 1326.61)" x="156.66" y="1326.61">35.1</text>
</g>
<g clip-path="url(#clip8100)">
<text style="fill:#000000; fill-opacity:1; font-family:Arial,Helvetica Neue,Helvetica,sans-serif; font-size:48px; text-anchor:end;" transform="rotate(0, 156.66, 1075.38)" x="156.66" y="1075.38">35.4</text>
</g>
<g clip-path="url(#clip8100)">
<text style="fill:#000000; fill-opacity:1; font-family:Arial,Helvetica Neue,Helvetica,sans-serif; font-size:48px; text-anchor:end;" transform="rotate(0, 156.66, 824.158)" x="156.66" y="824.158">35.7</text>
</g>
<g clip-path="url(#clip8100)">
<text style="fill:#000000; fill-opacity:1; font-family:Arial,Helvetica Neue,Helvetica,sans-serif; font-size:48px; text-anchor:end;" transform="rotate(0, 156.66, 572.933)" x="156.66" y="572.933">36.0</text>
</g>
<g clip-path="url(#clip8100)">
<text style="fill:#000000; fill-opacity:1; font-family:Arial,Helvetica Neue,Helvetica,sans-serif; font-size:48px; text-anchor:end;" transform="rotate(0, 156.66, 321.707)" x="156.66" y="321.707">36.3</text>
</g>
<g clip-path="url(#clip8100)">
<text style="fill:#000000; fill-opacity:1; font-family:Arial,Helvetica Neue,Helvetica,sans-serif; font-size:84px; text-anchor:middle;" transform="rotate(0, 1266.71, 73.2)" x="1266.71" y="73.2">Observed and Predicted level of per capita Aggregate K in zb</text>
</g>
<polyline clip-path="url(#clip8102)" style="stroke:#009af9; stroke-width:4; stroke-opacity:1; fill:none" points="
  242.135,245.96 275.185,328.457 308.236,249.7 341.287,332.235 374.338,413.375 407.388,491.23 440.439,372.252 473.49,452.078 506.541,427.435 539.592,415.622 
  572.642,490.212 605.693,560.56 638.744,629.923 671.795,423.927 704.845,503.109 737.896,432.722 770.947,451.533 803.998,529.876 837.048,563.798 870.099,484.998 
  903.15,554.384 936.201,405.487 969.251,487.659 1002.3,566.946 1035.35,643.436 1068.4,718.389 1101.45,790.567 1134.51,863.652 1167.56,934.857 1200.61,1005.16 
  1233.66,1023.21 1266.71,1078.21 1299.76,1139.56 1332.81,1198.62 1365.86,792.087 1398.91,866.849 1431.96,938.031 1465.01,1008.25 1498.06,1076.7 1531.11,1140.83 
  1564.16,1202.42 1597.22,1265.91 1630.27,1327.63 1663.32,1389.52 1696.37,1448.82 1729.42,802.964 1762.47,886.081 1795.52,856.153 1828.57,929.974 1861.62,1002.44 
  1894.67,1074.73 1927.72,1143.66 1960.77,1210.47 1993.82,876.521 2026.88,953.574 2059.93,859.339 2092.98,937.729 2126.03,1012.74 2159.08,1085.32 2192.13,1156.13 
  2225.18,1221.66 2258.23,1288.46 2291.28,1353.95 
  "/>
<polyline clip-path="url(#clip8102)" style="stroke:#e26f46; stroke-width:4; stroke-opacity:1; fill:none" points="
  242.135,160.33 275.185,245.96 308.236,160.838 341.287,249.7 374.338,332.235 407.388,413.375 440.439,288.361 473.49,372.252 506.541,351.667 539.592,337.797 
  572.642,415.622 605.693,490.212 638.744,560.56 671.795,339.327 704.845,423.927 737.896,349.141 770.947,371.937 803.998,451.533 837.048,507.851 870.099,413.618 
  903.15,484.998 936.201,317.43 969.251,405.487 1002.3,487.659 1035.35,566.946 1068.4,643.436 1101.45,718.389 1134.51,790.567 1167.56,863.652 1200.61,934.857 
  1233.66,971.981 1266.71,1023.21 1299.76,1078.21 1332.81,1139.56 1365.86,714.963 1398.91,792.087 1431.96,866.849 1465.01,938.031 1498.06,1008.25 1531.11,1076.7 
  1564.16,1140.83 1597.22,1202.42 1630.27,1265.91 1663.32,1327.63 1696.37,1389.52 1729.42,716.214 1762.47,802.964 1795.52,778.45 1828.57,856.153 1861.62,929.974 
  1894.67,1002.44 1927.72,1074.73 1960.77,1143.66 1993.82,796.192 2026.88,876.521 2059.93,777.071 2092.98,859.339 2126.03,937.729 2159.08,1012.74 2192.13,1085.32 
  2225.18,1156.13 2258.23,1221.66 2291.28,1288.46 
  "/>
<polygon clip-path="url(#clip8100)" points="
1832.1,386.635 2280.76,386.635 2280.76,205.195 1832.1,205.195 
  " fill="#ffffff" fill-rule="evenodd" fill-opacity="1"/>
<polyline clip-path="url(#clip8100)" style="stroke:#000000; stroke-width:4; stroke-opacity:1; fill:none" points="
  1832.1,386.635 2280.76,386.635 2280.76,205.195 1832.1,205.195 1832.1,386.635 
  "/>
<polyline clip-path="url(#clip8100)" style="stroke:#009af9; stroke-width:4; stroke-opacity:1; fill:none" points="
  1856.1,265.675 2000.1,265.675 
  "/>
<g clip-path="url(#clip8100)">
<text style="fill:#000000; fill-opacity:1; font-family:Arial,Helvetica Neue,Helvetica,sans-serif; font-size:48px; text-anchor:start;" transform="rotate(0, 2024.1, 283.175)" x="2024.1" y="283.175">Observed</text>
</g>
<polyline clip-path="url(#clip8100)" style="stroke:#e26f46; stroke-width:4; stroke-opacity:1; fill:none" points="
  1856.1,326.155 2000.1,326.155 
  "/>
<g clip-path="url(#clip8100)">
<text style="fill:#000000; fill-opacity:1; font-family:Arial,Helvetica Neue,Helvetica,sans-serif; font-size:48px; text-anchor:start;" transform="rotate(0, 2024.1, 343.655)" x="2024.1" y="343.655">Predicted</text>
</g>
</svg>
