<?xml version="1.0" encoding="utf-8"?>
<svg xmlns="http://www.w3.org/2000/svg" xmlns:xlink="http://www.w3.org/1999/xlink" width="600" height="400" viewBox="0 0 2400 1600">
<defs>
  <clipPath id="clip0100">
    <rect x="0" y="0" width="2400" height="1600"/>
  </clipPath>
</defs>
<polygon clip-path="url(#clip0100)" points="
0,1600 2400,1600 2400,0 0,0 
  " fill="#ffffff" fill-rule="evenodd" fill-opacity="1"/>
<defs>
  <clipPath id="clip0101">
    <rect x="480" y="0" width="1681" height="1600"/>
  </clipPath>
</defs>
<polygon clip-path="url(#clip0100)" points="
180.66,1487.47 2352.76,1487.47 2352.76,121.675 180.66,121.675 
  " fill="#ffffff" fill-rule="evenodd" fill-opacity="1"/>
<defs>
  <clipPath id="clip0102">
    <rect x="180" y="121" width="2173" height="1367"/>
  </clipPath>
</defs>
<polyline clip-path="url(#clip0102)" style="stroke:#000000; stroke-width:2; stroke-opacity:0.1; fill:none" points="
  241.807,1487.47 241.807,121.675 
  "/>
<polyline clip-path="url(#clip0102)" style="stroke:#000000; stroke-width:2; stroke-opacity:0.1; fill:none" points="
  569.677,1487.47 569.677,121.675 
  "/>
<polyline clip-path="url(#clip0102)" style="stroke:#000000; stroke-width:2; stroke-opacity:0.1; fill:none" points="
  897.547,1487.47 897.547,121.675 
  "/>
<polyline clip-path="url(#clip0102)" style="stroke:#000000; stroke-width:2; stroke-opacity:0.1; fill:none" points="
  1225.42,1487.47 1225.42,121.675 
  "/>
<polyline clip-path="url(#clip0102)" style="stroke:#000000; stroke-width:2; stroke-opacity:0.1; fill:none" points="
  1553.29,1487.47 1553.29,121.675 
  "/>
<polyline clip-path="url(#clip0102)" style="stroke:#000000; stroke-width:2; stroke-opacity:0.1; fill:none" points="
  1881.16,1487.47 1881.16,121.675 
  "/>
<polyline clip-path="url(#clip0102)" style="stroke:#000000; stroke-width:2; stroke-opacity:0.1; fill:none" points="
  2209.03,1487.47 2209.03,121.675 
  "/>
<polyline clip-path="url(#clip0102)" style="stroke:#000000; stroke-width:2; stroke-opacity:0.1; fill:none" points="
  180.66,1448.82 2352.76,1448.82 
  "/>
<polyline clip-path="url(#clip0102)" style="stroke:#000000; stroke-width:2; stroke-opacity:0.1; fill:none" points="
  180.66,1126.7 2352.76,1126.7 
  "/>
<polyline clip-path="url(#clip0102)" style="stroke:#000000; stroke-width:2; stroke-opacity:0.1; fill:none" points="
  180.66,804.575 2352.76,804.575 
  "/>
<polyline clip-path="url(#clip0102)" style="stroke:#000000; stroke-width:2; stroke-opacity:0.1; fill:none" points="
  180.66,482.452 2352.76,482.452 
  "/>
<polyline clip-path="url(#clip0102)" style="stroke:#000000; stroke-width:2; stroke-opacity:0.1; fill:none" points="
  180.66,160.33 2352.76,160.33 
  "/>
<polyline clip-path="url(#clip0100)" style="stroke:#000000; stroke-width:4; stroke-opacity:1; fill:none" points="
  180.66,1487.47 2352.76,1487.47 
  "/>
<polyline clip-path="url(#clip0100)" style="stroke:#000000; stroke-width:4; stroke-opacity:1; fill:none" points="
  180.66,1487.47 180.66,121.675 
  "/>
<polyline clip-path="url(#clip0100)" style="stroke:#000000; stroke-width:4; stroke-opacity:1; fill:none" points="
  241.807,1487.47 241.807,1466.99 
  "/>
<polyline clip-path="url(#clip0100)" style="stroke:#000000; stroke-width:4; stroke-opacity:1; fill:none" points="
  569.677,1487.47 569.677,1466.99 
  "/>
<polyline clip-path="url(#clip0100)" style="stroke:#000000; stroke-width:4; stroke-opacity:1; fill:none" points="
  897.547,1487.47 897.547,1466.99 
  "/>
<polyline clip-path="url(#clip0100)" style="stroke:#000000; stroke-width:4; stroke-opacity:1; fill:none" points="
  1225.42,1487.47 1225.42,1466.99 
  "/>
<polyline clip-path="url(#clip0100)" style="stroke:#000000; stroke-width:4; stroke-opacity:1; fill:none" points="
  1553.29,1487.47 1553.29,1466.99 
  "/>
<polyline clip-path="url(#clip0100)" style="stroke:#000000; stroke-width:4; stroke-opacity:1; fill:none" points="
  1881.16,1487.47 1881.16,1466.99 
  "/>
<polyline clip-path="url(#clip0100)" style="stroke:#000000; stroke-width:4; stroke-opacity:1; fill:none" points="
  2209.03,1487.47 2209.03,1466.99 
  "/>
<polyline clip-path="url(#clip0100)" style="stroke:#000000; stroke-width:4; stroke-opacity:1; fill:none" points="
  180.66,1448.82 213.242,1448.82 
  "/>
<polyline clip-path="url(#clip0100)" style="stroke:#000000; stroke-width:4; stroke-opacity:1; fill:none" points="
  180.66,1126.7 213.242,1126.7 
  "/>
<polyline clip-path="url(#clip0100)" style="stroke:#000000; stroke-width:4; stroke-opacity:1; fill:none" points="
  180.66,804.575 213.242,804.575 
  "/>
<polyline clip-path="url(#clip0100)" style="stroke:#000000; stroke-width:4; stroke-opacity:1; fill:none" points="
  180.66,482.452 213.242,482.452 
  "/>
<polyline clip-path="url(#clip0100)" style="stroke:#000000; stroke-width:4; stroke-opacity:1; fill:none" points="
  180.66,160.33 213.242,160.33 
  "/>
<g clip-path="url(#clip0100)">
<text style="fill:#000000; fill-opacity:1; font-family:Arial,Helvetica Neue,Helvetica,sans-serif; font-size:48px; text-anchor:middle;" transform="rotate(0, 241.807, 1541.47)" x="241.807" y="1541.47">0</text>
</g>
<g clip-path="url(#clip0100)">
<text style="fill:#000000; fill-opacity:1; font-family:Arial,Helvetica Neue,Helvetica,sans-serif; font-size:48px; text-anchor:middle;" transform="rotate(0, 569.677, 1541.47)" x="569.677" y="1541.47">10</text>
</g>
<g clip-path="url(#clip0100)">
<text style="fill:#000000; fill-opacity:1; font-family:Arial,Helvetica Neue,Helvetica,sans-serif; font-size:48px; text-anchor:middle;" transform="rotate(0, 897.547, 1541.47)" x="897.547" y="1541.47">20</text>
</g>
<g clip-path="url(#clip0100)">
<text style="fill:#000000; fill-opacity:1; font-family:Arial,Helvetica Neue,Helvetica,sans-serif; font-size:48px; text-anchor:middle;" transform="rotate(0, 1225.42, 1541.47)" x="1225.42" y="1541.47">30</text>
</g>
<g clip-path="url(#clip0100)">
<text style="fill:#000000; fill-opacity:1; font-family:Arial,Helvetica Neue,Helvetica,sans-serif; font-size:48px; text-anchor:middle;" transform="rotate(0, 1553.29, 1541.47)" x="1553.29" y="1541.47">40</text>
</g>
<g clip-path="url(#clip0100)">
<text style="fill:#000000; fill-opacity:1; font-family:Arial,Helvetica Neue,Helvetica,sans-serif; font-size:48px; text-anchor:middle;" transform="rotate(0, 1881.16, 1541.47)" x="1881.16" y="1541.47">50</text>
</g>
<g clip-path="url(#clip0100)">
<text style="fill:#000000; fill-opacity:1; font-family:Arial,Helvetica Neue,Helvetica,sans-serif; font-size:48px; text-anchor:middle;" transform="rotate(0, 2209.03, 1541.47)" x="2209.03" y="1541.47">60</text>
</g>
<g clip-path="url(#clip0100)">
<text style="fill:#000000; fill-opacity:1; font-family:Arial,Helvetica Neue,Helvetica,sans-serif; font-size:48px; text-anchor:end;" transform="rotate(0, 156.66, 1466.32)" x="156.66" y="1466.32">0.00</text>
</g>
<g clip-path="url(#clip0100)">
<text style="fill:#000000; fill-opacity:1; font-family:Arial,Helvetica Neue,Helvetica,sans-serif; font-size:48px; text-anchor:end;" transform="rotate(0, 156.66, 1144.2)" x="156.66" y="1144.2">0.25</text>
</g>
<g clip-path="url(#clip0100)">
<text style="fill:#000000; fill-opacity:1; font-family:Arial,Helvetica Neue,Helvetica,sans-serif; font-size:48px; text-anchor:end;" transform="rotate(0, 156.66, 822.075)" x="156.66" y="822.075">0.50</text>
</g>
<g clip-path="url(#clip0100)">
<text style="fill:#000000; fill-opacity:1; font-family:Arial,Helvetica Neue,Helvetica,sans-serif; font-size:48px; text-anchor:end;" transform="rotate(0, 156.66, 499.952)" x="156.66" y="499.952">0.75</text>
</g>
<g clip-path="url(#clip0100)">
<text style="fill:#000000; fill-opacity:1; font-family:Arial,Helvetica Neue,Helvetica,sans-serif; font-size:48px; text-anchor:end;" transform="rotate(0, 156.66, 177.83)" x="156.66" y="177.83">1.00</text>
</g>
<g clip-path="url(#clip0100)">
<text style="fill:#000000; fill-opacity:1; font-family:Arial,Helvetica Neue,Helvetica,sans-serif; font-size:84px; text-anchor:middle;" transform="rotate(0, 1266.71, 73.2)" x="1266.71" y="73.2">CDF asset holdings at low levels of asset</text>
</g>
<polyline clip-path="url(#clip0102)" style="stroke:#009af9; stroke-width:4; stroke-opacity:1; fill:none" points="
  242.135,1448.82 242.136,1448.82 242.138,1448.82 242.143,1448.82 242.151,1448.82 242.163,1448.82 242.18,1448.82 242.202,1448.82 242.23,1448.82 242.266,1448.82 
  242.309,1448.82 242.361,1448.82 242.423,1448.82 242.494,1448.82 242.577,1448.82 242.672,1448.82 242.779,1448.82 242.899,1448.82 243.034,1448.82 243.184,1448.56 
  243.349,1448.56 243.531,1448.56 243.73,1448.56 243.948,1448.56 244.184,1448.56 244.44,1448.56 244.716,1448.56 245.013,1448.56 245.333,1448.56 245.676,1448.56 
  246.042,1448.3 246.432,1448.3 246.848,1448.05 247.289,1448.05 247.757,1447.79 248.253,1447.53 248.777,1447.02 249.331,1447.02 249.914,1447.02 250.528,1447.02 
  251.173,1447.02 251.851,1447.02 252.562,1447.02 253.306,1446.76 254.085,1446.76 254.9,1446.76 255.75,1446.5 256.638,1445.73 257.564,1445.73 258.528,1445.73 
  259.531,1445.73 260.575,1445.21 261.659,1444.95 262.785,1444.95 263.954,1444.7 265.166,1444.44 266.422,1444.18 267.723,1444.18 269.069,1444.18 270.462,1444.18 
  271.902,1444.18 273.39,1443.92 274.927,1443.67 276.514,1442.38 278.15,1442.38 279.838,1442.12 281.578,1441.6 283.371,1441.09 285.217,1440.57 287.117,1440.32 
  289.073,1439.8 291.084,1439.03 293.152,1438.51 295.278,1437.48 297.462,1436.19 299.704,1434.9 302.007,1434.65 304.37,1434.13 306.794,1433.62 309.281,1432.59 
  311.831,1431.81 314.444,1431.04 317.122,1429.23 319.865,1427.95 322.674,1426.4 325.55,1426.14 328.494,1424.6 331.507,1424.34 334.588,1421.76 337.74,1418.67 
  340.962,1415.32 344.256,1413.26 347.622,1410.68 351.062,1409.39 354.575,1407.85 358.164,1405.78 361.827,1403.72 365.568,1399.08 369.385,1395.22 373.28,1392.13 
  377.254,1390.32 381.307,1386.97 385.441,1383.11 389.655,1379.24 393.952,1376.15 398.331,1370.74 402.793,1368.42 407.34,1366.36 411.972,1360.43 416.689,1356.82 
  421.493,1353.73 426.384,1347.03 431.364,1345.23 436.432,1341.88 441.59,1339.3 446.839,1334.66 452.179,1329.51 457.611,1323.32 463.135,1317.65 468.754,1313.01 
  474.467,1309.15 480.275,1304.77 486.179,1297.04 492.18,1291.37 498.278,1286.99 504.475,1284.92 510.771,1280.03 517.166,1275.65 523.663,1271.52 530.261,1267.92 
  536.961,1262.5 543.765,1259.15 550.672,1252.71 557.684,1246.53 564.801,1241.89 572.025,1236.73 579.356,1233.38 586.794,1232.1 594.341,1229.26 601.998,1224.37 
  609.764,1223.08 617.642,1219.98 625.631,1217.92 633.733,1215.6 641.948,1212.77 650.277,1211.22 658.721,1208.39 667.281,1206.84 675.957,1204.78 684.75,1203.49 
  693.662,1202.2 702.692,1200.91 711.842,1200.66 721.112,1199.63 730.504,1198.6 740.017,1198.6 749.653,1198.34 759.413,1197.31 769.297,1196.28 779.306,1195.5 
  789.441,1194.73 799.703,1194.21 810.092,1194.21 820.61,1193.7 831.256,1193.18 842.032,1193.18 852.939,1193.18 863.978,1192.67 875.148,1191.9 886.452,1191.38 
  897.889,1190.86 909.461,1190.35 921.168,1189.83 933.012,1189.32 944.992,1188.8 957.11,1187.77 969.366,1187 981.762,1049.9 994.298,1049.9 1006.97,1049.9 
  1019.79,1049.65 1032.75,1049.65 1045.86,1045.78 1059.11,1045.01 1072.5,1045.01 1086.04,1043.98 1099.72,1043.98 1113.55,1042.17 1127.53,1041.91 1141.66,1041.4 
  1155.94,1040.88 1170.37,1040.88 1184.95,1039.08 1199.68,1038.31 1214.56,1038.31 1229.6,1038.05 1244.79,1038.05 1260.14,1035.73 1275.64,1035.21 1291.3,1035.21 
  1307.11,1034.7 1323.09,1034.7 1339.22,1032.38 1355.51,1032.38 1371.97,1032.38 1388.58,1031.61 1405.36,1028 1422.3,1028 1439.4,1027.74 1456.67,1027.48 
  1474.11,1024.39 1491.7,1023.62 1509.47,1023.62 1527.4,1022.33 1545.51,1017.95 1563.78,1017.95 1582.22,1017.95 1600.83,1017.18 1619.61,1010.73 1638.57,1010.73 
  1657.7,1010.73 1677,1009.7 1696.48,992.694 1716.13,992.694 1735.96,992.694 1755.97,911.004 1776.15,160.33 1796.52,160.33 1817.06,160.33 1837.78,160.33 
  1858.68,160.33 1879.77,160.33 1901.04,160.33 1922.49,160.33 1944.12,160.33 1965.94,160.33 1987.95,160.33 2010.14,160.33 2032.52,160.33 2055.09,160.33 
  2077.85,160.33 2100.79,160.33 2123.93,160.33 2147.26,160.33 2170.78,160.33 2194.49,160.33 2218.39,160.33 2242.49,160.33 2266.79,160.33 2291.28,160.33 
  
  "/>
<polyline clip-path="url(#clip0102)" style="stroke:#e26f46; stroke-width:4; stroke-opacity:1; fill:none" points="
  242.135,1448.82 242.136,1448.82 242.138,1448.82 242.143,1448.82 242.151,1448.82 242.163,1448.82 242.18,1448.82 242.202,1448.82 242.23,1448.82 242.266,1448.82 
  242.309,1448.82 242.361,1448.82 242.423,1448.82 242.494,1448.82 242.577,1448.82 242.672,1448.82 242.779,1448.82 242.899,1448.82 243.034,1448.82 243.184,1448.05 
  243.349,1447.79 243.531,1447.27 243.73,1447.27 243.948,1447.02 244.184,1446.5 244.44,1446.5 244.716,1445.99 245.013,1445.99 245.333,1445.99 245.676,1445.99 
  246.042,1445.73 246.432,1445.73 246.848,1445.47 247.289,1444.95 247.757,1444.95 248.253,1444.7 248.777,1444.7 249.331,1444.18 249.914,1443.92 250.528,1442.64 
  251.173,1442.38 251.851,1442.38 252.562,1441.86 253.306,1441.86 254.085,1441.35 254.9,1441.09 255.75,1441.09 256.638,1439.29 257.564,1439.29 258.528,1439.29 
  259.531,1438.51 260.575,1438.25 261.659,1437.48 262.785,1436.97 263.954,1436.19 265.166,1436.19 266.422,1435.42 267.723,1434.9 269.069,1434.39 270.462,1433.62 
  271.902,1433.1 273.39,1432.07 274.927,1430.01 276.514,1427.17 278.15,1426.66 279.838,1425.88 281.578,1423.82 283.371,1422.28 285.217,1420.99 287.117,1419.96 
  289.073,1418.41 291.084,1416.35 293.152,1414.8 295.278,1414.29 297.462,1412.23 299.704,1409.65 302.007,1407.07 304.37,1403.72 306.794,1400.89 309.281,1399.86 
  311.831,1396.77 314.444,1395.99 317.122,1393.16 319.865,1391.35 322.674,1390.06 325.55,1386.46 328.494,1385.17 331.507,1381.3 334.588,1379.5 337.74,1378.21 
  340.962,1376.15 344.256,1370.74 347.622,1368.42 351.062,1365.07 354.575,1362.75 358.164,1358.37 361.827,1354.24 365.568,1351.67 369.385,1349.61 373.28,1347.29 
  377.254,1340.84 381.307,1338.53 385.441,1335.18 389.655,1333.63 393.952,1326.67 398.331,1324.87 402.793,1321 407.34,1314.56 411.972,1311.98 416.689,1309.92 
  421.493,1302.45 426.384,1298.84 431.364,1296.78 436.432,1291.37 441.59,1288.53 446.839,1286.21 452.179,1281.57 457.611,1276.68 463.135,1272.81 468.754,1271.01 
  474.467,1267.4 480.275,1263.02 486.179,1260.96 492.18,1258.64 498.278,1254.26 504.475,1249.36 510.771,1245.5 517.166,1242.15 523.663,1239.31 530.261,1235.7 
  536.961,1233.9 543.765,1231.32 550.672,1229.26 557.684,1225.4 564.801,1223.59 572.025,1219.47 579.356,1216.89 586.794,1213.28 594.341,1211.48 601.998,1209.42 
  609.764,1207.1 617.642,1204.26 625.631,1203.49 633.733,1198.6 641.948,1196.02 650.277,1193.7 658.721,1191.12 667.281,1190.61 675.957,1189.58 684.75,1188.8 
  693.662,1188.8 702.692,1184.42 711.842,1181.07 721.112,1177.72 730.504,1174.37 740.017,1173.6 749.653,1172.83 759.413,1171.79 769.297,1165.61 779.306,1161.49 
  789.441,1156.59 799.703,1152.21 810.092,1150.15 820.61,1149.37 831.256,1147.83 842.032,1137.26 852.939,1132.37 863.978,1129.02 875.148,1116.65 886.452,1116.39 
  897.889,1115.87 909.461,1092.94 921.168,1092.94 933.012,1092.42 944.992,1091.65 957.11,1091.65 969.366,1090.88 981.762,1049.9 994.298,1049.9 1006.97,1049.9 
  1019.79,1049.65 1032.75,1049.65 1045.86,1046.04 1059.11,1045.26 1072.5,1045.26 1086.04,1044.23 1099.72,1044.23 1113.55,1042.17 1127.53,1041.91 1141.66,1041.4 
  1155.94,1040.88 1170.37,1040.88 1184.95,1039.08 1199.68,1038.31 1214.56,1038.31 1229.6,1038.05 1244.79,1038.05 1260.14,1035.73 1275.64,1035.21 1291.3,1035.21 
  1307.11,1034.7 1323.09,1034.7 1339.22,1032.38 1355.51,1032.38 1371.97,1032.38 1388.58,1031.61 1405.36,1028 1422.3,1028 1439.4,1027.74 1456.67,1027.48 
  1474.11,1024.39 1491.7,1023.62 1509.47,1023.62 1527.4,1022.33 1545.51,1017.95 1563.78,1017.95 1582.22,1017.95 1600.83,1017.18 1619.61,1010.73 1638.57,1010.73 
  1657.7,1010.73 1677,1009.7 1696.48,992.694 1716.13,992.694 1735.96,992.694 1755.97,911.004 1776.15,160.33 1796.52,160.33 1817.06,160.33 1837.78,160.33 
  1858.68,160.33 1879.77,160.33 1901.04,160.33 1922.49,160.33 1944.12,160.33 1965.94,160.33 1987.95,160.33 2010.14,160.33 2032.52,160.33 2055.09,160.33 
  2077.85,160.33 2100.79,160.33 2123.93,160.33 2147.26,160.33 2170.78,160.33 2194.49,160.33 2218.39,160.33 2242.49,160.33 2266.79,160.33 2291.28,160.33 
  
  "/>
<polygon clip-path="url(#clip0100)" points="
1915.03,1343.47 2280.76,1343.47 2280.76,1162.03 1915.03,1162.03 
  " fill="#ffffff" fill-rule="evenodd" fill-opacity="1"/>
<polyline clip-path="url(#clip0100)" style="stroke:#000000; stroke-width:4; stroke-opacity:1; fill:none" points="
  1915.03,1343.47 2280.76,1343.47 2280.76,1162.03 1915.03,1162.03 1915.03,1343.47 
  "/>
<polyline clip-path="url(#clip0100)" style="stroke:#009af9; stroke-width:4; stroke-opacity:1; fill:none" points="
  1939.03,1222.51 2083.03,1222.51 
  "/>
<g clip-path="url(#clip0100)">
<text style="fill:#000000; fill-opacity:1; font-family:Arial,Helvetica Neue,Helvetica,sans-serif; font-size:48px; text-anchor:start;" transform="rotate(0, 2107.03, 1240.01)" x="2107.03" y="1240.01">Boom</text>
</g>
<polyline clip-path="url(#clip0100)" style="stroke:#e26f46; stroke-width:4; stroke-opacity:1; fill:none" points="
  1939.03,1282.99 2083.03,1282.99 
  "/>
<g clip-path="url(#clip0100)">
<text style="fill:#000000; fill-opacity:1; font-family:Arial,Helvetica Neue,Helvetica,sans-serif; font-size:48px; text-anchor:start;" transform="rotate(0, 2107.03, 1300.49)" x="2107.03" y="1300.49">Bust</text>
</g>
</svg>
