<?xml version="1.0" encoding="utf-8"?>
<svg xmlns="http://www.w3.org/2000/svg" xmlns:xlink="http://www.w3.org/1999/xlink" width="600" height="400" viewBox="0 0 2400 1600">
<defs>
  <clipPath id="clip7600">
    <rect x="0" y="0" width="2400" height="1600"/>
  </clipPath>
</defs>
<polygon clip-path="url(#clip7600)" points="
0,1600 2400,1600 2400,0 0,0 
  " fill="#ffffff" fill-rule="evenodd" fill-opacity="1"/>
<defs>
  <clipPath id="clip7601">
    <rect x="480" y="0" width="1681" height="1600"/>
  </clipPath>
</defs>
<polygon clip-path="url(#clip7600)" points="
180.66,1487.47 2352.76,1487.47 2352.76,121.675 180.66,121.675 
  " fill="#ffffff" fill-rule="evenodd" fill-opacity="1"/>
<defs>
  <clipPath id="clip7602">
    <rect x="180" y="121" width="2173" height="1367"/>
  </clipPath>
</defs>
<polyline clip-path="url(#clip7602)" style="stroke:#000000; stroke-width:2; stroke-opacity:0.1; fill:none" points="
  424.161,1487.47 424.161,121.675 
  "/>
<polyline clip-path="url(#clip7602)" style="stroke:#000000; stroke-width:2; stroke-opacity:0.1; fill:none" points="
  761.18,1487.47 761.18,121.675 
  "/>
<polyline clip-path="url(#clip7602)" style="stroke:#000000; stroke-width:2; stroke-opacity:0.1; fill:none" points="
  1098.2,1487.47 1098.2,121.675 
  "/>
<polyline clip-path="url(#clip7602)" style="stroke:#000000; stroke-width:2; stroke-opacity:0.1; fill:none" points="
  1435.22,1487.47 1435.22,121.675 
  "/>
<polyline clip-path="url(#clip7602)" style="stroke:#000000; stroke-width:2; stroke-opacity:0.1; fill:none" points="
  1772.24,1487.47 1772.24,121.675 
  "/>
<polyline clip-path="url(#clip7602)" style="stroke:#000000; stroke-width:2; stroke-opacity:0.1; fill:none" points="
  2109.26,1487.47 2109.26,121.675 
  "/>
<polyline clip-path="url(#clip7602)" style="stroke:#000000; stroke-width:2; stroke-opacity:0.1; fill:none" points="
  180.66,1448.82 2352.76,1448.82 
  "/>
<polyline clip-path="url(#clip7602)" style="stroke:#000000; stroke-width:2; stroke-opacity:0.1; fill:none" points="
  180.66,1159.1 2352.76,1159.1 
  "/>
<polyline clip-path="url(#clip7602)" style="stroke:#000000; stroke-width:2; stroke-opacity:0.1; fill:none" points="
  180.66,869.375 2352.76,869.375 
  "/>
<polyline clip-path="url(#clip7602)" style="stroke:#000000; stroke-width:2; stroke-opacity:0.1; fill:none" points="
  180.66,579.653 2352.76,579.653 
  "/>
<polyline clip-path="url(#clip7602)" style="stroke:#000000; stroke-width:2; stroke-opacity:0.1; fill:none" points="
  180.66,289.93 2352.76,289.93 
  "/>
<polyline clip-path="url(#clip7600)" style="stroke:#000000; stroke-width:4; stroke-opacity:1; fill:none" points="
  180.66,1487.47 2352.76,1487.47 
  "/>
<polyline clip-path="url(#clip7600)" style="stroke:#000000; stroke-width:4; stroke-opacity:1; fill:none" points="
  180.66,1487.47 180.66,121.675 
  "/>
<polyline clip-path="url(#clip7600)" style="stroke:#000000; stroke-width:4; stroke-opacity:1; fill:none" points="
  424.161,1487.47 424.161,1466.99 
  "/>
<polyline clip-path="url(#clip7600)" style="stroke:#000000; stroke-width:4; stroke-opacity:1; fill:none" points="
  761.18,1487.47 761.18,1466.99 
  "/>
<polyline clip-path="url(#clip7600)" style="stroke:#000000; stroke-width:4; stroke-opacity:1; fill:none" points="
  1098.2,1487.47 1098.2,1466.99 
  "/>
<polyline clip-path="url(#clip7600)" style="stroke:#000000; stroke-width:4; stroke-opacity:1; fill:none" points="
  1435.22,1487.47 1435.22,1466.99 
  "/>
<polyline clip-path="url(#clip7600)" style="stroke:#000000; stroke-width:4; stroke-opacity:1; fill:none" points="
  1772.24,1487.47 1772.24,1466.99 
  "/>
<polyline clip-path="url(#clip7600)" style="stroke:#000000; stroke-width:4; stroke-opacity:1; fill:none" points="
  2109.26,1487.47 2109.26,1466.99 
  "/>
<polyline clip-path="url(#clip7600)" style="stroke:#000000; stroke-width:4; stroke-opacity:1; fill:none" points="
  180.66,1448.82 213.242,1448.82 
  "/>
<polyline clip-path="url(#clip7600)" style="stroke:#000000; stroke-width:4; stroke-opacity:1; fill:none" points="
  180.66,1159.1 213.242,1159.1 
  "/>
<polyline clip-path="url(#clip7600)" style="stroke:#000000; stroke-width:4; stroke-opacity:1; fill:none" points="
  180.66,869.375 213.242,869.375 
  "/>
<polyline clip-path="url(#clip7600)" style="stroke:#000000; stroke-width:4; stroke-opacity:1; fill:none" points="
  180.66,579.653 213.242,579.653 
  "/>
<polyline clip-path="url(#clip7600)" style="stroke:#000000; stroke-width:4; stroke-opacity:1; fill:none" points="
  180.66,289.93 213.242,289.93 
  "/>
<g clip-path="url(#clip7600)">
<text style="fill:#000000; fill-opacity:1; font-family:Arial,Helvetica Neue,Helvetica,sans-serif; font-size:48px; text-anchor:middle;" transform="rotate(0, 424.161, 1541.47)" x="424.161" y="1541.47">0</text>
</g>
<g clip-path="url(#clip7600)">
<text style="fill:#000000; fill-opacity:1; font-family:Arial,Helvetica Neue,Helvetica,sans-serif; font-size:48px; text-anchor:middle;" transform="rotate(0, 761.18, 1541.47)" x="761.18" y="1541.47">5</text>
</g>
<g clip-path="url(#clip7600)">
<text style="fill:#000000; fill-opacity:1; font-family:Arial,Helvetica Neue,Helvetica,sans-serif; font-size:48px; text-anchor:middle;" transform="rotate(0, 1098.2, 1541.47)" x="1098.2" y="1541.47">10</text>
</g>
<g clip-path="url(#clip7600)">
<text style="fill:#000000; fill-opacity:1; font-family:Arial,Helvetica Neue,Helvetica,sans-serif; font-size:48px; text-anchor:middle;" transform="rotate(0, 1435.22, 1541.47)" x="1435.22" y="1541.47">15</text>
</g>
<g clip-path="url(#clip7600)">
<text style="fill:#000000; fill-opacity:1; font-family:Arial,Helvetica Neue,Helvetica,sans-serif; font-size:48px; text-anchor:middle;" transform="rotate(0, 1772.24, 1541.47)" x="1772.24" y="1541.47">20</text>
</g>
<g clip-path="url(#clip7600)">
<text style="fill:#000000; fill-opacity:1; font-family:Arial,Helvetica Neue,Helvetica,sans-serif; font-size:48px; text-anchor:middle;" transform="rotate(0, 2109.26, 1541.47)" x="2109.26" y="1541.47">25</text>
</g>
<g clip-path="url(#clip7600)">
<text style="fill:#000000; fill-opacity:1; font-family:Arial,Helvetica Neue,Helvetica,sans-serif; font-size:48px; text-anchor:end;" transform="rotate(0, 156.66, 1466.32)" x="156.66" y="1466.32">0.00</text>
</g>
<g clip-path="url(#clip7600)">
<text style="fill:#000000; fill-opacity:1; font-family:Arial,Helvetica Neue,Helvetica,sans-serif; font-size:48px; text-anchor:end;" transform="rotate(0, 156.66, 1176.6)" x="156.66" y="1176.6">0.02</text>
</g>
<g clip-path="url(#clip7600)">
<text style="fill:#000000; fill-opacity:1; font-family:Arial,Helvetica Neue,Helvetica,sans-serif; font-size:48px; text-anchor:end;" transform="rotate(0, 156.66, 886.875)" x="156.66" y="886.875">0.04</text>
</g>
<g clip-path="url(#clip7600)">
<text style="fill:#000000; fill-opacity:1; font-family:Arial,Helvetica Neue,Helvetica,sans-serif; font-size:48px; text-anchor:end;" transform="rotate(0, 156.66, 597.153)" x="156.66" y="597.153">0.06</text>
</g>
<g clip-path="url(#clip7600)">
<text style="fill:#000000; fill-opacity:1; font-family:Arial,Helvetica Neue,Helvetica,sans-serif; font-size:48px; text-anchor:end;" transform="rotate(0, 156.66, 307.43)" x="156.66" y="307.43">0.08</text>
</g>
<g clip-path="url(#clip7600)">
<text style="fill:#000000; fill-opacity:1; font-family:Arial,Helvetica Neue,Helvetica,sans-serif; font-size:84px; text-anchor:middle;" transform="rotate(0, 1266.71, 73.2)" x="1266.71" y="73.2">Change of Asset PDF as variance of income shock changes</text>
</g>
<polyline clip-path="url(#clip7602)" style="stroke:#009af9; stroke-width:8; stroke-opacity:1; fill:none" points="
  273.472,1448.82 277.453,1448.82 281.434,1448.82 285.415,1448.82 289.396,1448.82 293.377,1448.82 297.358,1448.82 301.338,1448.82 305.319,1448.82 309.3,1448.82 
  313.281,1448.82 317.262,1448.82 321.243,1448.82 325.224,1448.82 329.205,1448.82 333.186,1448.82 337.167,1448.82 341.148,1448.82 345.128,1448.82 349.109,1448.38 
  353.09,1446.95 357.071,1444.28 361.052,1440.13 365.033,1434.08 369.014,1425.83 372.995,1415.21 376.976,1402.12 380.957,1386.57 384.938,1368.77 388.918,1348.71 
  392.899,1326.38 396.88,1301.75 400.861,1274.76 404.842,1245.87 408.823,1215.19 412.804,1182.77 416.785,1149.15 420.766,1114.31 424.747,1078.23 428.727,1041.32 
  432.708,1004.01 436.689,966.708 440.67,929.677 444.651,893.288 448.632,857.757 452.613,823.166 456.594,789.82 460.575,757.934 464.556,728.129 468.537,700.841 
  472.517,675.771 476.498,652.712 480.479,631.478 484.46,612.348 488.441,595.258 492.422,579.517 496.403,565.251 500.384,552.327 504.365,539.733 508.346,527.609 
  512.326,516.203 516.307,504.736 520.288,493.378 524.269,481.997 528.25,470.584 532.231,459.535 536.212,449.255 540.193,439.764 544.174,429.617 548.155,418.633 
  552.136,407.5 556.116,396.921 560.097,387.269 564.078,378.431 568.059,369.82 572.04,361.162 576.021,352.284 580.002,343.582 583.983,336.486 587.964,329.947 
  591.945,323.144 595.926,316.274 599.906,309.682 603.887,302.868 607.868,295.59 611.849,289.276 615.83,283.996 619.811,279.907 623.792,275.799 627.773,270.634 
  631.754,265.883 635.735,261.592 639.715,257.856 643.696,253.809 647.677,248.872 651.658,244.748 655.639,240.518 659.62,235.414 663.601,231.086 667.582,226.497 
  671.563,220.785 675.544,215.809 679.525,211.079 683.505,206.611 687.486,203.82 691.467,201.843 695.448,199.929 699.429,198.875 703.41,199.106 707.391,200.481 
  711.372,203.572 715.353,206.348 719.334,207.35 723.314,207.552 727.295,206.463 731.276,203.977 735.257,201.308 739.238,197.805 743.219,191.883 747.2,185.545 
  751.181,180.829 755.162,176.585 759.143,171.892 763.124,168.379 767.104,166.027 771.085,163.296 775.066,161.132 779.047,160.33 783.028,160.503 787.009,161.685 
  790.99,163.806 794.971,167.788 798.952,172.969 802.933,179.25 806.914,188.183 810.894,199.367 814.875,211.93 818.856,225.401 822.837,239.482 826.818,255.568 
  830.799,274.052 834.78,293.402 838.761,314.437 842.742,337.943 846.723,361.656 850.703,384.914 854.684,408.61 858.665,431.874 862.646,454.521 866.627,476.605 
  870.608,497.179 874.589,517.627 878.57,537.981 882.551,555.972 886.532,573.009 890.513,590.657 894.493,608.254 898.474,624.949 902.455,640.395 906.436,654.308 
  910.417,666.163 914.398,675.497 918.379,682.382 922.36,686.726 926.341,689.98 930.322,693.708 934.302,695.702 938.283,693.929 942.264,690.288 946.245,686.833 
  950.226,683.552 954.207,678.41 958.188,671.174 962.169,663.683 966.15,656.057 970.131,648.188 974.112,639.818 978.092,631.281 982.073,623.035 986.054,615.309 
  990.035,609.289 994.016,603.791 997.997,596.828 1001.98,588.803 1005.96,581.431 1009.94,576.487 1013.92,572.047 1017.9,566.38 1021.88,560.738 1025.86,556.301 
  1029.84,553.146 1033.83,551.104 1037.81,549.549 1041.79,548.355 1045.77,547.736 1049.75,547.659 1053.73,547.839 1057.71,547.717 1061.69,547.295 1065.67,546.76 
  1069.65,546.042 1073.63,546.802 1077.62,550.838 1081.6,555.855 1085.58,559.756 1089.56,562.479 1093.54,565.845 1097.52,571.84 1101.5,580.286 1105.48,588.433 
  1109.46,593.778 1113.44,598.143 1117.42,603.482 1121.41,609.71 1125.39,616.506 1129.37,620.693 1133.35,621.621 1137.33,621.706 1141.31,621.097 1145.29,619.699 
  1149.27,617.171 1153.25,613.451 1157.23,609.18 1161.21,604.709 1165.2,600.146 1169.18,595.359 1173.16,592.26 1177.14,592.971 1181.12,595.066 1185.1,596.372 
  1189.08,596.986 1193.06,596.76 1197.04,597.478 1201.02,601.107 1205,604.924 1208.98,606.499 1212.97,605.929 1216.95,605.32 1220.93,606.968 1224.91,610.907 
  1228.89,616.95 1232.87,620.933 1236.85,619.23 1240.83,614.387 1244.81,609.124 1248.79,603.838 1252.77,598.68 1256.76,593.552 1260.74,586.703 1264.72,579.014 
  1268.7,573.172 1272.68,569.279 1276.66,567.209 1280.64,566.6 1284.62,566.861 1288.6,568.615 1292.58,573.117 1296.56,580.396 1300.55,590.265 1304.53,602.324 
  1308.51,615.962 1312.49,632.682 1316.47,652.729 1320.45,674.362 1324.43,697.306 1328.41,721.079 1332.39,744.996 1336.37,768.169 1340.35,792.017 1344.34,818.255 
  1348.32,844.786 1352.3,869.624 1356.28,892.103 1360.26,911.368 1364.24,929.151 1368.22,947.547 1372.2,965.982 1376.18,982.545 1380.16,995.414 1384.14,1003.92 
  1388.13,1007.21 1392.11,1008.44 1396.09,1011.41 1400.07,1016.03 1404.05,1022.14 1408.03,1028.6 1412.01,1034.36 1415.99,1039.14 1419.97,1044.13 1423.95,1050.66 
  1427.93,1058.59 1431.92,1067.65 1435.9,1077.5 1439.88,1086.8 1443.86,1094.29 1447.84,1101.19 1451.82,1108.89 1455.8,1117.27 1459.78,1126.09 1463.76,1135.03 
  1467.74,1143.69 1471.72,1151.57 1475.71,1159.27 1479.69,1167.76 1483.67,1176.89 1487.65,1186.46 1491.63,1196.21 1495.61,1205.77 1499.59,1214.72 1503.57,1222.56 
  1507.55,1229.83 1511.53,1237.37 1515.51,1245.05 1519.5,1252.64 1523.48,1259.89 1527.46,1266.48 1531.44,1272.02 1535.42,1277.38 1539.4,1283.65 1543.38,1290.31 
  1547.36,1296.9 1551.34,1303.27 1555.32,1309.24 1559.3,1314.6 1563.29,1319.06 1567.27,1323.23 1571.25,1327.84 1575.23,1332.76 1579.21,1337.59 1583.19,1341.92 
  1587.17,1345.61 1591.15,1348.46 1595.13,1350.25 1599.11,1351.68 1603.09,1353.61 1607.08,1356 1611.06,1358.78 1615.04,1361.74 1619.02,1364.67 1623,1367.47 
  1626.98,1370.02 1630.96,1372.17 1634.94,1374.28 1638.92,1376.75 1642.9,1379.51 1646.88,1382.5 1650.87,1385.43 1654.85,1388.04 1658.83,1390.27 1662.81,1392 
  1666.79,1393.54 1670.77,1395.27 1674.75,1397.16 1678.73,1399.16 1682.71,1401.22 1686.69,1403.25 1690.67,1405.06 1694.66,1406.43 1698.64,1407.29 1702.62,1407.93 
  1706.6,1408.7 1710.58,1409.57 1714.56,1410.54 1718.54,1411.56 1722.52,1412.59 1726.5,1413.58 1730.48,1414.38 1734.46,1414.86 1738.45,1415.23 1742.43,1415.75 
  1746.41,1416.41 1750.39,1417.2 1754.37,1418.1 1758.35,1419.09 1762.33,1420.12 1766.31,1421.17 1770.29,1422.15 1774.27,1423.13 1778.25,1424.23 1782.24,1425.42 
  1786.22,1426.67 1790.2,1427.95 1794.18,1429.21 1798.16,1430.4 1802.14,1431.47 1806.12,1432.36 1810.1,1433.19 1814.08,1434.09 1818.06,1435.05 1822.04,1436.06 
  1826.03,1437.08 1830.01,1438.1 1833.99,1439.07 1837.97,1439.96 1841.95,1440.73 1845.93,1441.35 1849.91,1441.89 1853.89,1442.43 1857.87,1442.93 1861.85,1443.39 
  1865.83,1443.8 1869.82,1444.15 1873.8,1444.43 1877.78,1444.63 1881.76,1444.72 1885.74,1444.7 1889.72,1444.62 1893.7,1444.56 1897.68,1444.51 1901.66,1444.46 
  1905.64,1444.42 1909.62,1444.39 1913.61,1444.36 1917.59,1444.33 1921.57,1444.3 1925.55,1444.27 1929.53,1444.25 1933.51,1444.27 1937.49,1444.32 1941.47,1444.4 
  1945.45,1444.49 1949.43,1444.6 1953.41,1444.72 1957.4,1444.84 1961.38,1444.98 1965.36,1445.12 1969.34,1445.26 1973.32,1445.43 1977.3,1445.62 1981.28,1445.81 
  1985.26,1446 1989.24,1446.17 1993.22,1446.32 1997.2,1446.44 2001.19,1446.53 2005.17,1446.58 2009.15,1446.58 2013.13,1446.56 2017.11,1446.55 2021.09,1446.56 
  2025.07,1446.58 2029.05,1446.61 2033.03,1446.63 2037.01,1446.63 2040.99,1446.59 2044.98,1446.54 2048.96,1446.46 2052.94,1446.36 2056.92,1446.26 2060.9,1446.17 
  2064.88,1446.09 2068.86,1446.02 2072.84,1445.96 2076.82,1445.92 2080.8,1445.89 2084.78,1445.88 2088.77,1445.87 2092.75,1445.88 2096.73,1445.89 2100.71,1445.92 
  2104.69,1445.97 2108.67,1446.05 2112.65,1446.15 2116.63,1446.27 2120.61,1446.4 2124.59,1446.55 2128.57,1446.71 2132.56,1446.87 2136.54,1447.04 2140.52,1447.2 
  2144.5,1447.36 2148.48,1447.53 2152.46,1447.7 2156.44,1447.88 2160.42,1448.05 2164.4,1448.22 2168.38,1448.38 2172.36,1448.52 2176.35,1448.64 2180.33,1448.74 
  2184.31,1448.8 2188.29,1448.82 2192.27,1448.82 2196.25,1448.82 2200.23,1448.82 2204.21,1448.82 2208.19,1448.82 2212.17,1448.82 2216.15,1448.82 2220.14,1448.82 
  2224.12,1448.82 2228.1,1448.82 2232.08,1448.82 2236.06,1448.82 2240.04,1448.82 2244.02,1448.82 2248,1448.82 2251.98,1448.82 2255.96,1448.82 2259.94,1448.82 
  
  "/>
<polyline clip-path="url(#clip7602)" style="stroke:#e26f46; stroke-width:8; stroke-opacity:1; fill:none" points="
  242.135,1448.82 246.241,1448.82 250.348,1448.82 254.454,1448.82 258.561,1448.82 262.667,1448.82 266.774,1448.82 270.88,1448.82 274.987,1448.82 279.093,1448.82 
  283.2,1448.82 287.306,1448.82 291.413,1448.82 295.519,1448.82 299.626,1448.82 303.732,1448.82 307.839,1448.82 311.945,1448.82 316.052,1448.82 320.158,1448.82 
  324.265,1448.82 328.371,1448.82 332.478,1448.82 336.584,1448.82 340.691,1448.82 344.797,1448.71 348.904,1448.28 353.01,1447.25 357.117,1445.36 361.223,1442.43 
  365.33,1438.28 369.436,1432.65 373.543,1425.34 377.649,1416.33 381.756,1405.58 385.862,1392.95 389.969,1378.46 394.075,1362.11 398.182,1344.01 402.288,1324.2 
  406.395,1302.53 410.501,1279.15 414.608,1254.24 418.715,1227.71 422.821,1199.68 426.928,1170.51 431.034,1140.48 435.141,1109.88 439.247,1078.95 443.354,1047.97 
  447.46,1017.12 451.567,986.508 455.673,956.329 459.78,926.775 463.886,898.116 467.993,870.474 472.099,844.306 476.206,820.012 480.312,797.464 484.419,776.366 
  488.525,756.337 492.632,737.643 496.738,720.347 500.845,703.681 504.951,687.585 509.058,671.78 513.164,655.423 517.271,638.835 521.377,622.199 525.484,605.653 
  529.59,589.122 533.697,572.703 537.803,556.844 541.91,541.01 546.016,525.38 550.123,510.257 554.229,495.848 558.336,481.745 562.442,467.616 566.549,453.674 
  570.655,440.406 574.762,428.125 578.868,417.098 582.975,407.477 587.081,399.332 591.188,392.056 595.294,385.228 599.401,379.81 603.507,375.558 607.614,372.256 
  611.72,369.521 615.827,367.208 619.933,365.64 624.04,365.125 628.146,366.456 632.253,368.218 636.359,368.918 640.466,367.856 644.572,364.918 648.679,361.442 
  652.785,357.567 656.892,352.857 660.998,348.022 665.105,342.951 669.211,337.037 673.318,331.341 677.424,325.685 681.531,319.149 685.637,311.251 689.744,301.689 
  693.85,291.882 697.957,281.539 702.063,270.027 706.17,259.194 710.276,248.279 714.383,236.593 718.489,225.301 722.596,215.922 726.702,208.176 730.809,201.377 
  734.916,196.597 739.022,192.856 743.129,189.319 747.235,187.088 751.342,185.501 755.448,184.45 759.555,185.578 763.661,188.783 767.768,193.329 771.874,198.691 
  775.981,205.974 780.087,214.526 784.194,223.194 788.3,232.499 792.407,241.944 796.513,251.465 800.62,261.462 804.726,273.093 808.833,287.468 812.939,302.459 
  817.046,317.266 821.152,332.806 825.259,346.883 829.365,358.987 833.472,370.377 837.578,380.481 841.685,388.9 845.791,395.688 849.898,402.231 854.004,409.95 
  858.111,418.389 862.217,426.294 866.324,432.936 870.43,438.205 874.537,443.73 878.643,449.623 882.75,454.212 886.856,457.323 890.963,460.418 895.069,463.331 
  899.176,464.226 903.282,464.7 907.389,466.414 911.495,469.109 915.602,472.166 919.708,475.436 923.815,478.964 927.921,482.521 932.028,485.841 936.134,489.001 
  940.241,491.885 944.347,495.979 948.454,502.869 952.56,510.599 956.667,517.296 960.773,524.388 964.88,533.387 968.986,543.933 973.093,553.387 977.199,561.068 
  981.306,568.625 985.412,575.831 989.519,583.993 993.625,593.149 997.732,601.781 1001.84,609.633 1005.94,618.055 1010.05,628.513 1014.16,638.782 1018.26,646.777 
  1022.37,652.158 1026.48,656.854 1030.58,663.042 1034.69,668.609 1038.8,671.591 1042.9,673.569 1047.01,676.235 1051.12,679.444 1055.22,681.057 1059.33,680.977 
  1063.44,681.205 1067.54,681.809 1071.65,682.641 1075.76,683.338 1079.86,683.464 1083.97,683.179 1088.08,682.681 1092.18,681.953 1096.29,682.34 1100.39,685.283 
  1104.5,688.33 1108.61,689.294 1112.71,688.264 1116.82,686.866 1120.93,686.845 1125.03,688.141 1129.14,688.497 1133.25,685.854 1137.35,682.367 1141.46,680.397 
  1145.57,680.068 1149.67,681.299 1153.78,681.864 1157.89,681.238 1161.99,681.101 1166.1,681.552 1170.21,682.479 1174.31,683.553 1178.42,684.637 1182.52,686.091 
  1186.63,688.024 1190.74,690.333 1194.84,692.705 1198.95,696.607 1203.06,702.239 1207.16,708.111 1211.27,714.132 1215.38,720.008 1219.48,727.206 1223.59,737.378 
  1227.7,750.218 1231.8,763.689 1235.91,775.89 1240.02,786.44 1244.12,796.914 1248.23,809.109 1252.34,822.704 1256.44,835.574 1260.55,845.755 1264.65,852.892 
  1268.76,858.937 1272.87,866.142 1276.97,874.331 1281.08,883.168 1285.19,890.398 1289.29,893.961 1293.4,895.755 1297.51,897.925 1301.61,900.467 1305.72,903.219 
  1309.83,905.864 1313.93,906.732 1318.04,906.379 1322.15,906.934 1326.25,908.44 1330.36,910.799 1334.47,913.763 1338.57,916.943 1342.68,921.559 1346.78,927.679 
  1350.89,933.935 1355,940.316 1359.1,946.671 1363.21,952.708 1367.32,959.597 1371.42,968.684 1375.53,978.6 1379.64,988.091 1383.74,997.03 1387.85,1005.15 
  1391.96,1012.06 1396.06,1018.94 1400.17,1027.18 1404.28,1036.49 1408.38,1045.31 1412.49,1052.18 1416.6,1056.82 1420.7,1060.65 1424.81,1065.29 1428.92,1070.64 
  1433.02,1076.47 1437.13,1081.5 1441.23,1084.5 1445.34,1085.25 1449.45,1085.32 1453.55,1086.57 1457.66,1088.98 1461.77,1092.47 1465.87,1096.84 1469.98,1100.6 
  1474.09,1102.42 1478.19,1103.5 1482.3,1105.21 1486.41,1107.61 1490.51,1110.68 1494.62,1114.3 1498.73,1118.26 1502.83,1122.26 1506.94,1125.06 1511.05,1127.01 
  1515.15,1129.57 1519.26,1132.75 1523.36,1136.49 1527.47,1140.64 1531.58,1144.95 1535.68,1149.11 1539.79,1152.92 1543.9,1156.56 1548,1160.14 1552.11,1163.72 
  1556.22,1167.24 1560.32,1170.57 1564.43,1173.52 1568.54,1175.78 1572.64,1178.28 1576.75,1181.46 1580.86,1184.62 1584.96,1187.75 1589.07,1190.78 1593.18,1193.56 
  1597.28,1195.84 1601.39,1198.42 1605.49,1202.21 1609.6,1207.1 1613.71,1211.94 1617.81,1215.71 1621.92,1218.4 1626.03,1219.92 1630.13,1220.08 1634.24,1219.98 
  1638.35,1220.9 1642.45,1222.85 1646.56,1225.8 1650.67,1228.92 1654.77,1231.5 1658.88,1233.55 1662.99,1234.98 1667.09,1235.66 1671.2,1236.32 1675.31,1237.78 
  1679.41,1239.99 1683.52,1242.85 1687.63,1245.51 1691.73,1247.18 1695.84,1247.82 1699.94,1247.28 1704.05,1246.53 1708.16,1246.71 1712.26,1247.85 1716.37,1249.94 
  1720.48,1252.9 1724.58,1256.62 1728.69,1260.09 1732.8,1262.4 1736.9,1263.55 1741.01,1264.23 1745.12,1265.22 1749.22,1266.56 1753.33,1268.24 1757.44,1270.19 
  1761.54,1272.31 1765.65,1274.44 1769.76,1275.84 1773.86,1275.85 1777.97,1275.37 1782.07,1275.45 1786.18,1276.14 1790.29,1277.42 1794.39,1279.25 1798.5,1281.55 
  1802.61,1284.19 1806.71,1286.99 1810.82,1289.23 1814.93,1291.06 1819.03,1293.25 1823.14,1295.83 1827.25,1298.77 1831.35,1302.03 1835.46,1305.51 1839.57,1309.07 
  1843.67,1312.54 1847.78,1315.7 1851.89,1318.6 1855.99,1321.5 1860.1,1324.42 1864.2,1327.37 1868.31,1330.28 1872.42,1333.1 1876.52,1335.7 1880.63,1337.93 
  1884.74,1339.61 1888.84,1340.5 1892.95,1340.95 1897.06,1341.51 1901.16,1342.25 1905.27,1343.2 1909.38,1344.36 1913.48,1345.69 1917.59,1347.16 1921.7,1348.67 
  1925.8,1350.12 1929.91,1351.37 1934.02,1352.8 1938.12,1354.71 1942.23,1356.92 1946.33,1359.4 1950.44,1362.1 1954.55,1364.96 1958.65,1367.9 1962.76,1370.78 
  1966.87,1373.49 1970.97,1375.86 1975.08,1378.25 1979.19,1381.09 1983.29,1383.98 1987.4,1386.58 1991.51,1388.88 1995.61,1390.88 1999.72,1392.52 2003.83,1393.76 
  2007.93,1394.51 2012.04,1394.67 2016.15,1394.63 2020.25,1394.84 2024.36,1395.3 2028.47,1395.98 2032.57,1396.47 2036.68,1396.42 2040.78,1395.86 2044.89,1394.83 
  2049,1393.34 2053.1,1391.38 2057.21,1389.29 2061.32,1387.5 2065.42,1386.05 2069.53,1384.97 2073.64,1384.29 2077.74,1384.01 2081.85,1384.12 2085.96,1384.6 
  2090.06,1385.41 2094.17,1386.5 2098.28,1387.8 2102.38,1389.43 2106.49,1391.54 2110.6,1394.09 2114.7,1397 2118.81,1400.22 2122.91,1403.65 2127.02,1407.22 
  2131.13,1410.81 2135.23,1414.31 2139.34,1417.58 2143.45,1420.51 2147.55,1423.3 2151.66,1426.25 2155.77,1429.3 2159.87,1432.39 2163.98,1435.44 2168.09,1438.38 
  2172.19,1441.14 2176.3,1443.62 2180.41,1445.73 2184.51,1447.37 2188.62,1448.44 2192.73,1448.82 2196.83,1448.82 2200.94,1448.82 2205.04,1448.82 2209.15,1448.82 
  2213.26,1448.82 2217.36,1448.82 2221.47,1448.82 2225.58,1448.82 2229.68,1448.82 2233.79,1448.82 2237.9,1448.82 2242,1448.82 2246.11,1448.82 2250.22,1448.82 
  2254.32,1448.82 2258.43,1448.82 2262.54,1448.82 2266.64,1448.82 2270.75,1448.82 2274.86,1448.82 2278.96,1448.82 2283.07,1448.82 2287.17,1448.82 2291.28,1448.82 
  
  "/>
<polygon clip-path="url(#clip7600)" points="
1611.36,386.635 2280.76,386.635 2280.76,205.195 1611.36,205.195 
  " fill="#ffffff" fill-rule="evenodd" fill-opacity="1"/>
<polyline clip-path="url(#clip7600)" style="stroke:#000000; stroke-width:4; stroke-opacity:1; fill:none" points="
  1611.36,386.635 2280.76,386.635 2280.76,205.195 1611.36,205.195 1611.36,386.635 
  "/>
<polyline clip-path="url(#clip7600)" style="stroke:#009af9; stroke-width:8; stroke-opacity:1; fill:none" points="
  1635.36,265.675 1779.36,265.675 
  "/>
<g clip-path="url(#clip7600)">
<text style="fill:#000000; fill-opacity:1; font-family:Arial,Helvetica Neue,Helvetica,sans-serif; font-size:48px; text-anchor:start;" transform="rotate(0, 1803.36, 283.175)" x="1803.36" y="283.175">sigma_epsilon = 0.2</text>
</g>
<polyline clip-path="url(#clip7600)" style="stroke:#e26f46; stroke-width:8; stroke-opacity:1; fill:none" points="
  1635.36,326.155 1779.36,326.155 
  "/>
<g clip-path="url(#clip7600)">
<text style="fill:#000000; fill-opacity:1; font-family:Arial,Helvetica Neue,Helvetica,sans-serif; font-size:48px; text-anchor:start;" transform="rotate(0, 1803.36, 343.655)" x="1803.36" y="343.655">sigma_epsilon = 0.4</text>
</g>
</svg>
