<?xml version="1.0" encoding="utf-8"?>
<svg xmlns="http://www.w3.org/2000/svg" xmlns:xlink="http://www.w3.org/1999/xlink" width="600" height="400" viewBox="0 0 2400 1600">
<defs>
  <clipPath id="clip0400">
    <rect x="0" y="0" width="2400" height="1600"/>
  </clipPath>
</defs>
<polygon clip-path="url(#clip0400)" points="
0,1600 2400,1600 2400,0 0,0 
  " fill="#ffffff" fill-rule="evenodd" fill-opacity="1"/>
<defs>
  <clipPath id="clip0401">
    <rect x="480" y="0" width="1681" height="1600"/>
  </clipPath>
</defs>
<polygon clip-path="url(#clip0400)" points="
180.66,1487.47 2352.76,1487.47 2352.76,47.2441 180.66,47.2441 
  " fill="#ffffff" fill-rule="evenodd" fill-opacity="1"/>
<defs>
  <clipPath id="clip0402">
    <rect x="180" y="47" width="2173" height="1441"/>
  </clipPath>
</defs>
<polyline clip-path="url(#clip0402)" style="stroke:#000000; stroke-width:2; stroke-opacity:0.1; fill:none" points="
  242.135,1487.47 242.135,47.2441 
  "/>
<polyline clip-path="url(#clip0402)" style="stroke:#000000; stroke-width:2; stroke-opacity:0.1; fill:none" points="
  651.964,1487.47 651.964,47.2441 
  "/>
<polyline clip-path="url(#clip0402)" style="stroke:#000000; stroke-width:2; stroke-opacity:0.1; fill:none" points="
  1061.79,1487.47 1061.79,47.2441 
  "/>
<polyline clip-path="url(#clip0402)" style="stroke:#000000; stroke-width:2; stroke-opacity:0.1; fill:none" points="
  1471.62,1487.47 1471.62,47.2441 
  "/>
<polyline clip-path="url(#clip0402)" style="stroke:#000000; stroke-width:2; stroke-opacity:0.1; fill:none" points="
  1881.45,1487.47 1881.45,47.2441 
  "/>
<polyline clip-path="url(#clip0402)" style="stroke:#000000; stroke-width:2; stroke-opacity:0.1; fill:none" points="
  2291.28,1487.47 2291.28,47.2441 
  "/>
<polyline clip-path="url(#clip0402)" style="stroke:#000000; stroke-width:2; stroke-opacity:0.1; fill:none" points="
  180.66,1446.71 2352.76,1446.71 
  "/>
<polyline clip-path="url(#clip0402)" style="stroke:#000000; stroke-width:2; stroke-opacity:0.1; fill:none" points="
  180.66,1107.04 2352.76,1107.04 
  "/>
<polyline clip-path="url(#clip0402)" style="stroke:#000000; stroke-width:2; stroke-opacity:0.1; fill:none" points="
  180.66,767.359 2352.76,767.359 
  "/>
<polyline clip-path="url(#clip0402)" style="stroke:#000000; stroke-width:2; stroke-opacity:0.1; fill:none" points="
  180.66,427.682 2352.76,427.682 
  "/>
<polyline clip-path="url(#clip0402)" style="stroke:#000000; stroke-width:2; stroke-opacity:0.1; fill:none" points="
  180.66,88.0053 2352.76,88.0053 
  "/>
<polyline clip-path="url(#clip0400)" style="stroke:#000000; stroke-width:4; stroke-opacity:1; fill:none" points="
  180.66,1487.47 2352.76,1487.47 
  "/>
<polyline clip-path="url(#clip0400)" style="stroke:#000000; stroke-width:4; stroke-opacity:1; fill:none" points="
  180.66,1487.47 180.66,47.2441 
  "/>
<polyline clip-path="url(#clip0400)" style="stroke:#000000; stroke-width:4; stroke-opacity:1; fill:none" points="
  242.135,1487.47 242.135,1465.87 
  "/>
<polyline clip-path="url(#clip0400)" style="stroke:#000000; stroke-width:4; stroke-opacity:1; fill:none" points="
  651.964,1487.47 651.964,1465.87 
  "/>
<polyline clip-path="url(#clip0400)" style="stroke:#000000; stroke-width:4; stroke-opacity:1; fill:none" points="
  1061.79,1487.47 1061.79,1465.87 
  "/>
<polyline clip-path="url(#clip0400)" style="stroke:#000000; stroke-width:4; stroke-opacity:1; fill:none" points="
  1471.62,1487.47 1471.62,1465.87 
  "/>
<polyline clip-path="url(#clip0400)" style="stroke:#000000; stroke-width:4; stroke-opacity:1; fill:none" points="
  1881.45,1487.47 1881.45,1465.87 
  "/>
<polyline clip-path="url(#clip0400)" style="stroke:#000000; stroke-width:4; stroke-opacity:1; fill:none" points="
  2291.28,1487.47 2291.28,1465.87 
  "/>
<polyline clip-path="url(#clip0400)" style="stroke:#000000; stroke-width:4; stroke-opacity:1; fill:none" points="
  180.66,1446.71 213.242,1446.71 
  "/>
<polyline clip-path="url(#clip0400)" style="stroke:#000000; stroke-width:4; stroke-opacity:1; fill:none" points="
  180.66,1107.04 213.242,1107.04 
  "/>
<polyline clip-path="url(#clip0400)" style="stroke:#000000; stroke-width:4; stroke-opacity:1; fill:none" points="
  180.66,767.359 213.242,767.359 
  "/>
<polyline clip-path="url(#clip0400)" style="stroke:#000000; stroke-width:4; stroke-opacity:1; fill:none" points="
  180.66,427.682 213.242,427.682 
  "/>
<polyline clip-path="url(#clip0400)" style="stroke:#000000; stroke-width:4; stroke-opacity:1; fill:none" points="
  180.66,88.0053 213.242,88.0053 
  "/>
<g clip-path="url(#clip0400)">
<text style="fill:#000000; fill-opacity:1; font-family:Arial,Helvetica Neue,Helvetica,sans-serif; font-size:48px; text-anchor:middle;" transform="rotate(0, 242.135, 1541.47)" x="242.135" y="1541.47">0</text>
</g>
<g clip-path="url(#clip0400)">
<text style="fill:#000000; fill-opacity:1; font-family:Arial,Helvetica Neue,Helvetica,sans-serif; font-size:48px; text-anchor:middle;" transform="rotate(0, 651.964, 1541.47)" x="651.964" y="1541.47">5</text>
</g>
<g clip-path="url(#clip0400)">
<text style="fill:#000000; fill-opacity:1; font-family:Arial,Helvetica Neue,Helvetica,sans-serif; font-size:48px; text-anchor:middle;" transform="rotate(0, 1061.79, 1541.47)" x="1061.79" y="1541.47">10</text>
</g>
<g clip-path="url(#clip0400)">
<text style="fill:#000000; fill-opacity:1; font-family:Arial,Helvetica Neue,Helvetica,sans-serif; font-size:48px; text-anchor:middle;" transform="rotate(0, 1471.62, 1541.47)" x="1471.62" y="1541.47">15</text>
</g>
<g clip-path="url(#clip0400)">
<text style="fill:#000000; fill-opacity:1; font-family:Arial,Helvetica Neue,Helvetica,sans-serif; font-size:48px; text-anchor:middle;" transform="rotate(0, 1881.45, 1541.47)" x="1881.45" y="1541.47">20</text>
</g>
<g clip-path="url(#clip0400)">
<text style="fill:#000000; fill-opacity:1; font-family:Arial,Helvetica Neue,Helvetica,sans-serif; font-size:48px; text-anchor:middle;" transform="rotate(0, 2291.28, 1541.47)" x="2291.28" y="1541.47">25</text>
</g>
<g clip-path="url(#clip0400)">
<text style="fill:#000000; fill-opacity:1; font-family:Arial,Helvetica Neue,Helvetica,sans-serif; font-size:48px; text-anchor:end;" transform="rotate(0, 156.66, 1464.21)" x="156.66" y="1464.21">0.00</text>
</g>
<g clip-path="url(#clip0400)">
<text style="fill:#000000; fill-opacity:1; font-family:Arial,Helvetica Neue,Helvetica,sans-serif; font-size:48px; text-anchor:end;" transform="rotate(0, 156.66, 1124.54)" x="156.66" y="1124.54">0.25</text>
</g>
<g clip-path="url(#clip0400)">
<text style="fill:#000000; fill-opacity:1; font-family:Arial,Helvetica Neue,Helvetica,sans-serif; font-size:48px; text-anchor:end;" transform="rotate(0, 156.66, 784.859)" x="156.66" y="784.859">0.50</text>
</g>
<g clip-path="url(#clip0400)">
<text style="fill:#000000; fill-opacity:1; font-family:Arial,Helvetica Neue,Helvetica,sans-serif; font-size:48px; text-anchor:end;" transform="rotate(0, 156.66, 445.182)" x="156.66" y="445.182">0.75</text>
</g>
<g clip-path="url(#clip0400)">
<text style="fill:#000000; fill-opacity:1; font-family:Arial,Helvetica Neue,Helvetica,sans-serif; font-size:48px; text-anchor:end;" transform="rotate(0, 156.66, 105.505)" x="156.66" y="105.505">1.00</text>
</g>
<polyline clip-path="url(#clip0402)" style="stroke:#009af9; stroke-width:4; stroke-opacity:1; fill:none" points="
  242.135,715.101 242.135,715.101 242.135,715.101 242.135,715.101 242.135,715.101 242.135,715.101 242.135,715.101 242.135,715.101 242.135,715.101 242.135,715.101 
  242.135,715.101 242.135,715.101 242.135,715.101 242.135,715.101 242.135,715.101 242.135,715.101 242.135,715.101 242.135,715.101 242.135,715.101 242.135,715.101 
  242.135,715.101 242.135,715.101 242.135,715.101 242.135,715.101 242.135,715.101 242.135,715.101 242.135,715.101 242.135,715.101 242.135,715.101 242.135,715.101 
  242.136,715.101 242.136,715.101 242.136,715.101 242.136,715.101 242.137,715.101 242.137,715.101 242.138,715.101 242.139,715.101 242.139,715.101 242.14,715.101 
  242.141,715.101 242.142,715.101 242.144,715.101 242.145,715.101 242.147,715.101 242.149,715.101 242.152,715.101 242.154,715.101 242.157,715.101 242.161,715.101 
  242.165,715.101 242.169,715.101 242.174,715.101 242.18,715.101 242.186,715.101 242.193,715.101 242.2,715.101 242.209,715.101 242.218,715.101 242.229,715.101 
  242.24,715.101 242.253,715.101 242.267,715.101 242.282,715.101 242.299,715.101 242.318,715.101 242.338,715.101 242.36,715.101 242.385,715.101 242.411,715.101 
  242.44,715.101 242.471,715.101 242.506,715.101 242.543,715.101 242.583,715.101 242.626,715.101 242.674,704.65 242.724,704.65 242.779,704.65 242.839,704.65 
  242.903,704.65 242.972,704.65 243.046,704.65 243.125,704.65 243.211,694.198 243.303,694.198 243.401,694.198 243.507,694.198 243.62,694.198 243.741,694.198 
  243.87,694.198 244.008,694.198 244.155,694.198 244.312,694.198 244.479,694.198 244.658,694.198 244.847,694.198 245.049,694.198 245.264,694.198 245.492,694.198 
  245.734,694.198 245.991,694.198 246.264,694.198 246.553,694.198 246.859,673.295 247.183,662.843 247.526,662.843 247.889,652.392 248.272,652.392 248.677,652.392 
  249.105,652.392 249.557,652.392 250.033,652.392 250.536,652.392 251.065,631.489 251.623,631.489 252.211,621.037 252.829,621.037 253.48,610.585 254.165,610.585 
  254.884,589.682 255.64,579.231 256.434,579.231 257.268,579.231 258.144,579.231 259.062,579.231 260.025,579.231 261.035,579.231 262.093,579.231 263.201,568.779 
  264.362,568.779 265.578,547.876 266.849,537.424 268.18,537.424 269.571,537.424 271.026,537.424 272.546,537.424 274.134,537.424 275.793,526.973 277.525,516.521 
  279.333,516.521 281.22,516.521 283.188,516.521 285.24,516.521 287.38,516.521 289.61,516.521 291.933,506.069 294.353,495.618 296.874,485.166 299.498,485.166 
  302.229,464.263 305.071,464.263 308.027,453.811 311.101,432.908 314.298,412.005 317.621,412.005 321.074,412.005 324.661,391.102 328.387,391.102 332.257,391.102 
  336.275,391.102 340.445,380.65 344.772,380.65 349.262,380.65 353.919,380.65 358.748,359.747 363.756,349.295 368.946,349.295 374.325,338.844 379.899,338.844 
  385.672,338.844 391.652,338.844 397.844,338.844 404.255,338.844 410.891,338.844 417.758,328.392 424.863,328.392 432.213,328.392 439.815,317.941 447.677,317.941 
  455.804,317.941 464.206,297.037 472.889,297.037 481.862,276.134 491.132,276.134 500.708,255.231 510.598,255.231 520.81,255.231 531.353,234.328 542.236,234.328 
  553.469,234.328 565.06,234.328 577.019,223.876 589.355,223.876 602.079,223.876 615.201,223.876 628.73,213.425 642.678,202.973 657.055,202.973 671.872,202.973 
  687.14,202.973 702.871,202.973 719.076,202.973 735.768,182.07 752.957,182.07 770.657,182.07 788.88,182.07 807.64,182.07 826.948,171.618 846.818,171.618 
  867.265,171.618 888.301,171.618 909.941,171.618 932.199,171.618 955.09,171.618 978.629,161.167 1002.83,161.167 1027.71,161.167 1053.29,161.167 1079.57,150.715 
  1106.58,150.715 1134.34,150.715 1162.85,150.715 1192.15,140.263 1222.24,140.263 1253.14,140.263 1284.87,129.812 1317.45,119.36 1350.9,119.36 1385.24,119.36 
  1420.49,119.36 1456.67,108.909 1493.79,108.909 1531.88,108.909 1570.96,108.909 1611.05,88.0053 1652.17,88.0053 1694.35,88.0053 1737.61,88.0053 1781.96,88.0053 
  1827.44,88.0053 1874.06,88.0053 1921.85,88.0053 1970.84,88.0053 2021.05,88.0053 2072.5,88.0053 2125.23,88.0053 2179.25,88.0053 2234.59,88.0053 2291.28,88.0053 
  
  "/>
<polyline clip-path="url(#clip0402)" style="stroke:#e26f46; stroke-width:4; stroke-opacity:1; fill:none" points="
  242.135,926.845 242.135,926.845 242.135,926.845 242.135,926.845 242.135,926.845 242.135,926.845 242.135,926.845 242.135,926.845 242.135,926.845 242.135,926.845 
  242.135,926.845 242.135,926.845 242.135,926.845 242.135,926.845 242.135,926.845 242.135,926.845 242.135,926.845 242.135,926.845 242.135,926.845 242.135,926.845 
  242.135,926.845 242.135,926.845 242.135,926.845 242.135,926.845 242.135,926.845 242.135,926.845 242.135,926.845 242.135,926.845 242.135,926.845 242.135,926.845 
  242.136,926.845 242.136,926.845 242.136,926.845 242.136,926.845 242.137,926.845 242.137,926.845 242.138,926.845 242.139,926.845 242.139,926.845 242.14,926.845 
  242.141,926.845 242.142,926.845 242.144,926.845 242.145,926.845 242.147,926.845 242.149,926.845 242.152,926.845 242.154,926.845 242.157,926.845 242.161,926.845 
  242.165,926.845 242.169,926.845 242.174,926.845 242.18,926.845 242.186,926.845 242.193,926.845 242.2,926.845 242.209,926.845 242.218,926.845 242.229,926.845 
  242.24,926.845 242.253,926.845 242.267,925.082 242.282,925.082 242.299,918.033 242.318,918.033 242.338,918.033 242.36,918.033 242.385,918.033 242.411,916.271 
  242.44,916.271 242.471,914.509 242.506,914.509 242.543,909.222 242.583,909.222 242.626,909.222 242.674,909.222 242.724,909.222 242.779,909.222 242.839,909.222 
  242.903,909.222 242.972,903.935 243.046,903.935 243.125,903.935 243.211,902.173 243.303,896.886 243.401,891.599 243.507,882.788 243.62,882.788 243.741,877.501 
  243.87,877.501 244.008,877.501 244.155,873.977 244.312,873.977 244.479,870.452 244.658,861.641 244.847,859.878 245.049,854.592 245.264,852.829 245.492,849.305 
  245.734,842.256 245.991,838.731 246.264,836.969 246.553,836.969 246.859,836.969 247.183,833.444 247.526,833.444 247.889,822.871 248.272,821.109 248.677,819.346 
  249.105,819.346 249.557,815.822 250.033,808.773 250.536,808.773 251.065,808.773 251.623,807.01 252.211,801.724 252.829,798.199 253.48,792.912 254.165,792.912 
  254.884,784.101 255.64,780.576 256.434,773.527 257.268,762.954 258.144,762.954 259.062,762.954 260.025,757.667 261.035,754.142 262.093,748.856 263.201,741.807 
  264.362,741.807 265.578,729.471 266.849,718.897 268.18,715.373 269.571,708.323 271.026,704.799 272.546,704.799 274.134,701.274 275.793,697.75 277.525,688.939 
  279.333,681.889 281.22,674.84 283.188,664.267 285.24,657.218 287.38,657.218 289.61,657.218 291.933,634.308 294.353,632.546 296.874,625.497 299.498,616.686 
  302.229,602.587 305.071,599.063 308.027,595.538 311.101,593.776 314.298,592.014 317.621,590.252 321.074,581.44 324.661,574.391 328.387,569.104 332.257,565.58 
  336.275,558.531 340.445,553.244 344.772,547.957 349.262,537.384 353.919,526.81 358.748,525.048 363.756,516.236 368.946,507.425 374.325,500.376 379.899,486.278 
  385.672,482.753 391.652,477.466 397.844,470.417 404.255,459.844 410.891,447.508 417.758,447.508 424.863,438.697 432.213,426.361 439.815,415.787 447.677,412.263 
  455.804,412.263 464.206,405.213 472.889,401.689 481.862,384.066 491.132,373.493 500.708,364.681 510.598,354.108 520.81,345.296 531.353,332.961 542.236,317.1 
  553.469,311.813 565.06,308.289 577.019,303.002 589.355,287.142 602.079,285.379 615.201,274.806 628.73,269.519 642.678,264.232 657.055,262.47 671.872,257.183 
  687.14,250.134 702.871,250.134 719.076,246.609 735.768,232.511 752.957,225.462 770.657,218.413 788.88,209.602 807.64,204.315 826.948,197.266 846.818,193.741 
  867.265,186.692 888.301,174.356 909.941,169.07 932.199,162.021 955.09,160.258 978.629,156.734 1002.83,154.971 1027.71,147.922 1053.29,140.873 1079.57,135.587 
  1106.58,133.824 1134.34,133.824 1162.85,130.3 1192.15,126.775 1222.24,125.013 1253.14,119.726 1284.87,119.726 1317.45,117.964 1350.9,117.964 1385.24,117.964 
  1420.49,117.964 1456.67,109.153 1493.79,105.628 1531.88,102.103 1570.96,102.103 1611.05,102.103 1652.17,96.8167 1694.35,95.0544 1737.61,95.0544 1781.96,93.2921 
  1827.44,93.2921 1874.06,89.7676 1921.85,89.7676 1970.84,88.0053 2021.05,88.0053 2072.5,88.0053 2125.23,88.0053 2179.25,88.0053 2234.59,88.0053 2291.28,88.0053 
  
  "/>
<polyline clip-path="url(#clip0402)" style="stroke:#3da44d; stroke-width:4; stroke-opacity:1; fill:none" points="
  242.135,1181.22 242.135,1181.22 242.135,1181.22 242.135,1181.22 242.135,1181.22 242.135,1181.22 242.135,1181.22 242.135,1181.22 242.135,1181.22 242.135,1181.22 
  242.135,1181.22 242.135,1181.22 242.135,1181.22 242.135,1181.22 242.135,1181.22 242.135,1181.22 242.135,1181.22 242.135,1181.22 242.135,1181.22 242.135,1181.22 
  242.135,1181.22 242.135,1181.22 242.135,1181.22 242.135,1181.22 242.135,1181.22 242.135,1181.22 242.135,1181.22 242.135,1181.22 242.135,1181.22 242.135,1181.22 
  242.136,1181.22 242.136,1181.22 242.136,1181.22 242.136,1181.22 242.137,1181.22 242.137,1181.22 242.138,1181.22 242.139,1181.22 242.139,1181.22 242.14,1181.22 
  242.141,1181.22 242.142,1181.22 242.144,1181.22 242.145,1181.22 242.147,1177.87 242.149,1177.87 242.152,1177.87 242.154,1177.87 242.157,1177.87 242.161,1177.87 
  242.165,1177.87 242.169,1177.87 242.174,1177.87 242.18,1177.87 242.186,1177.87 242.193,1177.87 242.2,1177.87 242.209,1177.87 242.218,1177.87 242.229,1177.87 
  242.24,1177.87 242.253,1177.87 242.267,1175.64 242.282,1175.64 242.299,1175.08 242.318,1174.53 242.338,1174.53 242.36,1174.53 242.385,1173.97 242.411,1173.97 
  242.44,1173.97 242.471,1172.85 242.506,1172.85 242.543,1172.85 242.583,1172.85 242.626,1170.62 242.674,1169.51 242.724,1168.95 242.779,1168.39 242.839,1166.72 
  242.903,1166.72 242.972,1165.6 243.046,1163.93 243.125,1163.93 243.211,1163.93 243.303,1155 243.401,1149.43 243.507,1143.29 243.62,1143.29 243.741,1140.5 
  243.87,1140.5 244.008,1140.5 244.155,1140.5 244.312,1139.94 244.479,1136.6 244.658,1135.48 244.847,1133.81 245.049,1133.25 245.264,1130.46 245.492,1129.9 
  245.734,1119.31 245.991,1114.85 246.264,1111.5 246.553,1106.48 246.859,1106.48 247.183,1103.69 247.526,1103.13 247.889,1098.11 248.272,1095.32 248.677,1094.77 
  249.105,1090.3 249.557,1077.48 250.033,1074.13 250.536,1063.53 251.065,1059.07 251.623,1059.07 252.211,1057.95 252.829,1054.61 253.48,1052.93 254.165,1045.12 
  254.884,1037.32 255.64,1033.41 256.434,1020.58 257.268,1013.33 258.144,1013.33 259.062,1003.85 260.025,1002.18 261.035,992.137 262.093,983.771 263.201,979.309 
  264.362,973.174 265.578,966.48 266.849,962.018 268.18,961.461 269.571,956.998 271.026,947.517 272.546,941.381 274.134,937.477 275.793,926.322 277.525,922.975 
  279.333,912.378 281.22,903.453 283.188,896.202 285.24,885.605 287.38,873.334 289.61,871.661 291.933,860.506 294.353,857.159 296.874,849.908 299.498,841.542 
  302.229,832.618 305.071,820.905 308.027,814.769 311.101,807.518 314.298,800.267 317.621,793.574 321.074,786.881 324.661,775.168 328.387,765.128 332.257,759.551 
  336.275,750.069 340.445,738.914 344.772,729.989 349.262,724.97 353.919,717.719 358.748,708.237 363.756,700.986 368.946,693.735 374.325,689.83 379.899,679.791 
  385.672,669.193 391.652,661.942 397.844,654.691 404.255,642.421 410.891,627.919 417.758,619.552 424.863,615.648 432.213,602.82 439.815,591.107 447.677,580.509 
  455.804,579.951 464.206,567.681 472.889,556.525 481.862,543.697 491.132,531.984 500.708,521.944 510.598,515.251 520.81,503.538 531.353,491.267 542.236,484.016 
  553.469,468.399 565.06,455.57 577.019,443.3 589.355,433.26 602.079,422.663 615.201,413.181 628.73,402.583 642.678,391.428 657.055,380.273 671.872,367.444 
  687.14,356.847 702.871,345.691 719.076,337.325 735.768,328.401 752.957,323.939 770.657,315.014 788.88,307.206 807.64,303.301 826.948,298.282 846.818,287.126 
  867.265,283.78 888.301,273.182 909.941,262.585 932.199,255.892 955.09,242.505 978.629,231.908 1002.83,226.33 1027.71,216.291 1053.29,210.155 1079.57,203.462 
  1106.58,195.096 1134.34,186.729 1162.85,182.825 1192.15,177.805 1222.24,173.343 1253.14,162.745 1284.87,160.514 1317.45,154.937 1350.9,151.59 1385.24,144.339 
  1420.49,138.204 1456.67,132.626 1493.79,128.722 1531.88,123.144 1570.96,118.124 1611.05,114.22 1652.17,111.989 1694.35,109.758 1737.61,107.527 1781.96,104.738 
  1827.44,101.392 1874.06,98.0451 1921.85,94.6985 1970.84,92.4674 2021.05,91.3519 2072.5,90.7941 2125.23,88.0053 2179.25,88.0053 2234.59,88.0053 2291.28,88.0053 
  
  "/>
<polyline clip-path="url(#clip0402)" style="stroke:#c271d2; stroke-width:4; stroke-opacity:1; fill:none" points="
  242.135,1413.52 242.135,1413.52 242.135,1413.52 242.135,1413.52 242.135,1413.52 242.135,1413.52 242.135,1413.52 242.135,1413.52 242.135,1413.52 242.135,1413.52 
  242.135,1413.52 242.135,1413.52 242.135,1413.52 242.135,1413.52 242.135,1413.52 242.135,1413.52 242.135,1413.52 242.135,1413.52 242.135,1413.52 242.135,1413.52 
  242.135,1413.52 242.135,1413.52 242.135,1413.52 242.135,1413.52 242.135,1413.52 242.135,1413.52 242.135,1413.52 242.135,1413.52 242.135,1413.52 242.135,1413.52 
  242.136,1413.52 242.136,1413.52 242.136,1413.52 242.136,1413.52 242.137,1413.52 242.137,1413.52 242.138,1413.52 242.139,1413.52 242.139,1413.52 242.14,1413.52 
  242.141,1413.52 242.142,1413.52 242.144,1413.52 242.145,1413.52 242.147,1412.71 242.149,1412.71 242.152,1412.71 242.154,1412.71 242.157,1412.71 242.161,1412.71 
  242.165,1412.71 242.169,1412.71 242.174,1412.71 242.18,1412.71 242.186,1412.71 242.193,1412.71 242.2,1412.71 242.209,1412.71 242.218,1412.71 242.229,1412.71 
  242.24,1412.71 242.253,1412.71 242.267,1412.71 242.282,1412.71 242.299,1412.71 242.318,1412.71 242.338,1412.71 242.36,1412.71 242.385,1412.71 242.411,1412.71 
  242.44,1412.71 242.471,1412.3 242.506,1412.3 242.543,1412.3 242.583,1412.3 242.626,1411.49 242.674,1411.49 242.724,1411.09 242.779,1410.68 242.839,1410.68 
  242.903,1410.68 242.972,1410.68 243.046,1410.68 243.125,1410.28 243.211,1410.28 243.303,1409.47 243.401,1409.47 243.507,1409.06 243.62,1409.06 243.741,1408.25 
  243.87,1408.25 244.008,1408.25 244.155,1407.85 244.312,1407.85 244.479,1407.44 244.658,1407.44 244.847,1407.44 245.049,1407.44 245.264,1407.04 245.492,1407.04 
  245.734,1405.42 245.991,1405.42 246.264,1405.42 246.553,1405.42 246.859,1405.42 247.183,1405.42 247.526,1405.01 247.889,1404.2 248.272,1404.2 248.677,1404.2 
  249.105,1403.39 249.557,1379.1 250.033,1377.48 250.536,1375.46 251.065,1372.62 251.623,1371.81 252.211,1371.41 252.829,1368.17 253.48,1367.77 254.165,1366.55 
  254.884,1365.74 255.64,1365.34 256.434,1343.88 257.268,1339.02 258.144,1338.62 259.062,1335.78 260.025,1335.38 261.035,1332.14 262.093,1315.94 263.201,1310.68 
  264.362,1307.44 265.578,1305.42 266.849,1290.44 268.18,1288.01 269.571,1282.34 271.026,1270.6 272.546,1266.15 274.134,1263.31 275.793,1251.17 277.525,1245.5 
  279.333,1234.97 281.22,1229.71 283.188,1218.78 285.24,1206.23 287.38,1192.46 289.61,1183.96 291.933,1176.67 294.353,1168.17 296.874,1160.88 299.498,1156.43 
  302.229,1149.95 305.071,1125.26 308.027,1117.97 311.101,1111.49 314.298,1106.23 317.621,1099.75 321.074,1094.08 324.661,1087.2 328.387,1076.27 332.257,1065.34 
  336.275,1043.07 340.445,1036.19 344.772,1025.25 349.262,1017.56 353.919,1007.85 358.748,995.295 363.756,985.983 368.946,976.672 374.325,969.789 379.899,960.477 
  385.672,949.546 391.652,939.425 397.844,930.923 404.255,919.991 410.891,907.846 417.758,898.939 424.863,887.198 432.213,875.457 439.815,867.36 447.677,854.404 
  455.804,847.926 464.206,834.971 472.889,822.42 481.862,808.655 491.132,794.485 500.708,782.339 510.598,772.218 520.81,755.618 531.353,740.639 542.236,732.137 
  553.469,715.942 565.06,701.367 577.019,685.983 589.355,671.003 602.079,657.238 615.201,642.663 628.73,629.302 642.678,616.347 657.055,605.821 671.872,587.602 
  687.14,577.48 702.871,564.12 719.076,552.784 735.768,537.399 752.957,524.444 770.657,508.249 788.88,492.055 807.64,478.29 826.948,465.334 846.818,454.403 
  867.265,439.423 888.301,424.039 909.941,407.844 932.199,394.889 955.09,378.694 978.629,359.261 1002.83,347.115 1027.71,333.35 1053.29,325.658 1079.57,314.727 
  1106.58,303.795 1134.34,295.698 1162.85,286.386 1192.15,278.289 1222.24,266.953 1253.14,256.832 1284.87,246.71 1317.45,239.423 1350.9,233.35 1385.24,222.419 
  1420.49,213.107 1456.67,203.795 1493.79,195.293 1531.88,188.815 1570.96,181.933 1611.05,175.86 1652.17,168.572 1694.35,163.309 1737.61,154.402 1781.96,145.091 
  1827.44,139.018 1874.06,130.92 1921.85,122.823 1970.84,114.726 2021.05,107.034 2072.5,100.151 2125.23,94.4831 2179.25,89.6248 2234.59,88.0053 2291.28,88.0053 
  
  "/>
<polyline clip-path="url(#clip0402)" style="stroke:#ac8d18; stroke-width:4; stroke-opacity:1; fill:none" points="
  242.135,1446.71 242.135,1446.71 242.135,1446.71 242.135,1446.71 242.135,1446.71 242.135,1446.71 242.135,1446.71 242.135,1446.71 242.135,1446.71 242.135,1446.71 
  242.135,1446.71 242.135,1446.71 242.135,1446.71 242.135,1446.71 242.135,1446.71 242.135,1446.71 242.135,1446.71 242.135,1446.71 242.135,1446.71 242.135,1446.71 
  242.135,1446.71 242.135,1446.71 242.135,1446.71 242.135,1446.71 242.135,1446.71 242.135,1446.71 242.135,1446.71 242.135,1446.71 242.135,1446.71 242.135,1446.71 
  242.136,1446.71 242.136,1446.71 242.136,1446.71 242.136,1446.71 242.137,1446.71 242.137,1446.71 242.138,1446.71 242.139,1446.71 242.139,1446.71 242.14,1446.71 
  242.141,1446.71 242.142,1446.71 242.144,1446.71 242.145,1446.71 242.147,1446.71 242.149,1446.71 242.152,1446.71 242.154,1446.71 242.157,1446.71 242.161,1446.71 
  242.165,1446.71 242.169,1446.71 242.174,1446.71 242.18,1446.71 242.186,1446.71 242.193,1446.71 242.2,1446.71 242.209,1446.71 242.218,1446.71 242.229,1446.71 
  242.24,1446.71 242.253,1446.71 242.267,1446.71 242.282,1446.71 242.299,1446.71 242.318,1446.71 242.338,1446.71 242.36,1446.71 242.385,1446.71 242.411,1446.71 
  242.44,1446.71 242.471,1446.71 242.506,1446.71 242.543,1446.71 242.583,1446.71 242.626,1446.71 242.674,1446.71 242.724,1446.71 242.779,1446.71 242.839,1446.71 
  242.903,1446.71 242.972,1446.71 243.046,1446.71 243.125,1446.71 243.211,1446.71 243.303,1446.71 243.401,1446.71 243.507,1446.71 243.62,1446.71 243.741,1446.71 
  243.87,1446.71 244.008,1446.71 244.155,1446.71 244.312,1446.71 244.479,1446.71 244.658,1446.71 244.847,1446.71 245.049,1446.71 245.264,1446.71 245.492,1446.71 
  245.734,1446.71 245.991,1446.71 246.264,1446.71 246.553,1446.71 246.859,1446.71 247.183,1446.71 247.526,1446.71 247.889,1446.71 248.272,1446.71 248.677,1446.71 
  249.105,1446.71 249.557,1437.53 250.033,1436.95 250.536,1436.95 251.065,1436.95 251.623,1436.95 252.211,1436.95 252.829,1436.95 253.48,1436.95 254.165,1436.95 
  254.884,1436.95 255.64,1436.38 256.434,1432.36 257.268,1431.78 258.144,1431.78 259.062,1431.21 260.025,1431.21 261.035,1430.63 262.093,1424.89 263.201,1422.59 
  264.362,1422.59 265.578,1422.02 266.849,1416.28 268.18,1415.7 269.571,1413.41 271.026,1411.11 272.546,1409.96 274.134,1409.39 275.793,1403.07 277.525,1401.92 
  279.333,1400.77 281.22,1399.05 283.188,1395.03 285.24,1392.73 287.38,1391.01 289.61,1385.27 291.933,1382.97 294.353,1373.78 296.874,1372.63 299.498,1368.61 
  302.229,1367.47 305.071,1357.13 308.027,1353.11 311.101,1351.96 314.298,1350.24 317.621,1346.22 321.074,1344.49 324.661,1337.03 328.387,1328.42 332.257,1318.65 
  336.275,1310.04 340.445,1301.42 344.772,1295.68 349.262,1290.51 353.919,1287.64 358.748,1286.49 363.756,1280.18 368.946,1260.08 374.325,1250.89 379.899,1244 
  385.672,1233.66 391.652,1224.47 397.844,1215.29 404.255,1195.19 410.891,1190.59 417.758,1185.42 424.863,1176.81 432.213,1153.26 439.815,1145.22 447.677,1134.89 
  455.804,1127.42 464.206,1113.07 472.889,1101.58 481.862,1092.39 491.132,1077.46 500.708,1067.7 510.598,1060.23 520.81,1042.43 531.353,1032.1 542.236,1016.59 
  553.469,1002.81 565.06,982.134 577.019,967.777 589.355,952.847 602.079,936.767 615.201,919.539 628.73,902.886 642.678,885.658 657.055,871.875 671.872,846.608 
  687.14,824.786 702.871,800.667 719.076,785.162 735.768,766.211 752.957,756.448 770.657,737.498 788.88,719.696 807.64,697.299 826.948,683.517 846.818,674.903 
  867.265,654.804 888.301,641.596 909.941,624.942 932.199,605.417 955.09,588.189 978.629,529.04 1002.83,515.832 1027.71,505.495 1053.29,485.97 1079.57,475.059 
  1106.58,466.445 1134.34,445.197 1162.85,436.009 1192.15,422.801 1222.24,403.276 1253.14,391.217 1284.87,366.523 1317.45,358.484 1350.9,340.107 1385.24,332.067 
  1420.49,309.671 1456.67,304.503 1493.79,288.423 1531.88,280.958 1570.96,264.304 1611.05,255.116 1652.17,243.631 1694.35,236.165 1737.61,221.809 1781.96,210.324 
  1827.44,197.69 1874.06,185.63 1921.85,177.016 1970.84,168.977 2021.05,159.214 2072.5,150.026 2125.23,142.56 2179.25,109.827 2234.59,100.065 2291.28,88.0053 
  
  "/>
<polyline clip-path="url(#clip0402)" style="stroke:#00a9ad; stroke-width:4; stroke-opacity:1; fill:none" points="
  242.135,1446.71 242.135,1446.71 242.135,1446.71 242.135,1446.71 242.135,1446.71 242.135,1446.71 242.135,1446.71 242.135,1446.71 242.135,1446.71 242.135,1446.71 
  242.135,1446.71 242.135,1446.71 242.135,1446.71 242.135,1446.71 242.135,1446.71 242.135,1446.71 242.135,1446.71 242.135,1446.71 242.135,1446.71 242.135,1446.71 
  242.135,1446.71 242.135,1446.71 242.135,1446.71 242.135,1446.71 242.135,1446.71 242.135,1446.71 242.135,1446.71 242.135,1446.71 242.135,1446.71 242.135,1446.71 
  242.136,1446.71 242.136,1446.71 242.136,1446.71 242.136,1446.71 242.137,1446.71 242.137,1446.71 242.138,1446.71 242.139,1446.71 242.139,1446.71 242.14,1446.71 
  242.141,1446.71 242.142,1446.71 242.144,1446.71 242.145,1446.71 242.147,1446.71 242.149,1446.71 242.152,1446.71 242.154,1446.71 242.157,1446.71 242.161,1446.71 
  242.165,1446.71 242.169,1446.71 242.174,1446.71 242.18,1446.71 242.186,1446.71 242.193,1446.71 242.2,1446.71 242.209,1446.71 242.218,1446.71 242.229,1446.71 
  242.24,1446.71 242.253,1446.71 242.267,1446.71 242.282,1446.71 242.299,1446.71 242.318,1446.71 242.338,1446.71 242.36,1446.71 242.385,1446.71 242.411,1446.71 
  242.44,1446.71 242.471,1446.71 242.506,1446.71 242.543,1446.71 242.583,1446.71 242.626,1446.71 242.674,1446.71 242.724,1446.71 242.779,1446.71 242.839,1446.71 
  242.903,1446.71 242.972,1446.71 243.046,1446.71 243.125,1446.71 243.211,1446.71 243.303,1446.71 243.401,1446.71 243.507,1446.71 243.62,1446.71 243.741,1446.71 
  243.87,1446.71 244.008,1446.71 244.155,1446.71 244.312,1446.71 244.479,1446.71 244.658,1446.71 244.847,1446.71 245.049,1446.71 245.264,1446.71 245.492,1446.71 
  245.734,1446.71 245.991,1446.71 246.264,1446.71 246.553,1446.71 246.859,1446.71 247.183,1446.71 247.526,1446.71 247.889,1446.71 248.272,1446.71 248.677,1446.71 
  249.105,1446.71 249.557,1446.71 250.033,1446.71 250.536,1446.71 251.065,1446.71 251.623,1446.71 252.211,1446.71 252.829,1446.71 253.48,1446.71 254.165,1446.71 
  254.884,1446.71 255.64,1446.71 256.434,1445 257.268,1445 258.144,1445 259.062,1445 260.025,1445 261.035,1445 262.093,1445 263.201,1445 
  264.362,1445 265.578,1445 266.849,1445 268.18,1445 269.571,1445 271.026,1445 272.546,1445 274.134,1445 275.793,1445 277.525,1445 
  279.333,1445 281.22,1445 283.188,1445 285.24,1445 287.38,1445 289.61,1443.28 291.933,1443.28 294.353,1441.57 296.874,1441.57 299.498,1441.57 
  302.229,1441.57 305.071,1441.57 308.027,1441.57 311.101,1441.57 314.298,1441.57 317.621,1439.85 321.074,1439.85 324.661,1434.7 328.387,1431.27 332.257,1427.84 
  336.275,1426.13 340.445,1424.41 344.772,1420.98 349.262,1420.98 353.919,1420.98 358.748,1419.26 363.756,1417.55 368.946,1415.83 374.325,1414.12 379.899,1412.4 
  385.672,1410.69 391.652,1410.69 397.844,1410.69 404.255,1402.11 410.891,1396.96 417.758,1391.82 424.863,1390.1 432.213,1381.52 439.815,1376.38 447.677,1367.8 
  455.804,1364.37 464.206,1354.07 472.889,1345.5 481.862,1343.78 491.132,1333.49 500.708,1331.77 510.598,1330.06 520.81,1318.05 531.353,1297.46 542.236,1290.6 
  553.469,1278.59 565.06,1268.3 577.019,1258 589.355,1252.86 602.079,1244.28 615.201,1230.56 628.73,1218.55 642.678,1203.11 657.055,1189.38 671.872,1167.08 
  687.14,1155.07 702.871,1148.21 719.076,1117.33 735.768,1108.75 752.957,1100.17 770.657,1089.88 788.88,1067.58 807.64,1048.71 826.948,1038.41 846.818,1022.97 
  867.265,1012.68 888.301,974.94 909.941,966.362 932.199,947.491 955.09,925.189 978.629,877.154 1002.83,872.007 1027.71,861.714 1053.29,815.395 1079.57,801.67 
  1106.58,791.377 1134.34,750.204 1162.85,738.195 1192.15,729.618 1222.24,683.298 1253.14,671.289 1284.87,628.401 1317.45,621.538 1350.9,590.659 1385.24,582.081 
  1420.49,554.632 1456.67,544.339 1493.79,516.89 1531.88,504.882 1570.96,480.864 1611.05,470.571 1652.17,439.691 1694.35,429.398 1737.61,401.949 1781.96,377.932 
  1827.44,362.492 1874.06,348.768 1921.85,323.034 1970.84,295.586 2021.05,287.008 2072.5,266.422 2125.23,250.982 2179.25,216.671 2234.59,194.369 2291.28,88.0053 
  
  "/>
<polyline clip-path="url(#clip0402)" style="stroke:#ed5d92; stroke-width:4; stroke-opacity:1; fill:none" points="
  242.135,1446.71 242.135,1446.71 242.135,1446.71 242.135,1446.71 242.135,1446.71 242.135,1446.71 242.135,1446.71 242.135,1446.71 242.135,1446.71 242.135,1446.71 
  242.135,1446.71 242.135,1446.71 242.135,1446.71 242.135,1446.71 242.135,1446.71 242.135,1446.71 242.135,1446.71 242.135,1446.71 242.135,1446.71 242.135,1446.71 
  242.135,1446.71 242.135,1446.71 242.135,1446.71 242.135,1446.71 242.135,1446.71 242.135,1446.71 242.135,1446.71 242.135,1446.71 242.135,1446.71 242.135,1446.71 
  242.136,1446.71 242.136,1446.71 242.136,1446.71 242.136,1446.71 242.137,1446.71 242.137,1446.71 242.138,1446.71 242.139,1446.71 242.139,1446.71 242.14,1446.71 
  242.141,1446.71 242.142,1446.71 242.144,1446.71 242.145,1446.71 242.147,1446.71 242.149,1446.71 242.152,1446.71 242.154,1446.71 242.157,1446.71 242.161,1446.71 
  242.165,1446.71 242.169,1446.71 242.174,1446.71 242.18,1446.71 242.186,1446.71 242.193,1446.71 242.2,1446.71 242.209,1446.71 242.218,1446.71 242.229,1446.71 
  242.24,1446.71 242.253,1446.71 242.267,1446.71 242.282,1446.71 242.299,1446.71 242.318,1446.71 242.338,1446.71 242.36,1446.71 242.385,1446.71 242.411,1446.71 
  242.44,1446.71 242.471,1446.71 242.506,1446.71 242.543,1446.71 242.583,1446.71 242.626,1446.71 242.674,1446.71 242.724,1446.71 242.779,1446.71 242.839,1446.71 
  242.903,1446.71 242.972,1446.71 243.046,1446.71 243.125,1446.71 243.211,1446.71 243.303,1446.71 243.401,1446.71 243.507,1446.71 243.62,1446.71 243.741,1446.71 
  243.87,1446.71 244.008,1446.71 244.155,1446.71 244.312,1446.71 244.479,1446.71 244.658,1446.71 244.847,1446.71 245.049,1446.71 245.264,1446.71 245.492,1446.71 
  245.734,1446.71 245.991,1446.71 246.264,1446.71 246.553,1446.71 246.859,1446.71 247.183,1446.71 247.526,1446.71 247.889,1446.71 248.272,1446.71 248.677,1446.71 
  249.105,1446.71 249.557,1446.71 250.033,1446.71 250.536,1446.71 251.065,1446.71 251.623,1446.71 252.211,1446.71 252.829,1446.71 253.48,1446.71 254.165,1446.71 
  254.884,1446.71 255.64,1446.71 256.434,1446.71 257.268,1446.71 258.144,1446.71 259.062,1446.71 260.025,1446.71 261.035,1446.71 262.093,1446.71 263.201,1446.71 
  264.362,1446.71 265.578,1446.71 266.849,1446.71 268.18,1446.71 269.571,1446.71 271.026,1446.71 272.546,1446.71 274.134,1446.71 275.793,1446.71 277.525,1446.71 
  279.333,1446.71 281.22,1446.71 283.188,1446.71 285.24,1446.71 287.38,1446.71 289.61,1446.71 291.933,1446.71 294.353,1446.71 296.874,1446.71 299.498,1446.71 
  302.229,1446.71 305.071,1446.71 308.027,1446.71 311.101,1446.71 314.298,1446.71 317.621,1446.71 321.074,1446.71 324.661,1446.71 328.387,1446.71 332.257,1446.71 
  336.275,1446.71 340.445,1446.71 344.772,1446.71 349.262,1446.71 353.919,1446.71 358.748,1446.71 363.756,1446.71 368.946,1446.71 374.325,1446.71 379.899,1446.71 
  385.672,1446.71 391.652,1446.71 397.844,1446.71 404.255,1446.71 410.891,1446.71 417.758,1446.71 424.863,1446.71 432.213,1446.71 439.815,1446.71 447.677,1446.71 
  455.804,1446.71 464.206,1446.71 472.889,1446.71 481.862,1446.71 491.132,1446.71 500.708,1437.59 510.598,1437.59 520.81,1428.48 531.353,1419.36 542.236,1419.36 
  553.469,1419.36 565.06,1419.36 577.019,1410.24 589.355,1410.24 602.079,1410.24 615.201,1410.24 628.73,1401.12 642.678,1392 657.055,1382.88 671.872,1373.76 
  687.14,1373.76 702.871,1373.76 719.076,1373.76 735.768,1364.64 752.957,1337.29 770.657,1337.29 788.88,1319.05 807.64,1319.05 826.948,1319.05 846.818,1309.93 
  867.265,1309.93 888.301,1282.57 909.941,1282.57 932.199,1227.86 955.09,1227.86 978.629,1191.39 1002.83,1164.03 1027.71,1164.03 1053.29,1154.91 1079.57,1154.91 
  1106.58,1145.79 1134.34,1091.08 1162.85,1081.96 1192.15,1063.72 1222.24,1045.48 1253.14,990.771 1284.87,963.415 1317.45,936.058 1350.9,908.702 1385.24,908.702 
  1420.49,881.345 1456.67,853.988 1493.79,844.87 1531.88,826.632 1570.96,799.275 1611.05,771.919 1652.17,753.681 1694.35,735.443 1737.61,717.206 1781.96,717.206 
  1827.44,708.087 1874.06,653.374 1921.85,607.78 1970.84,534.829 2021.05,525.71 2072.5,507.472 2125.23,480.116 2179.25,461.878 2234.59,370.69 2291.28,88.0053 
  
  "/>
<polygon clip-path="url(#clip0400)" points="
1989.93,1343.47 2280.76,1343.47 2280.76,859.635 1989.93,859.635 
  " fill="#ffffff" fill-rule="evenodd" fill-opacity="1"/>
<polyline clip-path="url(#clip0400)" style="stroke:#000000; stroke-width:4; stroke-opacity:1; fill:none" points="
  1989.93,1343.47 2280.76,1343.47 2280.76,859.635 1989.93,859.635 1989.93,1343.47 
  "/>
<polyline clip-path="url(#clip0400)" style="stroke:#009af9; stroke-width:4; stroke-opacity:1; fill:none" points="
  2013.93,920.115 2157.93,920.115 
  "/>
<g clip-path="url(#clip0400)">
<text style="fill:#000000; fill-opacity:1; font-family:Arial,Helvetica Neue,Helvetica,sans-serif; font-size:48px; text-anchor:start;" transform="rotate(0, 2181.93, 937.615)" x="2181.93" y="937.615">y1</text>
</g>
<polyline clip-path="url(#clip0400)" style="stroke:#e26f46; stroke-width:4; stroke-opacity:1; fill:none" points="
  2013.93,980.595 2157.93,980.595 
  "/>
<g clip-path="url(#clip0400)">
<text style="fill:#000000; fill-opacity:1; font-family:Arial,Helvetica Neue,Helvetica,sans-serif; font-size:48px; text-anchor:start;" transform="rotate(0, 2181.93, 998.095)" x="2181.93" y="998.095">y2</text>
</g>
<polyline clip-path="url(#clip0400)" style="stroke:#3da44d; stroke-width:4; stroke-opacity:1; fill:none" points="
  2013.93,1041.07 2157.93,1041.07 
  "/>
<g clip-path="url(#clip0400)">
<text style="fill:#000000; fill-opacity:1; font-family:Arial,Helvetica Neue,Helvetica,sans-serif; font-size:48px; text-anchor:start;" transform="rotate(0, 2181.93, 1058.57)" x="2181.93" y="1058.57">y3</text>
</g>
<polyline clip-path="url(#clip0400)" style="stroke:#c271d2; stroke-width:4; stroke-opacity:1; fill:none" points="
  2013.93,1101.55 2157.93,1101.55 
  "/>
<g clip-path="url(#clip0400)">
<text style="fill:#000000; fill-opacity:1; font-family:Arial,Helvetica Neue,Helvetica,sans-serif; font-size:48px; text-anchor:start;" transform="rotate(0, 2181.93, 1119.05)" x="2181.93" y="1119.05">y4</text>
</g>
<polyline clip-path="url(#clip0400)" style="stroke:#ac8d18; stroke-width:4; stroke-opacity:1; fill:none" points="
  2013.93,1162.03 2157.93,1162.03 
  "/>
<g clip-path="url(#clip0400)">
<text style="fill:#000000; fill-opacity:1; font-family:Arial,Helvetica Neue,Helvetica,sans-serif; font-size:48px; text-anchor:start;" transform="rotate(0, 2181.93, 1179.53)" x="2181.93" y="1179.53">y5</text>
</g>
<polyline clip-path="url(#clip0400)" style="stroke:#00a9ad; stroke-width:4; stroke-opacity:1; fill:none" points="
  2013.93,1222.51 2157.93,1222.51 
  "/>
<g clip-path="url(#clip0400)">
<text style="fill:#000000; fill-opacity:1; font-family:Arial,Helvetica Neue,Helvetica,sans-serif; font-size:48px; text-anchor:start;" transform="rotate(0, 2181.93, 1240.01)" x="2181.93" y="1240.01">y6</text>
</g>
<polyline clip-path="url(#clip0400)" style="stroke:#ed5d92; stroke-width:4; stroke-opacity:1; fill:none" points="
  2013.93,1282.99 2157.93,1282.99 
  "/>
<g clip-path="url(#clip0400)">
<text style="fill:#000000; fill-opacity:1; font-family:Arial,Helvetica Neue,Helvetica,sans-serif; font-size:48px; text-anchor:start;" transform="rotate(0, 2181.93, 1300.49)" x="2181.93" y="1300.49">y7</text>
</g>
</svg>
