<?xml version="1.0" encoding="utf-8"?>
<svg xmlns="http://www.w3.org/2000/svg" xmlns:xlink="http://www.w3.org/1999/xlink" width="600" height="400" viewBox="0 0 2400 1600">
<defs>
  <clipPath id="clip4800">
    <rect x="0" y="0" width="2400" height="1600"/>
  </clipPath>
</defs>
<polygon clip-path="url(#clip4800)" points="
0,1600 2400,1600 2400,0 0,0 
  " fill="#ffffff" fill-rule="evenodd" fill-opacity="1"/>
<defs>
  <clipPath id="clip4801">
    <rect x="480" y="0" width="1681" height="1600"/>
  </clipPath>
</defs>
<polygon clip-path="url(#clip4800)" points="
180.66,1487.47 2352.76,1487.47 2352.76,121.675 180.66,121.675 
  " fill="#ffffff" fill-rule="evenodd" fill-opacity="1"/>
<defs>
  <clipPath id="clip4802">
    <rect x="180" y="121" width="2173" height="1367"/>
  </clipPath>
</defs>
<polyline clip-path="url(#clip4802)" style="stroke:#000000; stroke-width:2; stroke-opacity:0.1; fill:none" points="
  242.135,1487.47 242.135,121.675 
  "/>
<polyline clip-path="url(#clip4802)" style="stroke:#000000; stroke-width:2; stroke-opacity:0.1; fill:none" points="
  651.964,1487.47 651.964,121.675 
  "/>
<polyline clip-path="url(#clip4802)" style="stroke:#000000; stroke-width:2; stroke-opacity:0.1; fill:none" points="
  1061.79,1487.47 1061.79,121.675 
  "/>
<polyline clip-path="url(#clip4802)" style="stroke:#000000; stroke-width:2; stroke-opacity:0.1; fill:none" points="
  1471.62,1487.47 1471.62,121.675 
  "/>
<polyline clip-path="url(#clip4802)" style="stroke:#000000; stroke-width:2; stroke-opacity:0.1; fill:none" points="
  1881.45,1487.47 1881.45,121.675 
  "/>
<polyline clip-path="url(#clip4802)" style="stroke:#000000; stroke-width:2; stroke-opacity:0.1; fill:none" points="
  2291.28,1487.47 2291.28,121.675 
  "/>
<polyline clip-path="url(#clip4802)" style="stroke:#000000; stroke-width:2; stroke-opacity:0.1; fill:none" points="
  180.66,1450.24 2352.76,1450.24 
  "/>
<polyline clip-path="url(#clip4802)" style="stroke:#000000; stroke-width:2; stroke-opacity:0.1; fill:none" points="
  180.66,1127.76 2352.76,1127.76 
  "/>
<polyline clip-path="url(#clip4802)" style="stroke:#000000; stroke-width:2; stroke-opacity:0.1; fill:none" points="
  180.66,805.284 2352.76,805.284 
  "/>
<polyline clip-path="url(#clip4802)" style="stroke:#000000; stroke-width:2; stroke-opacity:0.1; fill:none" points="
  180.66,482.807 2352.76,482.807 
  "/>
<polyline clip-path="url(#clip4802)" style="stroke:#000000; stroke-width:2; stroke-opacity:0.1; fill:none" points="
  180.66,160.33 2352.76,160.33 
  "/>
<polyline clip-path="url(#clip4800)" style="stroke:#000000; stroke-width:4; stroke-opacity:1; fill:none" points="
  180.66,1487.47 2352.76,1487.47 
  "/>
<polyline clip-path="url(#clip4800)" style="stroke:#000000; stroke-width:4; stroke-opacity:1; fill:none" points="
  180.66,1487.47 180.66,121.675 
  "/>
<polyline clip-path="url(#clip4800)" style="stroke:#000000; stroke-width:4; stroke-opacity:1; fill:none" points="
  242.135,1487.47 242.135,1466.99 
  "/>
<polyline clip-path="url(#clip4800)" style="stroke:#000000; stroke-width:4; stroke-opacity:1; fill:none" points="
  651.964,1487.47 651.964,1466.99 
  "/>
<polyline clip-path="url(#clip4800)" style="stroke:#000000; stroke-width:4; stroke-opacity:1; fill:none" points="
  1061.79,1487.47 1061.79,1466.99 
  "/>
<polyline clip-path="url(#clip4800)" style="stroke:#000000; stroke-width:4; stroke-opacity:1; fill:none" points="
  1471.62,1487.47 1471.62,1466.99 
  "/>
<polyline clip-path="url(#clip4800)" style="stroke:#000000; stroke-width:4; stroke-opacity:1; fill:none" points="
  1881.45,1487.47 1881.45,1466.99 
  "/>
<polyline clip-path="url(#clip4800)" style="stroke:#000000; stroke-width:4; stroke-opacity:1; fill:none" points="
  2291.28,1487.47 2291.28,1466.99 
  "/>
<polyline clip-path="url(#clip4800)" style="stroke:#000000; stroke-width:4; stroke-opacity:1; fill:none" points="
  180.66,1450.24 213.242,1450.24 
  "/>
<polyline clip-path="url(#clip4800)" style="stroke:#000000; stroke-width:4; stroke-opacity:1; fill:none" points="
  180.66,1127.76 213.242,1127.76 
  "/>
<polyline clip-path="url(#clip4800)" style="stroke:#000000; stroke-width:4; stroke-opacity:1; fill:none" points="
  180.66,805.284 213.242,805.284 
  "/>
<polyline clip-path="url(#clip4800)" style="stroke:#000000; stroke-width:4; stroke-opacity:1; fill:none" points="
  180.66,482.807 213.242,482.807 
  "/>
<polyline clip-path="url(#clip4800)" style="stroke:#000000; stroke-width:4; stroke-opacity:1; fill:none" points="
  180.66,160.33 213.242,160.33 
  "/>
<g clip-path="url(#clip4800)">
<text style="fill:#000000; fill-opacity:1; font-family:Arial,Helvetica Neue,Helvetica,sans-serif; font-size:48px; text-anchor:middle;" transform="rotate(0, 242.135, 1541.47)" x="242.135" y="1541.47">0</text>
</g>
<g clip-path="url(#clip4800)">
<text style="fill:#000000; fill-opacity:1; font-family:Arial,Helvetica Neue,Helvetica,sans-serif; font-size:48px; text-anchor:middle;" transform="rotate(0, 651.964, 1541.47)" x="651.964" y="1541.47">5</text>
</g>
<g clip-path="url(#clip4800)">
<text style="fill:#000000; fill-opacity:1; font-family:Arial,Helvetica Neue,Helvetica,sans-serif; font-size:48px; text-anchor:middle;" transform="rotate(0, 1061.79, 1541.47)" x="1061.79" y="1541.47">10</text>
</g>
<g clip-path="url(#clip4800)">
<text style="fill:#000000; fill-opacity:1; font-family:Arial,Helvetica Neue,Helvetica,sans-serif; font-size:48px; text-anchor:middle;" transform="rotate(0, 1471.62, 1541.47)" x="1471.62" y="1541.47">15</text>
</g>
<g clip-path="url(#clip4800)">
<text style="fill:#000000; fill-opacity:1; font-family:Arial,Helvetica Neue,Helvetica,sans-serif; font-size:48px; text-anchor:middle;" transform="rotate(0, 1881.45, 1541.47)" x="1881.45" y="1541.47">20</text>
</g>
<g clip-path="url(#clip4800)">
<text style="fill:#000000; fill-opacity:1; font-family:Arial,Helvetica Neue,Helvetica,sans-serif; font-size:48px; text-anchor:middle;" transform="rotate(0, 2291.28, 1541.47)" x="2291.28" y="1541.47">25</text>
</g>
<g clip-path="url(#clip4800)">
<text style="fill:#000000; fill-opacity:1; font-family:Arial,Helvetica Neue,Helvetica,sans-serif; font-size:48px; text-anchor:end;" transform="rotate(0, 156.66, 1467.74)" x="156.66" y="1467.74">0.00</text>
</g>
<g clip-path="url(#clip4800)">
<text style="fill:#000000; fill-opacity:1; font-family:Arial,Helvetica Neue,Helvetica,sans-serif; font-size:48px; text-anchor:end;" transform="rotate(0, 156.66, 1145.26)" x="156.66" y="1145.26">0.25</text>
</g>
<g clip-path="url(#clip4800)">
<text style="fill:#000000; fill-opacity:1; font-family:Arial,Helvetica Neue,Helvetica,sans-serif; font-size:48px; text-anchor:end;" transform="rotate(0, 156.66, 822.784)" x="156.66" y="822.784">0.50</text>
</g>
<g clip-path="url(#clip4800)">
<text style="fill:#000000; fill-opacity:1; font-family:Arial,Helvetica Neue,Helvetica,sans-serif; font-size:48px; text-anchor:end;" transform="rotate(0, 156.66, 500.307)" x="156.66" y="500.307">0.75</text>
</g>
<g clip-path="url(#clip4800)">
<text style="fill:#000000; fill-opacity:1; font-family:Arial,Helvetica Neue,Helvetica,sans-serif; font-size:48px; text-anchor:end;" transform="rotate(0, 156.66, 177.83)" x="156.66" y="177.83">1.00</text>
</g>
<g clip-path="url(#clip4800)">
<text style="fill:#000000; fill-opacity:1; font-family:Arial,Helvetica Neue,Helvetica,sans-serif; font-size:84px; text-anchor:middle;" transform="rotate(0, 1266.71, 73.2)" x="1266.71" y="73.2">Change of Asset CDF as sigma_epsilon increases</text>
</g>
<polyline clip-path="url(#clip4802)" style="stroke:#009af9; stroke-width:4; stroke-opacity:1; fill:none" points="
  242.135,1448.05 242.135,1448.05 242.135,1448.05 242.135,1448.05 242.135,1448.05 242.135,1448.05 242.135,1448.05 242.135,1448.05 242.135,1448.05 242.135,1448.05 
  242.135,1448.05 242.135,1448.05 242.135,1448.05 242.135,1448.05 242.135,1448.05 242.135,1448.05 242.135,1448.05 242.135,1448.05 242.135,1448.05 242.135,1448.05 
  242.135,1448.05 242.135,1448.05 242.135,1448.05 242.135,1448.05 242.135,1448.05 242.135,1448.05 242.135,1448.05 242.135,1448.05 242.135,1448.05 242.135,1448.05 
  242.136,1448.05 242.136,1448.05 242.136,1448.05 242.136,1448.05 242.137,1448.05 242.137,1448.05 242.138,1448.05 242.139,1448.05 242.139,1448.05 242.14,1448.05 
  242.141,1448.05 242.142,1448.05 242.144,1448.05 242.145,1448.05 242.147,1448.05 242.149,1448.05 242.152,1448.05 242.154,1448.05 242.157,1448.05 242.161,1448.05 
  242.165,1448.05 242.169,1448.05 242.174,1448.05 242.18,1448.05 242.186,1448.05 242.193,1448.05 242.2,1448.05 242.209,1448.05 242.218,1448.05 242.229,1448.05 
  242.24,1448.05 242.253,1448.05 242.267,1448.05 242.282,1448.05 242.299,1447.27 242.318,1447.27 242.338,1447.27 242.36,1447.27 242.385,1447.27 242.411,1447.27 
  242.44,1447.27 242.471,1447.14 242.506,1447.14 242.543,1447.01 242.583,1446.89 242.626,1446.89 242.674,1446.89 242.724,1446.89 242.779,1446.89 242.839,1446.89 
  242.903,1446.76 242.972,1446.76 243.046,1446.76 243.125,1446.76 243.211,1446.76 243.303,1446.5 243.401,1446.37 243.507,1446.37 243.62,1446.37 243.741,1446.37 
  243.87,1446.37 244.008,1446.37 244.155,1446.37 244.312,1446.24 244.479,1446.11 244.658,1446.11 244.847,1446.11 245.049,1446.11 245.264,1445.98 245.492,1445.98 
  245.734,1445.98 245.991,1445.85 246.264,1445.72 246.553,1445.6 246.859,1445.08 247.183,1445.08 247.526,1445.08 247.889,1444.82 248.272,1444.82 248.677,1444.43 
  249.105,1444.05 249.557,1443.79 250.033,1442.89 250.536,1442.63 251.065,1442.5 251.623,1442.37 252.211,1441.98 252.829,1441.73 253.48,1441.34 254.165,1440.56 
  254.884,1439.79 255.64,1439.27 256.434,1439.02 257.268,1438.24 258.144,1437.34 259.062,1436.69 260.025,1435.92 261.035,1435.53 262.093,1435.28 263.201,1433.86 
  264.362,1432.31 265.578,1431.15 266.849,1429.47 268.18,1428.57 269.571,1427.28 271.026,1426.38 272.546,1425.86 274.134,1425.09 275.793,1424.05 277.525,1421.99 
  279.333,1421.34 281.22,1419.93 283.188,1418.51 285.24,1416.19 287.38,1413.99 289.61,1412.44 291.933,1410.12 294.353,1408.7 296.874,1406.64 299.498,1404.45 
  302.229,1401.61 305.071,1399.42 308.027,1397.09 311.101,1395.03 314.298,1392.19 317.621,1388.58 321.074,1384.84 324.661,1382.13 328.387,1377.88 332.257,1374.39 
  336.275,1370.01 340.445,1366.91 344.772,1360.07 349.262,1355.17 353.919,1350.14 358.748,1346.79 363.756,1338.66 368.946,1334.41 374.325,1326.54 379.899,1320.6 
  385.672,1312.99 391.652,1305 397.844,1298.16 404.255,1292.87 410.891,1282.29 417.758,1274.68 424.863,1268.36 432.213,1261.4 439.815,1252.11 447.677,1242.05 
  455.804,1227.99 464.206,1219.99 472.889,1210.57 481.862,1192.64 491.132,1185.68 500.708,1176.39 510.598,1159.75 520.81,1149.43 531.353,1126.47 542.236,1115.12 
  553.469,1095.9 565.06,1085.84 577.019,1066.36 589.355,1049.72 602.079,1030.63 615.201,1016.57 628.73,996.965 642.678,978.906 657.055,957.365 671.872,935.952 
  687.14,910.799 702.871,886.42 719.076,865.265 735.768,846.819 752.957,827.342 770.657,802.705 788.88,787.742 807.64,766.716 826.948,755.236 846.818,735.113 
  867.265,724.794 888.301,707.509 909.941,687.387 932.199,666.361 955.09,640.692 978.629,616.829 1002.83,592.836 1027.71,566.264 1053.29,541.627 1079.57,518.538 
  1106.58,494.545 1134.34,470.682 1162.85,442.949 1192.15,413.539 1222.24,387.999 1253.14,359.879 1284.87,333.565 1317.45,286.612 1350.9,269.069 1385.24,251.139 
  1420.49,234.5 1456.67,218.634 1493.79,205.348 1531.88,194.899 1570.96,185.87 1611.05,180.194 1652.17,175.551 1694.35,170.778 1737.61,167.811 1781.96,165.876 
  1827.44,164.071 1874.06,162.781 1921.85,161.749 1970.84,161.362 2021.05,161.233 2072.5,160.846 2125.23,160.717 2179.25,160.717 2234.59,160.588 2291.28,160.33 
  
  "/>
<polyline clip-path="url(#clip4802)" style="stroke:#e26f46; stroke-width:4; stroke-opacity:1; fill:none" points="
  242.135,1448.82 242.135,1448.82 242.135,1448.82 242.135,1448.82 242.135,1448.82 242.135,1448.82 242.135,1448.82 242.135,1448.82 242.135,1448.82 242.135,1448.82 
  242.135,1448.82 242.135,1448.82 242.135,1448.82 242.135,1448.82 242.135,1448.82 242.135,1448.82 242.135,1448.82 242.135,1448.82 242.135,1448.82 242.135,1448.82 
  242.135,1448.82 242.135,1448.82 242.135,1448.82 242.135,1448.82 242.135,1448.82 242.135,1448.82 242.135,1448.82 242.135,1448.82 242.135,1448.82 242.135,1448.82 
  242.136,1448.82 242.136,1448.82 242.136,1448.82 242.136,1448.82 242.137,1448.82 242.137,1448.82 242.138,1448.82 242.139,1448.82 242.139,1448.82 242.14,1448.82 
  242.141,1448.82 242.142,1448.82 242.144,1448.82 242.145,1448.82 242.147,1448.82 242.149,1448.82 242.152,1448.82 242.154,1448.82 242.157,1448.82 242.161,1448.82 
  242.165,1448.82 242.169,1448.82 242.174,1448.82 242.18,1448.82 242.186,1448.82 242.193,1448.82 242.2,1448.82 242.209,1448.82 242.218,1448.82 242.229,1448.82 
  242.24,1448.82 242.253,1448.82 242.267,1448.82 242.282,1448.82 242.299,1448.82 242.318,1448.82 242.338,1448.82 242.36,1448.82 242.385,1448.82 242.411,1448.69 
  242.44,1448.69 242.471,1448.69 242.506,1448.69 242.543,1448.69 242.583,1448.69 242.626,1448.69 242.674,1448.69 242.724,1448.69 242.779,1448.69 242.839,1448.69 
  242.903,1448.69 242.972,1448.69 243.046,1448.69 243.125,1448.69 243.211,1448.69 243.303,1448.69 243.401,1448.69 243.507,1448.69 243.62,1448.69 243.741,1448.69 
  243.87,1448.69 244.008,1448.56 244.155,1448.56 244.312,1448.56 244.479,1448.56 244.658,1448.43 244.847,1448.43 245.049,1448.43 245.264,1448.43 245.492,1448.43 
  245.734,1447.79 245.991,1447.79 246.264,1447.79 246.553,1447.79 246.859,1447.66 247.183,1447.27 247.526,1447.14 247.889,1447.14 248.272,1446.76 248.677,1446.37 
  249.105,1446.24 249.557,1446.11 250.033,1445.6 250.536,1445.6 251.065,1445.47 251.623,1445.21 252.211,1445.21 252.829,1444.95 253.48,1444.95 254.165,1444.69 
  254.884,1444.69 255.64,1443.92 256.434,1443.79 257.268,1442.89 258.144,1442.76 259.062,1442.11 260.025,1441.98 261.035,1441.73 262.093,1441.47 263.201,1440.95 
  264.362,1440.56 265.578,1440.31 266.849,1439.92 268.18,1439.02 269.571,1438.24 271.026,1437.6 272.546,1437.08 274.134,1435.28 275.793,1434.63 277.525,1433.86 
  279.333,1432.7 281.22,1431.54 283.188,1430.63 285.24,1429.34 287.38,1427.92 289.61,1426.12 291.933,1424.83 294.353,1422.12 296.874,1420.83 299.498,1419.02 
  302.229,1416.96 305.071,1414.9 308.027,1411.54 311.101,1409.35 314.298,1406.9 317.621,1402.77 321.074,1400.19 324.661,1396.45 328.387,1393.74 332.257,1390.77 
  336.275,1386.9 340.445,1384.45 344.772,1380.58 349.262,1377.62 353.919,1372.84 358.748,1369.62 363.756,1363.04 368.946,1359.3 374.325,1355.17 379.899,1350.4 
  385.672,1343.95 391.652,1338.02 397.844,1331.7 404.255,1324.34 410.891,1316.48 417.758,1309.38 424.863,1299.32 432.213,1294.16 439.815,1282.16 447.677,1273.52 
  455.804,1263.07 464.206,1249.01 472.889,1240.63 481.862,1229.79 491.132,1221.02 500.708,1203.22 510.598,1194.45 520.81,1186.58 531.353,1175.88 542.236,1157.04 
  553.469,1145.18 565.06,1131.24 577.019,1120.8 589.355,1097.19 602.079,1080.55 615.201,1063.14 628.73,1043.27 642.678,1022.76 657.055,1004.96 671.872,986.646 
  687.14,965.878 702.871,942.66 719.076,917.635 735.768,898.674 752.957,878.809 770.657,859.332 788.88,840.112 807.64,818.57 826.948,796.513 846.818,775.358 
  867.265,751.495 888.301,730.212 909.941,708.928 932.199,686.355 955.09,666.748 978.629,653.978 1002.83,632.05 1027.71,610.637 1053.29,589.225 1079.57,566.135 
  1106.58,544.852 1134.34,523.181 1162.85,495.061 1192.15,471.327 1222.24,448.367 1253.14,429.921 1284.87,410.701 1317.45,392.771 1350.9,371.617 1385.24,354.074 
  1420.49,335.113 1456.67,318.602 1493.79,305.058 1531.88,292.932 1570.96,277.325 1611.05,264.812 1652.17,252.042 1694.35,241.594 1737.61,231.662 1781.96,222.89 
  1827.44,213.474 1874.06,204.058 1921.85,193.352 1970.84,187.676 2021.05,180.968 2072.5,176.325 2125.23,172.068 2179.25,168.327 2234.59,165.618 2291.28,160.33 
  
  "/>
<polygon clip-path="url(#clip4800)" points="
1611.36,1343.47 2280.76,1343.47 2280.76,1162.03 1611.36,1162.03 
  " fill="#ffffff" fill-rule="evenodd" fill-opacity="1"/>
<polyline clip-path="url(#clip4800)" style="stroke:#000000; stroke-width:4; stroke-opacity:1; fill:none" points="
  1611.36,1343.47 2280.76,1343.47 2280.76,1162.03 1611.36,1162.03 1611.36,1343.47 
  "/>
<polyline clip-path="url(#clip4800)" style="stroke:#009af9; stroke-width:4; stroke-opacity:1; fill:none" points="
  1635.36,1222.51 1779.36,1222.51 
  "/>
<g clip-path="url(#clip4800)">
<text style="fill:#000000; fill-opacity:1; font-family:Arial,Helvetica Neue,Helvetica,sans-serif; font-size:48px; text-anchor:start;" transform="rotate(0, 1803.36, 1240.01)" x="1803.36" y="1240.01">sigma_epsilon = 0.2</text>
</g>
<polyline clip-path="url(#clip4800)" style="stroke:#e26f46; stroke-width:4; stroke-opacity:1; fill:none" points="
  1635.36,1282.99 1779.36,1282.99 
  "/>
<g clip-path="url(#clip4800)">
<text style="fill:#000000; fill-opacity:1; font-family:Arial,Helvetica Neue,Helvetica,sans-serif; font-size:48px; text-anchor:start;" transform="rotate(0, 1803.36, 1300.49)" x="1803.36" y="1300.49">sigma_epsilon = 0.4</text>
</g>
</svg>
