<?xml version="1.0" encoding="utf-8"?>
<svg xmlns="http://www.w3.org/2000/svg" xmlns:xlink="http://www.w3.org/1999/xlink" width="600" height="400" viewBox="0 0 2400 1600">
<defs>
  <clipPath id="clip3200">
    <rect x="0" y="0" width="2400" height="1600"/>
  </clipPath>
</defs>
<polygon clip-path="url(#clip3200)" points="
0,1600 2400,1600 2400,0 0,0 
  " fill="#ffffff" fill-rule="evenodd" fill-opacity="1"/>
<defs>
  <clipPath id="clip3201">
    <rect x="480" y="0" width="1681" height="1600"/>
  </clipPath>
</defs>
<polygon clip-path="url(#clip3200)" points="
180.66,1487.47 2352.76,1487.47 2352.76,121.675 180.66,121.675 
  " fill="#ffffff" fill-rule="evenodd" fill-opacity="1"/>
<defs>
  <clipPath id="clip3202">
    <rect x="180" y="121" width="2173" height="1367"/>
  </clipPath>
</defs>
<polyline clip-path="url(#clip3202)" style="stroke:#000000; stroke-width:2; stroke-opacity:0.1; fill:none" points="
  466.265,1487.47 466.265,121.675 
  "/>
<polyline clip-path="url(#clip3202)" style="stroke:#000000; stroke-width:2; stroke-opacity:0.1; fill:none" points="
  786.442,1487.47 786.442,121.675 
  "/>
<polyline clip-path="url(#clip3202)" style="stroke:#000000; stroke-width:2; stroke-opacity:0.1; fill:none" points="
  1106.62,1487.47 1106.62,121.675 
  "/>
<polyline clip-path="url(#clip3202)" style="stroke:#000000; stroke-width:2; stroke-opacity:0.1; fill:none" points="
  1426.8,1487.47 1426.8,121.675 
  "/>
<polyline clip-path="url(#clip3202)" style="stroke:#000000; stroke-width:2; stroke-opacity:0.1; fill:none" points="
  1746.97,1487.47 1746.97,121.675 
  "/>
<polyline clip-path="url(#clip3202)" style="stroke:#000000; stroke-width:2; stroke-opacity:0.1; fill:none" points="
  2067.15,1487.47 2067.15,121.675 
  "/>
<polyline clip-path="url(#clip3202)" style="stroke:#000000; stroke-width:2; stroke-opacity:0.1; fill:none" points="
  180.66,1448.82 2352.76,1448.82 
  "/>
<polyline clip-path="url(#clip3202)" style="stroke:#000000; stroke-width:2; stroke-opacity:0.1; fill:none" points="
  180.66,1252.03 2352.76,1252.03 
  "/>
<polyline clip-path="url(#clip3202)" style="stroke:#000000; stroke-width:2; stroke-opacity:0.1; fill:none" points="
  180.66,1055.24 2352.76,1055.24 
  "/>
<polyline clip-path="url(#clip3202)" style="stroke:#000000; stroke-width:2; stroke-opacity:0.1; fill:none" points="
  180.66,858.452 2352.76,858.452 
  "/>
<polyline clip-path="url(#clip3202)" style="stroke:#000000; stroke-width:2; stroke-opacity:0.1; fill:none" points="
  180.66,661.662 2352.76,661.662 
  "/>
<polyline clip-path="url(#clip3202)" style="stroke:#000000; stroke-width:2; stroke-opacity:0.1; fill:none" points="
  180.66,464.873 2352.76,464.873 
  "/>
<polyline clip-path="url(#clip3202)" style="stroke:#000000; stroke-width:2; stroke-opacity:0.1; fill:none" points="
  180.66,268.083 2352.76,268.083 
  "/>
<polyline clip-path="url(#clip3200)" style="stroke:#000000; stroke-width:4; stroke-opacity:1; fill:none" points="
  180.66,1487.47 2352.76,1487.47 
  "/>
<polyline clip-path="url(#clip3200)" style="stroke:#000000; stroke-width:4; stroke-opacity:1; fill:none" points="
  180.66,1487.47 180.66,121.675 
  "/>
<polyline clip-path="url(#clip3200)" style="stroke:#000000; stroke-width:4; stroke-opacity:1; fill:none" points="
  466.265,1487.47 466.265,1466.99 
  "/>
<polyline clip-path="url(#clip3200)" style="stroke:#000000; stroke-width:4; stroke-opacity:1; fill:none" points="
  786.442,1487.47 786.442,1466.99 
  "/>
<polyline clip-path="url(#clip3200)" style="stroke:#000000; stroke-width:4; stroke-opacity:1; fill:none" points="
  1106.62,1487.47 1106.62,1466.99 
  "/>
<polyline clip-path="url(#clip3200)" style="stroke:#000000; stroke-width:4; stroke-opacity:1; fill:none" points="
  1426.8,1487.47 1426.8,1466.99 
  "/>
<polyline clip-path="url(#clip3200)" style="stroke:#000000; stroke-width:4; stroke-opacity:1; fill:none" points="
  1746.97,1487.47 1746.97,1466.99 
  "/>
<polyline clip-path="url(#clip3200)" style="stroke:#000000; stroke-width:4; stroke-opacity:1; fill:none" points="
  2067.15,1487.47 2067.15,1466.99 
  "/>
<polyline clip-path="url(#clip3200)" style="stroke:#000000; stroke-width:4; stroke-opacity:1; fill:none" points="
  180.66,1448.82 213.242,1448.82 
  "/>
<polyline clip-path="url(#clip3200)" style="stroke:#000000; stroke-width:4; stroke-opacity:1; fill:none" points="
  180.66,1252.03 213.242,1252.03 
  "/>
<polyline clip-path="url(#clip3200)" style="stroke:#000000; stroke-width:4; stroke-opacity:1; fill:none" points="
  180.66,1055.24 213.242,1055.24 
  "/>
<polyline clip-path="url(#clip3200)" style="stroke:#000000; stroke-width:4; stroke-opacity:1; fill:none" points="
  180.66,858.452 213.242,858.452 
  "/>
<polyline clip-path="url(#clip3200)" style="stroke:#000000; stroke-width:4; stroke-opacity:1; fill:none" points="
  180.66,661.662 213.242,661.662 
  "/>
<polyline clip-path="url(#clip3200)" style="stroke:#000000; stroke-width:4; stroke-opacity:1; fill:none" points="
  180.66,464.873 213.242,464.873 
  "/>
<polyline clip-path="url(#clip3200)" style="stroke:#000000; stroke-width:4; stroke-opacity:1; fill:none" points="
  180.66,268.083 213.242,268.083 
  "/>
<g clip-path="url(#clip3200)">
<text style="fill:#000000; fill-opacity:1; font-family:Arial,Helvetica Neue,Helvetica,sans-serif; font-size:48px; text-anchor:middle;" transform="rotate(0, 466.265, 1541.47)" x="466.265" y="1541.47">0</text>
</g>
<g clip-path="url(#clip3200)">
<text style="fill:#000000; fill-opacity:1; font-family:Arial,Helvetica Neue,Helvetica,sans-serif; font-size:48px; text-anchor:middle;" transform="rotate(0, 786.442, 1541.47)" x="786.442" y="1541.47">5</text>
</g>
<g clip-path="url(#clip3200)">
<text style="fill:#000000; fill-opacity:1; font-family:Arial,Helvetica Neue,Helvetica,sans-serif; font-size:48px; text-anchor:middle;" transform="rotate(0, 1106.62, 1541.47)" x="1106.62" y="1541.47">10</text>
</g>
<g clip-path="url(#clip3200)">
<text style="fill:#000000; fill-opacity:1; font-family:Arial,Helvetica Neue,Helvetica,sans-serif; font-size:48px; text-anchor:middle;" transform="rotate(0, 1426.8, 1541.47)" x="1426.8" y="1541.47">15</text>
</g>
<g clip-path="url(#clip3200)">
<text style="fill:#000000; fill-opacity:1; font-family:Arial,Helvetica Neue,Helvetica,sans-serif; font-size:48px; text-anchor:middle;" transform="rotate(0, 1746.97, 1541.47)" x="1746.97" y="1541.47">20</text>
</g>
<g clip-path="url(#clip3200)">
<text style="fill:#000000; fill-opacity:1; font-family:Arial,Helvetica Neue,Helvetica,sans-serif; font-size:48px; text-anchor:middle;" transform="rotate(0, 2067.15, 1541.47)" x="2067.15" y="1541.47">25</text>
</g>
<g clip-path="url(#clip3200)">
<text style="fill:#000000; fill-opacity:1; font-family:Arial,Helvetica Neue,Helvetica,sans-serif; font-size:48px; text-anchor:end;" transform="rotate(0, 156.66, 1466.32)" x="156.66" y="1466.32">0.00</text>
</g>
<g clip-path="url(#clip3200)">
<text style="fill:#000000; fill-opacity:1; font-family:Arial,Helvetica Neue,Helvetica,sans-serif; font-size:48px; text-anchor:end;" transform="rotate(0, 156.66, 1269.53)" x="156.66" y="1269.53">0.02</text>
</g>
<g clip-path="url(#clip3200)">
<text style="fill:#000000; fill-opacity:1; font-family:Arial,Helvetica Neue,Helvetica,sans-serif; font-size:48px; text-anchor:end;" transform="rotate(0, 156.66, 1072.74)" x="156.66" y="1072.74">0.04</text>
</g>
<g clip-path="url(#clip3200)">
<text style="fill:#000000; fill-opacity:1; font-family:Arial,Helvetica Neue,Helvetica,sans-serif; font-size:48px; text-anchor:end;" transform="rotate(0, 156.66, 875.952)" x="156.66" y="875.952">0.06</text>
</g>
<g clip-path="url(#clip3200)">
<text style="fill:#000000; fill-opacity:1; font-family:Arial,Helvetica Neue,Helvetica,sans-serif; font-size:48px; text-anchor:end;" transform="rotate(0, 156.66, 679.162)" x="156.66" y="679.162">0.08</text>
</g>
<g clip-path="url(#clip3200)">
<text style="fill:#000000; fill-opacity:1; font-family:Arial,Helvetica Neue,Helvetica,sans-serif; font-size:48px; text-anchor:end;" transform="rotate(0, 156.66, 482.373)" x="156.66" y="482.373">0.10</text>
</g>
<g clip-path="url(#clip3200)">
<text style="fill:#000000; fill-opacity:1; font-family:Arial,Helvetica Neue,Helvetica,sans-serif; font-size:48px; text-anchor:end;" transform="rotate(0, 156.66, 285.583)" x="156.66" y="285.583">0.12</text>
</g>
<g clip-path="url(#clip3200)">
<text style="fill:#000000; fill-opacity:1; font-family:Arial,Helvetica Neue,Helvetica,sans-serif; font-size:84px; text-anchor:middle;" transform="rotate(0, 1266.71, 73.2)" x="1266.71" y="73.2">Change of Asset PDF as persistency of productivity shock increases</text>
</g>
<polyline clip-path="url(#clip3202)" style="stroke:#009af9; stroke-width:8; stroke-opacity:1; fill:none" points="
  356.271,1448.82 358.672,1448.82 361.072,1448.82 363.472,1448.82 365.873,1448.82 368.273,1448.82 370.674,1448.82 373.074,1448.82 375.475,1448.82 377.875,1448.82 
  380.276,1448.82 382.676,1448.82 385.077,1448.82 387.477,1448.82 389.878,1448.82 392.278,1448.82 394.679,1448.82 397.079,1448.82 399.48,1448.82 401.88,1448.82 
  404.281,1448.82 406.681,1448.82 409.081,1448.82 411.482,1448.82 413.882,1448.82 416.283,1448.82 418.683,1448.82 421.084,1448.81 423.484,1448.78 425.885,1448.73 
  428.285,1448.66 430.686,1448.58 433.086,1448.48 435.487,1448.31 437.887,1448.05 440.288,1447.66 442.688,1447.12 445.089,1446.4 447.489,1445.49 449.89,1444.36 
  452.29,1442.97 454.69,1441.27 457.091,1439.19 459.491,1436.65 461.892,1433.64 464.292,1430.18 466.693,1426.25 469.093,1421.92 471.494,1417.15 473.894,1411.92 
  476.295,1406.34 478.695,1400.48 481.096,1394.49 483.496,1388.41 485.897,1382.18 488.297,1375.8 490.698,1369.23 493.098,1362.44 495.499,1355.59 497.899,1348.81 
  500.3,1342.06 502.7,1335.42 505.1,1328.93 507.501,1322.44 509.901,1316.03 512.302,1309.66 514.702,1303.18 517.103,1296.74 519.503,1290.49 521.904,1284.55 
  524.304,1278.78 526.705,1273.08 529.105,1267.42 531.506,1261.8 533.906,1256.05 536.307,1249.84 538.707,1243.28 541.108,1236.39 543.508,1229.19 545.909,1221.98 
  548.309,1214.44 550.709,1206.34 553.11,1197.77 555.51,1188.85 557.911,1179.67 560.311,1170.32 562.712,1160.88 565.112,1151.35 567.513,1142.22 569.913,1133.68 
  572.314,1125.76 574.714,1118.34 577.115,1111.27 579.515,1104.84 581.916,1098.85 584.316,1093.12 586.717,1087.92 589.117,1083.57 591.518,1080.27 593.918,1077.5 
  596.318,1074.97 598.719,1072.98 601.119,1071.05 603.52,1069 605.92,1067.2 608.321,1065.35 610.721,1063.39 613.122,1061.65 615.522,1059.58 617.923,1056.69 
  620.323,1053.46 622.724,1049.58 625.124,1044.72 627.525,1039.32 629.925,1033.32 632.326,1026.96 634.726,1020.66 637.127,1014.83 639.527,1009.1 641.928,1002.83 
  644.328,996.743 646.728,990.561 649.129,983.87 651.529,977.329 653.93,970.57 656.33,963.359 658.731,956.424 661.131,950.44 663.532,944.394 665.932,937.691 
  668.333,930.941 670.733,924.803 673.134,918.873 675.534,912.378 677.935,906.178 680.335,901.108 682.736,896.319 685.136,891.081 687.537,885.582 689.937,880.599 
  692.337,875.928 694.738,870.731 697.138,865.871 699.539,862.198 701.939,858.495 704.34,854.357 706.74,850.681 709.141,847.549 711.541,844.782 713.942,842.392 
  716.342,840.498 718.743,839.882 721.143,841.324 723.544,843.334 725.944,845.208 728.345,847.706 730.745,850.832 733.146,853.518 735.546,855.534 737.946,857.622 
  740.347,859.622 742.747,862.332 745.148,865.526 747.548,868.027 749.949,870.703 752.349,874.452 754.75,879.095 757.15,883.095 759.551,886.297 761.951,889.96 
  764.352,894.02 766.752,898.255 769.153,902.014 771.553,904.996 773.954,907.272 776.354,908.754 778.755,910.433 781.155,911.714 783.556,911.073 785.956,908.667 
  788.356,905.554 790.757,902.838 793.157,898.87 795.558,892.177 797.958,884.236 800.359,876.605 802.759,869.479 805.16,861.206 807.56,851.338 809.961,841.301 
  812.361,831.425 814.762,821.869 817.162,812.618 819.563,803.1 821.963,793.258 824.364,783.575 826.764,774.356 829.165,766.718 831.565,761.796 833.965,757.623 
  836.366,752.474 838.766,746.678 841.167,741.553 843.567,738.453 845.968,737.475 848.368,736.439 850.769,733.409 853.169,729.878 855.57,727.389 857.97,726.082 
  860.371,725.903 862.771,724.158 865.172,720.001 867.572,715.362 869.973,710.554 872.373,705.678 874.774,700.623 877.174,694.038 879.574,685.305 881.975,675.084 
  884.375,663.804 886.776,651.661 889.176,640.417 891.577,631.96 893.977,623.524 896.378,612.712 898.778,599.99 901.179,587.435 903.579,577.243 905.98,569.702 
  908.38,561.834 910.781,551.056 913.181,537.871 915.582,524.608 917.982,513.736 920.383,505.589 922.783,500.257 925.184,494.854 927.584,486.806 929.984,478.527 
  932.385,472.593 934.785,469.29 937.186,468.652 939.586,470.461 941.987,471.496 944.387,471.156 946.788,472.037 949.188,474.379 951.589,478.16 953.989,483.092 
  956.39,488.628 958.79,493.674 961.191,498.013 963.591,502.005 965.992,505.743 968.392,509.043 970.793,511.456 973.193,515.435 975.593,523.795 977.994,533.495 
  980.394,541.826 982.795,548.849 985.195,554.353 987.596,557.858 989.996,561.731 992.397,568.685 994.797,578.387 997.198,587.006 999.598,591.149 1002,590.765 
  1004.4,588.889 1006.8,588.941 1009.2,591.072 1011.6,595.205 1014,597.84 1016.4,595.898 1018.8,589.545 1021.2,581.697 1023.6,575.587 1026,571.474 
  1028.4,569.383 1030.8,569.102 1033.2,566.815 1035.61,559.152 1038.01,549.215 1040.41,540.417 1042.81,533.175 1045.21,527.664 1047.61,523.81 1050.01,521.295 
  1052.41,519.555 1054.81,517.894 1057.21,516.668 1059.61,516.516 1062.01,517.829 1064.41,520.748 1066.81,525.168 1069.21,530.731 1071.61,536.835 1074.01,542.446 
  1076.41,547.536 1078.81,552.625 1081.21,557.977 1083.61,563.602 1086.02,569.25 1088.42,574.418 1090.82,578.346 1093.22,583.638 1095.62,590.371 1098.02,595.75 
  1100.42,600.024 1102.82,603.189 1105.22,604.99 1107.62,604.923 1110.02,605.757 1112.42,610.71 1114.82,619.604 1117.22,628.259 1119.62,633.064 1122.02,634.347 
  1124.42,632.176 1126.82,626.357 1129.22,620.158 1131.62,617.321 1134.02,618.012 1136.43,622.189 1138.83,625.553 1141.23,624.421 1143.63,619.306 1146.03,610.451 
  1148.43,597.828 1150.83,584.653 1153.23,574.564 1155.63,567.795 1158.03,564.36 1160.43,564.05 1162.83,561.805 1165.23,553.278 1167.63,538.949 1170.03,522.556 
  1172.43,508.246 1174.83,496.704 1177.23,488.373 1179.63,483.449 1182.03,481.888 1184.43,483.398 1186.84,482.043 1189.24,472.734 1191.64,459.324 1194.04,445.985 
  1196.44,433.626 1198.84,422.874 1201.24,414.073 1203.64,407.285 1206.04,402.29 1208.44,398.586 1210.84,389.821 1213.24,374.689 1215.64,358.498 1218.04,342.444 
  1220.44,327.412 1222.84,313.978 1225.24,302.408 1227.64,292.658 1230.04,284.373 1232.44,276.89 1234.84,267.635 1237.25,255.839 1239.65,243.052 1242.05,230.484 
  1244.45,218.999 1246.85,209.124 1249.25,201.039 1251.65,194.586 1254.05,189.263 1256.45,184.227 1258.85,183.411 1261.25,185.194 1263.65,184.317 1266.05,182.029 
  1268.45,179.212 1270.85,176.381 1273.25,173.685 1275.65,170.904 1278.05,167.452 1280.45,162.377 1282.85,160.33 1285.25,166.775 1287.66,180.053 1290.06,198.513 
  1292.46,221.79 1294.86,249.215 1297.26,279.815 1299.66,312.31 1302.06,345.118 1304.46,376.351 1306.86,409.97 1309.26,450.848 1311.66,498.072 1314.06,550.126 
  1316.46,605.358 1318.86,662.319 1321.26,719.335 1323.66,774.511 1326.06,825.73 1328.46,870.651 1330.86,913.42 1333.26,959.284 1335.66,1007.29 1338.07,1056.37 
  1340.47,1105.22 1342.87,1152.44 1345.27,1196.6 1347.67,1236.13 1350.07,1269.36 1352.47,1294.46 1354.87,1309.49 1357.27,1319.26 1359.67,1329.8 1362.07,1340.9 
  1364.47,1352.29 1366.87,1363.72 1369.27,1374.8 1371.67,1385.15 1374.07,1394.42 1376.47,1402.22 1378.87,1408.15 1381.27,1411.75 1383.67,1414.14 1386.07,1416.7 
  1388.48,1419.4 1390.88,1422.17 1393.28,1424.94 1395.68,1427.64 1398.08,1430.12 1400.48,1432.27 1402.88,1433.99 1405.28,1435.18 1407.68,1435.74 1410.08,1435.97 
  1412.48,1436.27 1414.88,1436.62 1417.28,1437.02 1419.68,1437.46 1422.08,1437.93 1424.48,1438.4 1426.88,1438.87 1429.28,1439.29 1431.68,1439.66 1434.08,1439.94 
  1436.48,1440.2 1438.89,1440.54 1441.29,1440.93 1443.69,1441.38 1446.09,1441.87 1448.49,1442.4 1450.89,1442.94 1453.29,1443.49 1455.69,1444.02 1458.09,1444.52 
  1460.49,1444.97 1462.89,1445.35 1465.29,1445.69 1467.69,1446.05 1470.09,1446.43 1472.49,1446.8 1474.89,1447.18 1477.29,1447.54 1479.69,1447.88 1482.09,1448.18 
  1484.49,1448.44 1486.89,1448.64 1489.3,1448.77 1491.7,1448.82 1494.1,1448.82 1496.5,1448.82 1498.9,1448.82 1501.3,1448.82 1503.7,1448.82 1506.1,1448.82 
  1508.5,1448.82 1510.9,1448.82 1513.3,1448.82 1515.7,1448.82 1518.1,1448.82 1520.5,1448.82 1522.9,1448.82 1525.3,1448.82 1527.7,1448.82 1530.1,1448.82 
  1532.5,1448.82 1534.9,1448.82 1537.3,1448.82 1539.7,1448.82 1542.11,1448.82 1544.51,1448.82 1546.91,1448.82 1549.31,1448.82 1551.71,1448.82 1554.11,1448.82 
  
  "/>
<polyline clip-path="url(#clip3202)" style="stroke:#e26f46; stroke-width:8; stroke-opacity:1; fill:none" points="
  344.611,1448.82 347.306,1448.82 350.001,1448.82 352.696,1448.82 355.392,1448.82 358.087,1448.82 360.782,1448.82 363.477,1448.82 366.172,1448.82 368.867,1448.82 
  371.563,1448.82 374.258,1448.82 376.953,1448.82 379.648,1448.82 382.343,1448.82 385.038,1448.82 387.734,1448.82 390.429,1448.82 393.124,1448.82 395.819,1448.82 
  398.514,1448.82 401.21,1448.82 403.905,1448.82 406.6,1448.82 409.295,1448.82 411.99,1448.82 414.685,1448.77 417.381,1448.56 420.076,1448.08 422.771,1447.12 
  425.466,1445.58 428.161,1443.42 430.857,1440.48 433.552,1436.6 436.247,1431.7 438.942,1425.7 441.637,1418.64 444.332,1410.57 447.028,1401.57 449.723,1391.76 
  452.418,1381.19 455.113,1369.79 457.808,1357.49 460.504,1344.42 463.199,1330.68 465.894,1316.23 468.589,1301.08 471.284,1285.4 473.979,1269.36 476.675,1253.21 
  479.37,1236.95 482.065,1220.47 484.76,1203.77 487.455,1186.92 490.151,1170.33 492.846,1154.22 495.541,1138.33 498.236,1122.55 500.931,1107.26 503.626,1092.71 
  506.322,1078.6 509.017,1064.54 511.712,1050.72 514.407,1037.56 517.102,1024.97 519.798,1012.95 522.493,1001.22 525.188,989.595 527.883,978.204 530.578,966.774 
  533.273,955.455 535.969,944.226 538.664,933.222 541.359,922.475 544.054,912.04 546.749,901.901 549.445,892.026 552.14,882.3 554.835,872.6 557.53,862.633 
  560.225,852.23 562.92,841.465 565.616,830.532 568.311,819.698 571.006,809.235 573.701,799.919 576.396,791.306 579.092,782.955 581.787,774.362 584.482,765.073 
  587.177,755.928 589.872,747.454 592.567,740.08 595.263,733.238 597.958,726.166 600.653,719.444 603.348,712.941 606.043,706.594 608.739,699.737 611.434,691.789 
  614.129,683.94 616.824,676.389 619.519,668.863 622.214,661.787 624.91,654.445 627.605,646.172 630.3,637.991 632.995,629.827 635.69,621.34 638.386,613.717 
  641.081,606.287 643.776,598.534 646.471,591.265 649.166,584.039 651.861,576.565 654.557,569.733 657.252,563.01 659.947,556.016 662.642,549.748 665.337,545.18 
  668.032,541.819 670.728,539.158 673.423,538.148 676.118,537.395 678.813,535.723 681.508,533.323 684.204,531.32 686.899,529.242 689.594,526.812 692.289,525.463 
  694.984,523.434 697.679,519.501 700.375,514.275 703.07,509.1 705.765,503.969 708.46,497.643 711.155,491.287 713.851,486.024 716.546,480.643 719.241,474.398 
  721.936,467.622 724.631,461.542 727.326,455.454 730.022,447.712 732.717,440.028 735.412,434.132 738.107,428.692 740.802,423.514 743.498,419.857 746.193,417.684 
  748.888,418.132 751.583,420.999 754.278,424.788 756.973,430.548 759.669,439.314 762.364,449.085 765.059,459.395 767.754,471.541 770.449,485.222 773.145,499.881 
  775.84,515.241 778.535,531.278 781.23,547.425 783.925,564.884 786.62,583.497 789.316,601.349 792.011,617.948 794.706,634.29 797.401,651.468 800.096,667.191 
  802.792,681.303 805.487,695.554 808.182,709.626 810.877,722.984 813.572,734.93 816.267,745.127 818.963,753.252 821.658,758.759 824.353,763.427 827.048,767.677 
  829.743,769.778 832.439,769.593 835.134,768.86 837.829,769.515 840.524,771.429 843.219,772.552 845.914,772.526 848.61,773.005 851.305,774.082 854,775.664 
  856.695,775.657 859.39,773.645 862.086,771.295 864.781,768.726 867.476,765.861 870.171,764.182 872.866,763.528 875.561,762.349 878.257,760.88 880.952,759.155 
  883.647,758.129 886.342,756.646 889.037,752.789 891.733,746.786 894.428,740.318 897.123,735.185 899.818,731.479 902.513,726.919 905.208,719.471 907.904,711.045 
  910.599,703.671 913.294,697.595 915.989,692.86 918.684,687.289 921.38,680.49 924.075,674.384 926.77,669.254 929.465,665.173 932.16,662.004 934.855,661.206 
  937.551,662.147 940.246,662.826 942.941,663.502 945.636,664.209 948.331,664.764 951.026,666.688 953.722,669.544 956.417,671.394 959.112,672.411 961.807,672.541 
  964.502,673.508 967.198,677.207 969.893,683.523 972.588,689.945 975.283,694.212 977.978,696.256 980.673,697.764 983.369,700.576 986.064,704.542 988.759,709.305 
  991.454,712.368 994.149,713.783 996.845,715.975 999.54,719.035 1002.23,722.852 1004.93,727.115 1007.63,731.312 1010.32,735.2 1013.02,739.211 1015.71,743.541 
  1018.41,748.192 1021.1,752.971 1023.8,757.484 1026.49,763.377 1029.19,770.135 1031.88,775.541 1034.58,779.839 1037.27,783.067 1039.97,785.063 1042.66,785.459 
  1045.36,786.164 1048.05,787.109 1050.75,786.277 1053.44,783.947 1056.14,780.194 1058.83,774.89 1061.53,770.042 1064.22,767.914 1066.92,768.489 1069.61,769.629 
  1072.31,769.421 1075,767.907 1077.7,764.926 1080.4,762.547 1083.09,763.12 1085.79,766.628 1088.48,772.891 1091.18,779.26 1093.87,783.386 1096.57,785.264 
  1099.26,786.826 1101.96,790.227 1104.65,795.513 1107.35,802.558 1110.04,811.063 1112.74,818.33 1115.43,821.942 1118.13,823.889 1120.82,826.382 1123.52,829.508 
  1126.21,833.177 1128.91,837.125 1131.6,840.908 1134.3,841.485 1136.99,838.784 1139.69,835.731 1142.38,832.668 1145.08,829.761 1147.77,826.998 1150.47,824.194 
  1153.17,820.984 1155.86,819.329 1158.56,819.109 1161.25,818.288 1163.95,817.301 1166.64,816.403 1169.34,815.672 1172.03,815.007 1174.73,814.129 1177.42,814.734 
  1180.12,816.242 1182.81,816.489 1185.51,815.912 1188.2,814.756 1190.9,813.083 1193.59,810.765 1196.29,807.488 1198.98,805.293 1201.68,806.539 1204.37,807.901 
  1207.07,806.555 1209.76,803.048 1212.46,797.721 1215.15,790.716 1217.85,781.971 1220.54,773.687 1223.24,768.349 1225.93,766.046 1228.63,763.679 1231.33,758.594 
  1234.02,751.263 1236.72,741.939 1239.41,730.666 1242.11,719.951 1244.8,712.621 1247.5,708.895 1250.19,708.82 1252.89,712.264 1255.58,714.94 1258.28,713.191 
  1260.97,707.519 1263.67,698.186 1266.36,687.866 1269.06,679.512 1271.75,673.485 1274.45,669.941 1277.14,668.837 1279.84,669.928 1282.53,671.278 1285.23,671.052 
  1287.92,671.623 1290.62,675.687 1293.31,683.238 1296.01,694.084 1298.7,707.845 1301.4,723.96 1304.1,741.681 1306.79,759.368 1309.49,775.337 1312.18,792.063 
  1314.88,812.529 1317.57,836.341 1320.27,862.963 1322.96,891.712 1325.66,921.761 1328.35,952.137 1331.05,981.723 1333.74,1009.25 1336.44,1036.36 1339.13,1065.25 
  1341.83,1095.32 1344.52,1125.91 1347.22,1156.21 1349.91,1185.33 1352.61,1212.29 1355.3,1235.98 1358,1255.2 1360.69,1268.65 1363.39,1279.2 1366.08,1290.49 
  1368.78,1302.32 1371.47,1314.41 1374.17,1326.46 1376.87,1338.14 1379.56,1349.06 1382.26,1358.79 1384.95,1366.86 1387.65,1372.77 1390.34,1377.62 1393.04,1382.69 
  1395.73,1387.79 1398.43,1392.8 1401.12,1397.57 1403.82,1401.96 1406.51,1405.77 1409.21,1408.8 1411.9,1410.84 1414.6,1412.43 1417.29,1414.25 1419.99,1416.27 
  1422.68,1418.38 1425.38,1420.52 1428.07,1422.62 1430.77,1424.63 1433.46,1426.49 1436.16,1428.1 1438.85,1429.4 1441.55,1430.29 1444.24,1430.99 1446.94,1431.8 
  1449.63,1432.69 1452.33,1433.61 1455.03,1434.52 1457.72,1435.39 1460.42,1436.18 1463.11,1436.89 1465.81,1437.46 1468.5,1437.85 1471.2,1438.18 1473.89,1438.57 
  1476.59,1439.02 1479.28,1439.51 1481.98,1440.03 1484.67,1440.57 1487.37,1441.11 1490.06,1441.63 1492.76,1442.1 1495.45,1442.5 1498.15,1442.81 1500.84,1443.08 
  1503.54,1443.4 1506.23,1443.75 1508.93,1444.14 1511.62,1444.54 1514.32,1444.95 1517.01,1445.35 1519.71,1445.72 1522.4,1446.05 1525.1,1446.32 1527.8,1446.52 
  1530.49,1446.69 1533.19,1446.86 1535.88,1447.02 1538.58,1447.19 1541.27,1447.35 1543.97,1447.49 1546.66,1447.62 1549.36,1447.72 1552.05,1447.79 1554.75,1447.83 
  1557.44,1447.81 1560.14,1447.77 1562.83,1447.75 1565.53,1447.73 1568.22,1447.72 1570.92,1447.73 1573.61,1447.75 1576.31,1447.77 1579,1447.81 1581.7,1447.86 
  1584.39,1447.91 1587.09,1447.98 1589.78,1448.05 1592.48,1448.12 1595.17,1448.2 1597.87,1448.29 1600.57,1448.37 1603.26,1448.45 1605.96,1448.53 1608.65,1448.61 
  1611.35,1448.68 1614.04,1448.74 1616.74,1448.78 1619.43,1448.81 1622.13,1448.82 1624.82,1448.82 1627.52,1448.82 1630.21,1448.82 1632.91,1448.82 1635.6,1448.82 
  1638.3,1448.82 1640.99,1448.82 1643.69,1448.82 1646.38,1448.82 1649.08,1448.82 1651.77,1448.82 1654.47,1448.82 1657.16,1448.82 1659.86,1448.82 1662.55,1448.82 
  1665.25,1448.82 1667.94,1448.82 1670.64,1448.82 1673.33,1448.82 1676.03,1448.82 1678.73,1448.82 1681.42,1448.82 1684.12,1448.82 1686.81,1448.82 1689.51,1448.82 
  
  "/>
<polyline clip-path="url(#clip3202)" style="stroke:#3da44d; stroke-width:8; stroke-opacity:1; fill:none" points="
  323.106,1448.82 326.888,1448.82 330.67,1448.82 334.452,1448.82 338.234,1448.82 342.016,1448.82 345.798,1448.82 349.58,1448.82 353.362,1448.82 357.144,1448.82 
  360.926,1448.82 364.708,1448.82 368.49,1448.82 372.272,1448.82 376.054,1448.82 379.836,1448.82 383.618,1448.82 387.4,1448.82 391.182,1448.82 394.964,1448.52 
  398.746,1447.55 402.527,1445.74 406.309,1442.92 410.091,1438.81 413.873,1433.2 417.655,1425.99 421.437,1417.1 425.219,1406.54 429.001,1394.45 432.783,1380.82 
  436.565,1365.66 440.347,1348.92 444.129,1330.59 447.911,1310.97 451.693,1290.13 455.475,1268.11 459.257,1245.27 463.039,1221.61 466.821,1197.1 470.603,1172.03 
  474.385,1146.69 478.167,1121.35 481.949,1096.2 485.731,1071.48 489.513,1047.35 493.295,1023.85 497.077,1001.2 500.859,979.547 504.641,959.302 508.423,940.767 
  512.205,923.738 515.987,908.076 519.769,893.653 523.551,880.659 527.333,869.051 531.115,858.36 534.897,848.669 538.678,839.891 542.46,831.337 546.242,823.102 
  550.024,815.354 553.806,807.566 557.588,799.851 561.37,792.121 565.152,784.368 568.934,776.864 572.716,769.881 576.498,763.434 580.28,756.542 584.062,749.082 
  587.844,741.519 591.626,734.334 595.408,727.778 599.19,721.775 602.972,715.926 606.754,710.045 610.536,704.015 614.318,698.104 618.1,693.284 621.882,688.843 
  625.664,684.222 629.446,679.556 633.228,675.078 637.01,670.45 640.792,665.506 644.574,661.218 648.356,657.631 652.138,654.854 655.92,652.064 659.702,648.556 
  663.484,645.328 667.266,642.413 671.048,639.876 674.829,637.128 678.611,633.774 682.393,630.973 686.175,628.099 689.957,624.633 693.739,621.693 697.521,618.576 
  701.303,614.696 705.085,611.316 708.867,608.104 712.649,605.069 716.431,603.173 720.213,601.83 723.995,600.53 727.777,599.814 731.559,599.971 735.341,600.905 
  739.123,603.004 742.905,604.89 746.687,605.571 750.469,605.708 754.251,604.968 758.033,603.28 761.815,601.467 765.597,599.087 769.379,595.065 773.161,590.76 
  776.943,587.556 780.725,584.674 784.507,581.486 788.289,579.1 792.071,577.503 795.853,575.647 799.635,574.178 803.417,573.633 807.199,573.751 810.98,574.553 
  814.762,575.994 818.544,578.698 822.326,582.218 826.108,586.484 829.89,592.552 833.672,600.148 837.454,608.682 841.236,617.832 845.018,627.396 848.8,638.322 
  852.582,650.877 856.364,664.02 860.146,678.308 863.928,694.274 867.71,710.381 871.492,726.178 875.274,742.273 879.056,758.075 882.838,773.457 886.62,788.458 
  890.402,802.433 894.184,816.321 897.966,830.147 901.748,842.367 905.53,853.939 909.312,865.926 913.094,877.878 916.876,889.218 920.658,899.71 924.44,909.16 
  928.222,917.212 932.004,923.552 935.786,928.229 939.568,931.179 943.35,933.39 947.131,935.922 950.913,937.276 954.695,936.072 958.477,933.599 962.259,931.252 
  966.041,929.024 969.823,925.531 973.605,920.616 977.387,915.528 981.169,910.348 984.951,905.003 988.733,899.318 992.515,893.52 996.297,887.918 1000.08,882.67 
  1003.86,878.582 1007.64,874.847 1011.42,870.117 1015.21,864.667 1018.99,859.659 1022.77,856.301 1026.55,853.285 1030.33,849.436 1034.12,845.604 1037.9,842.59 
  1041.68,840.447 1045.46,839.06 1049.24,838.004 1053.03,837.193 1056.81,836.773 1060.59,836.72 1064.37,836.843 1068.15,836.759 1071.94,836.473 1075.72,836.11 
  1079.5,835.622 1083.28,836.138 1087.06,838.879 1090.85,842.288 1094.63,844.937 1098.41,846.787 1102.19,849.073 1105.97,853.145 1109.76,858.882 1113.54,864.416 
  1117.32,868.046 1121.1,871.01 1124.88,874.637 1128.67,878.867 1132.45,883.484 1136.23,886.327 1140.01,886.958 1143.79,887.016 1147.58,886.602 1151.36,885.652 
  1155.14,883.935 1158.92,881.408 1162.7,878.508 1166.49,875.471 1170.27,872.371 1174.05,869.12 1177.83,867.015 1181.61,867.498 1185.4,868.921 1189.18,869.808 
  1192.96,870.225 1196.74,870.072 1200.52,870.559 1204.31,873.024 1208.09,875.616 1211.87,876.686 1215.65,876.3 1219.43,875.885 1223.22,877.005 1227,879.68 
  1230.78,883.785 1234.56,886.491 1238.34,885.334 1242.13,882.044 1245.91,878.469 1249.69,874.879 1253.47,871.375 1257.25,867.893 1261.04,863.24 1264.82,858.018 
  1268.6,854.049 1272.38,851.406 1276.16,849.999 1279.95,849.586 1283.73,849.763 1287.51,850.954 1291.29,854.012 1295.07,858.956 1298.85,865.66 1302.64,873.851 
  1306.42,883.114 1310.2,894.471 1313.98,908.087 1317.76,922.782 1321.55,938.366 1325.33,954.513 1329.11,970.758 1332.89,986.498 1336.67,1002.7 1340.46,1020.52 
  1344.24,1038.54 1348.02,1055.41 1351.8,1070.68 1355.58,1083.76 1359.37,1095.84 1363.15,1108.34 1366.93,1120.86 1370.71,1132.11 1374.49,1140.85 1378.28,1146.63 
  1382.06,1148.86 1385.84,1149.7 1389.62,1151.71 1393.4,1154.86 1397.19,1159 1400.97,1163.39 1404.75,1167.3 1408.53,1170.55 1412.31,1173.94 1416.1,1178.38 
  1419.88,1183.76 1423.66,1189.92 1427.44,1196.61 1431.22,1202.92 1435.01,1208.01 1438.79,1212.7 1442.57,1217.93 1446.35,1223.62 1450.13,1229.61 1453.92,1235.69 
  1457.7,1241.57 1461.48,1246.92 1465.26,1252.15 1469.04,1257.91 1472.83,1264.11 1476.61,1270.62 1480.39,1277.24 1484.17,1283.73 1487.95,1289.81 1491.74,1295.14 
  1495.52,1300.08 1499.3,1305.2 1503.08,1310.41 1506.86,1315.57 1510.65,1320.49 1514.43,1324.97 1518.21,1328.73 1521.99,1332.37 1525.77,1336.63 1529.56,1341.16 
  1533.34,1345.63 1537.12,1349.95 1540.9,1354.01 1544.68,1357.65 1548.47,1360.68 1552.25,1363.51 1556.03,1366.64 1559.81,1369.99 1563.59,1373.27 1567.37,1376.21 
  1571.16,1378.71 1574.94,1380.65 1578.72,1381.87 1582.5,1382.84 1586.28,1384.15 1590.07,1385.77 1593.85,1387.66 1597.63,1389.67 1601.41,1391.66 1605.19,1393.56 
  1608.98,1395.29 1612.76,1396.76 1616.54,1398.19 1620.32,1399.87 1624.1,1401.74 1627.89,1403.77 1631.67,1405.76 1635.45,1407.54 1639.23,1409.05 1643.01,1410.22 
  1646.8,1411.27 1650.58,1412.45 1654.36,1413.73 1658.14,1415.09 1661.92,1416.49 1665.71,1417.87 1669.49,1419.09 1673.27,1420.03 1677.05,1420.61 1680.83,1421.05 
  1684.62,1421.57 1688.4,1422.16 1692.18,1422.82 1695.96,1423.51 1699.74,1424.21 1703.53,1424.88 1707.31,1425.43 1711.09,1425.76 1714.87,1426.01 1718.65,1426.36 
  1722.44,1426.8 1726.22,1427.34 1730,1427.95 1733.78,1428.62 1737.56,1429.33 1741.35,1430.04 1745.13,1430.7 1748.91,1431.37 1752.69,1432.12 1756.47,1432.92 
  1760.26,1433.77 1764.04,1434.64 1767.82,1435.5 1771.6,1436.31 1775.38,1437.04 1779.17,1437.64 1782.95,1438.2 1786.73,1438.81 1790.51,1439.47 1794.29,1440.15 
  1798.08,1440.85 1801.86,1441.54 1805.64,1442.2 1809.42,1442.8 1813.2,1443.33 1816.99,1443.74 1820.77,1444.11 1824.55,1444.48 1828.33,1444.82 1832.11,1445.13 
  1835.89,1445.41 1839.68,1445.65 1843.46,1445.84 1847.24,1445.97 1851.02,1446.04 1854.8,1446.02 1858.59,1445.97 1862.37,1445.92 1866.15,1445.89 1869.93,1445.86 
  1873.71,1445.83 1877.5,1445.81 1881.28,1445.79 1885.06,1445.77 1888.84,1445.75 1892.62,1445.73 1896.41,1445.72 1900.19,1445.73 1903.97,1445.77 1907.75,1445.82 
  1911.53,1445.88 1915.32,1445.95 1919.1,1446.03 1922.88,1446.12 1926.66,1446.21 1930.44,1446.3 1934.23,1446.41 1938.01,1446.52 1941.79,1446.64 1945.57,1446.78 
  1949.35,1446.91 1953.14,1447.02 1956.92,1447.12 1960.7,1447.21 1964.48,1447.26 1968.26,1447.3 1972.05,1447.3 1975.83,1447.28 1979.61,1447.28 1983.39,1447.28 
  1987.17,1447.3 1990.96,1447.32 1994.74,1447.33 1998.52,1447.33 2002.3,1447.31 2006.08,1447.27 2009.87,1447.22 2013.65,1447.15 2017.43,1447.08 2021.21,1447.02 
  2024.99,1446.96 2028.78,1446.92 2032.56,1446.88 2036.34,1446.85 2040.12,1446.83 2043.9,1446.82 2047.69,1446.82 2051.47,1446.82 2055.25,1446.83 2059.03,1446.85 
  2062.81,1446.89 2066.6,1446.94 2070.38,1447.01 2074.16,1447.09 2077.94,1447.18 2081.72,1447.28 2085.51,1447.39 2089.29,1447.5 2093.07,1447.61 2096.85,1447.72 
  2100.63,1447.83 2104.41,1447.94 2108.2,1448.06 2111.98,1448.18 2115.76,1448.3 2119.54,1448.41 2123.32,1448.52 2127.11,1448.62 2130.89,1448.7 2134.67,1448.76 
  2138.45,1448.81 2142.23,1448.82 2146.02,1448.82 2149.8,1448.82 2153.58,1448.82 2157.36,1448.82 2161.14,1448.82 2164.93,1448.82 2168.71,1448.82 2172.49,1448.82 
  2176.27,1448.82 2180.05,1448.82 2183.84,1448.82 2187.62,1448.82 2191.4,1448.82 2195.18,1448.82 2198.96,1448.82 2202.75,1448.82 2206.53,1448.82 2210.31,1448.82 
  
  "/>
<polyline clip-path="url(#clip3202)" style="stroke:#c271d2; stroke-width:8; stroke-opacity:1; fill:none" points="
  242.135,1448.82 246.241,1448.82 250.348,1448.82 254.454,1448.82 258.561,1448.82 262.667,1448.82 266.774,1448.82 270.88,1448.82 274.987,1448.82 279.093,1448.82 
  283.2,1448.82 287.306,1448.82 291.413,1448.82 295.519,1448.82 299.626,1448.82 303.732,1448.82 307.839,1448.82 311.945,1448.82 316.052,1448.82 320.158,1448.82 
  324.265,1448.82 328.371,1448.82 332.478,1448.82 336.584,1448.82 340.691,1448.82 344.797,1448.82 348.904,1448.82 353.01,1448.82 357.117,1448.82 361.223,1448.82 
  365.33,1448.82 369.436,1448.82 373.543,1448.82 377.649,1448.82 381.756,1448.82 385.862,1448.82 389.969,1447.9 394.075,1444.92 398.182,1439.4 402.288,1431.01 
  406.395,1419.61 410.501,1405 414.608,1387.11 418.715,1366.13 422.821,1342.35 426.928,1316.02 431.034,1287.12 435.141,1256.01 439.247,1223.16 443.354,1188.84 
  447.46,1153.6 451.567,1117.86 455.673,1081.99 459.78,1046.4 463.886,1011.5 467.993,977.778 472.099,945.619 476.206,915.279 480.312,887.048 484.419,861.101 
  488.525,837.522 492.632,816.389 496.738,797.783 500.845,781.71 504.951,768.122 509.058,756.989 513.164,748.282 517.271,742.277 521.377,739.048 525.484,738.105 
  529.59,738.809 533.697,740.941 537.803,744.161 541.91,747.642 546.016,750.906 550.123,753.292 554.229,754.576 558.336,755.501 562.442,756.313 566.549,756.762 
  570.655,757.029 574.762,757.353 578.868,757.977 582.975,758.873 587.081,759.952 591.188,761.228 595.294,763.039 599.401,764.653 603.507,765.36 607.614,765.357 
  611.72,764.637 615.827,763.451 619.933,762.132 624.04,760.716 628.146,759.263 632.253,757.735 636.359,756.139 640.466,754.357 644.572,752.272 648.679,749.773 
  652.785,746.911 656.892,744.425 660.998,742.316 665.105,740.67 669.211,739.78 673.318,739.894 677.424,741.647 681.531,744.415 685.637,747.644 689.744,751.358 
  693.85,755.78 697.957,761.297 702.063,767.304 706.17,773.7 710.276,780.772 714.383,788.038 718.489,795.566 722.596,802.807 726.702,809.24 730.809,815.721 
  734.916,821.859 739.022,827.324 743.129,832.487 747.235,836.797 751.342,839.823 755.448,841.888 759.555,842.515 763.661,842.117 767.768,842.014 771.874,841.908 
  775.981,841.649 780.087,841.675 784.194,842.338 788.3,843.339 792.407,844.479 796.513,846.162 800.62,847.612 804.726,848.378 808.833,849.222 812.939,850.85 
  817.046,853.226 821.152,855.583 825.259,858.507 829.365,860.513 833.472,860.243 837.578,858.513 841.685,855.49 845.791,851.161 849.898,845.663 854.004,839.849 
  858.111,834.531 862.217,828.661 866.324,822.148 870.43,816.037 874.537,810.36 878.643,804.958 882.75,799.782 886.856,795.714 890.963,793.641 895.069,792.49 
  899.176,791.994 903.282,792.913 907.389,795.133 911.495,798.567 915.602,803.297 919.708,809.217 923.815,816.865 927.921,825.916 932.028,835.332 936.134,845.813 
  940.241,858.079 944.347,871.043 948.454,883.622 952.56,896.213 956.667,909.202 960.773,922.113 964.88,934.565 968.986,946.465 973.093,957.541 977.199,967.369 
  981.306,975.134 985.412,980.237 989.519,982.347 993.625,983.234 997.732,984.956 1001.84,986.537 1005.94,987.052 1010.05,987.316 1014.16,988.188 1018.26,989.562 
  1022.37,990.197 1026.48,990.072 1030.58,990.36 1034.69,991.075 1038.8,992.105 1042.9,993.146 1047.01,994.108 1051.12,995.01 1055.22,995.741 1059.33,997.112 
  1063.44,999.339 1067.54,1001.71 1071.65,1004.13 1075.76,1007.23 1079.86,1011.66 1083.97,1016.22 1088.08,1019.82 1092.18,1023.24 1096.29,1027.37 1100.39,1032.08 
  1104.5,1037.17 1108.61,1042.37 1112.71,1047.64 1116.82,1052.92 1120.93,1058.04 1125.03,1062.69 1129.14,1066.76 1133.25,1070.4 1137.35,1073.54 1141.46,1076.01 
  1145.57,1078.68 1149.67,1082.53 1153.78,1086.71 1157.89,1090.44 1161.99,1093.56 1166.1,1096.77 1170.21,1100.87 1174.31,1105.68 1178.42,1110.22 1182.52,1113.58 
  1186.63,1116.62 1190.74,1120.33 1194.84,1124.62 1198.95,1129.3 1203.06,1133.24 1207.16,1136.38 1211.27,1139.69 1215.38,1143.16 1219.48,1146.69 1223.59,1150.09 
  1227.7,1153.04 1231.8,1155.42 1235.91,1157.25 1240.02,1158.48 1244.12,1158.93 1248.23,1159.47 1252.34,1161.07 1256.44,1162.76 1260.55,1163.66 1264.65,1163.81 
  1268.76,1163.14 1272.87,1162.37 1276.97,1162.33 1281.08,1162.2 1285.19,1161.27 1289.29,1159.54 1293.4,1157.83 1297.51,1157.04 1301.61,1157.21 1305.72,1158.28 
  1309.83,1159.26 1313.93,1159.26 1318.04,1159.02 1322.15,1159.36 1326.25,1160.31 1330.36,1161.83 1334.47,1163.82 1338.57,1165.23 1342.68,1165.94 1346.78,1166.78 
  1350.89,1167.81 1355,1169.01 1359.1,1170.27 1363.21,1171.42 1367.32,1172.29 1371.42,1173 1375.53,1173.65 1379.64,1174.28 1383.74,1174.83 1387.85,1175.18 
  1391.96,1176.02 1396.06,1177.34 1400.17,1178.42 1404.28,1179.34 1408.38,1180.1 1412.49,1180.61 1416.6,1180.74 1420.7,1181.21 1424.81,1181.45 1428.92,1180.2 
  1433.02,1177.74 1437.13,1174.24 1441.23,1169.81 1445.34,1165.28 1449.45,1161.55 1453.55,1158.72 1457.66,1156.15 1461.77,1153.29 1465.87,1150.17 1469.98,1146.76 
  1474.09,1143.89 1478.19,1142.5 1482.3,1142.58 1486.41,1144.07 1490.51,1146.05 1494.62,1147.7 1498.73,1148.94 1502.83,1150.56 1506.94,1153.44 1511.05,1157.54 
  1515.15,1162.75 1519.26,1168.92 1523.36,1175.26 1527.47,1181.06 1531.58,1186.98 1535.68,1193.81 1539.79,1201.44 1543.9,1209.69 1548,1218.31 1552.11,1227 
  1556.22,1234.63 1560.32,1241.06 1564.43,1247.04 1568.54,1252.49 1572.64,1257.24 1576.75,1261.06 1580.86,1263.67 1584.96,1264.7 1589.07,1265.35 1593.18,1266.58 
  1597.28,1267.98 1601.39,1269.57 1605.49,1271.35 1609.6,1273.24 1613.71,1275.14 1617.81,1276.89 1621.92,1278.97 1626.03,1281.28 1630.13,1283.18 1634.24,1284.72 
  1638.35,1285.93 1642.45,1286.77 1646.56,1287.16 1650.67,1286.97 1654.77,1286.86 1658.88,1287.61 1662.99,1288.73 1667.09,1289.79 1671.2,1290.82 1675.31,1291.81 
  1679.41,1292.71 1683.52,1293.41 1687.63,1294.35 1691.73,1296 1695.84,1298.33 1699.94,1300.67 1704.05,1302.48 1708.16,1303.72 1712.26,1304.35 1716.37,1304.24 
  1720.48,1304.08 1724.58,1304.64 1728.69,1305.94 1732.8,1307.95 1736.9,1310.2 1741.01,1312.28 1745.12,1314.17 1749.22,1315.83 1753.33,1317.16 1757.44,1318.55 
  1761.54,1320.43 1765.65,1322.74 1769.76,1325.42 1773.86,1328.31 1777.97,1330.62 1782.07,1331.6 1786.18,1331.24 1790.29,1330.22 1794.39,1329.36 1798.5,1328.72 
  1802.61,1328.36 1806.71,1328.27 1810.82,1328.45 1814.93,1328.84 1819.03,1328.84 1823.14,1327.93 1827.25,1326.63 1831.35,1325.5 1835.46,1324.61 1839.57,1324 
  1843.67,1323.68 1847.78,1323.62 1851.89,1323.76 1855.99,1323.99 1860.1,1323.55 1864.2,1322.36 1868.31,1321.13 1872.42,1319.99 1876.52,1319.03 1880.63,1318.32 
  1884.74,1317.88 1888.84,1317.7 1892.95,1317.74 1897.06,1317.92 1901.16,1317.99 1905.27,1317.88 1909.38,1317.69 1913.48,1317.53 1917.59,1317.43 1921.7,1317.4 
  1925.8,1317.42 1929.91,1317.42 1934.02,1317.29 1938.12,1316.89 1942.23,1316.78 1946.33,1316.97 1950.44,1316.93 1954.55,1316.78 1958.65,1316.63 1962.76,1316.52 
  1966.87,1316.48 1970.97,1316.49 1975.08,1316.5 1979.19,1316.42 1983.29,1316.67 1987.4,1314.89 1991.51,1308.77 1995.61,1299.08 1999.72,1286.51 2003.83,1271.7 
  2007.93,1255.19 2012.04,1237.45 2016.15,1218.9 2020.25,1199.84 2024.36,1181.24 2028.47,1164.13 2032.57,1148.83 2036.68,1135.59 2040.78,1124.6 2044.89,1115.98 
  2049,1109.8 2053.1,1106.06 2057.21,1104.67 2061.32,1105.52 2065.42,1109.03 2069.53,1115.73 2073.64,1125.48 2077.74,1138.09 2081.85,1153.32 2085.96,1170.88 
  2090.06,1190.41 2094.17,1211.51 2098.28,1233.72 2102.38,1256.51 2106.49,1279.31 2110.6,1302.21 2114.7,1325.39 2118.81,1348.32 2122.91,1370.44 2127.02,1391.14 
  2131.13,1409.76 2135.23,1425.61 2139.34,1437.94 2143.45,1445.96 2147.55,1448.82 2151.66,1448.82 2155.77,1448.82 2159.87,1448.82 2163.98,1448.82 2168.09,1448.82 
  2172.19,1448.82 2176.3,1448.82 2180.41,1448.82 2184.51,1448.82 2188.62,1448.82 2192.73,1448.82 2196.83,1448.82 2200.94,1448.82 2205.04,1448.82 2209.15,1448.82 
  2213.26,1448.82 2217.36,1448.82 2221.47,1448.82 2225.58,1448.82 2229.68,1448.82 2233.79,1448.82 2237.9,1448.82 2242,1448.82 2246.11,1448.82 2250.22,1448.82 
  2254.32,1448.82 2258.43,1448.82 2262.54,1448.82 2266.64,1448.82 2270.75,1448.82 2274.86,1448.82 2278.96,1448.82 2283.07,1448.82 2287.17,1448.82 2291.28,1448.82 
  
  "/>
<polygon clip-path="url(#clip3200)" points="
1761.15,507.595 2280.76,507.595 2280.76,205.195 1761.15,205.195 
  " fill="#ffffff" fill-rule="evenodd" fill-opacity="1"/>
<polyline clip-path="url(#clip3200)" style="stroke:#000000; stroke-width:4; stroke-opacity:1; fill:none" points="
  1761.15,507.595 2280.76,507.595 2280.76,205.195 1761.15,205.195 1761.15,507.595 
  "/>
<polyline clip-path="url(#clip3200)" style="stroke:#009af9; stroke-width:8; stroke-opacity:1; fill:none" points="
  1785.15,265.675 1929.15,265.675 
  "/>
<g clip-path="url(#clip3200)">
<text style="fill:#000000; fill-opacity:1; font-family:Arial,Helvetica Neue,Helvetica,sans-serif; font-size:48px; text-anchor:start;" transform="rotate(0, 1953.15, 283.175)" x="1953.15" y="283.175">lambda = 0.0</text>
</g>
<polyline clip-path="url(#clip3200)" style="stroke:#e26f46; stroke-width:8; stroke-opacity:1; fill:none" points="
  1785.15,326.155 1929.15,326.155 
  "/>
<g clip-path="url(#clip3200)">
<text style="fill:#000000; fill-opacity:1; font-family:Arial,Helvetica Neue,Helvetica,sans-serif; font-size:48px; text-anchor:start;" transform="rotate(0, 1953.15, 343.655)" x="1953.15" y="343.655">lambda = 0.3</text>
</g>
<polyline clip-path="url(#clip3200)" style="stroke:#3da44d; stroke-width:8; stroke-opacity:1; fill:none" points="
  1785.15,386.635 1929.15,386.635 
  "/>
<g clip-path="url(#clip3200)">
<text style="fill:#000000; fill-opacity:1; font-family:Arial,Helvetica Neue,Helvetica,sans-serif; font-size:48px; text-anchor:start;" transform="rotate(0, 1953.15, 404.135)" x="1953.15" y="404.135">lambda = 0.6</text>
</g>
<polyline clip-path="url(#clip3200)" style="stroke:#c271d2; stroke-width:8; stroke-opacity:1; fill:none" points="
  1785.15,447.115 1929.15,447.115 
  "/>
<g clip-path="url(#clip3200)">
<text style="fill:#000000; fill-opacity:1; font-family:Arial,Helvetica Neue,Helvetica,sans-serif; font-size:48px; text-anchor:start;" transform="rotate(0, 1953.15, 464.615)" x="1953.15" y="464.615">lambda = 0.9</text>
</g>
</svg>
