<?xml version="1.0" encoding="utf-8"?>
<svg xmlns="http://www.w3.org/2000/svg" xmlns:xlink="http://www.w3.org/1999/xlink" width="600" height="400" viewBox="0 0 2400 1600">
<defs>
  <clipPath id="clip1200">
    <rect x="0" y="0" width="2400" height="1600"/>
  </clipPath>
</defs>
<polygon clip-path="url(#clip1200)" points="
0,1600 2400,1600 2400,0 0,0 
  " fill="#ffffff" fill-rule="evenodd" fill-opacity="1"/>
<defs>
  <clipPath id="clip1201">
    <rect x="480" y="0" width="1681" height="1600"/>
  </clipPath>
</defs>
<polygon clip-path="url(#clip1200)" points="
207.423,1487.47 2352.76,1487.47 2352.76,47.2441 207.423,47.2441 
  " fill="#ffffff" fill-rule="evenodd" fill-opacity="1"/>
<defs>
  <clipPath id="clip1202">
    <rect x="207" y="47" width="2146" height="1441"/>
  </clipPath>
</defs>
<polyline clip-path="url(#clip1202)" style="stroke:#000000; stroke-width:2; stroke-opacity:0.1; fill:none" points="
  533.201,1487.47 533.201,47.2441 
  "/>
<polyline clip-path="url(#clip1202)" style="stroke:#000000; stroke-width:2; stroke-opacity:0.1; fill:none" points="
  1007.89,1487.47 1007.89,47.2441 
  "/>
<polyline clip-path="url(#clip1202)" style="stroke:#000000; stroke-width:2; stroke-opacity:0.1; fill:none" points="
  1482.58,1487.47 1482.58,47.2441 
  "/>
<polyline clip-path="url(#clip1202)" style="stroke:#000000; stroke-width:2; stroke-opacity:0.1; fill:none" points="
  1957.26,1487.47 1957.26,47.2441 
  "/>
<polyline clip-path="url(#clip1202)" style="stroke:#000000; stroke-width:2; stroke-opacity:0.1; fill:none" points="
  207.423,1446.71 2352.76,1446.71 
  "/>
<polyline clip-path="url(#clip1202)" style="stroke:#000000; stroke-width:2; stroke-opacity:0.1; fill:none" points="
  207.423,1174.97 2352.76,1174.97 
  "/>
<polyline clip-path="url(#clip1202)" style="stroke:#000000; stroke-width:2; stroke-opacity:0.1; fill:none" points="
  207.423,903.23 2352.76,903.23 
  "/>
<polyline clip-path="url(#clip1202)" style="stroke:#000000; stroke-width:2; stroke-opacity:0.1; fill:none" points="
  207.423,631.489 2352.76,631.489 
  "/>
<polyline clip-path="url(#clip1202)" style="stroke:#000000; stroke-width:2; stroke-opacity:0.1; fill:none" points="
  207.423,359.747 2352.76,359.747 
  "/>
<polyline clip-path="url(#clip1202)" style="stroke:#000000; stroke-width:2; stroke-opacity:0.1; fill:none" points="
  207.423,88.0053 2352.76,88.0053 
  "/>
<polyline clip-path="url(#clip1200)" style="stroke:#000000; stroke-width:4; stroke-opacity:1; fill:none" points="
  207.423,1487.47 2352.76,1487.47 
  "/>
<polyline clip-path="url(#clip1200)" style="stroke:#000000; stroke-width:4; stroke-opacity:1; fill:none" points="
  207.423,1487.47 207.423,47.2441 
  "/>
<polyline clip-path="url(#clip1200)" style="stroke:#000000; stroke-width:4; stroke-opacity:1; fill:none" points="
  533.201,1487.47 533.201,1465.87 
  "/>
<polyline clip-path="url(#clip1200)" style="stroke:#000000; stroke-width:4; stroke-opacity:1; fill:none" points="
  1007.89,1487.47 1007.89,1465.87 
  "/>
<polyline clip-path="url(#clip1200)" style="stroke:#000000; stroke-width:4; stroke-opacity:1; fill:none" points="
  1482.58,1487.47 1482.58,1465.87 
  "/>
<polyline clip-path="url(#clip1200)" style="stroke:#000000; stroke-width:4; stroke-opacity:1; fill:none" points="
  1957.26,1487.47 1957.26,1465.87 
  "/>
<polyline clip-path="url(#clip1200)" style="stroke:#000000; stroke-width:4; stroke-opacity:1; fill:none" points="
  207.423,1446.71 239.603,1446.71 
  "/>
<polyline clip-path="url(#clip1200)" style="stroke:#000000; stroke-width:4; stroke-opacity:1; fill:none" points="
  207.423,1174.97 239.603,1174.97 
  "/>
<polyline clip-path="url(#clip1200)" style="stroke:#000000; stroke-width:4; stroke-opacity:1; fill:none" points="
  207.423,903.23 239.603,903.23 
  "/>
<polyline clip-path="url(#clip1200)" style="stroke:#000000; stroke-width:4; stroke-opacity:1; fill:none" points="
  207.423,631.489 239.603,631.489 
  "/>
<polyline clip-path="url(#clip1200)" style="stroke:#000000; stroke-width:4; stroke-opacity:1; fill:none" points="
  207.423,359.747 239.603,359.747 
  "/>
<polyline clip-path="url(#clip1200)" style="stroke:#000000; stroke-width:4; stroke-opacity:1; fill:none" points="
  207.423,88.0053 239.603,88.0053 
  "/>
<g clip-path="url(#clip1200)">
<text style="fill:#000000; fill-opacity:1; font-family:Arial,Helvetica Neue,Helvetica,sans-serif; font-size:48px; text-anchor:middle;" transform="rotate(0, 533.201, 1541.47)" x="533.201" y="1541.47">5</text>
</g>
<g clip-path="url(#clip1200)">
<text style="fill:#000000; fill-opacity:1; font-family:Arial,Helvetica Neue,Helvetica,sans-serif; font-size:48px; text-anchor:middle;" transform="rotate(0, 1007.89, 1541.47)" x="1007.89" y="1541.47">10</text>
</g>
<g clip-path="url(#clip1200)">
<text style="fill:#000000; fill-opacity:1; font-family:Arial,Helvetica Neue,Helvetica,sans-serif; font-size:48px; text-anchor:middle;" transform="rotate(0, 1482.58, 1541.47)" x="1482.58" y="1541.47">15</text>
</g>
<g clip-path="url(#clip1200)">
<text style="fill:#000000; fill-opacity:1; font-family:Arial,Helvetica Neue,Helvetica,sans-serif; font-size:48px; text-anchor:middle;" transform="rotate(0, 1957.26, 1541.47)" x="1957.26" y="1541.47">20</text>
</g>
<g clip-path="url(#clip1200)">
<text style="fill:#000000; fill-opacity:1; font-family:Arial,Helvetica Neue,Helvetica,sans-serif; font-size:48px; text-anchor:end;" transform="rotate(0, 183.423, 1464.21)" x="183.423" y="1464.21">0.000</text>
</g>
<g clip-path="url(#clip1200)">
<text style="fill:#000000; fill-opacity:1; font-family:Arial,Helvetica Neue,Helvetica,sans-serif; font-size:48px; text-anchor:end;" transform="rotate(0, 183.423, 1192.47)" x="183.423" y="1192.47">0.005</text>
</g>
<g clip-path="url(#clip1200)">
<text style="fill:#000000; fill-opacity:1; font-family:Arial,Helvetica Neue,Helvetica,sans-serif; font-size:48px; text-anchor:end;" transform="rotate(0, 183.423, 920.73)" x="183.423" y="920.73">0.010</text>
</g>
<g clip-path="url(#clip1200)">
<text style="fill:#000000; fill-opacity:1; font-family:Arial,Helvetica Neue,Helvetica,sans-serif; font-size:48px; text-anchor:end;" transform="rotate(0, 183.423, 648.989)" x="183.423" y="648.989">0.015</text>
</g>
<g clip-path="url(#clip1200)">
<text style="fill:#000000; fill-opacity:1; font-family:Arial,Helvetica Neue,Helvetica,sans-serif; font-size:48px; text-anchor:end;" transform="rotate(0, 183.423, 377.247)" x="183.423" y="377.247">0.020</text>
</g>
<g clip-path="url(#clip1200)">
<text style="fill:#000000; fill-opacity:1; font-family:Arial,Helvetica Neue,Helvetica,sans-serif; font-size:48px; text-anchor:end;" transform="rotate(0, 183.423, 105.505)" x="183.423" y="105.505">0.025</text>
</g>
<polyline clip-path="url(#clip1202)" style="stroke:#009af9; stroke-width:4; stroke-opacity:1; fill:none" points="
  268.14,1446.71 280.019,1399.86 281.602,1353.01 286.997,1306.16 295.288,1259.31 295.903,1212.45 306.14,1165.6 307.385,1118.75 320.735,1071.9 322.952,1025.05 
  326.996,978.193 334.798,931.341 346.931,884.489 357.443,837.637 366.909,790.785 380.382,743.933 399.218,697.081 414.505,650.229 458.602,603.377 549.344,556.525 
  808.447,509.673 893.383,462.821 961.145,415.969 1073.81,369.117 1249.66,322.265 1333.56,275.413 1454.55,228.561 1656.82,181.709 2184.51,134.857 2292.04,88.0053 
  
  "/>
<polyline clip-path="url(#clip1202)" style="stroke:#e26f46; stroke-width:4; stroke-opacity:1; fill:none" points="
  1054.11,1446.71 1037.57,1399.86 1021.48,1353.01 1005.82,1306.16 990.578,1259.31 975.73,1212.45 961.266,1165.6 947.172,1118.75 933.435,1071.9 920.043,1025.05 
  906.985,978.193 894.247,931.341 881.82,884.489 869.694,837.637 857.857,790.785 846.302,743.933 835.017,697.081 823.996,650.229 813.228,603.377 802.707,556.525 
  792.424,509.673 782.373,462.821 772.545,415.969 762.934,369.117 753.533,322.265 744.336,275.413 735.337,228.561 726.531,181.709 717.91,134.857 709.471,88.0053 
  
  "/>
<polygon clip-path="url(#clip1200)" points="
1989.93,312.204 2280.76,312.204 2280.76,130.764 1989.93,130.764 
  " fill="#ffffff" fill-rule="evenodd" fill-opacity="1"/>
<polyline clip-path="url(#clip1200)" style="stroke:#000000; stroke-width:4; stroke-opacity:1; fill:none" points="
  1989.93,312.204 2280.76,312.204 2280.76,130.764 1989.93,130.764 1989.93,312.204 
  "/>
<polyline clip-path="url(#clip1200)" style="stroke:#009af9; stroke-width:4; stroke-opacity:1; fill:none" points="
  2013.93,191.244 2157.93,191.244 
  "/>
<g clip-path="url(#clip1200)">
<text style="fill:#000000; fill-opacity:1; font-family:Arial,Helvetica Neue,Helvetica,sans-serif; font-size:48px; text-anchor:start;" transform="rotate(0, 2181.93, 208.744)" x="2181.93" y="208.744">y1</text>
</g>
<polyline clip-path="url(#clip1200)" style="stroke:#e26f46; stroke-width:4; stroke-opacity:1; fill:none" points="
  2013.93,251.724 2157.93,251.724 
  "/>
<g clip-path="url(#clip1200)">
<text style="fill:#000000; fill-opacity:1; font-family:Arial,Helvetica Neue,Helvetica,sans-serif; font-size:48px; text-anchor:start;" transform="rotate(0, 2181.93, 269.224)" x="2181.93" y="269.224">y2</text>
</g>
</svg>
