<?xml version="1.0" encoding="utf-8"?>
<svg xmlns="http://www.w3.org/2000/svg" xmlns:xlink="http://www.w3.org/1999/xlink" width="600" height="400" viewBox="0 0 2400 1600">
<defs>
  <clipPath id="clip9200">
    <rect x="0" y="0" width="2400" height="1600"/>
  </clipPath>
</defs>
<polygon clip-path="url(#clip9200)" points="
0,1600 2400,1600 2400,0 0,0 
  " fill="#ffffff" fill-rule="evenodd" fill-opacity="1"/>
<defs>
  <clipPath id="clip9201">
    <rect x="480" y="0" width="1681" height="1600"/>
  </clipPath>
</defs>
<polygon clip-path="url(#clip9200)" points="
202.373,1425.62 2352.76,1425.62 2352.76,121.675 202.373,121.675 
  " fill="#ffffff" fill-rule="evenodd" fill-opacity="1"/>
<defs>
  <clipPath id="clip9202">
    <rect x="202" y="121" width="2151" height="1305"/>
  </clipPath>
</defs>
<polyline clip-path="url(#clip9202)" style="stroke:#000000; stroke-width:2; stroke-opacity:0.1; fill:none" points="
  255.086,1425.62 255.086,121.675 
  "/>
<polyline clip-path="url(#clip9202)" style="stroke:#000000; stroke-width:2; stroke-opacity:0.1; fill:none" points="
  662.448,1425.62 662.448,121.675 
  "/>
<polyline clip-path="url(#clip9202)" style="stroke:#000000; stroke-width:2; stroke-opacity:0.1; fill:none" points="
  1069.81,1425.62 1069.81,121.675 
  "/>
<polyline clip-path="url(#clip9202)" style="stroke:#000000; stroke-width:2; stroke-opacity:0.1; fill:none" points="
  1477.17,1425.62 1477.17,121.675 
  "/>
<polyline clip-path="url(#clip9202)" style="stroke:#000000; stroke-width:2; stroke-opacity:0.1; fill:none" points="
  1884.53,1425.62 1884.53,121.675 
  "/>
<polyline clip-path="url(#clip9202)" style="stroke:#000000; stroke-width:2; stroke-opacity:0.1; fill:none" points="
  2291.9,1425.62 2291.9,121.675 
  "/>
<polyline clip-path="url(#clip9202)" style="stroke:#000000; stroke-width:2; stroke-opacity:0.1; fill:none" points="
  202.373,1388.71 2352.76,1388.71 
  "/>
<polyline clip-path="url(#clip9202)" style="stroke:#000000; stroke-width:2; stroke-opacity:0.1; fill:none" points="
  202.373,1142.69 2352.76,1142.69 
  "/>
<polyline clip-path="url(#clip9202)" style="stroke:#000000; stroke-width:2; stroke-opacity:0.1; fill:none" points="
  202.373,896.66 2352.76,896.66 
  "/>
<polyline clip-path="url(#clip9202)" style="stroke:#000000; stroke-width:2; stroke-opacity:0.1; fill:none" points="
  202.373,650.633 2352.76,650.633 
  "/>
<polyline clip-path="url(#clip9202)" style="stroke:#000000; stroke-width:2; stroke-opacity:0.1; fill:none" points="
  202.373,404.606 2352.76,404.606 
  "/>
<polyline clip-path="url(#clip9202)" style="stroke:#000000; stroke-width:2; stroke-opacity:0.1; fill:none" points="
  202.373,158.579 2352.76,158.579 
  "/>
<polyline clip-path="url(#clip9200)" style="stroke:#000000; stroke-width:4; stroke-opacity:1; fill:none" points="
  202.373,1425.62 2352.76,1425.62 
  "/>
<polyline clip-path="url(#clip9200)" style="stroke:#000000; stroke-width:4; stroke-opacity:1; fill:none" points="
  202.373,1425.62 202.373,121.675 
  "/>
<polyline clip-path="url(#clip9200)" style="stroke:#000000; stroke-width:4; stroke-opacity:1; fill:none" points="
  255.086,1425.62 255.086,1406.06 
  "/>
<polyline clip-path="url(#clip9200)" style="stroke:#000000; stroke-width:4; stroke-opacity:1; fill:none" points="
  662.448,1425.62 662.448,1406.06 
  "/>
<polyline clip-path="url(#clip9200)" style="stroke:#000000; stroke-width:4; stroke-opacity:1; fill:none" points="
  1069.81,1425.62 1069.81,1406.06 
  "/>
<polyline clip-path="url(#clip9200)" style="stroke:#000000; stroke-width:4; stroke-opacity:1; fill:none" points="
  1477.17,1425.62 1477.17,1406.06 
  "/>
<polyline clip-path="url(#clip9200)" style="stroke:#000000; stroke-width:4; stroke-opacity:1; fill:none" points="
  1884.53,1425.62 1884.53,1406.06 
  "/>
<polyline clip-path="url(#clip9200)" style="stroke:#000000; stroke-width:4; stroke-opacity:1; fill:none" points="
  2291.9,1425.62 2291.9,1406.06 
  "/>
<polyline clip-path="url(#clip9200)" style="stroke:#000000; stroke-width:4; stroke-opacity:1; fill:none" points="
  202.373,1388.71 234.629,1388.71 
  "/>
<polyline clip-path="url(#clip9200)" style="stroke:#000000; stroke-width:4; stroke-opacity:1; fill:none" points="
  202.373,1142.69 234.629,1142.69 
  "/>
<polyline clip-path="url(#clip9200)" style="stroke:#000000; stroke-width:4; stroke-opacity:1; fill:none" points="
  202.373,896.66 234.629,896.66 
  "/>
<polyline clip-path="url(#clip9200)" style="stroke:#000000; stroke-width:4; stroke-opacity:1; fill:none" points="
  202.373,650.633 234.629,650.633 
  "/>
<polyline clip-path="url(#clip9200)" style="stroke:#000000; stroke-width:4; stroke-opacity:1; fill:none" points="
  202.373,404.606 234.629,404.606 
  "/>
<polyline clip-path="url(#clip9200)" style="stroke:#000000; stroke-width:4; stroke-opacity:1; fill:none" points="
  202.373,158.579 234.629,158.579 
  "/>
<g clip-path="url(#clip9200)">
<text style="fill:#000000; fill-opacity:1; font-family:Arial,Helvetica Neue,Helvetica,sans-serif; font-size:48px; text-anchor:middle;" transform="rotate(0, 255.086, 1479.62)" x="255.086" y="1479.62">0</text>
</g>
<g clip-path="url(#clip9200)">
<text style="fill:#000000; fill-opacity:1; font-family:Arial,Helvetica Neue,Helvetica,sans-serif; font-size:48px; text-anchor:middle;" transform="rotate(0, 662.448, 1479.62)" x="662.448" y="1479.62">50</text>
</g>
<g clip-path="url(#clip9200)">
<text style="fill:#000000; fill-opacity:1; font-family:Arial,Helvetica Neue,Helvetica,sans-serif; font-size:48px; text-anchor:middle;" transform="rotate(0, 1069.81, 1479.62)" x="1069.81" y="1479.62">100</text>
</g>
<g clip-path="url(#clip9200)">
<text style="fill:#000000; fill-opacity:1; font-family:Arial,Helvetica Neue,Helvetica,sans-serif; font-size:48px; text-anchor:middle;" transform="rotate(0, 1477.17, 1479.62)" x="1477.17" y="1479.62">150</text>
</g>
<g clip-path="url(#clip9200)">
<text style="fill:#000000; fill-opacity:1; font-family:Arial,Helvetica Neue,Helvetica,sans-serif; font-size:48px; text-anchor:middle;" transform="rotate(0, 1884.53, 1479.62)" x="1884.53" y="1479.62">200</text>
</g>
<g clip-path="url(#clip9200)">
<text style="fill:#000000; fill-opacity:1; font-family:Arial,Helvetica Neue,Helvetica,sans-serif; font-size:48px; text-anchor:middle;" transform="rotate(0, 2291.9, 1479.62)" x="2291.9" y="1479.62">250</text>
</g>
<g clip-path="url(#clip9200)">
<text style="fill:#000000; fill-opacity:1; font-family:Arial,Helvetica Neue,Helvetica,sans-serif; font-size:48px; text-anchor:end;" transform="rotate(0, 178.373, 1406.21)" x="178.373" y="1406.21">0</text>
</g>
<g clip-path="url(#clip9200)">
<text style="fill:#000000; fill-opacity:1; font-family:Arial,Helvetica Neue,Helvetica,sans-serif; font-size:48px; text-anchor:end;" transform="rotate(0, 178.373, 1160.19)" x="178.373" y="1160.19">5</text>
</g>
<g clip-path="url(#clip9200)">
<text style="fill:#000000; fill-opacity:1; font-family:Arial,Helvetica Neue,Helvetica,sans-serif; font-size:48px; text-anchor:end;" transform="rotate(0, 178.373, 914.16)" x="178.373" y="914.16">10</text>
</g>
<g clip-path="url(#clip9200)">
<text style="fill:#000000; fill-opacity:1; font-family:Arial,Helvetica Neue,Helvetica,sans-serif; font-size:48px; text-anchor:end;" transform="rotate(0, 178.373, 668.133)" x="178.373" y="668.133">15</text>
</g>
<g clip-path="url(#clip9200)">
<text style="fill:#000000; fill-opacity:1; font-family:Arial,Helvetica Neue,Helvetica,sans-serif; font-size:48px; text-anchor:end;" transform="rotate(0, 178.373, 422.106)" x="178.373" y="422.106">20</text>
</g>
<g clip-path="url(#clip9200)">
<text style="fill:#000000; fill-opacity:1; font-family:Arial,Helvetica Neue,Helvetica,sans-serif; font-size:48px; text-anchor:end;" transform="rotate(0, 178.373, 176.079)" x="178.373" y="176.079">25</text>
</g>
<g clip-path="url(#clip9200)">
<text style="fill:#000000; fill-opacity:1; font-family:Arial,Helvetica Neue,Helvetica,sans-serif; font-size:84px; text-anchor:middle;" transform="rotate(0, 1277.56, 73.2)" x="1277.56" y="73.2">Capital Grid</text>
</g>
<g clip-path="url(#clip9200)">
<text style="fill:#000000; fill-opacity:1; font-family:Arial,Helvetica Neue,Helvetica,sans-serif; font-size:66px; text-anchor:middle;" transform="rotate(0, 1277.56, 1559.48)" x="1277.56" y="1559.48">Position</text>
</g>
<g clip-path="url(#clip9200)">
<text style="fill:#000000; fill-opacity:1; font-family:Arial,Helvetica Neue,Helvetica,sans-serif; font-size:66px; text-anchor:middle;" transform="rotate(-90, 89.2861, 773.647)" x="89.2861" y="773.647">Value on Grid</text>
</g>
<polyline clip-path="url(#clip9202)" style="stroke:#009af9; stroke-width:4; stroke-opacity:1; fill:none" points="
  263.233,1388.71 271.38,1388.71 279.527,1388.71 287.675,1388.71 295.822,1388.71 303.969,1388.71 312.116,1388.71 320.264,1388.71 328.411,1388.71 336.558,1388.71 
  344.705,1388.71 352.852,1388.71 361,1388.71 369.147,1388.71 377.294,1388.71 385.441,1388.71 393.589,1388.71 401.736,1388.71 409.883,1388.71 418.03,1388.71 
  426.178,1388.71 434.325,1388.71 442.472,1388.71 450.619,1388.71 458.767,1388.71 466.914,1388.71 475.061,1388.71 483.208,1388.71 491.356,1388.71 499.503,1388.71 
  507.65,1388.71 515.797,1388.71 523.945,1388.71 532.092,1388.71 540.239,1388.71 548.386,1388.71 556.534,1388.71 564.681,1388.71 572.828,1388.71 580.975,1388.71 
  589.122,1388.71 597.27,1388.71 605.417,1388.71 613.564,1388.71 621.711,1388.71 629.859,1388.71 638.006,1388.7 646.153,1388.7 654.3,1388.7 662.448,1388.7 
  670.595,1388.7 678.742,1388.69 686.889,1388.69 695.037,1388.69 703.184,1388.68 711.331,1388.68 719.478,1388.68 727.626,1388.67 735.773,1388.66 743.92,1388.66 
  752.067,1388.65 760.215,1388.64 768.362,1388.64 776.509,1388.63 784.656,1388.62 792.804,1388.6 800.951,1388.59 809.098,1388.58 817.245,1388.56 825.392,1388.55 
  833.54,1388.53 841.687,1388.51 849.834,1388.49 857.981,1388.47 866.129,1388.45 874.276,1388.42 882.423,1388.39 890.57,1388.36 898.718,1388.33 906.865,1388.29 
  915.012,1388.25 923.159,1388.21 931.307,1388.17 939.454,1388.12 947.601,1388.07 955.748,1388.01 963.896,1387.95 972.043,1387.89 980.19,1387.82 988.337,1387.75 
  996.485,1387.67 1004.63,1387.59 1012.78,1387.5 1020.93,1387.41 1029.07,1387.31 1037.22,1387.2 1045.37,1387.09 1053.52,1386.96 1061.66,1386.84 1069.81,1386.7 
  1077.96,1386.55 1086.1,1386.4 1094.25,1386.24 1102.4,1386.06 1110.55,1385.88 1118.69,1385.68 1126.84,1385.48 1134.99,1385.26 1143.13,1385.03 1151.28,1384.79 
  1159.43,1384.53 1167.58,1384.26 1175.72,1383.97 1183.87,1383.67 1192.02,1383.35 1200.17,1383.02 1208.31,1382.67 1216.46,1382.29 1224.61,1381.9 1232.75,1381.49 
  1240.9,1381.06 1249.05,1380.61 1257.2,1380.13 1265.34,1379.63 1273.49,1379.1 1281.64,1378.55 1289.79,1377.97 1297.93,1377.37 1306.08,1376.73 1314.23,1376.07 
  1322.37,1375.37 1330.52,1374.64 1338.67,1373.88 1346.82,1373.08 1354.96,1372.24 1363.11,1371.37 1371.26,1370.46 1379.4,1369.5 1387.55,1368.51 1395.7,1367.47 
  1403.85,1366.38 1411.99,1365.25 1420.14,1364.07 1428.29,1362.84 1436.44,1361.55 1444.58,1360.21 1452.73,1358.82 1460.88,1357.37 1469.02,1355.85 1477.17,1354.28 
  1485.32,1352.64 1493.47,1350.93 1501.61,1349.16 1509.76,1347.31 1517.91,1345.39 1526.06,1343.4 1534.2,1341.33 1542.35,1339.17 1550.5,1336.94 1558.64,1334.61 
  1566.79,1332.2 1574.94,1329.7 1583.09,1327.1 1591.23,1324.4 1599.38,1321.61 1607.53,1318.71 1615.67,1315.7 1623.82,1312.59 1631.97,1309.36 1640.12,1306.01 
  1648.26,1302.55 1656.41,1298.96 1664.56,1295.24 1672.71,1291.39 1680.85,1287.41 1689,1283.29 1697.15,1279.02 1705.29,1274.61 1713.44,1270.04 1721.59,1265.32 
  1729.74,1260.45 1737.88,1255.4 1746.03,1250.19 1754.18,1244.8 1762.33,1239.24 1770.47,1233.49 1778.62,1227.55 1786.77,1221.42 1794.91,1215.09 1803.06,1208.56 
  1811.21,1201.82 1819.36,1194.86 1827.5,1187.68 1835.65,1180.27 1843.8,1172.63 1851.94,1164.76 1860.09,1156.64 1868.24,1148.26 1876.39,1139.63 1884.53,1130.74 
  1892.68,1121.57 1900.83,1112.13 1908.98,1102.4 1917.12,1092.38 1925.27,1082.06 1933.42,1071.43 1941.56,1060.49 1949.71,1049.23 1957.86,1037.64 1966.01,1025.71 
  1974.15,1013.44 1982.3,1000.81 1990.45,987.82 1998.6,974.458 2006.74,960.716 2014.89,946.585 2023.04,932.057 2031.18,917.121 2039.33,901.768 2047.48,885.988 
  2055.63,869.773 2063.77,853.111 2071.92,835.992 2080.07,818.407 2088.21,800.345 2096.36,781.794 2104.51,762.744 2112.66,743.184 2120.8,723.102 2128.95,702.488 
  2137.1,681.328 2145.25,659.612 2153.39,637.326 2161.54,614.46 2169.69,590.999 2177.83,566.932 2185.98,542.245 2194.13,516.925 2202.28,490.959 2210.42,464.332 
  2218.57,437.032 2226.72,409.043 2234.87,380.352 2243.01,350.943 2251.16,320.803 2259.31,289.915 2267.45,258.264 2275.6,225.835 2283.75,192.612 2291.9,158.579 
  
  "/>
<polygon clip-path="url(#clip9200)" points="
1989.93,326.155 2280.76,326.155 2280.76,205.195 1989.93,205.195 
  " fill="#ffffff" fill-rule="evenodd" fill-opacity="1"/>
<polyline clip-path="url(#clip9200)" style="stroke:#000000; stroke-width:4; stroke-opacity:1; fill:none" points="
  1989.93,326.155 2280.76,326.155 2280.76,205.195 1989.93,205.195 1989.93,326.155 
  "/>
<polyline clip-path="url(#clip9200)" style="stroke:#009af9; stroke-width:4; stroke-opacity:1; fill:none" points="
  2013.93,265.675 2157.93,265.675 
  "/>
<g clip-path="url(#clip9200)">
<text style="fill:#000000; fill-opacity:1; font-family:Arial,Helvetica Neue,Helvetica,sans-serif; font-size:48px; text-anchor:start;" transform="rotate(0, 2181.93, 283.175)" x="2181.93" y="283.175">y1</text>
</g>
</svg>
