<?xml version="1.0" encoding="utf-8"?>
<svg xmlns="http://www.w3.org/2000/svg" xmlns:xlink="http://www.w3.org/1999/xlink" width="600" height="400" viewBox="0 0 2400 1600">
<defs>
  <clipPath id="clip6400">
    <rect x="0" y="0" width="2400" height="1600"/>
  </clipPath>
</defs>
<polygon clip-path="url(#clip6400)" points="
0,1600 2400,1600 2400,0 0,0 
  " fill="#ffffff" fill-rule="evenodd" fill-opacity="1"/>
<defs>
  <clipPath id="clip6401">
    <rect x="480" y="0" width="1681" height="1600"/>
  </clipPath>
</defs>
<polygon clip-path="url(#clip6400)" points="
180.66,1487.47 2352.76,1487.47 2352.76,121.675 180.66,121.675 
  " fill="#ffffff" fill-rule="evenodd" fill-opacity="1"/>
<defs>
  <clipPath id="clip6402">
    <rect x="180" y="121" width="2173" height="1367"/>
  </clipPath>
</defs>
<polyline clip-path="url(#clip6402)" style="stroke:#000000; stroke-width:2; stroke-opacity:0.1; fill:none" points="
  242.135,1487.47 242.135,121.675 
  "/>
<polyline clip-path="url(#clip6402)" style="stroke:#000000; stroke-width:2; stroke-opacity:0.1; fill:none" points="
  651.964,1487.47 651.964,121.675 
  "/>
<polyline clip-path="url(#clip6402)" style="stroke:#000000; stroke-width:2; stroke-opacity:0.1; fill:none" points="
  1061.79,1487.47 1061.79,121.675 
  "/>
<polyline clip-path="url(#clip6402)" style="stroke:#000000; stroke-width:2; stroke-opacity:0.1; fill:none" points="
  1471.62,1487.47 1471.62,121.675 
  "/>
<polyline clip-path="url(#clip6402)" style="stroke:#000000; stroke-width:2; stroke-opacity:0.1; fill:none" points="
  1881.45,1487.47 1881.45,121.675 
  "/>
<polyline clip-path="url(#clip6402)" style="stroke:#000000; stroke-width:2; stroke-opacity:0.1; fill:none" points="
  2291.28,1487.47 2291.28,121.675 
  "/>
<polyline clip-path="url(#clip6402)" style="stroke:#000000; stroke-width:2; stroke-opacity:0.1; fill:none" points="
  180.66,1449.59 2352.76,1449.59 
  "/>
<polyline clip-path="url(#clip6402)" style="stroke:#000000; stroke-width:2; stroke-opacity:0.1; fill:none" points="
  180.66,1127.28 2352.76,1127.28 
  "/>
<polyline clip-path="url(#clip6402)" style="stroke:#000000; stroke-width:2; stroke-opacity:0.1; fill:none" points="
  180.66,804.962 2352.76,804.962 
  "/>
<polyline clip-path="url(#clip6402)" style="stroke:#000000; stroke-width:2; stroke-opacity:0.1; fill:none" points="
  180.66,482.646 2352.76,482.646 
  "/>
<polyline clip-path="url(#clip6402)" style="stroke:#000000; stroke-width:2; stroke-opacity:0.1; fill:none" points="
  180.66,160.33 2352.76,160.33 
  "/>
<polyline clip-path="url(#clip6400)" style="stroke:#000000; stroke-width:4; stroke-opacity:1; fill:none" points="
  180.66,1487.47 2352.76,1487.47 
  "/>
<polyline clip-path="url(#clip6400)" style="stroke:#000000; stroke-width:4; stroke-opacity:1; fill:none" points="
  180.66,1487.47 180.66,121.675 
  "/>
<polyline clip-path="url(#clip6400)" style="stroke:#000000; stroke-width:4; stroke-opacity:1; fill:none" points="
  242.135,1487.47 242.135,1466.99 
  "/>
<polyline clip-path="url(#clip6400)" style="stroke:#000000; stroke-width:4; stroke-opacity:1; fill:none" points="
  651.964,1487.47 651.964,1466.99 
  "/>
<polyline clip-path="url(#clip6400)" style="stroke:#000000; stroke-width:4; stroke-opacity:1; fill:none" points="
  1061.79,1487.47 1061.79,1466.99 
  "/>
<polyline clip-path="url(#clip6400)" style="stroke:#000000; stroke-width:4; stroke-opacity:1; fill:none" points="
  1471.62,1487.47 1471.62,1466.99 
  "/>
<polyline clip-path="url(#clip6400)" style="stroke:#000000; stroke-width:4; stroke-opacity:1; fill:none" points="
  1881.45,1487.47 1881.45,1466.99 
  "/>
<polyline clip-path="url(#clip6400)" style="stroke:#000000; stroke-width:4; stroke-opacity:1; fill:none" points="
  2291.28,1487.47 2291.28,1466.99 
  "/>
<polyline clip-path="url(#clip6400)" style="stroke:#000000; stroke-width:4; stroke-opacity:1; fill:none" points="
  180.66,1449.59 213.242,1449.59 
  "/>
<polyline clip-path="url(#clip6400)" style="stroke:#000000; stroke-width:4; stroke-opacity:1; fill:none" points="
  180.66,1127.28 213.242,1127.28 
  "/>
<polyline clip-path="url(#clip6400)" style="stroke:#000000; stroke-width:4; stroke-opacity:1; fill:none" points="
  180.66,804.962 213.242,804.962 
  "/>
<polyline clip-path="url(#clip6400)" style="stroke:#000000; stroke-width:4; stroke-opacity:1; fill:none" points="
  180.66,482.646 213.242,482.646 
  "/>
<polyline clip-path="url(#clip6400)" style="stroke:#000000; stroke-width:4; stroke-opacity:1; fill:none" points="
  180.66,160.33 213.242,160.33 
  "/>
<g clip-path="url(#clip6400)">
<text style="fill:#000000; fill-opacity:1; font-family:Arial,Helvetica Neue,Helvetica,sans-serif; font-size:48px; text-anchor:middle;" transform="rotate(0, 242.135, 1541.47)" x="242.135" y="1541.47">0</text>
</g>
<g clip-path="url(#clip6400)">
<text style="fill:#000000; fill-opacity:1; font-family:Arial,Helvetica Neue,Helvetica,sans-serif; font-size:48px; text-anchor:middle;" transform="rotate(0, 651.964, 1541.47)" x="651.964" y="1541.47">5</text>
</g>
<g clip-path="url(#clip6400)">
<text style="fill:#000000; fill-opacity:1; font-family:Arial,Helvetica Neue,Helvetica,sans-serif; font-size:48px; text-anchor:middle;" transform="rotate(0, 1061.79, 1541.47)" x="1061.79" y="1541.47">10</text>
</g>
<g clip-path="url(#clip6400)">
<text style="fill:#000000; fill-opacity:1; font-family:Arial,Helvetica Neue,Helvetica,sans-serif; font-size:48px; text-anchor:middle;" transform="rotate(0, 1471.62, 1541.47)" x="1471.62" y="1541.47">15</text>
</g>
<g clip-path="url(#clip6400)">
<text style="fill:#000000; fill-opacity:1; font-family:Arial,Helvetica Neue,Helvetica,sans-serif; font-size:48px; text-anchor:middle;" transform="rotate(0, 1881.45, 1541.47)" x="1881.45" y="1541.47">20</text>
</g>
<g clip-path="url(#clip6400)">
<text style="fill:#000000; fill-opacity:1; font-family:Arial,Helvetica Neue,Helvetica,sans-serif; font-size:48px; text-anchor:middle;" transform="rotate(0, 2291.28, 1541.47)" x="2291.28" y="1541.47">25</text>
</g>
<g clip-path="url(#clip6400)">
<text style="fill:#000000; fill-opacity:1; font-family:Arial,Helvetica Neue,Helvetica,sans-serif; font-size:48px; text-anchor:end;" transform="rotate(0, 156.66, 1467.09)" x="156.66" y="1467.09">0.00</text>
</g>
<g clip-path="url(#clip6400)">
<text style="fill:#000000; fill-opacity:1; font-family:Arial,Helvetica Neue,Helvetica,sans-serif; font-size:48px; text-anchor:end;" transform="rotate(0, 156.66, 1144.78)" x="156.66" y="1144.78">0.25</text>
</g>
<g clip-path="url(#clip6400)">
<text style="fill:#000000; fill-opacity:1; font-family:Arial,Helvetica Neue,Helvetica,sans-serif; font-size:48px; text-anchor:end;" transform="rotate(0, 156.66, 822.462)" x="156.66" y="822.462">0.50</text>
</g>
<g clip-path="url(#clip6400)">
<text style="fill:#000000; fill-opacity:1; font-family:Arial,Helvetica Neue,Helvetica,sans-serif; font-size:48px; text-anchor:end;" transform="rotate(0, 156.66, 500.146)" x="156.66" y="500.146">0.75</text>
</g>
<g clip-path="url(#clip6400)">
<text style="fill:#000000; fill-opacity:1; font-family:Arial,Helvetica Neue,Helvetica,sans-serif; font-size:48px; text-anchor:end;" transform="rotate(0, 156.66, 177.83)" x="156.66" y="177.83">1.00</text>
</g>
<g clip-path="url(#clip6400)">
<text style="fill:#000000; fill-opacity:1; font-family:Arial,Helvetica Neue,Helvetica,sans-serif; font-size:84px; text-anchor:middle;" transform="rotate(0, 1266.71, 73.2)" x="1266.71" y="73.2">Change of Asset CDF as sigma increases</text>
</g>
<polyline clip-path="url(#clip6402)" style="stroke:#009af9; stroke-width:4; stroke-opacity:1; fill:none" points="
  242.135,1376.75 242.135,1376.75 242.135,1376.75 242.135,1376.75 242.135,1376.75 242.135,1376.75 242.135,1376.75 242.135,1376.75 242.135,1376.75 242.135,1376.75 
  242.135,1376.75 242.135,1376.75 242.135,1376.75 242.135,1376.75 242.135,1376.75 242.135,1376.75 242.135,1376.75 242.135,1376.75 242.135,1376.75 242.135,1376.75 
  242.135,1376.75 242.135,1376.75 242.135,1376.75 242.135,1376.75 242.135,1376.75 242.135,1376.75 242.135,1376.75 242.135,1376.75 242.135,1376.75 242.135,1376.75 
  242.136,1376.75 242.136,1376.75 242.136,1376.75 242.136,1376.75 242.137,1376.75 242.137,1376.75 242.138,1376.75 242.139,1376.75 242.139,1376.75 242.14,1376.75 
  242.141,1376.75 242.142,1376.75 242.144,1376.75 242.145,1376.75 242.147,1376.75 242.149,1376.75 242.152,1376.75 242.154,1376.75 242.157,1376.75 242.161,1376.62 
  242.165,1376.62 242.169,1376.62 242.174,1376.62 242.18,1376.62 242.186,1376.62 242.193,1376.36 242.2,1376.36 242.209,1376.36 242.218,1376.36 242.229,1376.36 
  242.24,1376.36 242.253,1376.36 242.267,1375.98 242.282,1375.98 242.299,1375.98 242.318,1374.69 242.338,1374.69 242.36,1374.69 242.385,1374.69 242.411,1374.69 
  242.44,1374.56 242.471,1373.91 242.506,1373.66 242.543,1373.53 242.583,1373.4 242.626,1372.88 242.674,1372.88 242.724,1372.75 242.779,1372.37 242.839,1372.11 
  242.903,1372.11 242.972,1371.85 243.046,1371.85 243.125,1371.72 243.211,1371.21 243.303,1371.08 243.401,1370.95 243.507,1370.3 243.62,1370.05 243.741,1369.92 
  243.87,1369.53 244.008,1369.4 244.155,1368.5 244.312,1368.24 244.479,1367.21 244.658,1366.95 244.847,1366.05 245.049,1365.4 245.264,1364.63 245.492,1363.6 
  245.734,1363.47 245.991,1363.34 246.264,1361.67 246.553,1361.02 246.859,1360.25 247.183,1358.31 247.526,1357.54 247.889,1356.12 248.272,1354.7 248.677,1354.19 
  249.105,1352.13 249.557,1351.74 250.033,1350.84 250.536,1349.8 251.065,1348.52 251.623,1346.58 252.211,1345.29 252.829,1336.65 253.48,1335.75 254.165,1333.56 
  254.884,1331.75 255.64,1330.08 256.434,1328.14 257.268,1326.34 258.144,1325.57 259.062,1323.89 260.025,1321.7 261.035,1319.51 262.093,1313.83 263.201,1311.26 
  264.362,1310.48 265.578,1309.71 266.849,1306.74 268.18,1304.42 269.571,1301.33 271.026,1292.69 272.546,1289.21 274.134,1285.21 275.793,1281.22 277.525,1278.64 
  279.333,1272.19 281.22,1269.1 283.188,1266 285.24,1261.49 287.38,1257.11 289.61,1253.5 291.933,1249.89 294.353,1245.37 296.874,1241.25 299.498,1234.29 
  302.229,1229.77 305.071,1224.75 308.027,1219.98 311.101,1214.43 314.298,1209.15 317.621,1203.86 321.074,1196.25 324.661,1190.84 328.387,1184.13 332.257,1179.75 
  336.275,1173.43 340.445,1168.28 344.772,1159.9 349.262,1154.35 353.919,1147.91 358.748,1144.94 363.756,1128.18 368.946,1121.6 374.325,1116.58 379.899,1108.2 
  385.672,1100.98 391.652,1096.34 397.844,1086.92 404.255,1078.41 410.891,1073.39 417.758,1062.94 424.863,1053.02 432.213,1048.25 439.815,1038.71 447.677,1026.84 
  455.804,1020.4 464.206,1009.31 472.889,1000.93 481.862,992.679 491.132,968.698 500.708,958.642 510.598,952.582 520.81,941.495 531.353,927.957 542.236,920.222 
  553.469,911.068 565.06,899.98 577.019,891.987 589.355,878.321 602.079,866.202 615.201,856.661 628.73,844.284 642.678,828.813 657.055,817.339 671.872,801.094 
  687.14,790.135 702.871,776.469 719.076,762.674 735.768,751.844 752.957,740.112 770.657,726.832 788.88,715.487 807.64,703.883 826.948,689.959 846.818,677.196 
  867.265,660.306 888.301,646.769 909.941,632.716 932.199,620.597 955.09,607.833 978.629,593.007 1002.83,579.341 1027.71,564.643 1053.29,551.621 1079.57,539.373 
  1106.58,525.836 1134.34,512.686 1162.85,500.309 1192.15,485.611 1222.24,473.105 1253.14,460.47 1284.87,445.128 1317.45,429.27 1350.9,416.893 1385.24,390.592 
  1420.49,381.052 1456.67,372.027 1493.79,356.298 1531.88,348.047 1570.96,333.994 1611.05,325.742 1652.17,314.268 1694.35,304.47 1737.61,294.155 1781.96,283.97 
  1827.44,272.109 1874.06,265.405 1921.85,255.993 1970.84,244.132 2021.05,232.915 2072.5,224.277 2125.23,214.995 2179.25,205.196 2234.59,198.105 2291.28,160.33 
  
  "/>
<polyline clip-path="url(#clip6402)" style="stroke:#e26f46; stroke-width:4; stroke-opacity:1; fill:none" points="
  242.135,1439.54 242.135,1439.54 242.135,1439.54 242.135,1439.54 242.135,1439.54 242.135,1439.54 242.135,1439.54 242.135,1439.54 242.135,1439.54 242.135,1439.54 
  242.135,1439.54 242.135,1439.54 242.135,1439.54 242.135,1439.54 242.135,1439.54 242.135,1439.54 242.135,1439.54 242.135,1439.54 242.135,1439.54 242.135,1439.54 
  242.135,1439.54 242.135,1439.54 242.135,1439.54 242.135,1439.54 242.135,1439.54 242.135,1439.54 242.135,1439.54 242.135,1439.54 242.135,1439.54 242.135,1439.54 
  242.136,1439.54 242.136,1439.54 242.136,1439.54 242.136,1439.54 242.137,1439.54 242.137,1439.54 242.138,1439.54 242.139,1439.54 242.139,1439.54 242.14,1439.54 
  242.141,1439.54 242.142,1439.54 242.144,1439.54 242.145,1439.54 242.147,1439.54 242.149,1439.54 242.152,1439.54 242.154,1439.54 242.157,1439.54 242.161,1439.54 
  242.165,1439.54 242.169,1439.54 242.174,1439.54 242.18,1439.54 242.186,1439.54 242.193,1439.54 242.2,1439.41 242.209,1439.41 242.218,1439.41 242.229,1439.41 
  242.24,1439.41 242.253,1439.41 242.267,1439.41 242.282,1439.41 242.299,1439.28 242.318,1439.28 242.338,1439.02 242.36,1439.02 242.385,1439.02 242.411,1438.89 
  242.44,1438.89 242.471,1438.89 242.506,1438.89 242.543,1438.89 242.583,1438.89 242.626,1438.89 242.674,1438.89 242.724,1438.89 242.779,1438.76 242.839,1438.51 
  242.903,1438.51 242.972,1437.86 243.046,1437.86 243.125,1437.6 243.211,1437.6 243.303,1437.35 243.401,1436.96 243.507,1436.96 243.62,1436.96 243.741,1436.57 
  243.87,1436.57 244.008,1436.31 244.155,1436.06 244.312,1435.8 244.479,1435.54 244.658,1435.54 244.847,1435.54 245.049,1435.41 245.264,1435.28 245.492,1435.28 
  245.734,1434.77 245.991,1434.64 246.264,1432.96 246.553,1432.32 246.859,1432.19 247.183,1431.67 247.526,1431.29 247.889,1430.51 248.272,1430.51 248.677,1430.25 
  249.105,1430 249.557,1428.06 250.033,1427.29 250.536,1426.77 251.065,1426 251.623,1425.74 252.211,1424.71 252.829,1423.29 253.48,1422.39 254.165,1421.87 
  254.884,1420.46 255.64,1419.42 256.434,1417.75 257.268,1417.36 258.144,1415.69 259.062,1413.49 260.025,1411.56 261.035,1409.88 262.093,1408.85 263.201,1407.31 
  264.362,1406.15 265.578,1402.92 266.849,1402.41 268.18,1400.73 269.571,1399.18 271.026,1395.83 272.546,1394.41 274.134,1391.32 275.793,1389.51 277.525,1387.45 
  279.333,1385.78 281.22,1384.1 283.188,1382.17 285.24,1379.97 287.38,1378.43 289.61,1376.23 291.933,1372.37 294.353,1368.5 296.874,1364.89 299.498,1361.92 
  302.229,1360.25 305.071,1356.9 308.027,1353.03 311.101,1350.19 314.298,1346.71 317.621,1344.52 321.074,1340.52 324.661,1336.65 328.387,1333.69 332.257,1329.82 
  336.275,1325.57 340.445,1320.67 344.772,1317.32 349.262,1310.74 353.919,1305.58 358.748,1300.94 363.756,1294.11 368.946,1289.08 374.325,1280.06 379.899,1274.51 
  385.672,1267.42 391.652,1260.85 397.844,1252.47 404.255,1245.63 410.891,1238.67 417.758,1229.26 424.863,1221.39 432.213,1213.92 439.815,1207.08 447.677,1198.96 
  455.804,1190.71 464.206,1181.81 472.889,1173.56 481.862,1165.05 491.132,1153.97 500.708,1142.88 510.598,1119.03 520.81,1106.78 531.353,1095.69 542.236,1085.12 
  553.469,1078.93 565.06,1067.46 577.019,1054.05 589.355,1039.22 602.079,1031.1 615.201,1016.92 628.73,1003.51 642.678,988.553 657.055,977.723 671.872,962.123 
  687.14,948.199 702.871,931.438 719.076,918.417 735.768,900.754 752.957,886.701 770.657,865.557 788.88,852.536 807.64,812.826 826.948,798.773 846.818,778.532 
  867.265,762.674 888.301,744.753 909.941,731.345 932.199,714.455 955.09,700.145 978.629,682.353 1002.83,662.369 1027.71,644.577 1053.29,629.364 1079.57,613.635 
  1106.58,597.132 1134.34,578.696 1162.85,562.193 1192.15,550.074 1222.24,535.763 1253.14,523.129 1284.87,507.4 1317.45,490.897 1350.9,475.684 1385.24,457.376 
  1420.49,443.323 1456.67,429.915 1493.79,415.733 1531.88,398.844 1570.96,370.996 1611.05,358.361 1652.17,343.921 1694.35,333.607 1737.61,320.456 1781.96,311.432 
  1827.44,299.055 1874.06,290.288 1921.85,280.102 1970.84,269.273 2021.05,260.119 2072.5,249.805 2125.23,237.557 2179.25,226.469 2234.59,214.737 2291.28,160.33 
  
  "/>
<polyline clip-path="url(#clip6402)" style="stroke:#3da44d; stroke-width:4; stroke-opacity:1; fill:none" points="
  242.135,1448.82 242.135,1448.82 242.135,1448.82 242.135,1448.82 242.135,1448.82 242.135,1448.82 242.135,1448.82 242.135,1448.82 242.135,1448.82 242.135,1448.82 
  242.135,1448.82 242.135,1448.82 242.135,1448.82 242.135,1448.82 242.135,1448.82 242.135,1448.82 242.135,1448.82 242.135,1448.82 242.135,1448.82 242.135,1448.82 
  242.135,1448.82 242.135,1448.82 242.135,1448.82 242.135,1448.82 242.135,1448.82 242.135,1448.82 242.135,1448.82 242.135,1448.82 242.135,1448.82 242.135,1448.82 
  242.136,1448.82 242.136,1448.82 242.136,1448.82 242.136,1448.82 242.137,1448.82 242.137,1448.82 242.138,1448.82 242.139,1448.82 242.139,1448.82 242.14,1448.82 
  242.141,1448.82 242.142,1448.82 242.144,1448.82 242.145,1448.82 242.147,1448.82 242.149,1448.82 242.152,1448.82 242.154,1448.82 242.157,1448.82 242.161,1448.82 
  242.165,1448.82 242.169,1448.82 242.174,1448.82 242.18,1448.82 242.186,1448.82 242.193,1448.82 242.2,1448.82 242.209,1448.82 242.218,1448.82 242.229,1448.82 
  242.24,1448.82 242.253,1448.82 242.267,1448.82 242.282,1448.82 242.299,1448.82 242.318,1448.82 242.338,1448.82 242.36,1448.82 242.385,1448.82 242.411,1448.82 
  242.44,1448.82 242.471,1448.82 242.506,1448.82 242.543,1448.69 242.583,1448.69 242.626,1448.69 242.674,1448.69 242.724,1448.69 242.779,1448.43 242.839,1448.43 
  242.903,1448.43 242.972,1448.43 243.046,1448.43 243.125,1448.43 243.211,1448.43 243.303,1448.43 243.401,1448.18 243.507,1448.18 243.62,1448.18 243.741,1448.18 
  243.87,1447.79 244.008,1447.79 244.155,1447.79 244.312,1447.79 244.479,1447.79 244.658,1447.79 244.847,1447.4 245.049,1447.14 245.264,1447.02 245.492,1446.37 
  245.734,1446.37 245.991,1446.11 246.264,1445.98 246.553,1445.85 246.859,1445.73 247.183,1445.47 247.526,1445.34 247.889,1445.34 248.272,1445.08 248.677,1444.95 
  249.105,1444.31 249.557,1443.79 250.033,1443.53 250.536,1443.28 251.065,1442.89 251.623,1442.5 252.211,1442.37 252.829,1442.37 253.48,1442.24 254.165,1442.24 
  254.884,1442.24 255.64,1441.99 256.434,1441.47 257.268,1441.21 258.144,1441.21 259.062,1440.96 260.025,1440.7 261.035,1440.44 262.093,1439.92 263.201,1439.15 
  264.362,1438.89 265.578,1437.73 266.849,1436.44 268.18,1436.06 269.571,1435.15 271.026,1434.12 272.546,1433.22 274.134,1432.45 275.793,1431.29 277.525,1430.64 
  279.333,1429.35 281.22,1428.45 283.188,1427.68 285.24,1427.16 287.38,1425.48 289.61,1424.07 291.933,1423.16 294.353,1422.26 296.874,1420.97 299.498,1419.42 
  302.229,1418.78 305.071,1417.49 308.027,1414.78 311.101,1413.24 314.298,1411.95 317.621,1410.14 321.074,1406.02 324.661,1404.21 328.387,1402.28 332.257,1399.96 
  336.275,1396.73 340.445,1394.54 344.772,1393.9 349.262,1391.45 353.919,1383.58 358.748,1380.75 363.756,1378.94 368.946,1376.11 374.325,1372.88 379.899,1368.5 
  385.672,1364.24 391.652,1359.09 397.844,1354.06 404.255,1349.55 410.891,1344.39 417.758,1337.94 424.863,1333.17 432.213,1328.92 439.815,1321.96 447.677,1316.15 
  455.804,1308.03 464.206,1300.43 472.889,1293.46 481.862,1285.73 491.132,1275.93 500.708,1265.62 510.598,1253.75 520.81,1244.86 531.353,1227.2 542.236,1215.59 
  553.469,1202.44 565.06,1193.29 577.019,1179.11 589.355,1167.24 602.079,1156.54 615.201,1145.97 628.73,1134.37 642.678,1124.7 657.055,1111.16 671.872,1098.14 
  687.14,1071.45 702.871,1062.43 719.076,1050.7 735.768,1036.64 752.957,1021.17 770.657,1008.41 788.88,996.933 807.64,980.688 826.948,967.796 846.818,953.098 
  867.265,935.693 888.301,919.319 909.941,899.98 932.199,882.833 955.09,865.815 978.629,846.476 1002.83,832.681 1027.71,814.373 1053.29,798.386 1079.57,752.875 
  1106.58,733.665 1134.34,710.717 1162.85,694.472 1192.15,669.718 1222.24,647.285 1253.14,630.911 1284.87,610.67 1317.45,591.46 1350.9,575.215 1385.24,558.068 
  1420.49,539.76 1456.67,523.387 1493.79,507.271 1531.88,493.476 1570.96,477.489 1611.05,461.115 1652.17,442.936 1694.35,425.789 1737.61,410.06 1781.96,391.753 
  1827.44,357.2 1874.06,340.311 1921.85,325.227 1970.84,309.756 2021.05,298.023 2072.5,286.807 2125.23,269.53 2179.25,257.669 2234.59,240.006 2291.28,160.33 
  
  "/>
<polygon clip-path="url(#clip6400)" points="
1830.75,1343.47 2280.76,1343.47 2280.76,1101.55 1830.75,1101.55 
  " fill="#ffffff" fill-rule="evenodd" fill-opacity="1"/>
<polyline clip-path="url(#clip6400)" style="stroke:#000000; stroke-width:4; stroke-opacity:1; fill:none" points="
  1830.75,1343.47 2280.76,1343.47 2280.76,1101.55 1830.75,1101.55 1830.75,1343.47 
  "/>
<polyline clip-path="url(#clip6400)" style="stroke:#009af9; stroke-width:4; stroke-opacity:1; fill:none" points="
  1854.75,1162.03 1998.75,1162.03 
  "/>
<g clip-path="url(#clip6400)">
<text style="fill:#000000; fill-opacity:1; font-family:Arial,Helvetica Neue,Helvetica,sans-serif; font-size:48px; text-anchor:start;" transform="rotate(0, 2022.75, 1179.53)" x="2022.75" y="1179.53">sigma = 1</text>
</g>
<polyline clip-path="url(#clip6400)" style="stroke:#e26f46; stroke-width:4; stroke-opacity:1; fill:none" points="
  1854.75,1222.51 1998.75,1222.51 
  "/>
<g clip-path="url(#clip6400)">
<text style="fill:#000000; fill-opacity:1; font-family:Arial,Helvetica Neue,Helvetica,sans-serif; font-size:48px; text-anchor:start;" transform="rotate(0, 2022.75, 1240.01)" x="2022.75" y="1240.01">sigma = 3</text>
</g>
<polyline clip-path="url(#clip6400)" style="stroke:#3da44d; stroke-width:4; stroke-opacity:1; fill:none" points="
  1854.75,1282.99 1998.75,1282.99 
  "/>
<g clip-path="url(#clip6400)">
<text style="fill:#000000; fill-opacity:1; font-family:Arial,Helvetica Neue,Helvetica,sans-serif; font-size:48px; text-anchor:start;" transform="rotate(0, 2022.75, 1300.49)" x="2022.75" y="1300.49">sigma = 5</text>
</g>
</svg>
