<?xml version="1.0" encoding="utf-8"?>
<svg xmlns="http://www.w3.org/2000/svg" xmlns:xlink="http://www.w3.org/1999/xlink" width="600" height="400" viewBox="0 0 2400 1600">
<defs>
  <clipPath id="clip8800">
    <rect x="0" y="0" width="2400" height="1600"/>
  </clipPath>
</defs>
<polygon clip-path="url(#clip8800)" points="
0,1600 2400,1600 2400,0 0,0 
  " fill="#ffffff" fill-rule="evenodd" fill-opacity="1"/>
<defs>
  <clipPath id="clip8801">
    <rect x="480" y="0" width="1681" height="1600"/>
  </clipPath>
</defs>
<polygon clip-path="url(#clip8800)" points="
229.135,1425.62 2352.76,1425.62 2352.76,121.675 229.135,121.675 
  " fill="#ffffff" fill-rule="evenodd" fill-opacity="1"/>
<defs>
  <clipPath id="clip8802">
    <rect x="229" y="121" width="2125" height="1305"/>
  </clipPath>
</defs>
<polyline clip-path="url(#clip8802)" style="stroke:#000000; stroke-width:2; stroke-opacity:0.1; fill:none" points="
  289.238,1425.62 289.238,121.675 
  "/>
<polyline clip-path="url(#clip8802)" style="stroke:#000000; stroke-width:2; stroke-opacity:0.1; fill:none" points="
  689.921,1425.62 689.921,121.675 
  "/>
<polyline clip-path="url(#clip8802)" style="stroke:#000000; stroke-width:2; stroke-opacity:0.1; fill:none" points="
  1090.6,1425.62 1090.6,121.675 
  "/>
<polyline clip-path="url(#clip8802)" style="stroke:#000000; stroke-width:2; stroke-opacity:0.1; fill:none" points="
  1491.29,1425.62 1491.29,121.675 
  "/>
<polyline clip-path="url(#clip8802)" style="stroke:#000000; stroke-width:2; stroke-opacity:0.1; fill:none" points="
  1891.97,1425.62 1891.97,121.675 
  "/>
<polyline clip-path="url(#clip8802)" style="stroke:#000000; stroke-width:2; stroke-opacity:0.1; fill:none" points="
  2292.65,1425.62 2292.65,121.675 
  "/>
<polyline clip-path="url(#clip8802)" style="stroke:#000000; stroke-width:2; stroke-opacity:0.1; fill:none" points="
  229.135,1393.65 2352.76,1393.65 
  "/>
<polyline clip-path="url(#clip8802)" style="stroke:#000000; stroke-width:2; stroke-opacity:0.1; fill:none" points="
  229.135,1146.64 2352.76,1146.64 
  "/>
<polyline clip-path="url(#clip8802)" style="stroke:#000000; stroke-width:2; stroke-opacity:0.1; fill:none" points="
  229.135,899.625 2352.76,899.625 
  "/>
<polyline clip-path="url(#clip8802)" style="stroke:#000000; stroke-width:2; stroke-opacity:0.1; fill:none" points="
  229.135,652.609 2352.76,652.609 
  "/>
<polyline clip-path="url(#clip8802)" style="stroke:#000000; stroke-width:2; stroke-opacity:0.1; fill:none" points="
  229.135,405.594 2352.76,405.594 
  "/>
<polyline clip-path="url(#clip8802)" style="stroke:#000000; stroke-width:2; stroke-opacity:0.1; fill:none" points="
  229.135,158.579 2352.76,158.579 
  "/>
<polyline clip-path="url(#clip8800)" style="stroke:#000000; stroke-width:4; stroke-opacity:1; fill:none" points="
  229.135,1425.62 2352.76,1425.62 
  "/>
<polyline clip-path="url(#clip8800)" style="stroke:#000000; stroke-width:4; stroke-opacity:1; fill:none" points="
  229.135,1425.62 229.135,121.675 
  "/>
<polyline clip-path="url(#clip8800)" style="stroke:#000000; stroke-width:4; stroke-opacity:1; fill:none" points="
  289.238,1425.62 289.238,1406.06 
  "/>
<polyline clip-path="url(#clip8800)" style="stroke:#000000; stroke-width:4; stroke-opacity:1; fill:none" points="
  689.921,1425.62 689.921,1406.06 
  "/>
<polyline clip-path="url(#clip8800)" style="stroke:#000000; stroke-width:4; stroke-opacity:1; fill:none" points="
  1090.6,1425.62 1090.6,1406.06 
  "/>
<polyline clip-path="url(#clip8800)" style="stroke:#000000; stroke-width:4; stroke-opacity:1; fill:none" points="
  1491.29,1425.62 1491.29,1406.06 
  "/>
<polyline clip-path="url(#clip8800)" style="stroke:#000000; stroke-width:4; stroke-opacity:1; fill:none" points="
  1891.97,1425.62 1891.97,1406.06 
  "/>
<polyline clip-path="url(#clip8800)" style="stroke:#000000; stroke-width:4; stroke-opacity:1; fill:none" points="
  2292.65,1425.62 2292.65,1406.06 
  "/>
<polyline clip-path="url(#clip8800)" style="stroke:#000000; stroke-width:4; stroke-opacity:1; fill:none" points="
  229.135,1393.65 260.99,1393.65 
  "/>
<polyline clip-path="url(#clip8800)" style="stroke:#000000; stroke-width:4; stroke-opacity:1; fill:none" points="
  229.135,1146.64 260.99,1146.64 
  "/>
<polyline clip-path="url(#clip8800)" style="stroke:#000000; stroke-width:4; stroke-opacity:1; fill:none" points="
  229.135,899.625 260.99,899.625 
  "/>
<polyline clip-path="url(#clip8800)" style="stroke:#000000; stroke-width:4; stroke-opacity:1; fill:none" points="
  229.135,652.609 260.99,652.609 
  "/>
<polyline clip-path="url(#clip8800)" style="stroke:#000000; stroke-width:4; stroke-opacity:1; fill:none" points="
  229.135,405.594 260.99,405.594 
  "/>
<polyline clip-path="url(#clip8800)" style="stroke:#000000; stroke-width:4; stroke-opacity:1; fill:none" points="
  229.135,158.579 260.99,158.579 
  "/>
<g clip-path="url(#clip8800)">
<text style="fill:#000000; fill-opacity:1; font-family:Arial,Helvetica Neue,Helvetica,sans-serif; font-size:48px; text-anchor:middle;" transform="rotate(0, 289.238, 1479.62)" x="289.238" y="1479.62">0</text>
</g>
<g clip-path="url(#clip8800)">
<text style="fill:#000000; fill-opacity:1; font-family:Arial,Helvetica Neue,Helvetica,sans-serif; font-size:48px; text-anchor:middle;" transform="rotate(0, 689.921, 1479.62)" x="689.921" y="1479.62">5</text>
</g>
<g clip-path="url(#clip8800)">
<text style="fill:#000000; fill-opacity:1; font-family:Arial,Helvetica Neue,Helvetica,sans-serif; font-size:48px; text-anchor:middle;" transform="rotate(0, 1090.6, 1479.62)" x="1090.6" y="1479.62">10</text>
</g>
<g clip-path="url(#clip8800)">
<text style="fill:#000000; fill-opacity:1; font-family:Arial,Helvetica Neue,Helvetica,sans-serif; font-size:48px; text-anchor:middle;" transform="rotate(0, 1491.29, 1479.62)" x="1491.29" y="1479.62">15</text>
</g>
<g clip-path="url(#clip8800)">
<text style="fill:#000000; fill-opacity:1; font-family:Arial,Helvetica Neue,Helvetica,sans-serif; font-size:48px; text-anchor:middle;" transform="rotate(0, 1891.97, 1479.62)" x="1891.97" y="1479.62">20</text>
</g>
<g clip-path="url(#clip8800)">
<text style="fill:#000000; fill-opacity:1; font-family:Arial,Helvetica Neue,Helvetica,sans-serif; font-size:48px; text-anchor:middle;" transform="rotate(0, 2292.65, 1479.62)" x="2292.65" y="1479.62">25</text>
</g>
<g clip-path="url(#clip8800)">
<text style="fill:#000000; fill-opacity:1; font-family:Arial,Helvetica Neue,Helvetica,sans-serif; font-size:48px; text-anchor:end;" transform="rotate(0, 205.135, 1411.15)" x="205.135" y="1411.15">0</text>
</g>
<g clip-path="url(#clip8800)">
<text style="fill:#000000; fill-opacity:1; font-family:Arial,Helvetica Neue,Helvetica,sans-serif; font-size:48px; text-anchor:end;" transform="rotate(0, 205.135, 1164.14)" x="205.135" y="1164.14">50</text>
</g>
<g clip-path="url(#clip8800)">
<text style="fill:#000000; fill-opacity:1; font-family:Arial,Helvetica Neue,Helvetica,sans-serif; font-size:48px; text-anchor:end;" transform="rotate(0, 205.135, 917.125)" x="205.135" y="917.125">100</text>
</g>
<g clip-path="url(#clip8800)">
<text style="fill:#000000; fill-opacity:1; font-family:Arial,Helvetica Neue,Helvetica,sans-serif; font-size:48px; text-anchor:end;" transform="rotate(0, 205.135, 670.109)" x="205.135" y="670.109">150</text>
</g>
<g clip-path="url(#clip8800)">
<text style="fill:#000000; fill-opacity:1; font-family:Arial,Helvetica Neue,Helvetica,sans-serif; font-size:48px; text-anchor:end;" transform="rotate(0, 205.135, 423.094)" x="205.135" y="423.094">200</text>
</g>
<g clip-path="url(#clip8800)">
<text style="fill:#000000; fill-opacity:1; font-family:Arial,Helvetica Neue,Helvetica,sans-serif; font-size:48px; text-anchor:end;" transform="rotate(0, 205.135, 176.079)" x="205.135" y="176.079">250</text>
</g>
<g clip-path="url(#clip8800)">
<text style="fill:#000000; fill-opacity:1; font-family:Arial,Helvetica Neue,Helvetica,sans-serif; font-size:84px; text-anchor:middle;" transform="rotate(0, 1290.95, 73.2)" x="1290.95" y="73.2">Value Function</text>
</g>
<g clip-path="url(#clip8800)">
<text style="fill:#000000; fill-opacity:1; font-family:Arial,Helvetica Neue,Helvetica,sans-serif; font-size:66px; text-anchor:middle;" transform="rotate(0, 1290.95, 1559.48)" x="1290.95" y="1559.48">Capital at t</text>
</g>
<g clip-path="url(#clip8800)">
<text style="fill:#000000; fill-opacity:1; font-family:Arial,Helvetica Neue,Helvetica,sans-serif; font-size:66px; text-anchor:middle;" transform="rotate(-90, 89.2861, 773.647)" x="89.2861" y="773.647">Value Function</text>
</g>
<polyline clip-path="url(#clip8802)" style="stroke:#009af9; stroke-width:4; stroke-opacity:1; fill:none" points="
  289.238,1388.71 289.238,1388.71 289.238,1388.71 289.238,1388.71 289.238,1388.71 289.238,1388.71 289.238,1388.71 289.238,1388.71 289.238,1388.71 289.238,1388.71 
  289.238,1388.71 289.238,1388.71 289.238,1388.71 289.238,1388.71 289.238,1388.71 289.238,1388.71 289.238,1388.71 289.238,1388.71 289.238,1388.71 289.238,1388.71 
  289.238,1388.71 289.238,1388.71 289.238,1388.71 289.238,1388.71 289.238,1388.71 289.238,1388.71 289.238,1388.71 289.238,1388.71 289.238,1388.71 289.238,1388.71 
  289.239,1388.71 289.239,1388.71 289.239,1388.71 289.239,1388.71 289.24,1388.71 289.24,1388.71 289.241,1388.71 289.241,1388.71 289.242,1388.71 289.243,1388.71 
  289.244,1388.71 289.245,1388.71 289.247,1388.71 289.248,1388.71 289.25,1388.71 289.252,1388.71 289.254,1388.71 289.257,1388.71 289.26,1388.71 289.263,1388.71 
  289.267,1388.71 289.271,1388.71 289.276,1388.71 289.282,1388.71 289.288,1388.71 289.294,1388.71 289.302,1388.71 289.31,1388.71 289.319,1388.71 289.33,1388.71 
  289.341,1388.71 289.353,1388.71 289.367,1388.71 289.382,1388.71 289.399,1388.71 289.417,1388.71 289.437,1388.71 289.458,1388.71 289.482,1388.71 289.508,1388.71 
  289.536,1388.71 289.567,1388.71 289.6,1388.71 289.637,1388.71 289.676,1388.71 289.718,1388.71 289.765,1388.71 289.814,1388.71 289.868,1388.71 289.926,1388.71 
  289.989,1388.71 290.056,1388.71 290.128,1388.71 290.206,1388.71 290.29,1388.71 290.38,1388.71 290.476,1388.71 290.579,1388.71 290.69,1388.71 290.808,1388.71 
  290.934,1388.71 291.069,1388.71 291.213,1388.71 291.366,1388.71 291.53,1388.71 291.704,1388.71 291.89,1388.71 292.087,1388.71 292.297,1388.71 292.52,1388.71 
  292.757,1388.71 293.008,1388.71 293.275,1166.4 293.557,1072.54 293.856,1042.89 294.173,1023.13 294.509,1003.37 294.863,988.55 295.238,978.669 295.634,968.789 
  296.053,958.908 296.494,949.028 296.96,939.147 297.451,929.266 297.969,924.326 298.514,914.446 299.089,909.505 299.694,899.625 300.33,894.684 300.999,889.744 
  301.703,879.863 302.442,874.923 303.218,865.042 304.034,860.102 304.889,850.222 305.787,845.281 306.729,835.401 307.716,830.46 308.75,825.52 309.834,815.639 
  310.969,810.699 312.157,805.759 313.401,800.819 314.702,790.938 316.062,785.998 317.484,781.057 318.97,771.177 320.523,766.236 322.145,761.296 323.839,756.356 
  325.606,751.416 327.451,741.535 329.375,736.595 331.381,731.654 333.473,726.714 335.653,721.774 337.925,711.893 340.291,706.953 342.755,702.012 345.321,697.072 
  347.991,692.132 350.769,687.192 353.659,677.311 356.665,672.371 359.79,667.43 363.039,662.49 366.415,657.55 369.922,652.609 373.566,647.669 377.349,637.789 
  381.277,632.848 385.354,627.908 389.585,622.968 393.974,618.027 398.527,613.087 403.249,608.147 408.144,603.206 413.219,593.326 418.478,588.386 423.927,583.445 
  429.572,578.505 435.418,573.565 441.472,568.624 447.74,563.684 454.228,558.744 460.941,553.803 467.888,548.863 475.074,543.923 482.507,534.042 490.193,529.102 
  498.139,524.162 506.353,519.221 514.843,514.281 523.615,509.341 532.678,504.4 542.04,499.46 551.709,494.52 561.693,489.579 572.001,484.639 582.642,479.699 
  593.624,474.759 604.956,464.878 616.648,459.938 628.709,454.997 641.149,450.057 653.978,445.117 667.205,440.176 680.842,435.236 694.898,430.296 709.384,425.356 
  724.312,420.415 739.692,415.475 755.535,410.535 771.854,405.594 788.66,400.654 805.965,395.714 823.782,390.773 842.122,385.833 860.999,380.893 880.426,371.012 
  900.416,366.072 920.983,361.132 942.14,356.191 963.902,351.251 986.282,346.311 1009.3,341.37 1032.96,336.43 1057.28,331.49 1082.29,326.549 1107.98,321.609 
  1134.39,316.669 1161.53,311.729 1189.41,306.788 1218.05,301.848 1247.47,296.908 1277.68,291.967 1308.7,287.027 1340.56,282.087 1373.26,277.146 1406.84,272.206 
  1441.3,267.266 1476.66,262.326 1512.96,257.385 1550.2,252.445 1588.41,247.505 1627.6,237.624 1667.81,232.684 1709.05,227.743 1751.34,222.803 1794.7,217.863 
  1839.16,212.923 1884.74,207.982 1931.47,203.042 1979.37,198.102 2028.45,193.161 2078.76,188.221 2130.31,183.281 2183.12,178.34 2237.23,173.4 2292.65,168.46 
  
  "/>
<polyline clip-path="url(#clip8802)" style="stroke:#e26f46; stroke-width:4; stroke-opacity:1; fill:none" points="
  289.238,1388.71 289.238,1388.71 289.238,1388.71 289.238,1388.71 289.238,1388.71 289.238,1388.71 289.238,1388.71 289.238,1388.71 289.238,1388.71 289.238,1388.71 
  289.238,1388.71 289.238,1388.71 289.238,1388.71 289.238,1388.71 289.238,1388.71 289.238,1388.71 289.238,1388.71 289.238,1388.71 289.238,1388.71 289.238,1388.71 
  289.238,1388.71 289.238,1388.71 289.238,1388.71 289.238,1388.71 289.238,1388.71 289.238,1388.71 289.238,1388.71 289.238,1388.71 289.238,1388.71 289.238,1388.71 
  289.239,1388.71 289.239,1388.71 289.239,1388.71 289.239,1388.71 289.24,1388.71 289.24,1388.71 289.241,1388.71 289.241,1388.71 289.242,1388.71 289.243,1388.71 
  289.244,1388.71 289.245,1388.71 289.247,1388.71 289.248,1388.71 289.25,1388.71 289.252,1388.71 289.254,1388.71 289.257,1388.71 289.26,1388.71 289.263,1388.71 
  289.267,1388.71 289.271,1388.71 289.276,1388.71 289.282,1388.71 289.288,1388.71 289.294,1388.71 289.302,1388.71 289.31,1388.71 289.319,1388.71 289.33,1388.71 
  289.341,1388.71 289.353,1388.71 289.367,1388.71 289.382,1388.71 289.399,1388.71 289.417,1388.71 289.437,1388.71 289.458,1388.71 289.482,1388.71 289.508,1388.71 
  289.536,1388.71 289.567,1388.71 289.6,1388.71 289.637,1388.71 289.676,1388.71 289.718,1388.71 289.765,1388.71 289.814,1388.71 289.868,1388.71 289.926,1388.71 
  289.989,1388.71 290.056,1388.71 290.128,1388.71 290.206,1388.71 290.29,1388.71 290.38,1388.71 290.476,1388.71 290.579,1388.71 290.69,1388.71 290.808,1388.71 
  290.934,1388.71 291.069,1388.71 291.213,1388.71 291.366,1388.71 291.53,1388.71 291.704,1388.71 291.89,1388.71 292.087,1388.71 292.297,1388.71 292.52,1126.88 
  292.757,1072.54 293.008,1047.83 293.275,1028.07 293.557,1013.25 293.856,998.431 294.173,988.55 294.509,973.729 294.863,968.789 295.238,958.908 295.634,949.028 
  296.053,939.147 296.494,934.207 296.96,924.326 297.451,919.386 297.969,914.446 298.514,904.565 299.089,899.625 299.694,889.744 300.33,884.804 300.999,874.923 
  301.703,869.983 302.442,860.102 303.218,855.162 304.034,850.222 304.889,840.341 305.787,835.401 306.729,830.46 307.716,820.58 308.75,815.639 309.834,810.699 
  310.969,805.759 312.157,795.878 313.401,790.938 314.702,785.998 316.062,781.057 317.484,771.177 318.97,766.236 320.523,761.296 322.145,756.356 323.839,751.416 
  325.606,741.535 327.451,736.595 329.375,731.654 331.381,726.714 333.473,721.774 335.653,716.833 337.925,706.953 340.291,702.012 342.755,697.072 345.321,692.132 
  347.991,687.192 350.769,682.251 353.659,677.311 356.665,667.43 359.79,662.49 363.039,657.55 366.415,652.609 369.922,647.669 373.566,642.729 377.349,637.789 
  381.277,632.848 385.354,622.968 389.585,618.027 393.974,613.087 398.527,608.147 403.249,603.206 408.144,598.266 413.219,593.326 418.478,588.386 423.927,583.445 
  429.572,578.505 435.418,568.624 441.472,563.684 447.74,558.744 454.228,553.803 460.941,548.863 467.888,543.923 475.074,538.982 482.507,534.042 490.193,529.102 
  498.139,524.162 506.353,519.221 514.843,514.281 523.615,509.341 532.678,504.4 542.04,494.52 551.709,489.579 561.693,484.639 572.001,479.699 582.642,474.759 
  593.624,469.818 604.956,464.878 616.648,459.938 628.709,454.997 641.149,450.057 653.978,445.117 667.205,440.176 680.842,435.236 694.898,430.296 709.384,425.356 
  724.312,420.415 739.692,415.475 755.535,405.594 771.854,400.654 788.66,395.714 805.965,390.773 823.782,385.833 842.122,380.893 860.999,375.953 880.426,371.012 
  900.416,366.072 920.983,361.132 942.14,356.191 963.902,351.251 986.282,346.311 1009.3,341.37 1032.96,336.43 1057.28,331.49 1082.29,326.549 1107.98,321.609 
  1134.39,316.669 1161.53,311.729 1189.41,306.788 1218.05,301.848 1247.47,296.908 1277.68,291.967 1308.7,287.027 1340.56,282.087 1373.26,277.146 1406.84,267.266 
  1441.3,262.326 1476.66,257.385 1512.96,252.445 1550.2,247.505 1588.41,242.564 1627.6,237.624 1667.81,232.684 1709.05,227.743 1751.34,222.803 1794.7,217.863 
  1839.16,212.923 1884.74,207.982 1931.47,203.042 1979.37,198.102 2028.45,193.161 2078.76,188.221 2130.31,183.281 2183.12,178.34 2237.23,173.4 2292.65,168.46 
  
  "/>
<polyline clip-path="url(#clip8802)" style="stroke:#3da44d; stroke-width:4; stroke-opacity:1; fill:none" points="
  289.238,1388.71 289.238,1388.71 289.238,1388.71 289.238,1388.71 289.238,1388.71 289.238,1388.71 289.238,1388.71 289.238,1388.71 289.238,1388.71 289.238,1388.71 
  289.238,1388.71 289.238,1388.71 289.238,1388.71 289.238,1388.71 289.238,1388.71 289.238,1388.71 289.238,1388.71 289.238,1388.71 289.238,1388.71 289.238,1388.71 
  289.238,1388.71 289.238,1388.71 289.238,1388.71 289.238,1388.71 289.238,1388.71 289.238,1388.71 289.238,1388.71 289.238,1388.71 289.238,1388.71 289.238,1388.71 
  289.239,1388.71 289.239,1388.71 289.239,1388.71 289.239,1388.71 289.24,1388.71 289.24,1388.71 289.241,1388.71 289.241,1388.71 289.242,1388.71 289.243,1388.71 
  289.244,1388.71 289.245,1388.71 289.247,1388.71 289.248,1388.71 289.25,1388.71 289.252,1388.71 289.254,1388.71 289.257,1388.71 289.26,1388.71 289.263,1388.71 
  289.267,1388.71 289.271,1388.71 289.276,1388.71 289.282,1388.71 289.288,1388.71 289.294,1388.71 289.302,1388.71 289.31,1388.71 289.319,1388.71 289.33,1388.71 
  289.341,1388.71 289.353,1388.71 289.367,1388.71 289.382,1388.71 289.399,1388.71 289.417,1388.71 289.437,1388.71 289.458,1388.71 289.482,1388.71 289.508,1388.71 
  289.536,1388.71 289.567,1388.71 289.6,1388.71 289.637,1388.71 289.676,1388.71 289.718,1388.71 289.765,1388.71 289.814,1388.71 289.868,1388.71 289.926,1388.71 
  289.989,1388.71 290.056,1388.71 290.128,1388.71 290.206,1388.71 290.29,1388.71 290.38,1388.71 290.476,1388.71 290.579,1171.34 290.69,1112.06 290.808,1082.42 
  290.934,1067.59 291.069,1052.77 291.213,1037.95 291.366,1028.07 291.53,1018.19 291.704,1008.31 291.89,1003.37 292.087,993.49 292.297,983.61 292.52,978.669 
  292.757,968.789 293.008,963.849 293.275,958.908 293.557,949.028 293.856,944.087 294.173,934.207 294.509,929.266 294.863,924.326 295.238,914.446 295.634,909.505 
  296.053,904.565 296.494,894.684 296.96,889.744 297.451,884.804 297.969,879.863 298.514,869.983 299.089,865.042 299.694,860.102 300.33,855.162 300.999,845.281 
  301.703,840.341 302.442,835.401 303.218,830.46 304.034,825.52 304.889,820.58 305.787,810.699 306.729,805.759 307.716,800.819 308.75,795.878 309.834,790.938 
  310.969,785.998 312.157,781.057 313.401,771.177 314.702,766.236 316.062,761.296 317.484,756.356 318.97,751.416 320.523,746.475 322.145,741.535 323.839,736.595 
  325.606,726.714 327.451,721.774 329.375,716.833 331.381,711.893 333.473,706.953 335.653,702.012 337.925,697.072 340.291,692.132 342.755,687.192 345.321,682.251 
  347.991,677.311 350.769,667.43 353.659,662.49 356.665,657.55 359.79,652.609 363.039,647.669 366.415,642.729 369.922,637.789 373.566,632.848 377.349,627.908 
  381.277,622.968 385.354,618.027 389.585,613.087 393.974,608.147 398.527,603.206 403.249,593.326 408.144,588.386 413.219,583.445 418.478,578.505 423.927,573.565 
  429.572,568.624 435.418,563.684 441.472,558.744 447.74,553.803 454.228,548.863 460.941,543.923 467.888,538.982 475.074,534.042 482.507,529.102 490.193,524.162 
  498.139,519.221 506.353,514.281 514.843,509.341 523.615,504.4 532.678,494.52 542.04,489.579 551.709,484.639 561.693,479.699 572.001,474.759 582.642,469.818 
  593.624,464.878 604.956,459.938 616.648,454.997 628.709,450.057 641.149,445.117 653.978,440.176 667.205,435.236 680.842,430.296 694.898,425.356 709.384,420.415 
  724.312,415.475 739.692,410.535 755.535,405.594 771.854,400.654 788.66,395.714 805.965,390.773 823.782,385.833 842.122,380.893 860.999,375.953 880.426,371.012 
  900.416,366.072 920.983,361.132 942.14,356.191 963.902,346.311 986.282,341.37 1009.3,336.43 1032.96,331.49 1057.28,326.549 1082.29,321.609 1107.98,316.669 
  1134.39,311.729 1161.53,306.788 1189.41,301.848 1218.05,296.908 1247.47,291.967 1277.68,287.027 1308.7,282.087 1340.56,277.146 1373.26,272.206 1406.84,267.266 
  1441.3,262.326 1476.66,257.385 1512.96,252.445 1550.2,247.505 1588.41,242.564 1627.6,237.624 1667.81,232.684 1709.05,227.743 1751.34,222.803 1794.7,217.863 
  1839.16,212.923 1884.74,207.982 1931.47,203.042 1979.37,198.102 2028.45,193.161 2078.76,188.221 2130.31,183.281 2183.12,178.34 2237.23,173.4 2292.65,168.46 
  
  "/>
<polyline clip-path="url(#clip8802)" style="stroke:#c271d2; stroke-width:4; stroke-opacity:1; fill:none" points="
  289.238,840.341 289.238,840.341 289.238,840.341 289.238,840.341 289.238,840.341 289.238,840.341 289.238,840.341 289.238,840.341 289.238,840.341 289.238,840.341 
  289.238,840.341 289.238,840.341 289.238,840.341 289.238,840.341 289.238,840.341 289.238,840.341 289.238,840.341 289.238,840.341 289.238,840.341 289.238,840.341 
  289.238,840.341 289.238,840.341 289.238,840.341 289.238,840.341 289.238,840.341 289.238,840.341 289.238,840.341 289.238,840.341 289.238,840.341 289.238,840.341 
  289.239,840.341 289.239,840.341 289.239,840.341 289.239,835.401 289.24,835.401 289.24,835.401 289.241,835.401 289.241,835.401 289.242,835.401 289.243,835.401 
  289.244,835.401 289.245,835.401 289.247,835.401 289.248,835.401 289.25,835.401 289.252,835.401 289.254,835.401 289.257,835.401 289.26,835.401 289.263,835.401 
  289.267,835.401 289.271,835.401 289.276,835.401 289.282,835.401 289.288,835.401 289.294,835.401 289.302,835.401 289.31,835.401 289.319,835.401 289.33,835.401 
  289.341,835.401 289.353,835.401 289.367,835.401 289.382,835.401 289.399,835.401 289.417,835.401 289.437,835.401 289.458,835.401 289.482,835.401 289.508,835.401 
  289.536,835.401 289.567,835.401 289.6,835.401 289.637,835.401 289.676,835.401 289.718,835.401 289.765,835.401 289.814,835.401 289.868,835.401 289.926,835.401 
  289.989,830.46 290.056,830.46 290.128,830.46 290.206,830.46 290.29,830.46 290.38,830.46 290.476,830.46 290.579,825.52 290.69,825.52 290.808,825.52 
  290.934,825.52 291.069,825.52 291.213,820.58 291.366,820.58 291.53,820.58 291.704,820.58 291.89,815.639 292.087,815.639 292.297,815.639 292.52,810.699 
  292.757,810.699 293.008,810.699 293.275,810.699 293.557,805.759 293.856,805.759 294.173,800.819 294.509,800.819 294.863,795.878 295.238,795.878 295.634,790.938 
  296.053,790.938 296.494,785.998 296.96,785.998 297.451,781.057 297.969,781.057 298.514,776.117 299.089,776.117 299.694,771.177 300.33,771.177 300.999,766.236 
  301.703,761.296 302.442,761.296 303.218,756.356 304.034,751.416 304.889,751.416 305.787,746.475 306.729,741.535 307.716,736.595 308.75,736.595 309.834,731.654 
  310.969,726.714 312.157,726.714 313.401,721.774 314.702,716.833 316.062,711.893 317.484,706.953 318.97,706.953 320.523,702.012 322.145,697.072 323.839,692.132 
  325.606,687.192 327.451,682.251 329.375,682.251 331.381,677.311 333.473,672.371 335.653,667.43 337.925,662.49 340.291,657.55 342.755,652.609 345.321,647.669 
  347.991,642.729 350.769,642.729 353.659,637.789 356.665,632.848 359.79,627.908 363.039,622.968 366.415,618.027 369.922,613.087 373.566,608.147 377.349,603.206 
  381.277,598.266 385.354,598.266 389.585,593.326 393.974,588.386 398.527,583.445 403.249,578.505 408.144,573.565 413.219,568.624 418.478,563.684 423.927,558.744 
  429.572,553.803 435.418,548.863 441.472,543.923 447.74,538.982 454.228,534.042 460.941,529.102 467.888,524.162 475.074,519.221 482.507,514.281 490.193,509.341 
  498.139,504.4 506.353,499.46 514.843,494.52 523.615,489.579 532.678,484.639 542.04,479.699 551.709,474.759 561.693,469.818 572.001,464.878 582.642,459.938 
  593.624,454.997 604.956,450.057 616.648,445.117 628.709,440.176 641.149,435.236 653.978,430.296 667.205,425.356 680.842,420.415 694.898,415.475 709.384,410.535 
  724.312,405.594 739.692,400.654 755.535,395.714 771.854,390.773 788.66,385.833 805.965,380.893 823.782,375.953 842.122,371.012 860.999,366.072 880.426,361.132 
  900.416,356.191 920.983,351.251 942.14,346.311 963.902,341.37 986.282,336.43 1009.3,331.49 1032.96,326.549 1057.28,321.609 1082.29,316.669 1107.98,311.729 
  1134.39,306.788 1161.53,301.848 1189.41,296.908 1218.05,291.967 1247.47,287.027 1277.68,282.087 1308.7,277.146 1340.56,272.206 1373.26,267.266 1406.84,262.326 
  1441.3,257.385 1476.66,252.445 1512.96,247.505 1550.2,242.564 1588.41,237.624 1627.6,232.684 1667.81,227.743 1709.05,222.803 1751.34,217.863 1794.7,212.923 
  1839.16,207.982 1884.74,203.042 1931.47,198.102 1979.37,193.161 2028.45,188.221 2078.76,183.281 2130.31,178.34 2183.12,173.4 2237.23,168.46 2292.65,163.519 
  
  "/>
<polyline clip-path="url(#clip8802)" style="stroke:#ac8d18; stroke-width:4; stroke-opacity:1; fill:none" points="
  289.238,687.192 289.238,687.192 289.238,687.192 289.238,687.192 289.238,687.192 289.238,687.192 289.238,687.192 289.238,687.192 289.238,687.192 289.238,687.192 
  289.238,687.192 289.238,687.192 289.238,687.192 289.238,687.192 289.238,687.192 289.238,687.192 289.238,687.192 289.238,687.192 289.238,687.192 289.238,687.192 
  289.238,687.192 289.238,687.192 289.238,687.192 289.238,687.192 289.238,687.192 289.238,687.192 289.238,687.192 289.238,687.192 289.238,687.192 289.238,687.192 
  289.239,687.192 289.239,687.192 289.239,687.192 289.239,687.192 289.24,687.192 289.24,687.192 289.241,687.192 289.241,687.192 289.242,687.192 289.243,687.192 
  289.244,687.192 289.245,687.192 289.247,687.192 289.248,687.192 289.25,687.192 289.252,687.192 289.254,687.192 289.257,687.192 289.26,687.192 289.263,687.192 
  289.267,687.192 289.271,687.192 289.276,687.192 289.282,687.192 289.288,687.192 289.294,687.192 289.302,687.192 289.31,687.192 289.319,687.192 289.33,687.192 
  289.341,687.192 289.353,687.192 289.367,687.192 289.382,687.192 289.399,687.192 289.417,687.192 289.437,687.192 289.458,687.192 289.482,687.192 289.508,687.192 
  289.536,687.192 289.567,687.192 289.6,687.192 289.637,687.192 289.676,687.192 289.718,687.192 289.765,687.192 289.814,687.192 289.868,687.192 289.926,687.192 
  289.989,687.192 290.056,687.192 290.128,687.192 290.206,687.192 290.29,687.192 290.38,687.192 290.476,687.192 290.579,687.192 290.69,687.192 290.808,687.192 
  290.934,687.192 291.069,687.192 291.213,687.192 291.366,687.192 291.53,682.251 291.704,682.251 291.89,682.251 292.087,682.251 292.297,682.251 292.52,682.251 
  292.757,682.251 293.008,677.311 293.275,677.311 293.557,677.311 293.856,677.311 294.173,677.311 294.509,677.311 294.863,677.311 295.238,677.311 295.634,677.311 
  296.053,672.371 296.494,672.371 296.96,672.371 297.451,672.371 297.969,667.43 298.514,667.43 299.089,667.43 299.694,667.43 300.33,667.43 300.999,667.43 
  301.703,667.43 302.442,662.49 303.218,662.49 304.034,657.55 304.889,657.55 305.787,657.55 306.729,652.609 307.716,652.609 308.75,652.609 309.834,647.669 
  310.969,647.669 312.157,642.729 313.401,642.729 314.702,637.789 316.062,637.789 317.484,637.789 318.97,632.848 320.523,632.848 322.145,627.908 323.839,627.908 
  325.606,622.968 327.451,622.968 329.375,618.027 331.381,613.087 333.473,613.087 335.653,608.147 337.925,608.147 340.291,603.206 342.755,603.206 345.321,598.266 
  347.991,593.326 350.769,593.326 353.659,588.386 356.665,583.445 359.79,583.445 363.039,578.505 366.415,573.565 369.922,573.565 373.566,568.624 377.349,563.684 
  381.277,563.684 385.354,558.744 389.585,553.803 393.974,548.863 398.527,548.863 403.249,543.923 408.144,538.982 413.219,534.042 418.478,534.042 423.927,529.102 
  429.572,524.162 435.418,519.221 441.472,514.281 447.74,514.281 454.228,509.341 460.941,504.4 467.888,499.46 475.074,494.52 482.507,489.579 490.193,489.579 
  498.139,484.639 506.353,479.699 514.843,474.759 523.615,469.818 532.678,464.878 542.04,459.938 551.709,454.997 561.693,454.997 572.001,450.057 582.642,445.117 
  593.624,440.176 604.956,435.236 616.648,430.296 628.709,425.356 641.149,420.415 653.978,415.475 667.205,410.535 680.842,405.594 694.898,405.594 709.384,400.654 
  724.312,395.714 739.692,390.773 755.535,385.833 771.854,380.893 788.66,375.953 805.965,371.012 823.782,366.072 842.122,361.132 860.999,356.191 880.426,351.251 
  900.416,346.311 920.983,341.37 942.14,336.43 963.902,331.49 986.282,326.549 1009.3,326.549 1032.96,321.609 1057.28,316.669 1082.29,311.729 1107.98,306.788 
  1134.39,301.848 1161.53,296.908 1189.41,291.967 1218.05,287.027 1247.47,282.087 1277.68,277.146 1308.7,272.206 1340.56,267.266 1373.26,262.326 1406.84,257.385 
  1441.3,252.445 1476.66,247.505 1512.96,242.564 1550.2,237.624 1588.41,232.684 1627.6,227.743 1667.81,222.803 1709.05,217.863 1751.34,212.923 1794.7,207.982 
  1839.16,203.042 1884.74,198.102 1931.47,193.161 1979.37,188.221 2028.45,183.281 2078.76,178.34 2130.31,173.4 2183.12,168.46 2237.23,168.46 2292.65,163.519 
  
  "/>
<polyline clip-path="url(#clip8802)" style="stroke:#00a9ad; stroke-width:4; stroke-opacity:1; fill:none" points="
  289.238,583.445 289.238,583.445 289.238,583.445 289.238,583.445 289.238,583.445 289.238,583.445 289.238,583.445 289.238,583.445 289.238,583.445 289.238,583.445 
  289.238,583.445 289.238,583.445 289.238,583.445 289.238,583.445 289.238,583.445 289.238,583.445 289.238,583.445 289.238,583.445 289.238,583.445 289.238,583.445 
  289.238,583.445 289.238,583.445 289.238,583.445 289.238,583.445 289.238,583.445 289.238,583.445 289.238,583.445 289.238,583.445 289.238,583.445 289.238,583.445 
  289.239,583.445 289.239,583.445 289.239,583.445 289.239,583.445 289.24,583.445 289.24,583.445 289.241,583.445 289.241,583.445 289.242,583.445 289.243,583.445 
  289.244,583.445 289.245,583.445 289.247,583.445 289.248,583.445 289.25,583.445 289.252,583.445 289.254,583.445 289.257,583.445 289.26,583.445 289.263,583.445 
  289.267,583.445 289.271,583.445 289.276,583.445 289.282,583.445 289.288,583.445 289.294,583.445 289.302,583.445 289.31,583.445 289.319,583.445 289.33,583.445 
  289.341,583.445 289.353,583.445 289.367,583.445 289.382,583.445 289.399,583.445 289.417,583.445 289.437,583.445 289.458,583.445 289.482,583.445 289.508,583.445 
  289.536,583.445 289.567,583.445 289.6,583.445 289.637,583.445 289.676,583.445 289.718,583.445 289.765,583.445 289.814,583.445 289.868,583.445 289.926,583.445 
  289.989,583.445 290.056,583.445 290.128,583.445 290.206,583.445 290.29,578.505 290.38,578.505 290.476,578.505 290.579,578.505 290.69,578.505 290.808,578.505 
  290.934,578.505 291.069,578.505 291.213,578.505 291.366,578.505 291.53,578.505 291.704,578.505 291.89,578.505 292.087,578.505 292.297,578.505 292.52,578.505 
  292.757,578.505 293.008,578.505 293.275,578.505 293.557,573.565 293.856,573.565 294.173,573.565 294.509,573.565 294.863,573.565 295.238,573.565 295.634,573.565 
  296.053,573.565 296.494,573.565 296.96,573.565 297.451,573.565 297.969,573.565 298.514,573.565 299.089,573.565 299.694,573.565 300.33,573.565 300.999,568.624 
  301.703,568.624 302.442,568.624 303.218,568.624 304.034,568.624 304.889,568.624 305.787,563.684 306.729,563.684 307.716,563.684 308.75,563.684 309.834,563.684 
  310.969,563.684 312.157,558.744 313.401,558.744 314.702,558.744 316.062,553.803 317.484,553.803 318.97,553.803 320.523,553.803 322.145,548.863 323.839,548.863 
  325.606,548.863 327.451,548.863 329.375,543.923 331.381,543.923 333.473,538.982 335.653,538.982 337.925,538.982 340.291,538.982 342.755,534.042 345.321,534.042 
  347.991,529.102 350.769,529.102 353.659,524.162 356.665,524.162 359.79,524.162 363.039,519.221 366.415,519.221 369.922,514.281 373.566,514.281 377.349,509.341 
  381.277,509.341 385.354,509.341 389.585,504.4 393.974,499.46 398.527,499.46 403.249,494.52 408.144,494.52 413.219,489.579 418.478,484.639 423.927,484.639 
  429.572,479.699 435.418,479.699 441.472,474.759 447.74,474.759 454.228,469.818 460.941,464.878 467.888,459.938 475.074,459.938 482.507,454.997 490.193,450.057 
  498.139,450.057 506.353,445.117 514.843,440.176 523.615,440.176 532.678,435.236 542.04,430.296 551.709,425.356 561.693,425.356 572.001,420.415 582.642,415.475 
  593.624,410.535 604.956,410.535 616.648,405.594 628.709,400.654 641.149,395.714 653.978,390.773 667.205,390.773 680.842,385.833 694.898,380.893 709.384,375.953 
  724.312,371.012 739.692,371.012 755.535,366.072 771.854,361.132 788.66,356.191 805.965,351.251 823.782,346.311 842.122,346.311 860.999,341.37 880.426,336.43 
  900.416,331.49 920.983,326.549 942.14,321.609 963.902,316.669 986.282,311.729 1009.3,311.729 1032.96,306.788 1057.28,301.848 1082.29,296.908 1107.98,291.967 
  1134.39,287.027 1161.53,282.087 1189.41,277.146 1218.05,272.206 1247.47,272.206 1277.68,267.266 1308.7,262.326 1340.56,257.385 1373.26,252.445 1406.84,247.505 
  1441.3,242.564 1476.66,237.624 1512.96,232.684 1550.2,227.743 1588.41,222.803 1627.6,217.863 1667.81,212.923 1709.05,212.923 1751.34,207.982 1794.7,203.042 
  1839.16,198.102 1884.74,193.161 1931.47,188.221 1979.37,183.281 2028.45,178.34 2078.76,173.4 2130.31,168.46 2183.12,163.519 2237.23,158.579 2292.65,158.579 
  
  "/>
<polyline clip-path="url(#clip8802)" style="stroke:#ed5d92; stroke-width:4; stroke-opacity:1; fill:none" points="
  289.238,489.579 289.238,489.579 289.238,489.579 289.238,489.579 289.238,489.579 289.238,489.579 289.238,489.579 289.238,489.579 289.238,489.579 289.238,489.579 
  289.238,489.579 289.238,489.579 289.238,489.579 289.238,489.579 289.238,489.579 289.238,489.579 289.238,489.579 289.238,489.579 289.238,489.579 289.238,489.579 
  289.238,489.579 289.238,489.579 289.238,489.579 289.238,489.579 289.238,489.579 289.238,489.579 289.238,489.579 289.238,489.579 289.238,489.579 289.238,489.579 
  289.239,489.579 289.239,489.579 289.239,489.579 289.239,489.579 289.24,489.579 289.24,489.579 289.241,489.579 289.241,489.579 289.242,489.579 289.243,489.579 
  289.244,489.579 289.245,489.579 289.247,489.579 289.248,489.579 289.25,489.579 289.252,489.579 289.254,489.579 289.257,489.579 289.26,489.579 289.263,489.579 
  289.267,489.579 289.271,489.579 289.276,489.579 289.282,489.579 289.288,489.579 289.294,489.579 289.302,489.579 289.31,489.579 289.319,489.579 289.33,489.579 
  289.341,489.579 289.353,489.579 289.367,489.579 289.382,489.579 289.399,489.579 289.417,489.579 289.437,489.579 289.458,489.579 289.482,489.579 289.508,489.579 
  289.536,489.579 289.567,489.579 289.6,489.579 289.637,489.579 289.676,489.579 289.718,489.579 289.765,489.579 289.814,489.579 289.868,489.579 289.926,489.579 
  289.989,489.579 290.056,489.579 290.128,489.579 290.206,489.579 290.29,489.579 290.38,489.579 290.476,489.579 290.579,489.579 290.69,489.579 290.808,489.579 
  290.934,489.579 291.069,489.579 291.213,489.579 291.366,489.579 291.53,484.639 291.704,484.639 291.89,484.639 292.087,484.639 292.297,484.639 292.52,484.639 
  292.757,484.639 293.008,484.639 293.275,484.639 293.557,484.639 293.856,484.639 294.173,484.639 294.509,484.639 294.863,484.639 295.238,484.639 295.634,484.639 
  296.053,484.639 296.494,484.639 296.96,484.639 297.451,484.639 297.969,479.699 298.514,479.699 299.089,479.699 299.694,479.699 300.33,479.699 300.999,479.699 
  301.703,479.699 302.442,479.699 303.218,479.699 304.034,479.699 304.889,479.699 305.787,479.699 306.729,479.699 307.716,479.699 308.75,479.699 309.834,479.699 
  310.969,474.759 312.157,474.759 313.401,474.759 314.702,474.759 316.062,474.759 317.484,474.759 318.97,469.818 320.523,469.818 322.145,469.818 323.839,469.818 
  325.606,469.818 327.451,469.818 329.375,464.878 331.381,464.878 333.473,464.878 335.653,464.878 337.925,459.938 340.291,459.938 342.755,459.938 345.321,459.938 
  347.991,459.938 350.769,459.938 353.659,454.997 356.665,454.997 359.79,454.997 363.039,454.997 366.415,450.057 369.922,450.057 373.566,445.117 377.349,445.117 
  381.277,445.117 385.354,445.117 389.585,440.176 393.974,440.176 398.527,435.236 403.249,435.236 408.144,435.236 413.219,430.296 418.478,430.296 423.927,430.296 
  429.572,425.356 435.418,420.415 441.472,420.415 447.74,420.415 454.228,415.475 460.941,415.475 467.888,410.535 475.074,410.535 482.507,405.594 490.193,405.594 
  498.139,400.654 506.353,400.654 514.843,395.714 523.615,395.714 532.678,390.773 542.04,385.833 551.709,385.833 561.693,380.893 572.001,380.893 582.642,375.953 
  593.624,375.953 604.956,371.012 616.648,366.072 628.709,366.072 641.149,361.132 653.978,356.191 667.205,356.191 680.842,351.251 694.898,351.251 709.384,346.311 
  724.312,341.37 739.692,336.43 755.535,336.43 771.854,331.49 788.66,326.549 805.965,326.549 823.782,321.609 842.122,316.669 860.999,311.729 880.426,311.729 
  900.416,306.788 920.983,301.848 942.14,296.908 963.902,296.908 986.282,291.967 1009.3,287.027 1032.96,282.087 1057.28,282.087 1082.29,277.146 1107.98,272.206 
  1134.39,267.266 1161.53,262.326 1189.41,262.326 1218.05,257.385 1247.47,252.445 1277.68,247.505 1308.7,242.564 1340.56,242.564 1373.26,237.624 1406.84,232.684 
  1441.3,227.743 1476.66,222.803 1512.96,217.863 1550.2,212.923 1588.41,212.923 1627.6,207.982 1667.81,203.042 1709.05,198.102 1751.34,193.161 1794.7,188.221 
  1839.16,188.221 1884.74,183.281 1931.47,178.34 1979.37,173.4 2028.45,173.4 2078.76,168.46 2130.31,163.519 2183.12,158.579 2237.23,158.579 2292.65,158.579 
  
  "/>
<polygon clip-path="url(#clip8800)" points="
1989.93,689.035 2280.76,689.035 2280.76,205.195 1989.93,205.195 
  " fill="#ffffff" fill-rule="evenodd" fill-opacity="1"/>
<polyline clip-path="url(#clip8800)" style="stroke:#000000; stroke-width:4; stroke-opacity:1; fill:none" points="
  1989.93,689.035 2280.76,689.035 2280.76,205.195 1989.93,205.195 1989.93,689.035 
  "/>
<polyline clip-path="url(#clip8800)" style="stroke:#009af9; stroke-width:4; stroke-opacity:1; fill:none" points="
  2013.93,265.675 2157.93,265.675 
  "/>
<g clip-path="url(#clip8800)">
<text style="fill:#000000; fill-opacity:1; font-family:Arial,Helvetica Neue,Helvetica,sans-serif; font-size:48px; text-anchor:start;" transform="rotate(0, 2181.93, 283.175)" x="2181.93" y="283.175">y1</text>
</g>
<polyline clip-path="url(#clip8800)" style="stroke:#e26f46; stroke-width:4; stroke-opacity:1; fill:none" points="
  2013.93,326.155 2157.93,326.155 
  "/>
<g clip-path="url(#clip8800)">
<text style="fill:#000000; fill-opacity:1; font-family:Arial,Helvetica Neue,Helvetica,sans-serif; font-size:48px; text-anchor:start;" transform="rotate(0, 2181.93, 343.655)" x="2181.93" y="343.655">y2</text>
</g>
<polyline clip-path="url(#clip8800)" style="stroke:#3da44d; stroke-width:4; stroke-opacity:1; fill:none" points="
  2013.93,386.635 2157.93,386.635 
  "/>
<g clip-path="url(#clip8800)">
<text style="fill:#000000; fill-opacity:1; font-family:Arial,Helvetica Neue,Helvetica,sans-serif; font-size:48px; text-anchor:start;" transform="rotate(0, 2181.93, 404.135)" x="2181.93" y="404.135">y3</text>
</g>
<polyline clip-path="url(#clip8800)" style="stroke:#c271d2; stroke-width:4; stroke-opacity:1; fill:none" points="
  2013.93,447.115 2157.93,447.115 
  "/>
<g clip-path="url(#clip8800)">
<text style="fill:#000000; fill-opacity:1; font-family:Arial,Helvetica Neue,Helvetica,sans-serif; font-size:48px; text-anchor:start;" transform="rotate(0, 2181.93, 464.615)" x="2181.93" y="464.615">y4</text>
</g>
<polyline clip-path="url(#clip8800)" style="stroke:#ac8d18; stroke-width:4; stroke-opacity:1; fill:none" points="
  2013.93,507.595 2157.93,507.595 
  "/>
<g clip-path="url(#clip8800)">
<text style="fill:#000000; fill-opacity:1; font-family:Arial,Helvetica Neue,Helvetica,sans-serif; font-size:48px; text-anchor:start;" transform="rotate(0, 2181.93, 525.095)" x="2181.93" y="525.095">y5</text>
</g>
<polyline clip-path="url(#clip8800)" style="stroke:#00a9ad; stroke-width:4; stroke-opacity:1; fill:none" points="
  2013.93,568.075 2157.93,568.075 
  "/>
<g clip-path="url(#clip8800)">
<text style="fill:#000000; fill-opacity:1; font-family:Arial,Helvetica Neue,Helvetica,sans-serif; font-size:48px; text-anchor:start;" transform="rotate(0, 2181.93, 585.575)" x="2181.93" y="585.575">y6</text>
</g>
<polyline clip-path="url(#clip8800)" style="stroke:#ed5d92; stroke-width:4; stroke-opacity:1; fill:none" points="
  2013.93,628.555 2157.93,628.555 
  "/>
<g clip-path="url(#clip8800)">
<text style="fill:#000000; fill-opacity:1; font-family:Arial,Helvetica Neue,Helvetica,sans-serif; font-size:48px; text-anchor:start;" transform="rotate(0, 2181.93, 646.055)" x="2181.93" y="646.055">y7</text>
</g>
</svg>
