<?xml version="1.0" encoding="utf-8"?>
<svg xmlns="http://www.w3.org/2000/svg" xmlns:xlink="http://www.w3.org/1999/xlink" width="600" height="400" viewBox="0 0 2400 1600">
<defs>
  <clipPath id="clip0800">
    <rect x="0" y="0" width="2400" height="1600"/>
  </clipPath>
</defs>
<polygon clip-path="url(#clip0800)" points="
0,1600 2400,1600 2400,0 0,0 
  " fill="#ffffff" fill-rule="evenodd" fill-opacity="1"/>
<defs>
  <clipPath id="clip0801">
    <rect x="480" y="0" width="1681" height="1600"/>
  </clipPath>
</defs>
<polygon clip-path="url(#clip0800)" points="
153.898,1487.47 2352.76,1487.47 2352.76,47.2441 153.898,47.2441 
  " fill="#ffffff" fill-rule="evenodd" fill-opacity="1"/>
<defs>
  <clipPath id="clip0802">
    <rect x="153" y="47" width="2200" height="1441"/>
  </clipPath>
</defs>
<polyline clip-path="url(#clip0802)" style="stroke:#000000; stroke-width:2; stroke-opacity:0.1; fill:none" points="
  418.234,1487.47 418.234,47.2441 
  "/>
<polyline clip-path="url(#clip0802)" style="stroke:#000000; stroke-width:2; stroke-opacity:0.1; fill:none" points="
  747.157,1487.47 747.157,47.2441 
  "/>
<polyline clip-path="url(#clip0802)" style="stroke:#000000; stroke-width:2; stroke-opacity:0.1; fill:none" points="
  1076.08,1487.47 1076.08,47.2441 
  "/>
<polyline clip-path="url(#clip0802)" style="stroke:#000000; stroke-width:2; stroke-opacity:0.1; fill:none" points="
  1405,1487.47 1405,47.2441 
  "/>
<polyline clip-path="url(#clip0802)" style="stroke:#000000; stroke-width:2; stroke-opacity:0.1; fill:none" points="
  1733.92,1487.47 1733.92,47.2441 
  "/>
<polyline clip-path="url(#clip0802)" style="stroke:#000000; stroke-width:2; stroke-opacity:0.1; fill:none" points="
  2062.85,1487.47 2062.85,47.2441 
  "/>
<polyline clip-path="url(#clip0802)" style="stroke:#000000; stroke-width:2; stroke-opacity:0.1; fill:none" points="
  153.898,1446.71 2352.76,1446.71 
  "/>
<polyline clip-path="url(#clip0802)" style="stroke:#000000; stroke-width:2; stroke-opacity:0.1; fill:none" points="
  153.898,1215.25 2352.76,1215.25 
  "/>
<polyline clip-path="url(#clip0802)" style="stroke:#000000; stroke-width:2; stroke-opacity:0.1; fill:none" points="
  153.898,983.782 2352.76,983.782 
  "/>
<polyline clip-path="url(#clip0802)" style="stroke:#000000; stroke-width:2; stroke-opacity:0.1; fill:none" points="
  153.898,752.316 2352.76,752.316 
  "/>
<polyline clip-path="url(#clip0802)" style="stroke:#000000; stroke-width:2; stroke-opacity:0.1; fill:none" points="
  153.898,520.85 2352.76,520.85 
  "/>
<polyline clip-path="url(#clip0802)" style="stroke:#000000; stroke-width:2; stroke-opacity:0.1; fill:none" points="
  153.898,289.384 2352.76,289.384 
  "/>
<polyline clip-path="url(#clip0802)" style="stroke:#000000; stroke-width:2; stroke-opacity:0.1; fill:none" points="
  153.898,57.9182 2352.76,57.9182 
  "/>
<polyline clip-path="url(#clip0800)" style="stroke:#000000; stroke-width:4; stroke-opacity:1; fill:none" points="
  153.898,1487.47 2352.76,1487.47 
  "/>
<polyline clip-path="url(#clip0800)" style="stroke:#000000; stroke-width:4; stroke-opacity:1; fill:none" points="
  153.898,1487.47 153.898,47.2441 
  "/>
<polyline clip-path="url(#clip0800)" style="stroke:#000000; stroke-width:4; stroke-opacity:1; fill:none" points="
  418.234,1487.47 418.234,1465.87 
  "/>
<polyline clip-path="url(#clip0800)" style="stroke:#000000; stroke-width:4; stroke-opacity:1; fill:none" points="
  747.157,1487.47 747.157,1465.87 
  "/>
<polyline clip-path="url(#clip0800)" style="stroke:#000000; stroke-width:4; stroke-opacity:1; fill:none" points="
  1076.08,1487.47 1076.08,1465.87 
  "/>
<polyline clip-path="url(#clip0800)" style="stroke:#000000; stroke-width:4; stroke-opacity:1; fill:none" points="
  1405,1487.47 1405,1465.87 
  "/>
<polyline clip-path="url(#clip0800)" style="stroke:#000000; stroke-width:4; stroke-opacity:1; fill:none" points="
  1733.92,1487.47 1733.92,1465.87 
  "/>
<polyline clip-path="url(#clip0800)" style="stroke:#000000; stroke-width:4; stroke-opacity:1; fill:none" points="
  2062.85,1487.47 2062.85,1465.87 
  "/>
<polyline clip-path="url(#clip0800)" style="stroke:#000000; stroke-width:4; stroke-opacity:1; fill:none" points="
  153.898,1446.71 186.881,1446.71 
  "/>
<polyline clip-path="url(#clip0800)" style="stroke:#000000; stroke-width:4; stroke-opacity:1; fill:none" points="
  153.898,1215.25 186.881,1215.25 
  "/>
<polyline clip-path="url(#clip0800)" style="stroke:#000000; stroke-width:4; stroke-opacity:1; fill:none" points="
  153.898,983.782 186.881,983.782 
  "/>
<polyline clip-path="url(#clip0800)" style="stroke:#000000; stroke-width:4; stroke-opacity:1; fill:none" points="
  153.898,752.316 186.881,752.316 
  "/>
<polyline clip-path="url(#clip0800)" style="stroke:#000000; stroke-width:4; stroke-opacity:1; fill:none" points="
  153.898,520.85 186.881,520.85 
  "/>
<polyline clip-path="url(#clip0800)" style="stroke:#000000; stroke-width:4; stroke-opacity:1; fill:none" points="
  153.898,289.384 186.881,289.384 
  "/>
<polyline clip-path="url(#clip0800)" style="stroke:#000000; stroke-width:4; stroke-opacity:1; fill:none" points="
  153.898,57.9182 186.881,57.9182 
  "/>
<g clip-path="url(#clip0800)">
<text style="fill:#000000; fill-opacity:1; font-family:Arial,Helvetica Neue,Helvetica,sans-serif; font-size:48px; text-anchor:middle;" transform="rotate(0, 418.234, 1541.47)" x="418.234" y="1541.47">0</text>
</g>
<g clip-path="url(#clip0800)">
<text style="fill:#000000; fill-opacity:1; font-family:Arial,Helvetica Neue,Helvetica,sans-serif; font-size:48px; text-anchor:middle;" transform="rotate(0, 747.157, 1541.47)" x="747.157" y="1541.47">5</text>
</g>
<g clip-path="url(#clip0800)">
<text style="fill:#000000; fill-opacity:1; font-family:Arial,Helvetica Neue,Helvetica,sans-serif; font-size:48px; text-anchor:middle;" transform="rotate(0, 1076.08, 1541.47)" x="1076.08" y="1541.47">10</text>
</g>
<g clip-path="url(#clip0800)">
<text style="fill:#000000; fill-opacity:1; font-family:Arial,Helvetica Neue,Helvetica,sans-serif; font-size:48px; text-anchor:middle;" transform="rotate(0, 1405, 1541.47)" x="1405" y="1541.47">15</text>
</g>
<g clip-path="url(#clip0800)">
<text style="fill:#000000; fill-opacity:1; font-family:Arial,Helvetica Neue,Helvetica,sans-serif; font-size:48px; text-anchor:middle;" transform="rotate(0, 1733.92, 1541.47)" x="1733.92" y="1541.47">20</text>
</g>
<g clip-path="url(#clip0800)">
<text style="fill:#000000; fill-opacity:1; font-family:Arial,Helvetica Neue,Helvetica,sans-serif; font-size:48px; text-anchor:middle;" transform="rotate(0, 2062.85, 1541.47)" x="2062.85" y="1541.47">25</text>
</g>
<g clip-path="url(#clip0800)">
<text style="fill:#000000; fill-opacity:1; font-family:Arial,Helvetica Neue,Helvetica,sans-serif; font-size:48px; text-anchor:end;" transform="rotate(0, 129.898, 1464.21)" x="129.898" y="1464.21">0.0</text>
</g>
<g clip-path="url(#clip0800)">
<text style="fill:#000000; fill-opacity:1; font-family:Arial,Helvetica Neue,Helvetica,sans-serif; font-size:48px; text-anchor:end;" transform="rotate(0, 129.898, 1232.75)" x="129.898" y="1232.75">0.1</text>
</g>
<g clip-path="url(#clip0800)">
<text style="fill:#000000; fill-opacity:1; font-family:Arial,Helvetica Neue,Helvetica,sans-serif; font-size:48px; text-anchor:end;" transform="rotate(0, 129.898, 1001.28)" x="129.898" y="1001.28">0.2</text>
</g>
<g clip-path="url(#clip0800)">
<text style="fill:#000000; fill-opacity:1; font-family:Arial,Helvetica Neue,Helvetica,sans-serif; font-size:48px; text-anchor:end;" transform="rotate(0, 129.898, 769.816)" x="129.898" y="769.816">0.3</text>
</g>
<g clip-path="url(#clip0800)">
<text style="fill:#000000; fill-opacity:1; font-family:Arial,Helvetica Neue,Helvetica,sans-serif; font-size:48px; text-anchor:end;" transform="rotate(0, 129.898, 538.35)" x="129.898" y="538.35">0.4</text>
</g>
<g clip-path="url(#clip0800)">
<text style="fill:#000000; fill-opacity:1; font-family:Arial,Helvetica Neue,Helvetica,sans-serif; font-size:48px; text-anchor:end;" transform="rotate(0, 129.898, 306.884)" x="129.898" y="306.884">0.5</text>
</g>
<g clip-path="url(#clip0800)">
<text style="fill:#000000; fill-opacity:1; font-family:Arial,Helvetica Neue,Helvetica,sans-serif; font-size:48px; text-anchor:end;" transform="rotate(0, 129.898, 75.4182)" x="129.898" y="75.4182">0.6</text>
</g>
<polyline clip-path="url(#clip0802)" style="stroke:#009af9; stroke-width:8; stroke-opacity:1; fill:none" points="
  333.187,1446.71 335.602,1446.71 338.017,1446.71 340.433,1446.71 342.848,1446.71 345.263,1446.71 347.679,1442.34 350.094,1429.52 352.509,1408.59 354.924,1380.2 
  357.34,1345.24 359.755,1304.52 362.17,1258.76 364.586,1208.63 367.001,1154.89 369.416,1098.29 371.831,1039.6 374.247,979.228 376.662,917.535 379.077,854.942 
  381.492,791.86 383.908,728.902 386.323,666.642 388.738,605.554 391.154,546.159 393.569,488.868 395.984,434.072 398.399,382.27 400.815,333.921 403.23,289.298 
  405.645,248.585 408.061,212.007 410.476,179.837 412.891,152.375 415.306,129.809 417.722,112.079 420.137,99.1172 422.552,91.0426 424.968,88.0053 427.383,90.1086 
  429.798,97.3392 432.213,109.647 434.629,127.01 437.044,149.361 439.459,176.584 441.874,208.519 444.29,244.957 446.705,285.643 449.12,330.276 451.536,378.507 
  453.951,429.941 456.366,484.137 458.781,540.606 461.197,598.813 463.612,658.177 466.027,718.068 468.443,777.812 470.858,836.686 473.273,893.923 475.688,948.706 
  478.104,1000.03 480.519,1046.87 482.934,1088.3 485.35,1123.33 487.765,1150.96 490.18,1170.09 492.595,1184.31 495.011,1197.81 497.426,1210.8 499.841,1223.45 
  502.256,1235.61 504.672,1247.22 507.087,1258.13 509.502,1268.21 511.918,1277.41 514.333,1285.61 516.748,1292.64 519.163,1298.51 521.579,1303.33 523.994,1307.31 
  526.409,1310.68 528.825,1313.45 531.24,1315.63 533.655,1317.3 536.07,1318.49 538.486,1319.26 540.901,1319.64 543.316,1319.51 545.731,1318.81 548.147,1317.64 
  550.562,1316.17 552.977,1314.5 555.393,1312.6 557.808,1310.38 560.223,1307.87 562.638,1305.35 565.054,1303.11 567.469,1301.24 569.884,1299.77 572.3,1298.68 
  574.715,1298.07 577.13,1298.01 579.545,1298.43 581.961,1299.28 584.376,1300.56 586.791,1302.28 589.207,1304.36 591.622,1306.73 594.037,1309.39 596.452,1312.33 
  598.868,1315.55 601.283,1319.01 603.698,1322.69 606.113,1326.56 608.529,1330.58 610.944,1334.71 613.359,1338.89 615.775,1342.99 618.19,1346.9 620.605,1350.54 
  623.02,1354.01 625.436,1357.41 627.851,1360.63 630.266,1363.54 632.682,1366.1 635.097,1368.27 637.512,1369.98 639.927,1371.4 642.343,1372.72 644.758,1373.9 
  647.173,1374.91 649.589,1375.71 652.004,1376.41 654.419,1377.12 656.834,1377.83 659.25,1378.5 661.665,1379.1 664.08,1379.76 666.495,1380.59 668.911,1381.59 
  671.326,1382.75 673.741,1384.04 676.157,1385.44 678.572,1386.93 680.987,1388.48 683.402,1390.06 685.818,1391.71 688.233,1393.49 690.648,1395.36 693.064,1397.17 
  695.479,1398.75 697.894,1400.12 700.309,1401.33 702.725,1402.46 705.14,1403.52 707.555,1404.5 709.97,1405.4 712.386,1406.22 714.801,1406.93 717.216,1407.54 
  719.632,1408.02 722.047,1408.36 724.462,1408.6 726.877,1408.82 729.293,1409 731.708,1409.12 734.123,1409.24 736.539,1409.44 738.954,1409.7 741.369,1410.01 
  743.784,1410.22 746.2,1410.21 748.615,1409.98 751.03,1409.54 753.446,1408.91 755.861,1408.08 758.276,1407.06 760.691,1405.92 763.107,1404.74 765.522,1403.54 
  767.937,1402.32 770.352,1401.08 772.768,1399.9 775.183,1398.86 777.598,1397.98 780.014,1397.27 782.429,1396.72 784.844,1396.35 787.259,1396.17 789.675,1396.17 
  792.09,1396.35 794.505,1396.72 796.921,1397.27 799.336,1397.98 801.751,1398.79 804.166,1399.63 806.582,1400.49 808.997,1401.38 811.412,1402.28 813.828,1403.21 
  816.243,1404.15 818.658,1405.08 821.073,1406.01 823.489,1406.9 825.904,1407.75 828.319,1408.54 830.734,1409.24 833.15,1409.83 835.565,1410.29 837.98,1410.72 
  840.396,1411.28 842.811,1411.96 845.226,1412.75 847.641,1413.65 850.057,1414.65 852.472,1415.74 854.887,1416.9 857.303,1418.13 859.718,1419.42 862.133,1420.74 
  864.548,1422.08 866.964,1423.43 869.379,1424.75 871.794,1426.04 874.209,1427.27 876.625,1428.41 879.04,1429.44 881.455,1430.33 883.871,1430.98 886.286,1431.31 
  888.701,1431.44 891.116,1431.53 893.532,1431.59 895.947,1431.61 898.362,1431.62 900.778,1431.62 903.193,1431.61 905.608,1431.6 908.023,1431.59 910.439,1431.58 
  912.854,1431.58 915.269,1431.58 917.685,1431.59 920.1,1431.6 922.515,1431.61 924.93,1431.62 927.346,1431.62 929.761,1431.61 932.176,1431.59 934.591,1431.53 
  937.007,1431.44 939.422,1431.31 941.837,1431.12 944.253,1430.87 946.668,1430.62 949.083,1430.44 951.498,1430.33 953.914,1430.3 956.329,1430.33 958.744,1430.44 
  961.16,1430.62 963.575,1430.87 965.99,1431.2 968.405,1431.58 970.821,1432.03 973.236,1432.55 975.651,1433.12 978.067,1433.74 980.482,1434.41 982.897,1435.13 
  985.312,1435.88 987.728,1436.67 990.143,1437.48 992.558,1438.31 994.973,1439.15 997.389,1439.99 999.804,1440.82 1002.22,1441.65 1004.63,1442.44 1007.05,1443.21 
  1009.47,1443.92 1011.88,1444.59 1014.3,1445.18 1016.71,1445.7 1019.13,1446.12 1021.54,1446.44 1023.96,1446.64 1026.37,1446.71 1028.79,1446.71 1031.2,1446.71 
  1033.62,1446.71 1036.03,1446.71 1038.45,1446.71 1040.86,1446.71 1043.28,1446.71 1045.69,1446.71 1048.11,1446.71 1050.52,1446.71 1052.94,1446.71 1055.36,1446.71 
  1057.77,1446.71 1060.19,1446.71 1062.6,1446.71 1065.02,1446.71 1067.43,1446.71 1069.85,1446.71 1072.26,1446.71 1074.68,1446.71 1077.09,1446.71 1079.51,1446.71 
  1081.92,1446.71 1084.34,1446.71 1086.75,1446.71 1089.17,1446.71 1091.58,1446.71 1094,1446.71 1096.42,1446.71 1098.83,1446.71 1101.25,1446.71 1103.66,1446.71 
  1106.08,1446.71 1108.49,1446.71 1110.91,1446.71 1113.32,1446.71 1115.74,1446.71 1118.15,1446.71 1120.57,1446.71 1122.98,1446.71 1125.4,1446.71 1127.81,1446.71 
  1130.23,1446.71 1132.64,1446.71 1135.06,1446.64 1137.47,1446.44 1139.89,1446.12 1142.31,1445.7 1144.72,1445.18 1147.14,1444.59 1149.55,1443.92 1151.97,1443.21 
  1154.38,1442.44 1156.8,1441.65 1159.21,1440.82 1161.63,1439.99 1164.04,1439.15 1166.46,1438.31 1168.87,1437.48 1171.29,1436.67 1173.7,1435.88 1176.12,1435.13 
  1178.53,1434.41 1180.95,1433.74 1183.37,1433.12 1185.78,1432.55 1188.2,1432.03 1190.61,1431.58 1193.03,1431.2 1195.44,1430.87 1197.86,1430.62 1200.27,1430.44 
  1202.69,1430.33 1205.1,1430.3 1207.52,1430.33 1209.93,1430.44 1212.35,1430.62 1214.76,1430.87 1217.18,1431.2 1219.59,1431.58 1222.01,1432.03 1224.43,1432.55 
  1226.84,1433.12 1229.26,1433.74 1231.67,1434.41 1234.09,1435.13 1236.5,1435.88 1238.92,1436.6 1241.33,1437.21 1243.75,1437.71 1246.16,1438.13 1248.58,1438.46 
  1250.99,1438.7 1253.41,1438.86 1255.82,1438.94 1258.24,1438.94 1260.65,1438.86 1263.07,1438.7 1265.48,1438.46 1267.9,1438.13 1270.32,1437.71 1272.73,1437.21 
  1275.15,1436.6 1277.56,1435.88 1279.98,1435.13 1282.39,1434.41 1284.81,1433.74 1287.22,1433.12 1289.64,1432.55 1292.05,1432.03 1294.47,1431.58 1296.88,1431.2 
  1299.3,1430.87 1301.71,1430.62 1304.13,1430.44 1306.54,1430.33 1308.96,1430.3 1311.38,1430.33 1313.79,1430.44 1316.21,1430.62 1318.62,1430.87 1321.04,1431.2 
  1323.45,1431.58 1325.87,1432.03 1328.28,1432.55 1330.7,1433.12 1333.11,1433.74 1335.53,1434.41 1337.94,1435.13 1340.36,1435.88 1342.77,1436.67 1345.19,1437.48 
  1347.6,1438.31 1350.02,1439.15 1352.43,1439.99 1354.85,1440.82 1357.27,1441.65 1359.68,1442.44 1362.1,1443.21 1364.51,1443.92 1366.93,1444.59 1369.34,1445.18 
  1371.76,1445.7 1374.17,1446.12 1376.59,1446.44 1379,1446.64 1381.42,1446.71 1383.83,1446.64 1386.25,1446.44 1388.66,1446.12 1391.08,1445.7 1393.49,1445.18 
  1395.91,1444.59 1398.33,1443.92 1400.74,1443.21 1403.16,1442.44 1405.57,1441.65 1407.99,1440.82 1410.4,1439.99 1412.82,1439.15 1415.23,1438.31 1417.65,1437.48 
  1420.06,1436.67 1422.48,1435.88 1424.89,1435.13 1427.31,1434.41 1429.72,1433.74 1432.14,1433.12 1434.55,1432.55 1436.97,1432.03 1439.38,1431.58 1441.8,1431.2 
  1444.22,1430.87 1446.63,1430.62 1449.05,1430.44 1451.46,1430.33 1453.88,1430.3 1456.29,1430.33 1458.71,1430.44 1461.12,1430.62 1463.54,1430.87 1465.95,1431.2 
  1468.37,1431.58 1470.78,1432.03 1473.2,1432.55 1475.61,1433.12 1478.03,1433.74 1480.44,1434.41 1482.86,1435.13 1485.28,1435.88 1487.69,1436.67 1490.11,1437.48 
  1492.52,1438.31 1494.94,1439.15 1497.35,1439.99 1499.77,1440.82 1502.18,1441.65 1504.6,1442.44 1507.01,1443.21 1509.43,1443.92 1511.84,1444.59 1514.26,1445.18 
  1516.67,1445.7 1519.09,1446.12 1521.5,1446.44 1523.92,1446.64 1526.33,1446.71 1528.75,1446.71 1531.17,1446.71 1533.58,1446.71 1536,1446.71 1538.41,1446.71 
  
  "/>
<polyline clip-path="url(#clip0802)" style="stroke:#e26f46; stroke-width:8; stroke-opacity:1; fill:none" points="
  270.452,1446.71 274.16,1446.71 277.868,1446.71 281.576,1446.71 285.284,1446.71 288.992,1446.71 292.7,1446.71 296.408,1446.71 300.116,1446.71 303.824,1446.71 
  307.532,1446.71 311.239,1445.44 314.947,1441.61 318.655,1435.13 322.363,1426.05 326.071,1414.46 329.779,1400.51 333.487,1384.33 337.195,1366.05 340.903,1345.84 
  344.611,1323.9 348.319,1300.45 352.027,1275.7 355.735,1249.84 359.443,1223.1 363.151,1195.66 366.859,1167.77 370.566,1139.65 374.274,1111.52 377.982,1083.6 
  381.69,1056.1 385.398,1029.23 389.106,1003.18 392.814,978.137 396.522,954.298 400.23,931.832 403.938,910.894 407.646,891.614 411.354,874.093 415.062,858.431 
  418.77,844.763 422.478,833.193 426.185,823.752 429.893,816.468 433.601,811.412 437.309,808.629 441.017,808.086 444.725,809.731 448.433,813.559 452.141,819.547 
  455.849,827.642 459.557,837.814 463.265,849.979 466.973,864.035 470.681,879.858 474.389,897.26 478.097,916.079 481.805,936.179 485.512,957.395 489.22,979.476 
  492.928,1002.16 496.636,1025.16 500.344,1048.2 504.052,1070.97 507.76,1093.18 511.468,1114.47 515.176,1134.47 518.884,1152.77 522.592,1168.95 526.3,1182.58 
  530.008,1193.23 533.716,1201.75 537.424,1209.37 541.132,1216.25 544.839,1222.48 548.547,1228.16 552.255,1233.31 555.963,1238.01 559.671,1242.32 563.379,1246.29 
  567.087,1249.98 570.795,1253.4 574.503,1256.54 578.211,1259.45 581.919,1262.19 585.627,1264.83 589.335,1267.38 593.043,1269.85 596.751,1272.28 600.459,1274.67 
  604.166,1277.03 607.874,1279.4 611.582,1281.76 615.29,1284.11 618.998,1286.46 622.706,1288.77 626.414,1291.02 630.122,1293.22 633.83,1295.39 637.538,1297.53 
  641.246,1299.64 644.954,1301.67 648.662,1303.64 652.37,1305.62 656.078,1307.56 659.785,1309.43 663.493,1311.3 667.201,1313.19 670.909,1315.09 674.617,1317.01 
  678.325,1318.98 682.033,1320.96 685.741,1322.93 689.449,1324.93 693.157,1326.9 696.865,1328.87 700.573,1330.87 704.281,1332.87 707.989,1334.79 711.697,1336.63 
  715.405,1338.44 719.112,1340.22 722.82,1341.97 726.528,1343.7 730.236,1345.4 733.944,1347.04 737.652,1348.64 741.36,1350.21 745.068,1351.78 748.776,1353.32 
  752.484,1354.8 756.192,1356.27 759.9,1357.75 763.608,1359.27 767.316,1360.84 771.024,1362.42 774.732,1364.03 778.439,1365.63 782.147,1367.19 785.855,1368.74 
  789.563,1370.25 793.271,1371.76 796.979,1373.27 800.687,1374.76 804.395,1376.24 808.103,1377.7 811.811,1379.14 815.519,1380.57 819.227,1381.97 822.935,1383.36 
  826.643,1384.74 830.351,1386.08 834.059,1387.33 837.766,1388.53 841.474,1389.65 845.182,1390.66 848.89,1391.55 852.598,1392.31 856.306,1392.96 860.014,1393.55 
  863.722,1394.03 867.43,1394.37 871.138,1394.64 874.846,1394.82 878.554,1394.93 882.262,1394.99 885.97,1394.95 889.678,1394.86 893.385,1394.78 897.093,1394.69 
  900.801,1394.57 904.509,1394.39 908.217,1394.18 911.925,1393.94 915.633,1393.7 919.341,1393.51 923.049,1393.33 926.757,1393.14 930.465,1392.96 934.173,1392.83 
  937.881,1392.76 941.589,1392.72 945.297,1392.71 949.005,1392.74 952.712,1392.79 956.42,1392.88 960.128,1393.03 963.836,1393.18 967.544,1393.34 971.252,1393.54 
  974.96,1393.81 978.668,1394.15 982.376,1394.51 986.084,1394.89 989.792,1395.28 993.5,1395.7 997.208,1396.12 1000.92,1396.58 1004.62,1397.1 1008.33,1397.68 
  1012.04,1398.3 1015.75,1398.95 1019.46,1399.65 1023.16,1400.44 1026.87,1401.28 1030.58,1402.16 1034.29,1403.06 1038,1404 1041.7,1404.94 1045.41,1405.88 
  1049.12,1406.78 1052.83,1407.63 1056.53,1408.44 1060.24,1409.21 1063.95,1409.91 1067.66,1410.6 1071.37,1411.26 1075.07,1411.86 1078.78,1412.39 1082.49,1412.83 
  1086.2,1413.24 1089.91,1413.63 1093.61,1414.01 1097.32,1414.36 1101.03,1414.65 1104.74,1414.92 1108.45,1415.18 1112.15,1415.44 1115.86,1415.68 1119.57,1415.9 
  1123.28,1416.1 1126.99,1416.3 1130.69,1416.49 1134.4,1416.67 1138.11,1416.83 1141.82,1416.96 1145.53,1417.1 1149.23,1417.25 1152.94,1417.39 1156.65,1417.53 
  1160.36,1417.65 1164.06,1417.79 1167.77,1417.95 1171.48,1418.15 1175.19,1418.34 1178.9,1418.5 1182.6,1418.66 1186.31,1418.83 1190.02,1419.04 1193.73,1419.26 
  1197.44,1419.49 1201.14,1419.71 1204.85,1419.92 1208.56,1420.14 1212.27,1420.39 1215.98,1420.66 1219.68,1420.94 1223.39,1421.24 1227.1,1421.53 1230.81,1421.79 
  1234.52,1422.02 1238.22,1422.23 1241.93,1422.4 1245.64,1422.55 1249.35,1422.69 1253.06,1422.82 1256.76,1422.93 1260.47,1422.99 1264.18,1422.99 1267.89,1422.95 
  1271.6,1422.87 1275.3,1422.78 1279.01,1422.68 1282.72,1422.55 1286.43,1422.38 1290.13,1422.11 1293.84,1421.8 1297.55,1421.51 1301.26,1421.23 1304.97,1420.98 
  1308.67,1420.75 1312.38,1420.55 1316.09,1420.35 1319.8,1420.16 1323.51,1419.99 1327.21,1419.85 1330.92,1419.73 1334.63,1419.65 1338.34,1419.59 1342.05,1419.56 
  1345.75,1419.56 1349.46,1419.6 1353.17,1419.67 1356.88,1419.79 1360.59,1419.94 1364.29,1420.13 1368,1420.35 1371.71,1420.62 1375.42,1420.93 1379.13,1421.27 
  1382.83,1421.64 1386.54,1422.03 1390.25,1422.44 1393.96,1422.86 1397.66,1423.31 1401.37,1423.79 1405.08,1424.32 1408.79,1424.86 1412.5,1425.39 1416.2,1425.9 
  1419.91,1426.4 1423.62,1426.88 1427.33,1427.38 1431.04,1427.89 1434.74,1428.4 1438.45,1428.9 1442.16,1429.37 1445.87,1429.79 1449.58,1430.19 1453.28,1430.6 
  1456.99,1431.03 1460.7,1431.46 1464.41,1431.89 1468.12,1432.31 1471.82,1432.72 1475.53,1433.09 1479.24,1433.42 1482.95,1433.73 1486.66,1434.02 1490.36,1434.29 
  1494.07,1434.52 1497.78,1434.73 1501.49,1434.89 1505.2,1435.01 1508.9,1435.11 1512.61,1435.21 1516.32,1435.3 1520.03,1435.37 1523.73,1435.43 1527.44,1435.48 
  1531.15,1435.5 1534.86,1435.51 1538.57,1435.51 1542.27,1435.53 1545.98,1435.54 1549.69,1435.56 1553.4,1435.56 1557.11,1435.55 1560.81,1435.54 1564.52,1435.51 
  1568.23,1435.49 1571.94,1435.49 1575.65,1435.52 1579.35,1435.57 1583.06,1435.62 1586.77,1435.66 1590.48,1435.68 1594.19,1435.69 1597.89,1435.69 1601.6,1435.69 
  1605.31,1435.7 1609.02,1435.72 1612.73,1435.74 1616.43,1435.76 1620.14,1435.77 1623.85,1435.75 1627.56,1435.71 1631.26,1435.66 1634.97,1435.61 1638.68,1435.58 
  1642.39,1435.55 1646.1,1435.54 1649.8,1435.53 1653.51,1435.54 1657.22,1435.55 1660.93,1435.56 1664.64,1435.58 1668.34,1435.62 1672.05,1435.68 1675.76,1435.75 
  1679.47,1435.85 1683.18,1435.95 1686.88,1436.07 1690.59,1436.19 1694.3,1436.31 1698.01,1436.44 1701.72,1436.58 1705.42,1436.73 1709.13,1436.89 1712.84,1437.06 
  1716.55,1437.24 1720.26,1437.43 1723.96,1437.62 1727.67,1437.82 1731.38,1438.01 1735.09,1438.21 1738.8,1438.42 1742.5,1438.61 1746.21,1438.79 1749.92,1438.97 
  1753.63,1439.13 1757.33,1439.28 1761.04,1439.41 1764.75,1439.52 1768.46,1439.63 1772.17,1439.74 1775.87,1439.85 1779.58,1439.95 1783.29,1440.04 1787,1440.12 
  1790.71,1440.18 1794.41,1440.22 1798.12,1440.24 1801.83,1440.24 1805.54,1440.22 1809.25,1440.22 1812.95,1440.23 1816.66,1440.25 1820.37,1440.28 1824.08,1440.31 
  1827.79,1440.35 1831.49,1440.4 1835.2,1440.45 1838.91,1440.5 1842.62,1440.55 1846.33,1440.63 1850.03,1440.73 1853.74,1440.86 1857.45,1441 1861.16,1441.17 
  1864.86,1441.34 1868.57,1441.53 1872.28,1441.71 1875.99,1441.91 1879.7,1442.11 1883.4,1442.31 1887.11,1442.52 1890.82,1442.73 1894.53,1442.94 1898.24,1443.15 
  1901.94,1443.35 1905.65,1443.55 1909.36,1443.73 1913.07,1443.91 1916.78,1444.06 1920.48,1444.2 1924.19,1444.35 1927.9,1444.49 1931.61,1444.63 1935.32,1444.76 
  1939.02,1444.89 1942.73,1445 1946.44,1445.11 1950.15,1445.19 1953.86,1445.26 1957.56,1445.31 1961.27,1445.35 1964.98,1445.39 1968.69,1445.43 1972.4,1445.47 
  1976.1,1445.52 1979.81,1445.56 1983.52,1445.61 1987.23,1445.65 1990.93,1445.69 1994.64,1445.73 1998.35,1445.76 2002.06,1445.8 2005.77,1445.83 2009.47,1445.87 
  2013.18,1445.92 2016.89,1445.96 2020.6,1446.01 2024.31,1446.06 2028.01,1446.12 2031.72,1446.17 2035.43,1446.22 2039.14,1446.28 2042.85,1446.33 2046.55,1446.39 
  2050.26,1446.44 2053.97,1446.49 2057.68,1446.53 2061.39,1446.58 2065.09,1446.61 2068.8,1446.65 2072.51,1446.68 2076.22,1446.7 2079.93,1446.71 2083.63,1446.71 
  2087.34,1446.71 2091.05,1446.71 2094.76,1446.71 2098.46,1446.71 2102.17,1446.71 2105.88,1446.71 2109.59,1446.71 2113.3,1446.71 2117,1446.71 2120.71,1446.71 
  
  "/>
<polyline clip-path="url(#clip0802)" style="stroke:#3da44d; stroke-width:8; stroke-opacity:1; fill:none" points="
  216.13,1446.71 220.248,1446.71 224.365,1446.71 228.483,1446.71 232.601,1446.71 236.719,1446.71 240.837,1446.71 244.954,1446.71 249.072,1446.71 253.19,1446.71 
  257.308,1446.71 261.426,1446.71 265.543,1446.71 269.661,1446.71 273.779,1446.71 277.897,1446.71 282.015,1446.71 286.132,1446.71 290.25,1446.71 294.368,1446.71 
  298.486,1446.71 302.603,1446.71 306.721,1446.68 310.839,1446.58 314.957,1446.36 319.075,1446.01 323.192,1445.49 327.31,1444.79 331.428,1443.9 335.546,1442.78 
  339.664,1441.39 343.781,1439.69 347.899,1437.65 352.017,1435.25 356.135,1432.48 360.253,1429.34 364.37,1425.84 368.488,1422 372.606,1417.77 376.724,1413.11 
  380.842,1408.06 384.959,1402.67 389.077,1397 393.195,1391.07 397.313,1384.93 401.431,1378.57 405.548,1372 409.666,1365.25 413.784,1358.37 417.902,1351.4 
  422.019,1344.39 426.137,1337.41 430.255,1330.45 434.373,1323.48 438.491,1316.55 442.608,1309.72 446.726,1303.04 450.844,1296.49 454.962,1290.07 459.08,1283.84 
  463.197,1277.84 467.315,1272.12 471.433,1266.72 475.551,1261.6 479.669,1256.78 483.786,1252.26 487.904,1248.07 492.022,1244.25 496.14,1240.82 500.258,1237.8 
  504.375,1235.16 508.493,1232.89 512.611,1231.01 516.729,1229.51 520.847,1228.41 524.964,1227.69 529.082,1227.34 533.2,1227.34 537.318,1227.7 541.435,1228.35 
  545.553,1229.2 549.671,1230.19 553.789,1231.32 557.907,1232.55 562.024,1233.9 566.142,1235.32 570.26,1236.79 574.378,1238.32 578.496,1239.86 582.613,1241.38 
  586.731,1242.88 590.849,1244.36 594.967,1245.88 599.085,1247.42 603.202,1248.97 607.32,1250.49 611.438,1251.94 615.556,1253.36 619.674,1254.77 623.791,1256.22 
  627.909,1257.75 632.027,1259.3 636.145,1260.83 640.263,1262.35 644.38,1263.83 648.498,1265.24 652.616,1266.64 656.734,1268.01 660.852,1269.3 664.969,1270.54 
  669.087,1271.67 673.205,1272.61 677.323,1273.46 681.44,1274.22 685.558,1274.87 689.676,1275.42 693.794,1275.84 697.912,1276.17 702.029,1276.5 706.147,1276.84 
  710.265,1277.15 714.383,1277.37 718.501,1277.54 722.618,1277.68 726.736,1277.81 730.854,1277.98 734.972,1278.24 739.09,1278.55 743.207,1278.87 747.325,1279.22 
  751.443,1279.62 755.561,1280.05 759.679,1280.54 763.796,1281.13 767.914,1281.78 772.032,1282.46 776.15,1283.2 780.268,1284.01 784.385,1284.84 788.503,1285.69 
  792.621,1286.64 796.739,1287.72 800.856,1288.91 804.974,1290.21 809.092,1291.65 813.21,1293.25 817.328,1294.94 821.445,1296.61 825.563,1298.3 829.681,1300.06 
  833.799,1301.85 837.917,1303.64 842.034,1305.41 846.152,1307.18 850.27,1308.99 854.388,1310.83 858.506,1312.67 862.623,1314.5 866.741,1316.35 870.859,1318.18 
  874.977,1319.91 879.095,1321.56 883.212,1323.19 887.33,1324.75 891.448,1326.07 895.566,1327.02 899.684,1327.6 903.801,1327.89 907.919,1327.94 912.037,1327.68 
  916.155,1327.22 920.272,1326.62 924.39,1325.9 928.508,1325.09 932.626,1324.24 936.744,1323.37 940.861,1322.51 944.979,1321.74 949.097,1320.93 953.215,1319.98 
  957.333,1318.98 961.45,1318.01 965.568,1317.07 969.686,1316.18 973.804,1315.37 977.922,1314.65 982.039,1314 986.157,1313.49 990.275,1313.17 994.393,1313 
  998.511,1313.01 1002.63,1313.29 1006.75,1313.81 1010.86,1314.56 1014.98,1315.5 1019.1,1316.59 1023.22,1317.83 1027.34,1319.22 1031.45,1320.77 1035.57,1322.54 
  1039.69,1324.46 1043.81,1326.47 1047.92,1328.59 1052.04,1330.82 1056.16,1333.13 1060.28,1335.45 1064.4,1337.8 1068.51,1340.25 1072.63,1342.77 1076.75,1345.33 
  1080.87,1347.96 1084.98,1350.64 1089.1,1353.27 1093.22,1355.84 1097.34,1358.31 1101.46,1360.7 1105.57,1363.03 1109.69,1365.22 1113.81,1367.19 1117.93,1368.98 
  1122.04,1370.61 1126.16,1372.05 1130.28,1373.25 1134.4,1374.09 1138.52,1374.67 1142.63,1375.21 1146.75,1375.72 1150.87,1376.19 1154.99,1376.65 1159.1,1377.17 
  1163.22,1377.69 1167.34,1378.18 1171.46,1378.63 1175.58,1379.07 1179.69,1379.52 1183.81,1379.96 1187.93,1380.31 1192.05,1380.46 1196.16,1380.53 1200.28,1380.63 
  1204.4,1380.75 1208.52,1380.91 1212.64,1381.08 1216.75,1381.28 1220.87,1381.51 1224.99,1381.77 1229.11,1382.06 1233.22,1382.37 1237.34,1382.69 1241.46,1383.03 
  1245.58,1383.35 1249.7,1383.57 1253.81,1383.68 1257.93,1383.68 1262.05,1383.65 1266.17,1383.69 1270.28,1383.8 1274.4,1383.97 1278.52,1384.15 1282.64,1384.36 
  1286.76,1384.62 1290.87,1384.97 1294.99,1385.4 1299.11,1385.9 1303.23,1386.41 1307.35,1386.91 1311.46,1387.45 1315.58,1388.03 1319.7,1388.62 1323.82,1389.23 
  1327.93,1389.84 1332.05,1390.46 1336.17,1391.14 1340.29,1391.85 1344.41,1392.59 1348.52,1393.34 1352.64,1394.1 1356.76,1394.89 1360.88,1395.74 1364.99,1396.58 
  1369.11,1397.37 1373.23,1398.09 1377.35,1398.73 1381.47,1399.35 1385.58,1400.04 1389.7,1400.78 1393.82,1401.57 1397.94,1402.36 1402.05,1403.09 1406.17,1403.76 
  1410.29,1404.39 1414.41,1405 1418.53,1405.59 1422.64,1406.14 1426.76,1406.64 1430.88,1407.03 1435,1407.34 1439.11,1407.65 1443.23,1407.96 1447.35,1408.27 
  1451.47,1408.56 1455.59,1408.85 1459.7,1409.11 1463.82,1409.35 1467.94,1409.57 1472.06,1409.77 1476.17,1409.93 1480.29,1410.07 1484.41,1410.15 1488.53,1410.19 
  1492.65,1410.22 1496.76,1410.34 1500.88,1410.48 1505,1410.57 1509.12,1410.63 1513.23,1410.67 1517.35,1410.67 1521.47,1410.67 1525.59,1410.69 1529.71,1410.72 
  1533.82,1410.73 1537.94,1410.67 1542.06,1410.56 1546.18,1410.37 1550.29,1410.18 1554.41,1410.02 1558.53,1409.91 1562.65,1409.84 1566.77,1409.82 1570.88,1409.79 
  1575,1409.71 1579.12,1409.6 1583.24,1409.49 1587.36,1409.4 1591.47,1409.31 1595.59,1409.24 1599.71,1409.17 1603.83,1409.1 1607.94,1409 1612.06,1408.85 
  1616.18,1408.71 1620.3,1408.59 1624.42,1408.49 1628.53,1408.41 1632.65,1408.34 1636.77,1408.29 1640.89,1408.24 1645,1408.21 1649.12,1408.22 1653.24,1408.27 
  1657.36,1408.35 1661.48,1408.47 1665.59,1408.62 1669.71,1408.8 1673.83,1409.01 1677.95,1409.27 1682.06,1409.62 1686.18,1410.02 1690.3,1410.41 1694.42,1410.81 
  1698.54,1411.21 1702.65,1411.6 1706.77,1411.99 1710.89,1412.39 1715.01,1412.84 1719.12,1413.31 1723.24,1413.82 1727.36,1414.31 1731.48,1414.76 1735.6,1415.16 
  1739.71,1415.5 1743.83,1415.76 1747.95,1416.01 1752.07,1416.3 1756.18,1416.62 1760.3,1416.97 1764.42,1417.34 1768.54,1417.7 1772.66,1418.02 1776.77,1418.27 
  1780.89,1418.51 1785.01,1418.77 1789.13,1419.05 1793.24,1419.34 1797.36,1419.64 1801.48,1419.94 1805.6,1420.24 1809.72,1420.5 1813.83,1420.68 1817.95,1420.83 
  1822.07,1421 1826.19,1421.18 1830.3,1421.38 1834.42,1421.59 1838.54,1421.81 1842.66,1422.04 1846.78,1422.25 1850.89,1422.46 1855.01,1422.58 1859.13,1422.55 
  1863.25,1422.39 1867.37,1422.12 1871.48,1421.76 1875.6,1421.3 1879.72,1420.77 1883.84,1420.17 1887.95,1419.51 1892.07,1418.83 1896.19,1418.11 1900.31,1417.34 
  1904.43,1416.52 1908.54,1415.67 1912.66,1414.8 1916.78,1413.91 1920.9,1413 1925.01,1412.1 1929.13,1411.19 1933.25,1410.32 1937.37,1409.54 1941.49,1408.84 
  1945.6,1408.21 1949.72,1407.65 1953.84,1407.16 1957.96,1406.75 1962.07,1406.42 1966.19,1406.17 1970.31,1405.99 1974.43,1405.92 1978.55,1405.98 1982.66,1406.18 
  1986.78,1406.5 1990.9,1406.95 1995.02,1407.51 1999.13,1408.19 2003.25,1408.97 2007.37,1409.84 2011.49,1410.79 2015.61,1411.84 2019.72,1413 2023.84,1414.27 
  2027.96,1415.63 2032.08,1417.07 2036.19,1418.58 2040.31,1420.14 2044.43,1421.74 2048.55,1423.34 2052.67,1424.94 2056.78,1426.54 2060.9,1428.15 2065.02,1429.76 
  2069.14,1431.34 2073.25,1432.87 2077.37,1434.33 2081.49,1435.7 2085.61,1436.96 2089.73,1438.07 2093.84,1439.01 2097.96,1439.76 2102.08,1440.4 2106.2,1441.04 
  2110.31,1441.66 2114.43,1442.26 2118.55,1442.83 2122.67,1443.37 2126.79,1443.86 2130.9,1444.29 2135.02,1444.66 2139.14,1444.95 2143.26,1445.2 2147.37,1445.44 
  2151.49,1445.66 2155.61,1445.88 2159.73,1446.08 2163.85,1446.25 2167.96,1446.41 2172.08,1446.54 2176.2,1446.63 2180.32,1446.69 2184.44,1446.71 2188.55,1446.71 
  2192.67,1446.71 2196.79,1446.71 2200.91,1446.71 2205.02,1446.71 2209.14,1446.71 2213.26,1446.71 2217.38,1446.71 2221.5,1446.71 2225.61,1446.71 2229.73,1446.71 
  2233.85,1446.71 2237.97,1446.71 2242.08,1446.71 2246.2,1446.71 2250.32,1446.71 2254.44,1446.71 2258.56,1446.71 2262.67,1446.71 2266.79,1446.71 2270.91,1446.71 
  
  "/>
<polyline clip-path="url(#clip0802)" style="stroke:#c271d2; stroke-width:8; stroke-opacity:1; fill:none" points="
  288.169,1446.71 292.182,1446.71 296.194,1446.71 300.207,1446.71 304.22,1446.71 308.232,1446.71 312.245,1446.71 316.258,1446.71 320.271,1446.71 324.283,1446.71 
  328.296,1446.71 332.309,1446.71 336.322,1446.71 340.334,1446.71 344.347,1446.71 348.36,1446.71 352.373,1446.71 356.385,1446.71 360.398,1446.71 364.411,1446.71 
  368.424,1446.71 372.436,1446.71 376.449,1446.71 380.462,1446.71 384.474,1446.71 388.487,1446.71 392.5,1446.71 396.513,1446.71 400.525,1446.68 404.538,1446.57 
  408.551,1446.41 412.564,1446.19 416.576,1445.92 420.589,1445.62 424.602,1445.27 428.615,1444.9 432.627,1444.51 436.64,1444.1 440.653,1443.68 444.666,1443.24 
  448.678,1442.81 452.691,1442.38 456.704,1441.95 460.716,1441.49 464.729,1440.98 468.742,1440.43 472.755,1439.84 476.767,1439.23 480.78,1438.6 484.793,1437.97 
  488.806,1437.33 492.818,1436.7 496.831,1436.09 500.844,1435.5 504.857,1434.94 508.869,1434.41 512.882,1433.93 516.895,1433.48 520.907,1433.08 524.92,1432.73 
  528.933,1432.44 532.946,1432.2 536.958,1432.01 540.971,1431.89 544.984,1431.83 548.997,1431.83 553.009,1431.86 557.022,1431.87 561.035,1431.89 565.048,1431.91 
  569.06,1431.94 573.073,1431.98 577.086,1432.04 581.099,1432.12 585.111,1432.21 589.124,1432.33 593.137,1432.47 597.149,1432.62 601.162,1432.73 605.175,1432.71 
  609.188,1432.59 613.2,1432.37 617.213,1432.06 621.226,1431.67 625.239,1431.17 629.251,1430.53 633.264,1429.77 637.277,1428.89 641.29,1427.94 645.302,1426.97 
  649.315,1425.99 653.328,1425.02 657.341,1424.07 661.353,1423.14 665.366,1422.24 669.379,1421.38 673.391,1420.53 677.404,1419.67 681.417,1418.79 685.43,1417.88 
  689.442,1416.9 693.455,1415.88 697.468,1414.75 701.481,1413.49 705.493,1412.17 709.506,1410.82 713.519,1409.43 717.532,1407.98 721.544,1406.51 725.557,1405.05 
  729.57,1403.61 733.582,1402.23 737.595,1400.91 741.608,1399.67 745.621,1398.54 749.633,1397.52 753.646,1396.62 757.659,1395.82 761.672,1395.09 765.684,1394.44 
  769.697,1393.88 773.71,1393.41 777.723,1393.04 781.735,1392.77 785.748,1392.53 789.761,1392.24 793.774,1391.95 797.786,1391.72 801.799,1391.47 805.812,1391.16 
  809.824,1390.79 813.837,1390.4 817.85,1389.97 821.863,1389.47 825.875,1388.81 829.888,1388.03 833.901,1387.13 837.914,1386.12 841.926,1385.09 845.939,1384.12 
  849.952,1383.22 853.965,1382.42 857.977,1381.71 861.99,1381.09 866.003,1380.61 870.016,1380.31 874.028,1380.15 878.041,1380.1 882.054,1380.16 886.066,1380.33 
  890.079,1380.61 894.092,1380.88 898.105,1381.03 902.117,1381.08 906.13,1381.03 910.143,1380.87 914.156,1380.57 918.168,1380.11 922.181,1379.48 926.194,1378.75 
  930.207,1377.94 934.219,1377.03 938.232,1376.07 942.245,1375.16 946.258,1374.29 950.27,1373.5 954.283,1372.78 958.296,1372.16 962.308,1371.65 966.321,1371.26 
  970.334,1371 974.347,1370.88 978.359,1370.89 982.372,1371.03 986.385,1371.3 990.398,1371.69 994.41,1372.11 998.423,1372.51 1002.44,1372.93 1006.45,1373.37 
  1010.46,1373.82 1014.47,1374.26 1018.49,1374.51 1022.5,1374.38 1026.51,1373.96 1030.52,1373.35 1034.54,1372.56 1038.55,1371.61 1042.56,1370.58 1046.58,1369.55 
  1050.59,1368.56 1054.6,1367.59 1058.61,1366.67 1062.63,1365.72 1066.64,1364.7 1070.65,1363.65 1074.67,1362.6 1078.68,1361.58 1082.69,1360.6 1086.7,1359.55 
  1090.72,1358.31 1094.73,1356.91 1098.74,1355.39 1102.75,1353.77 1106.77,1352.08 1110.78,1350.31 1114.79,1348.49 1118.81,1346.64 1122.82,1344.75 1126.83,1342.84 
  1130.84,1340.91 1134.86,1339.07 1138.87,1337.32 1142.88,1335.59 1146.89,1333.88 1150.91,1332.23 1154.92,1330.72 1158.93,1329.44 1162.95,1328.41 1166.96,1327.64 
  1170.97,1327.14 1174.98,1326.93 1179,1327.06 1183.01,1327.54 1187.02,1328.34 1191.03,1329.27 1195.05,1330.21 1199.06,1331.19 1203.07,1332.25 1207.09,1333.38 
  1211.1,1334.6 1215.11,1335.88 1219.12,1337.2 1223.14,1338.5 1227.15,1339.77 1231.16,1340.98 1235.17,1342.19 1239.19,1343.45 1243.2,1344.74 1247.21,1345.99 
  1251.23,1347.13 1255.24,1348.13 1259.25,1349.15 1263.26,1350.36 1267.28,1351.74 1271.29,1353.29 1275.3,1354.86 1279.31,1356.33 1283.33,1357.7 1287.34,1358.95 
  1291.35,1360.06 1295.37,1361 1299.38,1361.74 1303.39,1362.39 1307.4,1362.99 1311.42,1363.41 1315.43,1363.66 1319.44,1363.74 1323.45,1363.63 1327.47,1363.46 
  1331.48,1363.41 1335.49,1363.39 1339.51,1363.35 1343.52,1363.29 1347.53,1363.22 1351.54,1363.15 1355.56,1363.11 1359.57,1363.13 1363.58,1363.21 1367.59,1363.34 
  1371.61,1363.5 1375.62,1363.68 1379.63,1363.97 1383.65,1364.47 1387.66,1365.18 1391.67,1366.08 1395.68,1367.15 1399.7,1368.28 1403.71,1369.33 1407.72,1370.31 
  1411.73,1371.19 1415.75,1371.98 1419.76,1372.64 1423.77,1373.16 1427.79,1373.5 1431.8,1373.72 1435.81,1373.9 1439.82,1374.07 1443.84,1374.24 1447.85,1374.42 
  1451.86,1374.61 1455.87,1374.82 1459.89,1375.09 1463.9,1375.46 1467.91,1375.89 1471.93,1376.33 1475.94,1376.8 1479.95,1377.28 1483.96,1377.76 1487.98,1378.27 
  1491.99,1378.84 1496,1379.45 1500.02,1380.08 1504.03,1380.53 1508.04,1380.63 1512.05,1380.36 1516.07,1379.86 1520.08,1379.25 1524.09,1378.55 1528.1,1377.76 
  1532.12,1376.9 1536.13,1375.93 1540.14,1374.82 1544.16,1373.57 1548.17,1372.3 1552.18,1371.12 1556.19,1370.05 1560.21,1369.09 1564.22,1368.26 1568.23,1367.54 
  1572.24,1366.88 1576.26,1366.26 1580.27,1365.78 1584.28,1365.47 1588.3,1365.32 1592.31,1365.34 1596.32,1365.55 1600.33,1365.93 1604.35,1366.49 1608.36,1367.21 
  1612.37,1368.02 1616.38,1368.83 1620.4,1369.64 1624.41,1370.44 1628.42,1371.21 1632.44,1371.94 1636.45,1372.61 1640.46,1373.31 1644.47,1374.13 1648.49,1375.04 
  1652.5,1375.98 1656.51,1376.94 1660.52,1377.92 1664.54,1378.88 1668.55,1379.82 1672.56,1380.81 1676.58,1381.97 1680.59,1383.27 1684.6,1384.72 1688.61,1386.26 
  1692.63,1387.83 1696.64,1389.42 1700.65,1391.02 1704.66,1392.6 1708.68,1394.18 1712.69,1395.77 1716.7,1397.35 1720.72,1398.9 1724.73,1400.38 1728.74,1401.48 
  1732.75,1401.9 1736.77,1401.66 1740.78,1400.78 1744.79,1399.47 1748.8,1397.94 1752.82,1396.23 1756.83,1394.39 1760.84,1392.43 1764.86,1390.39 1768.87,1388.29 
  1772.88,1385.98 1776.89,1383.33 1780.91,1380.46 1784.92,1377.4 1788.93,1374.21 1792.94,1370.92 1796.96,1367.58 1800.97,1364.21 1804.98,1360.85 1809,1357.5 
  1813.01,1354.02 1817.02,1350.29 1821.03,1346.37 1825.05,1342.34 1829.06,1338.26 1833.07,1334.18 1837.08,1330.15 1841.1,1326.22 1845.11,1322.42 1849.12,1318.79 
  1853.14,1315.43 1857.15,1312.41 1861.16,1309.73 1865.17,1307.41 1869.19,1305.5 1873.2,1303.99 1877.21,1302.92 1881.23,1302.28 1885.24,1302.07 1889.25,1302.34 
  1893.26,1303.12 1897.28,1304.4 1901.29,1306.02 1905.3,1307.84 1909.31,1309.86 1913.33,1312.08 1917.34,1314.5 1921.35,1317.09 1925.37,1319.84 1929.38,1322.75 
  1933.39,1325.84 1937.4,1329.08 1941.42,1332.42 1945.43,1334.51 1949.44,1334.16 1953.45,1331.58 1957.47,1326.94 1961.48,1320.42 1965.49,1312.16 1969.51,1302.62 
  1973.52,1292.28 1977.53,1281.3 1981.54,1269.84 1985.56,1258.04 1989.57,1246.05 1993.58,1233.96 1997.59,1221.9 2001.61,1209.94 2005.62,1198.18 2009.63,1186.66 
  2013.65,1175.64 2017.66,1165.37 2021.67,1155.93 2025.68,1147.35 2029.7,1139.69 2033.71,1132.96 2037.72,1127.19 2041.73,1122.38 2045.75,1118.52 2049.76,1115.58 
  2053.77,1113.82 2057.79,1113.49 2061.8,1114.59 2065.81,1117.12 2069.82,1121.04 2073.84,1126.33 2077.85,1132.95 2081.86,1140.84 2085.87,1149.94 2089.89,1160.17 
  2093.9,1171.46 2097.91,1183.75 2101.93,1196.97 2105.94,1211.03 2109.95,1225.8 2113.96,1241.16 2117.98,1256.97 2121.99,1273.09 2126,1289.36 2130.01,1305.61 
  2134.03,1321.67 2138.04,1337.35 2142.05,1352.6 2146.07,1367.4 2150.08,1381.57 2154.09,1394.9 2158.1,1407.2 2162.12,1418.24 2166.13,1427.82 2170.14,1435.71 
  2174.15,1441.65 2178.17,1445.4 2182.18,1446.71 2186.19,1446.71 2190.21,1446.71 2194.22,1446.71 2198.23,1446.71 2202.24,1446.71 2206.26,1446.71 2210.27,1446.71 
  2214.28,1446.71 2218.29,1446.71 2222.31,1446.71 2226.32,1446.71 2230.33,1446.71 2234.35,1446.71 2238.36,1446.71 2242.37,1446.71 2246.38,1446.71 2250.4,1446.71 
  2254.41,1446.71 2258.42,1446.71 2262.43,1446.71 2266.45,1446.71 2270.46,1446.71 2274.47,1446.71 2278.49,1446.71 2282.5,1446.71 2286.51,1446.71 2290.52,1446.71 
  
  "/>
<polygon clip-path="url(#clip0800)" points="
1989.93,433.164 2280.76,433.164 2280.76,130.764 1989.93,130.764 
  " fill="#ffffff" fill-rule="evenodd" fill-opacity="1"/>
<polyline clip-path="url(#clip0800)" style="stroke:#000000; stroke-width:4; stroke-opacity:1; fill:none" points="
  1989.93,433.164 2280.76,433.164 2280.76,130.764 1989.93,130.764 1989.93,433.164 
  "/>
<polyline clip-path="url(#clip0800)" style="stroke:#009af9; stroke-width:8; stroke-opacity:1; fill:none" points="
  2013.93,191.244 2157.93,191.244 
  "/>
<g clip-path="url(#clip0800)">
<text style="fill:#000000; fill-opacity:1; font-family:Arial,Helvetica Neue,Helvetica,sans-serif; font-size:48px; text-anchor:start;" transform="rotate(0, 2181.93, 208.744)" x="2181.93" y="208.744">y1</text>
</g>
<polyline clip-path="url(#clip0800)" style="stroke:#e26f46; stroke-width:8; stroke-opacity:1; fill:none" points="
  2013.93,251.724 2157.93,251.724 
  "/>
<g clip-path="url(#clip0800)">
<text style="fill:#000000; fill-opacity:1; font-family:Arial,Helvetica Neue,Helvetica,sans-serif; font-size:48px; text-anchor:start;" transform="rotate(0, 2181.93, 269.224)" x="2181.93" y="269.224">y3</text>
</g>
<polyline clip-path="url(#clip0800)" style="stroke:#3da44d; stroke-width:8; stroke-opacity:1; fill:none" points="
  2013.93,312.204 2157.93,312.204 
  "/>
<g clip-path="url(#clip0800)">
<text style="fill:#000000; fill-opacity:1; font-family:Arial,Helvetica Neue,Helvetica,sans-serif; font-size:48px; text-anchor:start;" transform="rotate(0, 2181.93, 329.704)" x="2181.93" y="329.704">y5</text>
</g>
<polyline clip-path="url(#clip0800)" style="stroke:#c271d2; stroke-width:8; stroke-opacity:1; fill:none" points="
  2013.93,372.684 2157.93,372.684 
  "/>
<g clip-path="url(#clip0800)">
<text style="fill:#000000; fill-opacity:1; font-family:Arial,Helvetica Neue,Helvetica,sans-serif; font-size:48px; text-anchor:start;" transform="rotate(0, 2181.93, 390.184)" x="2181.93" y="390.184">y7</text>
</g>
</svg>
