<?xml version="1.0" encoding="utf-8"?>
<svg xmlns="http://www.w3.org/2000/svg" xmlns:xlink="http://www.w3.org/1999/xlink" width="600" height="400" viewBox="0 0 2400 1600">
<defs>
  <clipPath id="clip9600">
    <rect x="0" y="0" width="2400" height="1600"/>
  </clipPath>
</defs>
<polygon clip-path="url(#clip9600)" points="
0,1600 2400,1600 2400,0 0,0 
  " fill="#ffffff" fill-rule="evenodd" fill-opacity="1"/>
<defs>
  <clipPath id="clip9601">
    <rect x="480" y="0" width="1681" height="1600"/>
  </clipPath>
</defs>
<polygon clip-path="url(#clip9600)" points="
153.898,1487.47 2352.76,1487.47 2352.76,47.2441 153.898,47.2441 
  " fill="#ffffff" fill-rule="evenodd" fill-opacity="1"/>
<defs>
  <clipPath id="clip9602">
    <rect x="153" y="47" width="2200" height="1441"/>
  </clipPath>
</defs>
<polyline clip-path="url(#clip9602)" style="stroke:#000000; stroke-width:2; stroke-opacity:0.1; fill:none" points="
  216.13,1487.47 216.13,47.2441 
  "/>
<polyline clip-path="url(#clip9602)" style="stroke:#000000; stroke-width:2; stroke-opacity:0.1; fill:none" points="
  631.009,1487.47 631.009,47.2441 
  "/>
<polyline clip-path="url(#clip9602)" style="stroke:#000000; stroke-width:2; stroke-opacity:0.1; fill:none" points="
  1045.89,1487.47 1045.89,47.2441 
  "/>
<polyline clip-path="url(#clip9602)" style="stroke:#000000; stroke-width:2; stroke-opacity:0.1; fill:none" points="
  1460.77,1487.47 1460.77,47.2441 
  "/>
<polyline clip-path="url(#clip9602)" style="stroke:#000000; stroke-width:2; stroke-opacity:0.1; fill:none" points="
  1875.65,1487.47 1875.65,47.2441 
  "/>
<polyline clip-path="url(#clip9602)" style="stroke:#000000; stroke-width:2; stroke-opacity:0.1; fill:none" points="
  2290.52,1487.47 2290.52,47.2441 
  "/>
<polyline clip-path="url(#clip9602)" style="stroke:#000000; stroke-width:2; stroke-opacity:0.1; fill:none" points="
  153.898,1285.5 2352.76,1285.5 
  "/>
<polyline clip-path="url(#clip9602)" style="stroke:#000000; stroke-width:2; stroke-opacity:0.1; fill:none" points="
  153.898,986.127 2352.76,986.127 
  "/>
<polyline clip-path="url(#clip9602)" style="stroke:#000000; stroke-width:2; stroke-opacity:0.1; fill:none" points="
  153.898,686.753 2352.76,686.753 
  "/>
<polyline clip-path="url(#clip9602)" style="stroke:#000000; stroke-width:2; stroke-opacity:0.1; fill:none" points="
  153.898,387.379 2352.76,387.379 
  "/>
<polyline clip-path="url(#clip9602)" style="stroke:#000000; stroke-width:2; stroke-opacity:0.1; fill:none" points="
  153.898,88.0053 2352.76,88.0053 
  "/>
<polyline clip-path="url(#clip9600)" style="stroke:#000000; stroke-width:4; stroke-opacity:1; fill:none" points="
  153.898,1487.47 2352.76,1487.47 
  "/>
<polyline clip-path="url(#clip9600)" style="stroke:#000000; stroke-width:4; stroke-opacity:1; fill:none" points="
  153.898,1487.47 153.898,47.2441 
  "/>
<polyline clip-path="url(#clip9600)" style="stroke:#000000; stroke-width:4; stroke-opacity:1; fill:none" points="
  216.13,1487.47 216.13,1465.87 
  "/>
<polyline clip-path="url(#clip9600)" style="stroke:#000000; stroke-width:4; stroke-opacity:1; fill:none" points="
  631.009,1487.47 631.009,1465.87 
  "/>
<polyline clip-path="url(#clip9600)" style="stroke:#000000; stroke-width:4; stroke-opacity:1; fill:none" points="
  1045.89,1487.47 1045.89,1465.87 
  "/>
<polyline clip-path="url(#clip9600)" style="stroke:#000000; stroke-width:4; stroke-opacity:1; fill:none" points="
  1460.77,1487.47 1460.77,1465.87 
  "/>
<polyline clip-path="url(#clip9600)" style="stroke:#000000; stroke-width:4; stroke-opacity:1; fill:none" points="
  1875.65,1487.47 1875.65,1465.87 
  "/>
<polyline clip-path="url(#clip9600)" style="stroke:#000000; stroke-width:4; stroke-opacity:1; fill:none" points="
  2290.52,1487.47 2290.52,1465.87 
  "/>
<polyline clip-path="url(#clip9600)" style="stroke:#000000; stroke-width:4; stroke-opacity:1; fill:none" points="
  153.898,1285.5 186.881,1285.5 
  "/>
<polyline clip-path="url(#clip9600)" style="stroke:#000000; stroke-width:4; stroke-opacity:1; fill:none" points="
  153.898,986.127 186.881,986.127 
  "/>
<polyline clip-path="url(#clip9600)" style="stroke:#000000; stroke-width:4; stroke-opacity:1; fill:none" points="
  153.898,686.753 186.881,686.753 
  "/>
<polyline clip-path="url(#clip9600)" style="stroke:#000000; stroke-width:4; stroke-opacity:1; fill:none" points="
  153.898,387.379 186.881,387.379 
  "/>
<polyline clip-path="url(#clip9600)" style="stroke:#000000; stroke-width:4; stroke-opacity:1; fill:none" points="
  153.898,88.0053 186.881,88.0053 
  "/>
<g clip-path="url(#clip9600)">
<text style="fill:#000000; fill-opacity:1; font-family:Arial,Helvetica Neue,Helvetica,sans-serif; font-size:48px; text-anchor:middle;" transform="rotate(0, 216.13, 1541.47)" x="216.13" y="1541.47">0</text>
</g>
<g clip-path="url(#clip9600)">
<text style="fill:#000000; fill-opacity:1; font-family:Arial,Helvetica Neue,Helvetica,sans-serif; font-size:48px; text-anchor:middle;" transform="rotate(0, 631.009, 1541.47)" x="631.009" y="1541.47">5</text>
</g>
<g clip-path="url(#clip9600)">
<text style="fill:#000000; fill-opacity:1; font-family:Arial,Helvetica Neue,Helvetica,sans-serif; font-size:48px; text-anchor:middle;" transform="rotate(0, 1045.89, 1541.47)" x="1045.89" y="1541.47">10</text>
</g>
<g clip-path="url(#clip9600)">
<text style="fill:#000000; fill-opacity:1; font-family:Arial,Helvetica Neue,Helvetica,sans-serif; font-size:48px; text-anchor:middle;" transform="rotate(0, 1460.77, 1541.47)" x="1460.77" y="1541.47">15</text>
</g>
<g clip-path="url(#clip9600)">
<text style="fill:#000000; fill-opacity:1; font-family:Arial,Helvetica Neue,Helvetica,sans-serif; font-size:48px; text-anchor:middle;" transform="rotate(0, 1875.65, 1541.47)" x="1875.65" y="1541.47">20</text>
</g>
<g clip-path="url(#clip9600)">
<text style="fill:#000000; fill-opacity:1; font-family:Arial,Helvetica Neue,Helvetica,sans-serif; font-size:48px; text-anchor:middle;" transform="rotate(0, 2290.52, 1541.47)" x="2290.52" y="1541.47">25</text>
</g>
<g clip-path="url(#clip9600)">
<text style="fill:#000000; fill-opacity:1; font-family:Arial,Helvetica Neue,Helvetica,sans-serif; font-size:48px; text-anchor:end;" transform="rotate(0, 129.898, 1303)" x="129.898" y="1303">0.2</text>
</g>
<g clip-path="url(#clip9600)">
<text style="fill:#000000; fill-opacity:1; font-family:Arial,Helvetica Neue,Helvetica,sans-serif; font-size:48px; text-anchor:end;" transform="rotate(0, 129.898, 1003.63)" x="129.898" y="1003.63">0.4</text>
</g>
<g clip-path="url(#clip9600)">
<text style="fill:#000000; fill-opacity:1; font-family:Arial,Helvetica Neue,Helvetica,sans-serif; font-size:48px; text-anchor:end;" transform="rotate(0, 129.898, 704.253)" x="129.898" y="704.253">0.6</text>
</g>
<g clip-path="url(#clip9600)">
<text style="fill:#000000; fill-opacity:1; font-family:Arial,Helvetica Neue,Helvetica,sans-serif; font-size:48px; text-anchor:end;" transform="rotate(0, 129.898, 404.879)" x="129.898" y="404.879">0.8</text>
</g>
<g clip-path="url(#clip9600)">
<text style="fill:#000000; fill-opacity:1; font-family:Arial,Helvetica Neue,Helvetica,sans-serif; font-size:48px; text-anchor:end;" transform="rotate(0, 129.898, 105.505)" x="129.898" y="105.505">1.0</text>
</g>
<polyline clip-path="url(#clip9602)" style="stroke:#009af9; stroke-width:4; stroke-opacity:1; fill:none" points="
  216.13,1446.71 216.13,1446.71 216.13,1446.71 216.13,1446.71 216.13,1446.71 216.13,1446.71 216.13,1446.71 216.13,1446.71 216.13,1446.71 216.13,1446.71 
  216.13,1446.71 216.13,1446.71 216.13,1446.71 216.13,1446.71 216.13,1446.71 216.13,1446.71 216.13,1446.71 216.13,1446.71 216.13,1446.71 216.13,1446.71 
  216.13,1446.71 216.13,1446.71 216.13,1446.71 216.13,1446.71 216.13,1446.71 216.13,1446.71 216.13,1446.71 216.13,1446.71 216.13,1446.71 216.131,1446.71 
  216.131,1446.71 216.131,1446.71 216.131,1446.71 216.132,1446.71 216.132,1446.71 216.132,1446.71 216.133,1446.71 216.134,1446.71 216.134,1446.71 216.135,1446.71 
  216.136,1446.71 216.138,1446.71 216.139,1446.71 216.141,1446.71 216.143,1445.52 216.145,1445.52 216.147,1445.52 216.15,1445.52 216.153,1445.52 216.156,1445.52 
  216.16,1445.52 216.165,1445.52 216.17,1445.52 216.175,1445.52 216.182,1445.52 216.189,1445.52 216.196,1445.52 216.205,1445.52 216.214,1445.52 216.225,1445.52 
  216.237,1445.52 216.249,1445.52 216.264,1444.77 216.279,1444.77 216.296,1444.02 216.315,1443.87 216.336,1443.87 216.358,1443.87 216.383,1443.72 216.41,1443.57 
  216.439,1443.57 216.471,1442.97 216.505,1442.97 216.543,1442.52 216.583,1442.52 216.628,1441.62 216.675,1441.18 216.727,1440.88 216.782,1440.58 216.843,1440.13 
  216.907,1440.13 216.977,1439.38 217.052,1438.93 217.133,1438.78 217.219,1438.48 217.312,1435.34 217.412,1433.39 217.519,1430.85 217.633,1430.85 217.755,1429.35 
  217.886,1429.35 218.026,1429.35 218.175,1428.9 218.334,1428.75 218.503,1427.4 218.684,1426.36 218.876,1425.76 219.08,1425.16 219.298,1424.11 219.528,1423.66 
  219.774,1419.62 220.034,1418.12 220.31,1417.08 220.602,1415.73 220.912,1415.43 221.24,1414.23 221.587,1413.93 221.955,1411.24 222.343,1410.34 222.753,1410.04 
  223.186,1408.54 223.643,1393.42 224.126,1391.18 224.634,1387.59 225.17,1385.04 225.735,1384.59 226.33,1383.55 226.956,1381.15 227.615,1379.95 228.308,1377.41 
  229.036,1373.97 229.802,1372.17 230.606,1359 231.45,1354.21 232.336,1354.06 233.266,1350.32 234.241,1349.27 235.263,1344.93 236.334,1334.75 237.456,1330.26 
  238.631,1327.41 239.861,1323.37 241.149,1314.09 242.496,1312.59 243.904,1308.1 245.377,1300.32 246.916,1296.73 248.524,1294.18 250.203,1284.6 251.957,1280.41 
  253.787,1272.78 255.696,1267.39 257.689,1259.46 259.766,1250.77 261.932,1241.94 264.19,1236.7 266.542,1228.32 268.992,1221.43 271.543,1215.75 274.2,1210.06 
  276.964,1203.47 279.841,1188.2 282.834,1182.37 285.946,1177.28 289.182,1172.49 292.546,1166.95 296.041,1161.86 299.673,1152.88 303.445,1143.15 307.363,1134.47 
  311.43,1120.7 315.651,1112.16 320.032,1103.48 324.577,1097.04 329.291,1089.86 334.18,1081.78 339.249,1073.69 344.504,1062.17 349.949,1055.28 355.591,1046 
  361.436,1035.97 367.49,1027.44 373.758,1019.36 380.248,1005.14 386.965,994.06 393.917,986.576 401.11,978.044 408.55,962.327 416.246,952.597 424.204,941.221 
  432.432,936.431 440.937,922.809 449.728,911.134 458.811,898.261 468.195,884.19 477.889,873.113 487.9,864.581 498.238,848.714 508.911,833.895 519.929,822.818 
  531.3,807.55 543.034,792.133 555.14,777.763 567.628,763.842 580.509,750.819 593.792,736.299 607.488,722.378 621.608,708.009 636.162,696.034 651.162,676.724 
  666.618,662.803 682.543,647.984 698.948,634.512 715.845,619.095 733.246,608.766 751.164,593.947 769.612,578.23 788.602,564.159 808.148,552.783 828.264,541.706 
  848.962,528.534 870.257,511.769 892.164,497.399 914.696,482.58 937.869,466.414 961.698,435.728 986.198,425.25 1011.39,413.275 1037.28,398.905 1063.88,388.427 
  1091.23,378.697 1119.33,363.429 1148.19,355.047 1177.85,345.766 1208.31,330.798 1239.59,318.673 1271.71,303.554 1304.7,295.92 1338.56,284.844 1373.32,276.012 
  1409.01,262.241 1445.63,253.709 1483.21,242.482 1521.77,234.998 1561.33,224.22 1601.91,216.886 1643.54,207.156 1686.24,201.318 1730.03,190.99 1774.93,181.56 
  1820.97,173.626 1868.16,164.196 1916.55,155.065 1966.14,145.635 2016.96,139.049 2069.05,131.864 2122.42,125.277 2177.11,111.656 2233.13,105.07 2290.52,88.0053 
  
  "/>
<polygon clip-path="url(#clip9600)" points="
1989.93,251.724 2280.76,251.724 2280.76,130.764 1989.93,130.764 
  " fill="#ffffff" fill-rule="evenodd" fill-opacity="1"/>
<polyline clip-path="url(#clip9600)" style="stroke:#000000; stroke-width:4; stroke-opacity:1; fill:none" points="
  1989.93,251.724 2280.76,251.724 2280.76,130.764 1989.93,130.764 1989.93,251.724 
  "/>
<polyline clip-path="url(#clip9600)" style="stroke:#009af9; stroke-width:4; stroke-opacity:1; fill:none" points="
  2013.93,191.244 2157.93,191.244 
  "/>
<g clip-path="url(#clip9600)">
<text style="fill:#000000; fill-opacity:1; font-family:Arial,Helvetica Neue,Helvetica,sans-serif; font-size:48px; text-anchor:start;" transform="rotate(0, 2181.93, 208.744)" x="2181.93" y="208.744">y1</text>
</g>
</svg>
