<?xml version="1.0" encoding="utf-8"?>
<svg xmlns="http://www.w3.org/2000/svg" xmlns:xlink="http://www.w3.org/1999/xlink" width="600" height="400" viewBox="0 0 2400 1600">
<defs>
  <clipPath id="clip0000">
    <rect x="0" y="0" width="2400" height="1600"/>
  </clipPath>
</defs>
<polygon clip-path="url(#clip0000)" points="
0,1600 2400,1600 2400,0 0,0 
  " fill="#ffffff" fill-rule="evenodd" fill-opacity="1"/>
<defs>
  <clipPath id="clip0001">
    <rect x="480" y="0" width="1681" height="1600"/>
  </clipPath>
</defs>
<polygon clip-path="url(#clip0000)" points="
180.66,1487.47 2352.76,1487.47 2352.76,47.2441 180.66,47.2441 
  " fill="#ffffff" fill-rule="evenodd" fill-opacity="1"/>
<defs>
  <clipPath id="clip0002">
    <rect x="180" y="47" width="2173" height="1441"/>
  </clipPath>
</defs>
<polyline clip-path="url(#clip0002)" style="stroke:#000000; stroke-width:2; stroke-opacity:0.1; fill:none" points="
  450.331,1487.47 450.331,47.2441 
  "/>
<polyline clip-path="url(#clip0002)" style="stroke:#000000; stroke-width:2; stroke-opacity:0.1; fill:none" points="
  776.882,1487.47 776.882,47.2441 
  "/>
<polyline clip-path="url(#clip0002)" style="stroke:#000000; stroke-width:2; stroke-opacity:0.1; fill:none" points="
  1103.43,1487.47 1103.43,47.2441 
  "/>
<polyline clip-path="url(#clip0002)" style="stroke:#000000; stroke-width:2; stroke-opacity:0.1; fill:none" points="
  1429.98,1487.47 1429.98,47.2441 
  "/>
<polyline clip-path="url(#clip0002)" style="stroke:#000000; stroke-width:2; stroke-opacity:0.1; fill:none" points="
  1756.53,1487.47 1756.53,47.2441 
  "/>
<polyline clip-path="url(#clip0002)" style="stroke:#000000; stroke-width:2; stroke-opacity:0.1; fill:none" points="
  2083.09,1487.47 2083.09,47.2441 
  "/>
<polyline clip-path="url(#clip0002)" style="stroke:#000000; stroke-width:2; stroke-opacity:0.1; fill:none" points="
  180.66,1446.71 2352.76,1446.71 
  "/>
<polyline clip-path="url(#clip0002)" style="stroke:#000000; stroke-width:2; stroke-opacity:0.1; fill:none" points="
  180.66,1108.75 2352.76,1108.75 
  "/>
<polyline clip-path="url(#clip0002)" style="stroke:#000000; stroke-width:2; stroke-opacity:0.1; fill:none" points="
  180.66,770.794 2352.76,770.794 
  "/>
<polyline clip-path="url(#clip0002)" style="stroke:#000000; stroke-width:2; stroke-opacity:0.1; fill:none" points="
  180.66,432.834 2352.76,432.834 
  "/>
<polyline clip-path="url(#clip0002)" style="stroke:#000000; stroke-width:2; stroke-opacity:0.1; fill:none" points="
  180.66,94.8746 2352.76,94.8746 
  "/>
<polyline clip-path="url(#clip0000)" style="stroke:#000000; stroke-width:4; stroke-opacity:1; fill:none" points="
  180.66,1487.47 2352.76,1487.47 
  "/>
<polyline clip-path="url(#clip0000)" style="stroke:#000000; stroke-width:4; stroke-opacity:1; fill:none" points="
  180.66,1487.47 180.66,47.2441 
  "/>
<polyline clip-path="url(#clip0000)" style="stroke:#000000; stroke-width:4; stroke-opacity:1; fill:none" points="
  450.331,1487.47 450.331,1465.87 
  "/>
<polyline clip-path="url(#clip0000)" style="stroke:#000000; stroke-width:4; stroke-opacity:1; fill:none" points="
  776.882,1487.47 776.882,1465.87 
  "/>
<polyline clip-path="url(#clip0000)" style="stroke:#000000; stroke-width:4; stroke-opacity:1; fill:none" points="
  1103.43,1487.47 1103.43,1465.87 
  "/>
<polyline clip-path="url(#clip0000)" style="stroke:#000000; stroke-width:4; stroke-opacity:1; fill:none" points="
  1429.98,1487.47 1429.98,1465.87 
  "/>
<polyline clip-path="url(#clip0000)" style="stroke:#000000; stroke-width:4; stroke-opacity:1; fill:none" points="
  1756.53,1487.47 1756.53,1465.87 
  "/>
<polyline clip-path="url(#clip0000)" style="stroke:#000000; stroke-width:4; stroke-opacity:1; fill:none" points="
  2083.09,1487.47 2083.09,1465.87 
  "/>
<polyline clip-path="url(#clip0000)" style="stroke:#000000; stroke-width:4; stroke-opacity:1; fill:none" points="
  180.66,1446.71 213.242,1446.71 
  "/>
<polyline clip-path="url(#clip0000)" style="stroke:#000000; stroke-width:4; stroke-opacity:1; fill:none" points="
  180.66,1108.75 213.242,1108.75 
  "/>
<polyline clip-path="url(#clip0000)" style="stroke:#000000; stroke-width:4; stroke-opacity:1; fill:none" points="
  180.66,770.794 213.242,770.794 
  "/>
<polyline clip-path="url(#clip0000)" style="stroke:#000000; stroke-width:4; stroke-opacity:1; fill:none" points="
  180.66,432.834 213.242,432.834 
  "/>
<polyline clip-path="url(#clip0000)" style="stroke:#000000; stroke-width:4; stroke-opacity:1; fill:none" points="
  180.66,94.8746 213.242,94.8746 
  "/>
<g clip-path="url(#clip0000)">
<text style="fill:#000000; fill-opacity:1; font-family:Arial,Helvetica Neue,Helvetica,sans-serif; font-size:48px; text-anchor:middle;" transform="rotate(0, 450.331, 1541.47)" x="450.331" y="1541.47">0</text>
</g>
<g clip-path="url(#clip0000)">
<text style="fill:#000000; fill-opacity:1; font-family:Arial,Helvetica Neue,Helvetica,sans-serif; font-size:48px; text-anchor:middle;" transform="rotate(0, 776.882, 1541.47)" x="776.882" y="1541.47">5</text>
</g>
<g clip-path="url(#clip0000)">
<text style="fill:#000000; fill-opacity:1; font-family:Arial,Helvetica Neue,Helvetica,sans-serif; font-size:48px; text-anchor:middle;" transform="rotate(0, 1103.43, 1541.47)" x="1103.43" y="1541.47">10</text>
</g>
<g clip-path="url(#clip0000)">
<text style="fill:#000000; fill-opacity:1; font-family:Arial,Helvetica Neue,Helvetica,sans-serif; font-size:48px; text-anchor:middle;" transform="rotate(0, 1429.98, 1541.47)" x="1429.98" y="1541.47">15</text>
</g>
<g clip-path="url(#clip0000)">
<text style="fill:#000000; fill-opacity:1; font-family:Arial,Helvetica Neue,Helvetica,sans-serif; font-size:48px; text-anchor:middle;" transform="rotate(0, 1756.53, 1541.47)" x="1756.53" y="1541.47">20</text>
</g>
<g clip-path="url(#clip0000)">
<text style="fill:#000000; fill-opacity:1; font-family:Arial,Helvetica Neue,Helvetica,sans-serif; font-size:48px; text-anchor:middle;" transform="rotate(0, 2083.09, 1541.47)" x="2083.09" y="1541.47">25</text>
</g>
<g clip-path="url(#clip0000)">
<text style="fill:#000000; fill-opacity:1; font-family:Arial,Helvetica Neue,Helvetica,sans-serif; font-size:48px; text-anchor:end;" transform="rotate(0, 156.66, 1464.21)" x="156.66" y="1464.21">0.00</text>
</g>
<g clip-path="url(#clip0000)">
<text style="fill:#000000; fill-opacity:1; font-family:Arial,Helvetica Neue,Helvetica,sans-serif; font-size:48px; text-anchor:end;" transform="rotate(0, 156.66, 1126.25)" x="156.66" y="1126.25">0.05</text>
</g>
<g clip-path="url(#clip0000)">
<text style="fill:#000000; fill-opacity:1; font-family:Arial,Helvetica Neue,Helvetica,sans-serif; font-size:48px; text-anchor:end;" transform="rotate(0, 156.66, 788.294)" x="156.66" y="788.294">0.10</text>
</g>
<g clip-path="url(#clip0000)">
<text style="fill:#000000; fill-opacity:1; font-family:Arial,Helvetica Neue,Helvetica,sans-serif; font-size:48px; text-anchor:end;" transform="rotate(0, 156.66, 450.334)" x="156.66" y="450.334">0.15</text>
</g>
<g clip-path="url(#clip0000)">
<text style="fill:#000000; fill-opacity:1; font-family:Arial,Helvetica Neue,Helvetica,sans-serif; font-size:48px; text-anchor:end;" transform="rotate(0, 156.66, 112.375)" x="156.66" y="112.375">0.20</text>
</g>
<polyline clip-path="url(#clip0002)" style="stroke:#009af9; stroke-width:8; stroke-opacity:1; fill:none" points="
  242.135,1446.71 246.241,1446.71 250.348,1446.71 254.454,1446.71 258.561,1446.71 262.667,1446.71 266.774,1446.71 270.88,1446.71 274.987,1446.71 279.093,1446.71 
  283.2,1446.71 287.306,1446.71 291.413,1446.71 295.519,1446.71 299.626,1446.71 303.732,1446.71 307.839,1446.71 311.945,1446.71 316.052,1446.71 320.158,1446.71 
  324.265,1446.71 328.371,1446.71 332.478,1446.71 336.584,1446.71 340.691,1446.71 344.797,1446.71 348.904,1446.71 353.01,1446.71 357.117,1446.71 361.223,1446.71 
  365.33,1446.71 369.436,1446.71 373.543,1441.37 377.649,1425.31 381.756,1398.38 385.862,1361.38 389.969,1315.04 394.075,1259.99 398.182,1197.3 402.288,1128.12 
  406.395,1053.48 410.501,974.449 414.608,892.449 418.715,808.942 422.821,724.946 426.928,641.664 431.034,560.57 435.141,483.017 439.247,410.104 443.354,342.76 
  447.46,281.898 451.567,228.273 455.673,182.468 459.78,145.059 463.886,116.643 467.993,97.5849 472.099,88.036 476.206,88.0053 480.312,97.3219 484.419,115.914 
  488.525,143.48 492.632,179.304 496.738,222.517 500.845,271.72 504.951,325.349 509.058,382.19 513.164,440.714 517.271,498.908 521.377,554.856 525.484,606.136 
  529.59,649.754 533.697,683.003 537.803,708.9 541.91,732.346 546.016,754.171 550.123,774.204 554.229,792.001 558.336,807.977 562.442,822.331 566.549,835.244 
  570.655,846.956 574.762,857.838 578.868,867.896 582.975,877.073 587.081,885.736 591.188,894.15 595.294,902.084 599.401,909.356 603.507,916.013 607.614,922.231 
  611.72,927.849 615.827,932.833 619.933,937.407 624.04,941.739 628.146,945.714 632.253,949.325 636.359,953.065 640.466,956.942 644.572,961.011 648.679,964.975 
  652.785,968.523 656.892,972.02 660.998,975.317 665.105,978.65 669.211,982.285 673.318,985.977 677.424,989.903 681.531,993.985 685.637,997.855 689.744,1001.44 
  693.85,1005.12 697.957,1009.16 702.063,1013.14 706.17,1016.92 710.276,1020.6 714.383,1023.96 718.489,1027.32 722.596,1031.06 726.702,1034.89 730.809,1038.56 
  734.916,1042.37 739.022,1046.19 743.129,1049.89 747.235,1053.76 751.342,1057.43 755.448,1060.59 759.555,1063.61 763.661,1066.38 767.768,1068.73 771.874,1070.87 
  775.981,1073.23 780.087,1075.77 784.194,1078.33 788.3,1081.19 792.407,1084.28 796.513,1087.62 800.62,1091.09 804.726,1094.94 808.833,1098.93 812.939,1102.95 
  817.046,1107.39 821.152,1111.66 825.259,1115.59 829.365,1119.48 833.472,1123.64 837.578,1127.88 841.685,1131.62 845.791,1135.2 849.898,1138.98 854.004,1142.75 
  858.111,1146.38 862.217,1149.75 866.324,1153.21 870.43,1156.84 874.537,1160.17 878.643,1163.56 882.75,1167.37 886.856,1170.88 890.963,1173.92 895.069,1176.95 
  899.176,1179.88 903.282,1182.52 907.389,1184.81 911.495,1186.66 915.602,1188.53 919.708,1190.9 923.815,1193.17 927.921,1195.25 932.028,1197.55 936.134,1200.02 
  940.241,1202.04 944.347,1203.5 948.454,1204.88 952.56,1206.12 956.667,1207.55 960.773,1208.5 964.88,1208.03 968.986,1206.25 973.093,1203.72 977.199,1200.63 
  981.306,1196.71 985.412,1192.5 989.519,1188.59 993.625,1185.03 997.732,1181.52 1001.84,1178.25 1005.94,1175.76 1010.05,1174.07 1014.16,1173.13 1018.26,1172.7 
  1022.37,1172.72 1026.48,1173.24 1030.58,1174.22 1034.69,1175.91 1038.8,1178.26 1042.9,1180.88 1047.01,1183.66 1051.12,1187.04 1055.22,1191.47 1059.33,1196.58 
  1063.44,1201.97 1067.54,1207.91 1071.65,1214.72 1075.76,1222.23 1079.86,1230.21 1083.97,1237.88 1088.08,1245.01 1092.18,1251.96 1096.29,1258.57 1100.39,1264.58 
  1104.5,1270.01 1108.61,1274.93 1112.71,1279.17 1116.82,1282.52 1120.93,1284.69 1125.03,1286.46 1129.14,1288.37 1133.25,1290.01 1137.35,1291.34 1141.46,1292.69 
  1145.57,1294.44 1149.67,1296.54 1153.78,1298.46 1157.89,1299.72 1161.99,1300.61 1166.1,1301.41 1170.21,1302.09 1174.31,1302.58 1178.42,1302.44 1182.52,1301.88 
  1186.63,1301.54 1190.74,1301.44 1194.84,1301.56 1198.95,1301.85 1203.06,1302.1 1207.16,1302.2 1211.27,1302.24 1215.38,1302.26 1219.48,1302.23 1223.59,1302.41 
  1227.7,1302.79 1231.8,1303.16 1235.91,1303.49 1240.02,1303.73 1244.12,1303.79 1248.23,1304.08 1252.34,1305.07 1256.44,1306.23 1260.55,1307.08 1264.65,1307.63 
  1268.76,1308.18 1272.87,1309.02 1276.97,1310.14 1281.08,1311.21 1285.19,1311.94 1289.29,1312.29 1293.4,1312.61 1297.51,1313.29 1301.61,1314.32 1305.72,1315.61 
  1309.83,1316.65 1313.93,1316.94 1318.04,1316.94 1322.15,1317.13 1326.25,1317.55 1330.36,1318.18 1334.47,1318.97 1338.57,1319.59 1342.68,1320.06 1346.78,1320.71 
  1350.89,1321.51 1355,1322.43 1359.1,1323.38 1363.21,1324.24 1367.32,1325.38 1371.42,1326.9 1375.53,1328.44 1379.64,1330.03 1383.74,1331.64 1387.85,1333.25 
  1391.96,1335.02 1396.06,1337.17 1400.17,1339.41 1404.28,1341.46 1408.38,1343.27 1412.49,1344.76 1416.6,1345.8 1420.7,1346.8 1424.81,1348.22 1428.92,1350.03 
  1433.02,1351.82 1437.13,1353.25 1441.23,1354.28 1445.34,1355.18 1449.45,1356.21 1453.55,1357.37 1457.66,1358.6 1461.77,1359.6 1465.87,1360.08 1469.98,1359.99 
  1474.09,1359.73 1478.19,1359.77 1482.3,1360.1 1486.41,1360.72 1490.51,1361.59 1494.62,1362.4 1498.73,1362.85 1502.83,1363.19 1506.94,1363.72 1511.05,1364.43 
  1515.15,1365.32 1519.26,1366.33 1523.36,1367.42 1527.47,1368.27 1531.58,1368.59 1535.68,1368.73 1539.79,1369.06 1543.9,1369.61 1548,1370.35 1552.11,1371.27 
  1556.22,1372.32 1560.32,1373.42 1564.43,1374.34 1568.54,1374.95 1572.64,1375.33 1576.75,1375.51 1580.86,1375.52 1584.96,1375.35 1589.07,1374.96 1593.18,1374.32 
  1597.28,1373.41 1601.39,1372.31 1605.49,1371.12 1609.6,1369.88 1613.71,1368.63 1617.81,1367.37 1621.92,1366.1 1626.03,1365.04 1630.13,1364.44 1634.24,1364.01 
  1638.35,1363.47 1642.45,1362.88 1646.56,1362.28 1650.67,1361.65 1654.77,1361 1658.88,1360.55 1662.99,1360.6 1667.09,1361.14 1671.2,1361.87 1675.31,1362.55 
  1679.41,1363.19 1683.52,1363.78 1687.63,1364.31 1691.73,1364.97 1695.84,1366.01 1699.94,1367.38 1704.05,1369.07 1708.16,1371 1712.26,1372.88 1716.37,1374.42 
  1720.48,1375.57 1724.58,1376.25 1728.69,1376.8 1732.8,1377.61 1736.9,1378.68 1741.01,1379.98 1745.12,1381.45 1749.22,1382.79 1753.33,1383.72 1757.44,1384.22 
  1761.54,1384.56 1765.65,1385.05 1769.76,1385.71 1773.86,1386.53 1777.97,1387.47 1782.07,1388.49 1786.18,1389.54 1790.29,1390.25 1794.39,1390.29 1798.5,1389.97 
  1802.61,1389.66 1806.71,1389.39 1810.82,1389.19 1814.93,1389.05 1819.03,1388.98 1823.14,1388.94 1827.25,1388.89 1831.35,1388.58 1835.46,1388.08 1839.57,1387.72 
  1843.67,1387.53 1847.78,1387.54 1851.89,1387.75 1855.99,1388.15 1860.1,1388.73 1864.2,1389.44 1868.31,1390.24 1872.42,1390.83 1876.52,1391.21 1880.63,1391.64 
  1884.74,1392.14 1888.84,1392.72 1892.95,1393.39 1897.06,1394.12 1901.16,1394.87 1905.27,1395.59 1909.38,1396.23 1913.48,1396.96 1917.59,1397.59 1921.7,1397.74 
  1925.8,1397.49 1929.91,1396.93 1934.02,1396.09 1938.12,1395.01 1942.23,1393.71 1946.33,1392.17 1950.44,1390.38 1954.55,1388.62 1958.65,1387.01 1962.76,1385.4 
  1966.87,1383.87 1970.97,1382.47 1975.08,1381.25 1979.19,1380.22 1983.29,1379.38 1987.4,1378.74 1991.51,1378.27 1995.61,1378.12 1999.72,1378.49 2003.83,1378.82 
  2007.93,1378.61 2012.04,1378.01 2016.15,1377.1 2020.25,1375.98 2024.36,1374.69 2028.47,1373.29 2032.57,1371.77 2036.68,1370.39 2040.78,1369.39 2044.89,1368.8 
  2049,1368.62 2053.1,1368.83 2057.21,1369.4 2061.32,1370.28 2065.42,1371.39 2069.53,1372.64 2073.64,1373.91 2077.74,1375.08 2081.85,1376.47 2085.96,1378.47 
  2090.06,1381.04 2094.17,1384.13 2098.28,1387.67 2102.38,1391.58 2106.49,1395.77 2110.6,1400.13 2114.7,1404.55 2118.81,1408.9 2122.91,1413.27 2127.02,1417.79 
  2131.13,1422.36 2135.23,1426.88 2139.34,1431.25 2143.45,1435.33 2147.55,1439.01 2151.66,1442.13 2155.77,1444.57 2159.87,1446.15 2163.98,1446.71 2168.09,1446.71 
  2172.19,1446.71 2176.3,1446.71 2180.41,1446.71 2184.51,1446.71 2188.62,1446.71 2192.73,1446.71 2196.83,1446.71 2200.94,1446.71 2205.04,1446.71 2209.15,1446.71 
  2213.26,1446.71 2217.36,1446.71 2221.47,1446.71 2225.58,1446.71 2229.68,1446.71 2233.79,1446.71 2237.9,1446.71 2242,1446.71 2246.11,1446.71 2250.22,1446.71 
  2254.32,1446.71 2258.43,1446.71 2262.54,1446.71 2266.64,1446.71 2270.75,1446.71 2274.86,1446.71 2278.96,1446.71 2283.07,1446.71 2287.17,1446.71 2291.28,1446.71 
  
  "/>
<polygon clip-path="url(#clip0000)" points="
1783.96,251.724 2280.76,251.724 2280.76,130.764 1783.96,130.764 
  " fill="#ffffff" fill-rule="evenodd" fill-opacity="1"/>
<polyline clip-path="url(#clip0000)" style="stroke:#000000; stroke-width:4; stroke-opacity:1; fill:none" points="
  1783.96,251.724 2280.76,251.724 2280.76,130.764 1783.96,130.764 1783.96,251.724 
  "/>
<polyline clip-path="url(#clip0000)" style="stroke:#009af9; stroke-width:8; stroke-opacity:1; fill:none" points="
  1807.96,191.244 1951.96,191.244 
  "/>
<g clip-path="url(#clip0000)">
<text style="fill:#000000; fill-opacity:1; font-family:Arial,Helvetica Neue,Helvetica,sans-serif; font-size:48px; text-anchor:start;" transform="rotate(0, 1975.96, 208.744)" x="1975.96" y="208.744">Ash Density</text>
</g>
</svg>
